<svg xmlns="http://www.w3.org/2000/svg" width="460" height="355" viewBox="0 0 460 355">
    <g fill="none" fill-rule="evenodd">
        <g>
            <g>
                <g fill="#F39A9C">
                    <path d="M0 0H459.002V344.301H0z" transform="translate(-734 -1277) translate(734 1277)"/>
                    <path d="M166.735 348.365c-.211.055-.458-.032-.693-.057l.008-.36c.397-.07.794-.145 1.19-.218.043.083.082.168.125.251-.208.134-.401.325-.63.384m5.022-8.187c-2.48.142-4.96.24-7.442.347-5.465.235-10.936.54-16.4.674-4.572.11-9.144.098-13.71-.011-7.36-.174-14.706-.44-22.093-.214-6.674.209-13.348.225-20.017.24-5.718.01-11.434-.016-17.138-.187-4.945-.148-9.87-.519-14.804-.804-.527-.032-1.042-.163-1.563-.249l.059-.364c.842.028 1.682.07 2.525.087.824.014 1.654-.029 2.477.006 5.954.234 11.901.598 17.863.691 5.01.078 10.038-.167 15.056-.246 4.13-.066 8.258-.091 12.387-.147 3.238-.045 6.478-.113 9.715-.169 1.076-.017 2.16-.08 3.232-.04 8.48.297 16.958.628 25.478.202 6.675-.333 13.348-.607 20.02-.862.925-.035 1.85.244 2.783.305.667.047 1.344-.015 2.018-.042.398-.017.795-.06 1.347-.104-.387.987-1.173.852-1.793.887m-119.484-.89c1.494-.393 2.518-.21 3.962.273-1.548.388-2.588.352-3.962-.273m-2.482.197c-4.593-.284-9.216-.315-13.77-1.013 1.515-.566 3.013-.132 4.51-.113 1.576.023 3.146.145 4.72.233 1.541.087 3.08.182 4.623.273l-.083.62m-4.215 7.248c-1.586-.095-3.173-.188-4.762-.284l.006-.47c1.682-.448 3.236-.004 4.803.36-.016.13-.03.26-.047.394m-7.802-2.863c-1.176-.085-2.4-.04-3.444-1.177.515-.073 1.037-.228 1.542-.208 2.33.093 4.658.223 6.982.369.668.041 1.658.013 1.534.842-.137.922-1.096.513-1.726.48-1.632-.083-3.261-.188-4.888-.306m-.074 2.294c-.079.004-.162-.126-.242-.196.107-.1.217-.195.379-.342.138.17.228.28.32.39-.151.054-.303.138-.457.148m12.784.396c1.04-.454 1.945-.096 2.87.157-.02.141-.04.282-.058.425-.945-.055-1.89-.108-2.833-.167l.021-.415m-17.852-.776l-2.98-.271c.025-.15.054-.304.082-.457l2.965.311c-.023.14-.046.279-.067.417m-.836-2.604c-1.072.423-1.779.369-2.286-.455 1.28-.707 1.28-.707 2.286.455m-8.318 4.621c-.215.014-.436-.088-.654-.136l.07-.342c.381.003.761.002 1.143.004.02.083.044.163.065.246-.209.081-.415.213-.624.228m202.189-4.58c1.243-.158 2.49-.534 2.775-1.822.294-1.294-.498-2.2-1.707-2.759-1.103-.512-2.255-.943-3.595-1.499.526-.248.923-.438 1.45-.693-.215-.199-.345-.431-.533-.471-2.318-.513-4.615-1.189-6.979-1.443-4.074-.438-8.188-.766-12.306-.853-6.97-.145-13.956-.062-20.936-.083-4.314-.014-8.627-.07-12.945-.048-1.132.005-2.268.264-3.408.361-.802.068-1.609.081-2.411.081-1.897 0-3.793-.051-5.691-.024-1.585.025-3.169.138-4.75.205-.317.014-.647-.072-.948-.005-2.733.587-5.45.254-8.175.23-2.407-.024-4.832.202-7.237.161-4.572-.077-9.128-.367-13.702-.391-5.46-.028-10.936.217-16.395.194-9.844-.044-19.715.592-29.537.044-6.829-.38-13.668-.656-20.496-1.039-7.586-.42-15.171-.873-22.747-1.39-1.488-.104-2.922-.613-4.4-.848-.782-.124-1.624-.184-2.413-.073-2.043.291-3.99.426-5.996-.223-1.187-.382-2.625-.2-3.952-.247-1.592-.058-3.122-.181-4.526-.984-.63-.361-1.568-.313-2.372-.41-.481-.056-.973-.033-1.424-.045-.051-.232-.125-.353-.094-.447.53-1.61.144-2.324-1.627-2.354-1.428-.022-2.433-.307-2.972-1.566-.296-.687-.928-1.095-1.827-.813-.907.283-1.04.956-.97 1.7.004.038.01.077.017.115.62.127.984.924.279 1.312-.188.104-.36.21-.541.312-.129.213-.275.414-.447.589.278.085.551.178.843.231.684.127.872.962.267 1.34-1.29.8-2.272 1.762-3.239 2.8 2.883 1.008 2.586 2.89.553 4.86.772.167 1.532.357 2.34.43.42.04.742.498.619.867-.408 1.237-.48 2.494-.936 3.68 1.317-.008 2.611-.016 3.934-.362.586-.155 1.2.251 1.047.834-.275 1.056-2.671 7.288-3.716 7.283.727.003 1.09.677.64 1.218-.194.232-.373.473-.554.71.225-.12.447-.25.664-.394.58-.306 1.178-.032 1.266.547.144.939.395 1.858.586 2.786.734.06 1.458.143 2.187.175.064-.593.369-1.231.919-1.839.655-.72 1.463-.744 2.253-.44 1.263.488 2.539.597 3.9.288.365-.082.788-.122 1.134-.034 1.381.348 2.65.523 3.73-.775.211-.252.953-.178 1.452-.206.48-.027.962.008 1.579.019-.21-1.048-1.02-1.081-1.722-1.173-.938-.121-1.9-.123-2.83-.268-.49-.077-.934-.347-1.357-.763 1.701-.748 3.395-1.056 5.164-.9 3.78.33 7.55.722 11.336 1 3.787.277 7.587.449 11.383.663 3.224.183 6.46.294 9.675.553 9.651.772 19.32 1.397 29.048 1.395 4.572 0 9.145-.07 13.72-.124.683-.008 1.367-.1 2.101-.421-.3-.086-.6-.245-.905-.243-2.03.001-4.066.07-6.098.056-4.822-.026-9.645-.063-14.466-.137-1.774-.028-3.572-.04-5.307-.294-2.107-.31-4.231-.252-6.35-.369-6.573-.364-13.133-.876-19.702-1.295-2.653-.17-5.322-.208-7.974-.385-2.144-.144-4.278-.384-6.408-.621-.651-.07-1.06-.456-.786-1.093.267-.62.77-.383 1.275-.241 2.23.613 4.476.877 6.862.37 2.22-.471 4.423-.1 6.609.237.665.1 1.357.089 2.035.143.626.049 1.287.014 1.862.19 1.863.57 3.755.745 5.747.558.794-.074 1.61.147 2.415.238.682.076 1.404.343 2.035.206 3.202-.692 6.336-.147 9.492-.046 2.849.091 5.691.283 8.54.406.542.024 1.097-.076 1.688-.422-.377-.083-.746-.216-1.128-.238-6.196-.371-12.398-.711-18.591-1.101-.952-.063-2.036.055-2.874-.778.263-.2.428-.408.63-.458.364-.086.769-.146 1.13-.098 2.779.383 5.527.69 8.403.553 3.42-.16 6.844.162 10.263.275.319.01.67-.057.946.036 2.089.719 4.216.386 6.366.07.87-.128 1.774.011 2.662-.017.791-.025 1.58-.116 2.38-.32-1.093-.547-2.154-1.116-3.483-.545-.167.071-.394.106-.566.068-2.726-.648-5.528.137-8.31-.108-5.22-.459-10.501-.508-15.746-.814-4.996-.29-9.978-.692-14.968-1.046-.126-.008-.254-.021-.375-.05-.654-.162-1.614-.228-1.4-1.05.233-.886 1.117-.452 1.776-.4 1.886.148 3.777.266 5.665.398 5.365.382 10.725.8 16.095 1.128 3.282.202 6.581.269 9.873.392.316.011.634.013.951-.005 3.027-.169 6.055-.35 9.082-.506.698-.037 1.398.03 2.096.015 1.96-.047 3.92-.051 5.875-.2.72-.055 1.42-.471 1.828-.614 2.606.26 4.96.584 7.335.708 1.827.095 3.685-.065 5.528-.099 5.016-.093 10.035-.203 15.052-.253 3.475-.032 6.945.08 10.417.013.841-.015 1.722-.42 2.532-.763 1.103-.467 2.19-.576 3.355-.429.87.112 1.77.088 2.657.14.44.025 1.019-.062 1.289.154 1.63 1.29 3.642.505 5.462.682.557.056 1.237-.253 1.774-.54 2.325-1.24 4.584-1.211 6.865-.16.565.259 1.219.366 1.83.54l.23-.31-.627-.87c.075-.09.146-.248.227-.255 2.582-.215 5.148-.538 7.57.656.739.364 1.844.15 2.785.185.74.025 1.5-.06 2.219.052.997.156 1.862.137 2.636-.614.612-.592 1.3-.913 2.22-.483.328.15.867.063 1.277-.042 1.61-.405 2.955-.136 4.48.494 1.378.567 3.192.394 4.817.408 2.466.02 4.94-.091 7.408-.11.252-.002.495.228.991.476-.558.245-.858.471-1.17.499-2.017.172-4.055-.165-6.066.458-.305.098-.742-.054-1.072-.18-1.277-.493-2.464-.336-3.597.448-.202.142-.417.282-.648.379-1.348.552-2.121.335-2.973-.828-1.942.15-3.896.292-5.845.465-.351.032-.827.122-1.018.342-.63.725-1.483.634-2.283.716-1.106.114-2.262-.136-3.262.638-.169.13-.819.065-.858-.039-.434-1.214-1.403-.545-2.212-.506-1.014.051-2.027.035-3.043.058-1.721.04-1.862.17-1.99 1.763-.102 1.277-.516 1.632-2.117 1.694-4.448.172-8.898.319-13.346.485-.693.026-1.386.104-2.087.292 3.388.394 6.822.095 10.233.007 3.494-.088 6.994-.32 10.488-.433 3.493-.114 6.986-.157 10.703-.234-1.347.993-3.338-.1-4.275 1.708.51.095.905.235 1.305.229 2.67-.05 5.339-.115 8.007-.21 1.108-.039 2.114-.05 2.895.854.268.317 1.013.408 1.545.4 5.082-.091 10.162-.257 15.242-.33 2.475-.037 4.94.11 7.417.103 2.096-.008 4.195-.098 6.292-.188.72-.031 1.53.084 1.909-.835.081-.202.797-.276 1.216-.29 1.21-.038 2.418 0 3.625-.02 1.506-.026 2.514-.543 2.66-1.323.133-.733-.944-1.687-2.23-1.968-.349-.078-.707-.144-1.061-.215l.066-.354 5.277.558c-.433-2.089-2.13-2.485-3.974-2.821.622-.923 1.306-1.37 2.326-1.501" transform="translate(-734 -1277) translate(734 1277) matrix(-1 0 0 1 228.503 0)"/>
                    <path d="M390.95 348.365c-.237.055-.513-.032-.775-.057l.009-.36c.443-.07.886-.145 1.33-.218.048.083.092.168.14.251-.234.134-.45.325-.705.384m5.614-8.187c-2.773.142-5.544.24-8.319.347-6.11.235-12.225.54-18.333.674-5.112.11-10.224.098-15.327-.011-8.228-.174-16.44-.44-24.698-.214-7.461.209-14.922.225-22.377.24-6.393.01-12.782-.016-19.16-.187-5.527-.148-11.034-.519-16.549-.804-.588-.032-1.165-.163-1.747-.249.022-.121.046-.244.066-.364.942.028 1.88.07 2.823.087.921.014 1.849-.029 2.769.006 6.656.234 13.305.598 19.97.691 5.6.078 11.22-.167 16.83-.246 4.617-.066 9.232-.091 13.847-.147 3.62-.045 7.243-.113 10.862-.169 1.202-.017 2.413-.08 3.612-.04 9.48.297 18.958.628 28.482.202 7.462-.333 14.922-.607 22.38-.862 1.035-.035 2.069.244 3.111.305.747.047 1.503-.015 2.257-.042.445-.017.888-.06 1.505-.104-.432.987-1.31.852-2.004.887m-133.571-.89c1.67-.393 2.815-.21 4.428.273-1.73.388-2.893.352-4.428-.273m-2.775.197c-5.135-.284-10.303-.315-15.393-1.013 1.693-.566 3.368-.132 5.041-.113 1.762.023 3.517.145 5.276.233 1.723.087 3.444.182 5.169.273l-.093.62m-4.712 7.248c-1.773-.095-3.547-.188-5.323-.284l.006-.47c1.88-.448 3.617-.004 5.37.36-.019.13-.034.26-.053.394m-8.722-2.863c-1.315-.085-2.684-.04-3.85-1.177.576-.073 1.159-.228 1.724-.208 2.605.093 5.207.223 7.805.369.747.041 1.853.013 1.715.842-.154.922-1.225.513-1.93.48-1.825-.083-3.645-.188-5.464-.306m-.083 2.294c-.088.004-.18-.126-.27-.196.12-.1.242-.195.423-.342.155.17.256.28.359.39-.17.054-.34.138-.512.148m14.292.396c1.162-.454 2.174-.096 3.207.157-.021.141-.044.282-.064.425-1.056-.055-2.113-.108-3.167-.167l.024-.415m-19.957-.776l-3.333-.271.093-.457 3.314.311-.074.417m-.935-2.604c-1.198.423-1.988.369-2.555-.455 1.431-.707 1.431-.707 2.555.455m-9.299 4.621c-.24.014-.487-.088-.731-.136l.079-.342c.426.003.85.002 1.277.004.022.083.05.163.073.246-.234.081-.463.213-.698.228m229.13-6.402c.33-1.294-.557-2.2-1.907-2.759-1.234-.512-2.522-.943-4.02-1.499.588-.248 1.032-.438 1.622-.693-.24-.199-.386-.431-.597-.471-2.59-.513-5.158-1.189-7.8-1.443-4.555-.438-9.154-.766-13.759-.853-7.79-.145-15.6-.062-23.404-.083-4.823-.014-9.644-.07-14.47-.048-1.267.005-2.537.264-3.811.361-.896.068-1.798.081-2.695.081-2.12 0-4.24-.051-6.362-.024-1.771.025-3.542.138-5.31.205-.355.014-.724-.072-1.06-.005-3.055.587-6.092.254-9.139.23-2.69-.024-5.401.202-8.09.161-5.111-.077-10.204-.367-15.317-.391-6.104-.028-12.226.217-18.329.194-11.004-.044-22.039.592-33.02.044-7.633-.38-15.278-.656-22.911-1.039-8.481-.42-16.96-.873-25.43-1.39-1.663-.104-3.266-.613-4.918-.848-.874-.124-1.816-.184-2.698-.073-2.283.291-4.461.426-6.703-.223-1.327-.382-2.934-.2-4.418-.247-1.78-.058-3.49-.181-5.06-.984-.704-.361-1.752-.313-2.652-.41-.537-.056-1.087-.033-1.59-.045-.058-.232-.14-.353-.106-.447.592-1.61.161-2.324-1.82-2.354-1.595-.022-2.718-.307-3.321-1.566-.331-.687-1.037-1.095-2.043-.813-1.013.283-1.163.956-1.085 1.7.005.038.013.077.02.115.693.127 1.1.924.312 1.312-.21.104-.402.21-.605.312-.144.213-.307.414-.5.589.311.085.617.178.943.231.764.127.975.962.298 1.34-1.442.8-2.54 1.762-3.62 2.8 3.222 1.008 2.89 2.89.617 4.86.863.167 1.714.357 2.616.43.47.04.83.498.692.867-.456 1.237-.536 2.494-1.046 3.68 1.472-.008 2.919-.016 4.398-.362.655-.155 1.341.251 1.17.834-.307 1.056-6.281 3.088-7.45 3.083.814.003 4.515 4.877 4.01 5.418-.215.232-.415.473-.617.71.25-.12.499-.25.741-.394.65-.306 1.318-.032 1.416.547.161.939.442 1.858.655 2.786.82.06 1.63.143 2.445.175.071-.593.412-1.231 1.027-1.839.733-.72 1.636-.744 2.519-.44 1.412.488 2.838.597 4.359.288.409-.082.881-.122 1.268-.034 1.544.348 2.963.523 4.17-.775.236-.252 1.065-.178 1.624-.206.536-.027 1.075.008 1.765.019-.235-1.048-1.14-1.081-1.926-1.173-1.048-.121-2.124-.123-3.163-.268-.548-.077-1.044-.347-1.518-.763 1.903-.748 3.796-1.056 5.774-.9 4.225.33 8.44.722 12.673 1 4.233.277 8.481.449 12.724.663 3.604.183 7.223.294 10.816.553 10.79.772 21.598 1.397 32.473 1.395 5.111 0 10.224-.07 15.339-.124.762-.008 1.526-.1 2.348-.421-.336-.086-.671-.245-1.013-.243-2.27.001-4.545.07-6.816.056-5.391-.026-10.782-.063-16.172-.137-1.983-.028-3.993-.04-5.933-.294-2.355-.31-4.73-.252-7.098-.369-7.349-.364-14.682-.876-22.025-1.295-2.967-.17-5.95-.208-8.915-.385-2.397-.144-4.782-.384-7.163-.621-.728-.07-1.185-.456-.879-1.093.298-.62.86-.383 1.426-.241 2.491.613 5.003.877 7.67.37 2.483-.471 4.946-.1 7.388.237.744.1 1.518.089 2.276.143.7.049 1.439.014 2.081.19 2.083.57 4.198.745 6.425.558.888-.074 1.8.147 2.7.238.762.076 1.569.343 2.275.206 3.58-.692 7.082-.147 10.61-.046 3.185.091 6.363.283 9.547.406.607.024 1.227-.076 1.887-.422-.421-.083-.834-.216-1.26-.238-6.926-.371-13.86-.711-20.784-1.101-1.063-.063-2.275.055-3.213-.778.295-.2.48-.408.705-.458.408-.086.86-.146 1.263-.098 3.107.383 6.18.69 9.394.553 3.823-.16 7.651.162 11.473.275.357.01.749-.057 1.057.036 2.336.719 4.713.386 7.117.07.973-.128 1.983.011 2.976-.017.885-.025 1.767-.116 2.661-.32-1.223-.547-2.408-1.116-3.894-.545-.186.071-.44.106-.632.068-3.048-.648-6.18.137-9.29-.108-5.836-.459-11.74-.508-17.603-.814-5.585-.29-11.154-.692-16.733-1.046-.14-.008-.284-.021-.419-.05-.73-.162-1.804-.228-1.565-1.05.26-.886 1.248-.452 1.985-.4 2.109.148 4.223.266 6.333.398 5.997.382 11.99.8 17.993 1.128 3.67.202 7.357.269 11.037.392.354.011.709.013 1.063-.005 3.384-.169 6.769-.35 10.154-.506.78-.037 1.562.03 2.342.015 2.19-.047 4.382-.051 6.568-.2.805-.055 1.588-.471 2.043-.614 2.914.26 5.544.584 8.2.708 2.043.095 4.12-.065 6.18-.099 5.608-.093 11.218-.203 16.826-.253 3.886-.032 7.764.08 11.646.013.94-.015 1.925-.42 2.83-.763 1.233-.467 2.448-.576 3.75-.429.974.112 1.98.088 2.97.14.492.025 1.14-.062 1.442.154 1.822 1.29 4.072.505 6.106.682.623.056 1.383-.253 1.984-.54 2.599-1.24 5.123-1.211 7.673-.16.632.259 1.363.366 2.047.54.085-.103.17-.207.257-.31l-.702-.87c.085-.09.164-.248.254-.255 2.887-.215 5.755-.538 8.463.656.826.364 2.062.15 3.113.185.827.025 1.678-.06 2.48.052 1.115.156 2.083.137 2.948-.614.684-.592 1.453-.913 2.481-.483.367.15.97.063 1.428-.042 1.8-.405 3.303-.136 5.009.494 1.54.567 3.568.394 5.385.408 2.756.02 5.522-.091 8.28-.11.282-.002.554.228 1.109.476-.624.245-.96.471-1.309.499-2.254.172-4.532-.165-6.78.458-.342.098-.83-.054-1.2-.18-1.426-.493-2.754-.336-4.02.448-.226.142-.466.282-.725.379-1.506.552-2.371.335-3.323-.828-2.171.15-4.355.292-6.534.465-.393.032-.925.122-1.138.342-.705.725-1.658.634-2.552.716-1.236.114-2.529-.136-3.647.638-.189.13-.915.065-.96-.039-.485-1.214-1.567-.545-2.473-.506-1.132.051-2.265.035-3.4.058-1.925.04-2.082.17-2.226 1.763-.114 1.277-.577 1.632-2.366 1.694-4.973.172-9.947.319-14.92.485-.774.026-1.55.104-2.332.292 3.786.394 7.626.095 11.439.007 3.906-.088 7.818-.32 11.725-.433 3.904-.114 7.809-.157 11.964-.234-1.505.993-3.731-.1-4.78 1.708.572.095 1.013.235 1.46.229 2.984-.05 5.969-.115 8.952-.21 1.238-.039 2.362-.05 3.236.854.3.317 1.132.408 1.726.4 5.683-.091 11.36-.257 17.04-.33 2.767-.037 5.523.11 8.292.103 2.342-.008 4.69-.098 7.033-.188.805-.031 1.71.084 2.134-.835.09-.202.891-.276 1.36-.29 1.352-.038 2.702 0 4.052-.02 1.684-.026 2.81-.543 2.973-1.323.15-.733-1.054-1.687-2.492-1.968-.39-.078-.791-.144-1.186-.215l.074-.354 5.898.558c-.483-2.089-2.38-2.485-4.441-2.821.694-.923 1.459-1.37 2.6-1.501 1.39-.158 2.783-.534 3.101-1.822z" transform="translate(-734 -1277) translate(734 1277) matrix(-1 0 0 1 664.555 0)"/>
                </g>
                <text fill="#FFF" font-family="RalewayRoman-SemiBold, Raleway" font-size="30" font-weight="500" transform="translate(-734 -1277) translate(734 1277)">
                    <tspan x="42.907" y="70.521">Food Ok Please </tspan> <tspan x="42.907" y="128.521">Branding</tspan>
                </text>
                <text fill="#FFF" font-family="RalewayRoman-Medium, Raleway" font-size="18" font-weight="400" transform="translate(-734 -1277) translate(734 1277)">
                    <tspan x="42.907" y="207.63">Branding and Identity</tspan>  <tspan x="42.907" y="249.63">Packaging</tspan>  <tspan x="42.907" y="291.63">Illustrations</tspan>
                </text>
            </g>
        </g>
    </g>
</svg>
