<svg xmlns="http://www.w3.org/2000/svg" xmlns:xlink="http://www.w3.org/1999/xlink" width="535" height="592" viewBox="0 0 535 592">
    <defs>
        <path id="kx0b5h0vsa" d="M0.892 0.274L265.892 0.274 265.892 36.217 0.892 36.217z"/>
        <path id="vt6dqpijxb" d="M0.892 0.274L296.892 0.274 296.892 36.217 0.892 36.217z"/>
    </defs>
    <g fill="none" fill-rule="evenodd">
        <g>
            <g>
                <g>
                    <path fill="#C3C3C3" d="M0 0L535 0 535 570 0 570 0 389.628z" transform="translate(-150 -1667) translate(150 1667)"/>
                    <g transform="translate(-150 -1667) translate(150 1667) matrix(-1 0 0 1 268 555)">
                        <path fill="#C3C3C3" d="M194.258 28.555c-.245.063-.532-.037-.804-.067l.01-.414c.46-.083.92-.168 1.38-.253.05.096.095.194.144.29-.242.155-.465.376-.73.444m5.823-9.455c-2.876.163-5.751.277-8.63.4-6.337.271-12.682.624-19.019.778-5.303.127-10.605.113-15.9-.012-8.536-.2-17.055-.51-25.622-.247-7.74.24-15.48.26-23.214.276-6.631.012-13.26-.018-19.876-.215-5.735-.17-11.447-.599-17.168-.929-.61-.037-1.209-.188-1.813-.287.023-.14.048-.282.068-.42.978.032 1.951.08 2.93.1.955.016 1.917-.033 2.872.007 6.905.27 13.802.69 20.717.798 5.809.09 11.64-.192 17.46-.284 4.79-.076 9.576-.105 14.365-.17 3.755-.052 7.513-.13 11.267-.195 1.248-.02 2.504-.092 3.748-.046 9.835.343 19.667.725 29.548.233 7.74-.385 15.48-.701 23.216-.996 1.074-.04 2.146.282 3.228.352.774.055 1.56-.017 2.341-.048.462-.02.922-.069 1.562-.12-.449 1.14-1.36.984-2.08 1.025M61.514 18.072c1.732-.454 2.92-.242 4.594.315-1.794.448-3.001.406-4.594-.315m-2.879.228c-5.326-.33-10.688-.365-15.969-1.17 1.757-.655 3.494-.153 5.23-.13 1.828.025 3.648.167 5.474.268 1.787.1 3.572.21 5.362.315l-.097.717m-4.888 8.37c-1.84-.11-3.68-.217-5.522-.328l.006-.544c1.95-.516 3.753-.003 5.57.417-.018.15-.034.3-.054.454m-9.048-3.306c-1.364-.097-2.785-.045-3.994-1.358.597-.085 1.202-.264 1.788-.241 2.703.108 5.402.257 8.097.426.775.048 1.923.015 1.78.973-.16 1.064-1.272.592-2.003.553-1.893-.095-3.781-.217-5.668-.353m-.086 2.65c-.091.004-.188-.146-.281-.227.125-.114.252-.225.44-.395.16.197.265.323.371.45-.175.063-.351.16-.53.172m14.826.457c1.206-.525 2.256-.112 3.327.18-.022.164-.045.327-.066.492-1.096-.064-2.192-.125-3.285-.193l.024-.479m-20.704-.896c-1.153-.104-2.305-.207-3.457-.313.03-.174.064-.352.097-.527l3.438.358-.078.482m-.969-3.007c-1.243.487-2.063.425-2.651-.526 1.485-.816 1.485-.816 2.651.526m-9.647 5.337c-.249.015-.505-.102-.758-.158.027-.132.055-.263.081-.395.443.003.883.002 1.325.005.023.095.052.188.076.284-.242.094-.48.246-.724.264m234.483-5.29c1.442-.182 2.888-.617 3.218-2.105.341-1.494-.577-2.54-1.979-3.185-1.28-.592-2.616-1.09-4.169-1.731.61-.287 1.07-.506 1.682-.8-.25-.23-.4-.499-.62-.545-2.687-.593-5.35-1.373-8.092-1.667-4.725-.505-9.496-.885-14.272-.984-8.083-.168-16.185-.072-24.28-.097-5.003-.015-10.005-.08-15.012-.055-1.314.006-2.631.305-3.953.418-.93.078-1.866.093-2.796.093-2.2 0-4.4-.06-6.6-.028-1.838.029-3.675.16-5.509.236-.367.016-.75-.083-1.099-.005-3.17.678-6.32.293-9.48.265-2.792-.027-5.604.234-8.394.187-5.302-.09-10.586-.425-15.89-.452-6.332-.033-12.683.25-19.014.224-11.416-.05-22.863.684-34.255.05-7.919-.439-15.85-.757-23.769-1.199-8.798-.486-17.594-1.008-26.38-1.605-1.726-.121-3.389-.708-5.103-.98-.906-.143-1.884-.212-2.8-.084-2.367.336-4.627.492-6.952-.257-1.377-.441-3.044-.232-4.583-.286-1.847-.066-3.621-.21-5.25-1.136-.73-.417-1.818-.362-2.75-.473-.558-.066-1.129-.038-1.651-.052-.06-.268-.146-.408-.11-.517.615-1.86.168-2.683-1.887-2.719-1.655-.024-2.82-.354-3.446-1.808C7.063.524 6.33.053 5.288.378 4.237.705 4.082 1.482 4.162 2.342c.005.044.013.089.02.133.72.146 1.142 1.067.324 1.515-.217.12-.416.241-.628.36-.148.246-.318.477-.517.68.322.098.639.206.978.267.792.147 1.011 1.11.308 1.546-1.495.924-2.634 2.036-3.755 3.234 3.343 1.165 2.999 3.338.64 5.614.896.193 1.778.411 2.714.497.488.046.861.574.718 1-.473 1.429-.556 2.88-1.086 4.25 1.528-.009 3.03-.018 4.564-.418.679-.179 1.39.29 1.214.963-.32 1.22-3.098 8.417-4.31 8.411.843.004 1.265.782.741 1.407-.223.268-.431.546-.641.819.26-.138.518-.289.77-.455.673-.353 1.366-.036 1.468.633.167 1.083.458 2.145.68 3.217.851.069 1.69.165 2.536.202.074-.685.428-1.422 1.066-2.124.76-.831 1.697-.86 2.613-.507 1.465.562 2.944.689 4.522.332.424-.095.914-.14 1.316-.04 1.601.403 3.073.605 4.325-.894.245-.292 1.105-.207 1.685-.239.556-.031 1.115.01 1.83.022-.243-1.21-1.182-1.248-1.997-1.354-1.087-.14-2.204-.142-3.281-.31-.569-.09-1.083-.4-1.575-.88 1.974-.865 3.938-1.22 5.99-1.041 4.383.382 8.755.835 13.146 1.155 4.392.32 8.8.519 13.201.766 3.739.212 7.493.34 11.22.64 11.193.89 22.406 1.612 33.689 1.61 5.301 0 10.605-.082 15.911-.143.792-.01 1.584-.115 2.436-.487-.348-.099-.696-.282-1.05-.28-2.354 0-4.715.08-7.071.065-5.593-.03-11.186-.074-16.777-.159-2.058-.032-4.142-.045-6.155-.34-2.443-.356-4.907-.29-7.363-.425-7.624-.42-15.232-1.012-22.85-1.496-3.077-.196-6.172-.24-9.248-.444-2.486-.167-4.961-.444-7.43-.718-.756-.081-1.23-.527-.912-1.262.309-.717.892-.443 1.479-.278 2.584.708 5.19 1.012 7.957.426 2.576-.543 5.13-.114 7.664.275.772.115 1.574.102 2.361.165.726.056 1.492.016 2.159.219 2.161.658 4.355.86 6.665.645.921-.086 1.867.17 2.8.274.791.088 1.629.396 2.36.238 3.714-.798 7.349-.17 11.009-.052 3.304.104 6.6.326 9.904.468.629.028 1.273-.088 1.957-.487-.437-.096-.865-.25-1.308-.274-7.185-.43-14.378-.822-21.56-1.273-1.104-.072-2.361.064-3.333-.899.305-.231.496-.47.73-.528.423-.1.892-.168 1.311-.113 3.222.443 6.41.796 9.745.639 3.967-.186 7.938.186 11.903.317.37.012.776-.066 1.096.041 2.423.83 4.89.447 7.383.08 1.01-.146 2.057.014 3.088-.018.917-.03 1.833-.134 2.76-.37-1.268-.631-2.498-1.289-4.04-.629-.193.082-.456.123-.655.079-3.162-.748-6.412.157-9.638-.125-6.054-.53-12.179-.587-18.262-.94-5.793-.335-11.57-.799-17.358-1.208-.146-.009-.295-.025-.434-.059-.759-.187-1.873-.263-1.625-1.213.27-1.022 1.295-.521 2.06-.46 2.188.17 4.38.307 6.57.46 6.221.44 12.438.923 18.666 1.302 3.806.233 7.632.31 11.45.453.366.012.735.014 1.103-.006 3.51-.195 7.021-.405 10.533-.585.809-.043 1.62.035 2.43.017 2.273-.054 4.546-.058 6.813-.231.836-.063 1.647-.544 2.12-.709 3.022.301 5.752.675 8.506.818 2.12.11 4.274-.075 6.411-.114 5.818-.107 11.639-.235 17.456-.293 4.031-.036 8.055.094 12.082.016.975-.018 1.997-.486 2.937-.882 1.278-.539 2.538-.665 3.89-.494 1.01.128 2.053.1 3.08.16.51.03 1.183-.07 1.496.179 1.89 1.49 4.224.583 6.335.788.646.064 1.434-.293 2.057-.623 2.697-1.434 5.316-1.4 7.961-.186.656.299 1.414.422 2.123.623l.267-.357-.728-1.006c.088-.102.17-.285.263-.293 2.995-.25 5.97-.622 8.78.757.856.42 2.139.174 3.23.214.857.029 1.74-.07 2.572.06 1.157.18 2.16.158 3.058-.71.71-.684 1.508-1.053 2.574-.557.38.174 1.006.072 1.481-.048 1.868-.469 3.427-.158 5.197.57 1.597.655 3.7.455 5.586.471 2.859.024 5.728-.105 8.59-.127.292-.003.575.263 1.15.55-.647.282-.995.544-1.357.576-2.339.199-4.702-.19-7.035.53-.354.111-.86-.063-1.243-.21-1.48-.568-2.858-.388-4.171.518-.235.164-.484.326-.752.438-1.563.638-2.46.387-3.448-.956-2.252.174-4.518.337-6.778.537-.408.037-.96.141-1.18.395-.732.837-1.72.732-2.649.827-1.282.131-2.623-.157-3.782.736-.197.15-.95.075-.996-.045-.504-1.402-1.627-.63-2.566-.584-1.175.06-2.35.04-3.528.067-1.996.047-2.16.195-2.309 2.036-.118 1.475-.598 1.885-2.454 1.956-5.159.199-10.319.368-15.478.56-.804.03-1.607.12-2.42.338 3.929.455 7.912.11 11.867.008 4.052-.102 8.111-.37 12.164-.5 4.05-.132 8.1-.182 12.412-.27-1.562 1.146-3.872-.115-4.958 1.972.592.11 1.05.271 1.513.264 3.096-.057 6.192-.133 9.287-.242 1.285-.045 2.45-.059 3.357.987.31.365 1.174.47 1.791.46 5.895-.104 11.785-.295 17.677-.38 2.87-.043 5.73.128 8.602.12 2.43-.01 4.865-.114 7.296-.218.835-.037 1.774.097 2.214-.964.095-.234.925-.32 1.411-.335 1.403-.044 2.804 0 4.204-.024 1.747-.03 2.915-.627 3.084-1.528.155-.846-1.094-1.947-2.585-2.272-.405-.09-.82-.166-1.231-.248l.077-.41 6.119.645c-.502-2.412-2.47-2.87-4.608-3.258.72-1.066 1.514-1.583 2.697-1.733"/>
                    </g>
                    <g transform="translate(-150 -1667) translate(150 1667) matrix(-1 0 0 1 535 555)">
                        <path fill="#C3C3C3" d="M216.878 28.555c-.274.063-.594-.037-.898-.067l.01-.414c.515-.083 1.028-.168 1.543-.253.055.096.106.194.16.29-.27.155-.52.376-.815.444m6.505-9.455c-3.213.163-6.425.277-9.64.4-7.079.271-14.166.624-21.244.778-5.923.127-11.846.113-17.76-.012-9.534-.2-19.05-.51-28.62-.247-8.645.24-17.29.26-25.929.276-7.407.012-14.811-.018-22.2-.215-6.406-.17-12.787-.599-19.177-.929-.683-.037-1.35-.188-2.025-.287.026-.14.053-.282.076-.42 1.092.032 2.179.08 3.272.1 1.067.016 2.142-.033 3.208.007 7.713.27 15.417.69 23.14.798 6.49.09 13.002-.192 19.503-.284 5.35-.076 10.697-.105 16.045-.17 4.195-.052 8.392-.13 12.586-.195 1.394-.02 2.797-.092 4.186-.046 10.986.343 21.967.725 33.004.233 8.646-.385 17.291-.701 25.933-.996 1.199-.04 2.397.282 3.605.352.865.055 1.742-.017 2.615-.048.516-.02 1.03-.069 1.744-.12-.5 1.14-1.519.984-2.322 1.025M68.606 18.072c1.935-.454 3.261-.242 5.131.315-2.004.448-3.352.406-5.131-.315m-3.216.228c-5.95-.33-11.938-.365-17.837-1.17 1.963-.655 3.903-.153 5.842-.13 2.042.025 4.075.167 6.114.268 1.996.1 3.99.21 5.989.315l-.108.717m-5.46 8.37c-2.055-.11-4.11-.217-6.168-.328l.007-.544c2.179-.516 4.192-.003 6.222.417-.02.15-.039.3-.061.454m-10.106-3.306c-1.524-.097-3.11-.045-4.462-1.358.668-.085 1.343-.264 1.998-.241 3.018.108 6.033.257 9.044.426.866.048 2.148.015 1.987.973-.178 1.064-1.42.592-2.236.553-2.114-.095-4.224-.217-6.331-.353m-.097 2.65c-.101.004-.209-.146-.314-.227.14-.114.282-.225.492-.395.179.197.296.323.415.45-.196.063-.393.16-.593.172m16.561.457c1.347-.525 2.52-.112 3.717.18-.025.164-.051.327-.074.492-1.225-.064-2.449-.125-3.67-.193l.027-.479m-23.126-.896c-1.288-.104-2.575-.207-3.86-.313.033-.174.07-.352.107-.527l3.84.358-.087.482m-1.082-3.007c-1.389.487-2.304.425-2.962-.526 1.66-.816 1.66-.816 2.962.526m-10.776 5.337c-.278.015-.564-.102-.847-.158.03-.132.062-.263.091-.395.494.003.986.002 1.48.005.026.095.058.188.085.284-.27.094-.537.246-.809.264m261.913-5.29c1.611-.182 3.226-.617 3.595-2.105.381-1.494-.645-2.54-2.21-3.185-1.43-.592-2.923-1.09-4.657-1.731.68-.287 1.195-.506 1.878-.8-.279-.23-.447-.499-.691-.545-3.003-.593-5.978-1.373-9.04-1.667-5.278-.505-10.607-.885-15.942-.984-9.028-.168-18.078-.072-27.12-.097-5.589-.015-11.175-.08-16.768-.055-1.467.006-2.94.305-4.416.418-1.038.078-2.083.093-3.123.093-2.456 0-4.913-.06-7.372-.028-2.052.029-4.104.16-6.153.236-.41.016-.838-.083-1.227-.005-3.54.678-7.06.293-10.59.265-3.119-.027-6.26.234-9.376.187-5.922-.09-11.823-.425-17.748-.452-7.073-.033-14.167.25-21.239.224-12.751-.05-25.537.684-38.262.05-8.845-.439-17.704-.757-26.549-1.199-9.828-.486-19.653-1.008-29.467-1.605-1.927-.121-3.785-.708-5.699-.98-1.013-.143-2.104-.212-3.127-.084-2.645.336-5.169.492-7.766-.257-1.538-.441-3.4-.232-5.12-.286-2.062-.066-4.044-.21-5.863-1.136-.816-.417-2.03-.362-3.073-.473-.622-.066-1.26-.038-1.843-.052-.067-.268-.163-.408-.123-.517.687-1.86.187-2.683-2.108-2.719-1.849-.024-3.15-.354-3.85-1.808C7.786.524 6.969.053 5.803.378 4.628.705 4.455 1.482 4.545 2.342c.006.044.014.089.022.133.804.146 1.275 1.067.362 1.515-.243.12-.465.241-.701.36-.166.246-.356.477-.578.68.36.098.714.206 1.092.267.885.147 1.13 1.11.345 1.546-1.671.924-2.943 2.036-4.195 3.234 3.734 1.165 3.35 3.338.716 5.614 1 .193 1.985.411 3.03.497.545.046.962.574.803 1-.529 1.429-.622 2.88-1.213 4.25 1.706-.009 3.383-.018 5.097-.418.758-.179 1.554.29 1.356.963-.357 1.22-3.46 8.417-4.815 8.411.943.004 1.414.782.829 1.407-.25.268-.482.546-.716.819.29-.138.578-.289.86-.455.751-.353 1.526-.036 1.64.633.187 1.083.511 2.145.76 3.217.95.069 1.887.165 2.832.202.083-.685.477-1.422 1.19-2.124.849-.831 1.896-.86 2.919-.507 1.636.562 3.288.689 5.05.332.474-.095 1.022-.14 1.47-.04 1.79.403 3.433.605 4.832-.894.274-.292 1.235-.207 1.882-.239.62-.031 1.245.01 2.045.022-.272-1.21-1.32-1.248-2.231-1.354-1.215-.14-2.462-.142-3.666-.31-.634-.09-1.21-.4-1.758-.88 2.204-.865 4.399-1.22 6.69-1.041 4.895.382 9.78.835 14.685 1.155 4.905.32 9.828.519 14.745.766 4.176.212 8.369.34 12.532.64 12.503.89 25.027 1.612 37.63 1.61 5.922 0 11.846-.082 17.773-.143.884-.01 1.769-.115 2.72-.487-.389-.099-.777-.282-1.172-.28-2.63 0-5.268.08-7.899.065-6.247-.03-12.494-.074-18.74-.159-2.298-.032-4.627-.045-6.875-.34-2.728-.356-5.48-.29-8.224-.425-8.516-.42-17.013-1.012-25.522-1.496-3.438-.196-6.894-.24-10.33-.444-2.778-.167-5.542-.444-8.3-.718-.845-.081-1.374-.527-1.019-1.262.345-.717.997-.443 1.652-.278 2.887.708 5.797 1.012 8.888.426 2.877-.543 5.73-.114 8.561.275.862.115 1.758.102 2.637.165.81.056 1.667.016 2.412.219 2.414.658 4.864.86 7.444.645 1.03-.086 2.086.17 3.128.274.884.088 1.82.396 2.637.238 4.148-.798 8.207-.17 12.295-.052 3.691.104 7.373.326 11.063.468.702.028 1.422-.088 2.187-.487-.489-.096-.967-.25-1.462-.274-8.025-.43-16.06-.822-24.082-1.273-1.232-.072-2.637.064-3.723-.899.341-.231.555-.47.817-.528.471-.1.995-.168 1.463-.113 3.6.443 7.16.796 10.885.639 4.43-.186 8.866.186 13.295.317.413.012.867-.066 1.225.041 2.706.83 5.461.447 8.246.08 1.127-.146 2.298.014 3.45-.018 1.024-.03 2.047-.134 3.083-.37-1.417-.631-2.79-1.289-4.513-.629-.216.082-.51.123-.732.079-3.532-.748-7.162.157-10.766-.125-6.762-.53-13.603-.587-20.397-.94-6.471-.335-12.925-.799-19.39-1.208-.162-.009-.329-.025-.484-.059-.847-.187-2.092-.263-1.815-1.213.303-1.022 1.447-.521 2.301-.46 2.444.17 4.893.307 7.338.46 6.95.44 13.894.923 20.85 1.302 4.252.233 8.525.31 12.79.453.409.012.82.014 1.231-.006 3.922-.195 7.843-.405 11.765-.585.904-.043 1.811.035 2.714.017 2.54-.054 5.078-.058 7.611-.231.934-.063 1.84-.544 2.368-.709 3.376.301 6.424.675 9.501.818 2.368.11 4.774-.075 7.161-.114 6.5-.107 13-.235 19.499-.293 4.502-.036 8.996.094 13.494.016 1.09-.018 2.23-.486 3.28-.882 1.429-.539 2.836-.665 4.346-.494 1.128.128 2.293.1 3.441.16.57.03 1.32-.07 1.67.179 2.111 1.49 4.719.583 7.076.788.722.064 1.602-.293 2.298-.623 3.012-1.434 5.937-1.4 8.892-.186.733.299 1.58.422 2.372.623l.297-.357-.812-1.006c.098-.102.19-.285.294-.293 3.344-.25 6.668-.622 9.806.757.957.42 2.39.174 3.608.214.958.029 1.944-.07 2.874.06 1.292.18 2.413.158 3.416-.71.792-.684 1.683-1.053 2.874-.557.425.174 1.124.072 1.655-.048 2.085-.469 3.827-.158 5.804.57 1.784.655 4.134.455 6.24.471 3.193.024 6.398-.105 9.596-.127.325-.003.64.263 1.283.55-.723.282-1.111.544-1.516.576-2.612.199-5.252-.19-7.857.53-.396.111-.962-.063-1.39-.21-1.653-.568-3.191-.388-4.658.518-.263.164-.54.326-.84.438-1.746.638-2.748.387-3.851-.956-2.516.174-5.047.337-7.572.537-.455.037-1.071.141-1.318.395-.816.837-1.921.732-2.958.827-1.432.131-2.93-.157-4.225.736-.219.15-1.06.075-1.112-.045-.562-1.402-1.817-.63-2.866-.584-1.312.06-2.625.04-3.94.067-2.23.047-2.413.195-2.58 2.036-.131 1.475-.668 1.885-2.74 1.956-5.763.199-11.527.368-17.29.56-.897.03-1.795.12-2.702.338 4.387.455 8.837.11 13.255.008 4.526-.102 9.06-.37 13.586-.5 4.525-.132 9.049-.182 13.864-.27-1.744 1.146-4.324-.115-5.538 1.972.662.11 1.173.271 1.69.264 3.459-.057 6.917-.133 10.374-.242 1.435-.045 2.737-.059 3.75.987.347.365 1.311.47 2 .46 6.585-.104 13.164-.295 19.745-.38 3.206-.043 6.4.128 9.609.12 2.714-.01 5.434-.114 8.149-.218.933-.037 1.982.097 2.473-.964.105-.234 1.033-.32 1.576-.335 1.567-.044 3.131 0 4.695-.024 1.952-.03 3.257-.627 3.446-1.528.173-.846-1.222-1.947-2.889-2.272-.451-.09-.916-.166-1.374-.248l.086-.41 6.835.645c-.56-2.412-2.758-2.87-5.147-3.258.805-1.066 1.69-1.583 3.012-1.733"/>
                    </g>
                </g>
                <text fill="#FFF" font-family="RalewayRoman-SemiBold, Raleway" font-size="36" font-weight="500" transform="translate(-150 -1667) translate(150 1667)">
                    <tspan x="30.892" y="123.741">Creating an experience </tspan> <tspan x="30.892" y="181.741">for a design university </tspan> <tspan x="30.892" y="239.741">through visual </tspan> <tspan x="30.892" y="297.741">storytelling. </tspan>
                </text>
                <text fill="#FFF" font-family="RalewayRoman-Medium, Raleway" font-size="18" font-weight="400" transform="translate(-150 -1667) translate(150 1667)">
                    <tspan x="32" y="377">Web Design</tspan>  <tspan x="32" y="419">Visual Design</tspan>
                </text>
            </g>
        </g>
    </g>
</svg>
