<svg xmlns="http://www.w3.org/2000/svg" xmlns:xlink="http://www.w3.org/1999/xlink" width="1154" height="467" viewBox="0 0 1154 467">
    <defs>
        <path id="nj89y3a2ja" d="M0 0.231H317V76.22699999999999H0z"/>
        <path id="vskap7j5gc" d="M0 0.543L173.097 0.543 173.097 188.153 0 188.153z"/>
        <path id="f9p1jbfgfe" d="M0 0.285H317V76.28099999999999H0z"/>
        <path id="w5jq9yj2jg" d="M0 0.185L165.256 0.185 165.256 175.297 0 175.297z"/>
        <path id="r6hdbcdl5i" d="M0 0.719H317V76.71499999999999H0z"/>
        <path id="ebjd567rnk" d="M0 0.329L161.146 0.329 161.146 175.297 0 175.297z"/>
        <path id="vaax1alojm" d="M0 0.71H317V76.70599999999999H0z"/>
        <path id="839yxa2b2o" d="M0 0.389L158.178 0.389 158.178 171.998 0 171.998z"/>
        <path id="5z6bob1kpq" d="M0 0H318V75.974H0z"/>
        <path id="c4z8097nds" d="M0 0.172L168.754 0.172 168.754 184.237 0 184.237z"/>
        <path id="m337i8mlzu" d="M0 0.719H318V76.71499999999999H0z"/>
        <path id="l0xeh5ftdw" d="M0 0.357L178.321 0.357 178.321 190.496 0 190.496z"/>
        <path id="uo9l23yfuy" d="M0 0.773H317V76.76899999999999H0z"/>
        <path id="od57cmf9oA" d="M0.043 0.196L150.35 0.196 150.35 179.776 0.043 179.776z"/>
        <path id="cbpgqkaupC" d="M0 0H318V75.996H0z"/>
        <path id="7y47p711xD" d="M0 0H318V75.996H0z"/>
        <path id="avbn33hldF" d="M0 0H151.756V142.492H0z"/>
        <path id="9mng7y39sH" d="M0 0.32L137.305 0.32 137.305 146.946 0 146.946z"/>
        <path id="ge0f3mjjoJ" d="M0 0.285H317V76.28099999999999H0z"/>
        <path id="gyszz4e6dL" d="M0 0.313L168.459 0.313 168.459 174.193 0 174.193z"/>
        <path id="9d6r840hzN" d="M0 0.783H317V76.779H0z"/>
        <path id="vqxbl1wnnP" d="M0 0.42L158.271 0.42 158.271 177.864 0 177.864z"/>
        <path id="prjq0x1w0R" d="M0 0.773H317V76.76899999999999H0z"/>
        <path id="qnr7iocfoT" d="M0 0.231H317V76.22699999999999H0z"/>
        <path id="pwriyavjeV" d="M0 0.287L158.119 0.287 158.119 178.74 0 178.74z"/>
        <path id="rvipbenpiX" d="M0.103 0.217L16.078 0.217 16.078 83.001 0.103 83.001z"/>
    </defs>
    <g fill="none" fill-rule="evenodd">
        <g>
            <g>
                <g transform="translate(-151 -10106) translate(154 10106) translate(9 39)">
                    <mask id="1yxksdvr0b" fill="#fff">
                        <use xlink:href="#nj89y3a2ja"/>
                    </mask>
                    <use fill="#FFA793" xlink:href="#nj89y3a2ja"/>
                    <g mask="url(#1yxksdvr0b)">
                        <g>
                            <g transform="translate(71.678 -69.685)">
                                <mask id="nrroyf9hsd" fill="#fff">
                                    <use xlink:href="#vskap7j5gc"/>
                                </mask>
                                <path fill="#FFE081" d="M69.093.543s5.503 23.91-10.562 30.277c-14.665 6.767-11.588 2.284-30.353 7.948-20.83 6.86-16.008 50.258-16.813 59.746-.805 9.489 3.689 32.383.902 46.273C8.755 156.754.876 172.475 0 188.153h22.927c96.307 13.99 144.848 14.392 145.622 1.207 1.163-19.778 0-53.877 0-53.877s14.691-99.828-13.4-112.172c-13.767-5.85-38.404 7.825-52.62-22.768H69.093z" mask="url(#nrroyf9hsd)"/>
                            </g>
                            <path stroke="#FFA793" stroke-linecap="round" stroke-linejoin="round" stroke-width="3.744" d="M38.736 86.834c4.09 11.832 1.793 47.792 26.132 47.792 22.068-1.476 17.014-27.684 23.957-37.145M145.128 83.468c2.752 14.057 5.988 44.334-20.5 48.466-19.907-1.944-19.782-27.07-27.788-36.275M147.593 77.41s.656 7.723-1.525 9.869M34.06 81.449c1.038 10.034 5.344 11.443 5.344 11.443" transform="translate(71.678 -69.685)"/>
                            <path fill="#FFA793" d="M144.253 188.477h-6.2s-2.478-13.353-2.478-19.361c0-6.009 9.524-39.875 9.524-39.875 1.483 8.72-.846 59.236-.846 59.236M28.05 188.477s4.766-22.964 11.565-38.176c1.88-5.468 4.464 16.623 4.464 19.627 0 3.004-16.029 18.549-16.029 18.549" transform="translate(71.678 -69.685)"/>
                            <path stroke="#FFA793" stroke-linecap="round" stroke-linejoin="round" stroke-width="3.744" d="M54.097 39.715s21.115-1.873 25.08-3.34c1.637-1.272 2.397-3.338 4.305-2.54M100.179 32.847s.965.136 4.22.136c3.257 0 27.063-5.841 30.508-5.356" transform="translate(71.678 -69.685)"/>
                            <path fill="#FFA793" d="M54.959 132.208s-2.242-9.391 8.507-9.014c10.75.378 12.002 7.398 12.002 7.398s-5.114 4.034-10.92 4.034c-6.806-.53-9.59-2.418-9.59-2.418M127.733 132.004c-6.705 2.024-11.401-1.7-11.401-1.7s-1.869-9.098 8.88-10.356c10.75-1.259 11.7 6.988 11.7 6.988s-2.227 2.97-9.179 5.068" transform="translate(71.678 -69.685)"/>
                            <path stroke="#FFA793" stroke-linecap="round" stroke-linejoin="round" stroke-width="4" d="M41.407 158.859c-3.896-24.635-2.559-71.53-1.943-65.424" transform="translate(71.678 -69.685)"/>
                            <path stroke="#F3A492" stroke-linecap="round" stroke-linejoin="round" stroke-width="4" d="M32.725 180.4c-2.506 3.093-4.24 10.096-4.24 10.096" transform="translate(71.678 -69.685)"/>
                            <path stroke="#FFA793" stroke-linecap="round" stroke-linejoin="round" stroke-width="4" d="M144.258 139.338s2.627-19.139 1.789-28.393" transform="translate(71.678 -69.685)"/>
                        </g>
                    </g>
                </g>
                <g transform="translate(-151 -10106) translate(154 10106) translate(9 273)">
                    <mask id="t5mrhhleyf" fill="#fff">
                        <use xlink:href="#f9p1jbfgfe"/>
                    </mask>
                    <use fill="#FFA793" xlink:href="#f9p1jbfgfe"/>
                    <g mask="url(#t5mrhhleyf)">
                        <g>
                            <g transform="translate(77.736 -35.18)">
                                <mask id="3ac7fd96zh" fill="#fff">
                                    <use xlink:href="#w5jq9yj2jg"/>
                                </mask>
                                <path fill="#F4DBFF" d="M19.725 144.669s-6.471 19.139-4.95 30.628h143.552s-1.495-25.806-14.51-44.922c0 0 12.032-11.29 13.656-14.633 9.194-18.663 11.867-87.92-1.014-98.439-8.499-7.089-32.262-6.052-38.16-17.118H48.745C25.141 2.566 14.493 12.39 4.166 34.25-6.644 62.137 6.803 76.462 8.502 94.41c1.7 17.948 1.7 35.693 11.223 50.258" mask="url(#3ac7fd96zh)"/>
                            </g>
                            <path fill="#FFA793" d="M37.716 76.452c0-3.003 2.433-5.438 5.433-5.438 3.001 0 5.434 2.435 5.434 5.438 0 3.004-2.433 5.439-5.434 5.439-3 0-5.433-2.435-5.433-5.439" transform="translate(77.736 -35.18)"/>
                            <path stroke="#FFA793" stroke-linecap="round" stroke-linejoin="round" stroke-width="3.744" d="M37.716 76.452c0-3.003 2.433-5.438 5.433-5.438 3.001 0 5.434 2.435 5.434 5.438 0 3.004-2.433 5.439-5.434 5.439-3 0-5.433-2.435-5.433-5.439z" transform="translate(77.736 -35.18)"/>
                            <path fill="#FFA793" d="M124.015 76.133c0-3.18 2.576-5.758 5.753-5.758 3.178 0 5.754 2.577 5.754 5.758 0 3.18-2.576 5.758-5.754 5.758-3.177 0-5.753-2.578-5.753-5.758" transform="translate(77.736 -35.18)"/>
                            <path stroke="#FFA793" stroke-linecap="round" stroke-linejoin="round" stroke-width="3.744" d="M124.015 76.133c0-3.18 2.576-5.758 5.753-5.758 3.178 0 5.754 2.577 5.754 5.758 0 3.18-2.576 5.758-5.754 5.758-3.177 0-5.753-2.578-5.753-5.758z" transform="translate(77.736 -35.18)"/>
                            <path stroke="#FFA793" stroke-linecap="round" stroke-linejoin="round" stroke-width="4" d="M83.103 142.669c6.584 2.879 10.228 0 10.228 0M16.378 149.163c7.708-18.375 11.697-24.435 17.608-37.028 5.03-10.717 2.225-18.963 2.225-18.963M137.881 90.208s-3.029 14.396-1.047 24.644c1.882 9.736 10.195 17.58 10.195 17.58" transform="translate(77.736 -35.18)"/>
                            <path stroke="#FFA793" stroke-linecap="round" stroke-linejoin="round" stroke-width="3.744" d="M37.226 42.865c.438 7.826-16.374 35.457 0 51.208 16.304 13.77 35.537 2.244 38.206-6.701M95.249 86.713c3.894 12.85 29.486 19.836 42.281 3.771 13.908-18.627-5.563-39.671-4.729-44.42" transform="translate(77.736 -35.18)"/>
                            <path stroke="#F3A492" stroke-linecap="round" stroke-linejoin="round" stroke-width="3.744" d="M67.122 8.957s18.028 3.61 18.889 4.062c.86.453 1.567 1.696 1.567 1.696" transform="translate(77.736 -35.18)"/>
                            <path stroke="#FFA793" stroke-linecap="round" stroke-linejoin="round" stroke-width="3.744" d="M93.97 15.048s1.615-1.405 3.116-.838c4.256 1.774 20.537 1.784 20.537 1.784M134.883 51.182L136.161 46.703" transform="translate(77.736 -35.18)"/>
                            <path stroke="#F3A492" stroke-linecap="round" stroke-linejoin="round" stroke-width="3.744" d="M34.342 42.865L36.196 47.701" transform="translate(77.736 -35.18)"/>
                        </g>
                    </g>
                </g>
                <g transform="translate(-151 -10106) translate(154 10106) translate(9 154)">
                    <mask id="g3tzabkfoj" fill="#fff">
                        <use xlink:href="#r6hdbcdl5i"/>
                    </mask>
                    <use fill="#FFA793" xlink:href="#r6hdbcdl5i"/>
                    <g mask="url(#g3tzabkfoj)">
                        <g>
                            <g transform="translate(79.755 -48.931)">
                                <mask id="tyv35nt37l" fill="#fff">
                                    <use xlink:href="#ebjd567rnk"/>
                                </mask>
                                <path fill="#B3F2FF" d="M16.03 175.297c3.698-7.253 13.829-17.494 16.172-20.343-12.31-8.964-22.605-32.242-25.661-48.704-5.187-17.51-11.672-53.948 0-64.968C18.21 30.262 52.6 20.587 56.433.33h49.573c13.068 11.657 36.177 7.104 44.219 13.054 3.302 3.25 8.256 8.076 10.238 23.13 1.952 29.345-.128 104.462-8.19 114.273-8.064 9.81-25.965 16.667-25.965 16.667s4.094 6.034 3.098 7.844H16.03z" mask="url(#tyv35nt37l)"/>
                            </g>
                            <path stroke="#FFA793" stroke-linecap="round" stroke-linejoin="round" stroke-width="3.744" d="M26.28 109.074c10.859 11.33 30.54 9.886 35.896 3.66M29.485 64.276C28.1 85.232 24.297 88.11 21.794 95.439M27.07 59.73c-1.43 6.009 2.04 8.523 2.04 8.523M142.3 91.544c-4.94 17.086-31.958 22.914-48.075 6.508M131.415 54.537c-.282 11.732 4.229 18.469 7.68 24.022M55.766 22.35c11.921-.6 17.343-1.574 20.231-1.574 2.61 0 2.176 1.948 2.176 1.948M85.977 20.776s-.472-1.58.811-1.98c.935-.809 14.488-4.513 14.488-4.513" transform="translate(79.755 -48.931)"/>
                            <path stroke="#FFA793" stroke-linecap="round" stroke-linejoin="round" stroke-width="4" d="M32.562 114.09c-1.146 16.415 4.815 26.33 4.61 33.076-1.165 8.23-17.412 20.293-17.412 20.293M130.693 174.797s-8.265-9.798-8.265-19.988c0-17.493 13.23-39.815 12.112-51.579" transform="translate(79.755 -48.931)"/>
                            <path fill="#FFA793" d="M132.684 86.35c0-4.303 2.583-7.791 5.77-7.791 3.186 0 5.768 3.488 5.768 7.791 0 4.303-2.582 7.79-5.769 7.79-3.186 0-5.769-3.487-5.769-7.79" transform="translate(79.755 -48.931)"/>
                            <path stroke="#FFA793" stroke-linecap="round" stroke-linejoin="round" stroke-width="3.744" d="M132.684 86.35c0-4.303 2.583-7.791 5.77-7.791 3.186 0 5.768 3.488 5.768 7.791 0 4.303-2.582 7.79-5.769 7.79-3.186 0-5.769-3.487-5.769-7.79z" transform="translate(79.755 -48.931)"/>
                            <path stroke="#FFA793" stroke-linecap="round" stroke-linejoin="round" stroke-width="3.744" d="M140.376 82.326s4.553-2.767 5.078.21c.525 2.976-3.227 3.814-3.227 3.814" transform="translate(79.755 -48.931)"/>
                            <path fill="#FFA793" d="M20.277 102.87c-1.489-3.685 1.345-8.897 4.699-9.337 3.354-.44 6.488 2.669 7.002 6.944.513 4.275-1.79 8.098-5.143 8.538-2.844.545-4.119-2.815-6.558-6.145" transform="translate(79.755 -48.931)"/>
                            <path stroke="#FFA793" stroke-linecap="round" stroke-linejoin="round" stroke-width="3.744" d="M20.277 102.87c-1.489-3.685 1.345-8.897 4.699-9.337 3.354-.44 6.488 2.669 7.002 6.944.513 4.275-1.79 8.098-5.143 8.538-2.844.545-4.119-2.815-6.558-6.145z" transform="translate(79.755 -48.931)"/>
                            <path stroke="#FFA793" stroke-linecap="round" stroke-linejoin="round" stroke-width="3.744" d="M23 98.686s-4.719 1.003-3.598 3.623c1.12 2.62 4.955 1.17 4.955 1.17" transform="translate(79.755 -48.931)"/>
                        </g>
                    </g>
                </g>
                <g transform="translate(-151 -10106) translate(154 10106) translate(9 389)">
                    <mask id="6o6xivnuln" fill="#fff">
                        <use xlink:href="#vaax1alojm"/>
                    </mask>
                    <use fill="#FFA793" xlink:href="#vaax1alojm"/>
                    <g mask="url(#6o6xivnuln)">
                        <g>
                            <g transform="translate(82.783 -46.914)">
                                <mask id="nr6gl6umpp" fill="#fff">
                                    <use xlink:href="#839yxa2b2o"/>
                                </mask>
                                <path fill="#FFE081" d="M147.065 171.998H.547s3.97-11.139 5.702-26.466C1.933 120.538-1.342 71.39.547 58.947c1.89-12.444-2.072-27.067 8.181-43.555C16.031 7.701 44.785 11.074 53.341.388h50.587c1.25 19.797 38.542 28.47 50.326 42.793 12.52 13.702-8.925 98.347-8.925 98.347l1.736 30.47z" mask="url(#nr6gl6umpp)"/>
                            </g>
                            <path stroke="#FFA793" stroke-linecap="round" stroke-linejoin="round" stroke-width="3.744" d="M26.004 97.717s4.01 40.97 9.287 53.87M126.527 108.365s-5.175 29.848-5.175 37.09c0 7.243 14.859 19.52 14.859 26.802" transform="translate(82.783 -46.914)"/>
                            <path stroke="#FFA793" stroke-linecap="round" stroke-linejoin="round" stroke-width="3.744" d="M29.206 52.617c1.901 17.836-12.116 24.844-9.74 35.637 2.375 10.792 21.397 18.232 21.397 18.232M110.207 114.63s23.699-7.57 25.217-14.963c1.518-7.393-7.805-28.545-6.167-37.028M132.29 59.507s1.22 5.818-2.27 7.517M58.818 13.154s12.755 3.593 14.456 4.606c1.7 1.013.768 1.658.768 1.658M82.346 22.55s.569-1.88 1.991-1.88c1.423 0 20.298 1.088 20.298 1.088" transform="translate(82.783 -46.914)"/>
                            <path fill="#FFA793" d="M118.256 93.645c0-2.594 2.079-4.698 4.643-4.698 2.565 0 4.644 2.104 4.644 4.698 0 2.595-2.08 4.698-4.644 4.698s-4.643-2.103-4.643-4.698" transform="translate(82.783 -46.914)"/>
                            <path stroke="#FFA793" stroke-linecap="round" stroke-linejoin="round" stroke-width="3.744" d="M118.256 93.645c0-2.594 2.079-4.698 4.643-4.698 2.565 0 4.644 2.104 4.644 4.698 0 2.595-2.08 4.698-4.644 4.698s-4.643-2.103-4.643-4.698z" transform="translate(82.783 -46.914)"/>
                            <path fill="#FFA793" d="M26.623 83.936c0-3.113 2.495-5.637 5.573-5.637 3.077 0 5.572 2.524 5.572 5.637 0 3.114-2.495 5.638-5.572 5.638-3.078 0-5.573-2.524-5.573-5.638" transform="translate(82.783 -46.914)"/>
                            <path stroke="#FFA793" stroke-linecap="round" stroke-linejoin="round" stroke-width="3.744" d="M26.623 83.936c0-3.113 2.495-5.637 5.573-5.637 3.077 0 5.572 2.524 5.572 5.637 0 3.114-2.495 5.638-5.572 5.638-3.078 0-5.573-2.524-5.573-5.638z" transform="translate(82.783 -46.914)"/>
                            <path stroke="#FFE081" stroke-linecap="round" stroke-width="3" d="M30.516 83.936C28.04 87 31.993 87.38 33.434 86.891M121.97 94.877s1.988 1.356 2.962.846c1.692-.886.007-2.391.007-2.391" transform="translate(82.783 -46.914)"/>
                        </g>
                    </g>
                </g>
                <g>
                    <g transform="translate(-151 -10106) translate(154 10106) translate(427 272) translate(0 .221)">
                        <mask id="6fun1gke9r" fill="#fff">
                            <use xlink:href="#5z6bob1kpq"/>
                        </mask>
                        <use fill="#FFA793" xlink:href="#5z6bob1kpq"/>
                        <g mask="url(#6fun1gke9r)">
                            <g>
                                <g transform="translate(74.991 -40.836)">
                                    <mask id="ad11pfjgtt" fill="#fff">
                                        <use xlink:href="#c4z8097nds"/>
                                    </mask>
                                    <path fill="#FFE081" d="M142.988 184.237c2.103-17.33 1.307-32.39 1.718-42.43.983-8.115-3.052-36.889-2.682-42.432-.668-.628-1.078 0-1.078 0s-3.832 30.952-3.76 47.264c-.521 6.559 2.296 20.31 4.56 26.197-.526 2.773-1.415 11.401-1.415 11.401H23.17s12.996-26.564 17.364-30.166c2.328-2.834 1.72-6.458 3.382-12.548 1.609-5.895-2.858-35.154-3.175-44.495-.006-.179-.612-.586-.71-.437l-.672 1.015c1.026 13.032-2.12 34.956-2.12 34.956s-.91 19.323-3.775 27.176c-5.459 7.724-13.149 24.499-13.149 24.499H0c3.195-25.964 6.886-37.335 13.874-66.09.875-28.421-10.358-80.633 7.603-94.946 4.026-3.09 5.935-3.168 5.935-3.168 15.037-3.578 24.786-.508 31.84-6.3C65.729 8.413 64.858.172 64.858.172h46.602c17.174 6.875 28.726 3.083 35.42 4.34 6.691 1.258 22.56 8.743 21.299 44.812.575 21.858-4.147 69.01 0 84.156 2.53 18.52-4.107 50.756-4.107 50.756h-21.084z" mask="url(#ad11pfjgtt)"/>
                                </g>
                                <path stroke="#FFA793" stroke-linecap="round" stroke-linejoin="round" stroke-width="3.744" d="M44.993 51.775c-1.845 15.08-1.363 12.507-6.914 23.306-5.708 12.07 3.607 25.458 15.078 28.273 21.767 4.822 28.297-12.02 28.297-12.02M134.108 49.757c-.659 9.232 8.653 18.766 10.375 25.657 1.722 6.892 2.985 22.41-15.124 28.149-21.297 3.85-28.383-10.437-28.383-10.437M41.737 53.792c2.02 4.034 2.02 8.069 2.02 8.069M136.655 51.775c-1.553 1.863-1.336 3.835-1.336 4.706" transform="translate(74.991 -40.836)"/>
                                <path fill="#FFA793" d="M47.795 73.964c3.347 0 6.06 2.71 6.06 6.051 0 3.342-2.713 6.052-6.06 6.052-3.346 0-6.058-2.71-6.058-6.052 0-3.342 2.712-6.051 6.058-6.051zM134.972 73.964c3.16 0 5.722 2.559 5.722 5.715 0 3.157-2.561 5.716-5.722 5.716-3.16 0-5.722-2.56-5.722-5.716s2.562-5.715 5.722-5.715z" transform="translate(74.991 -40.836)"/>
                                <path stroke="#FFA793" stroke-linecap="round" stroke-linejoin="round" stroke-width="3.744" d="M57.22 24.879c14.01-.816 20.514-3.362 22.72-3.362 2.207 0 2.86 1.671 2.86 1.671M88.86 20.844s.264-1.565 1.778-2.091c1.513-.526 19.763-5.305 19.763-5.305" transform="translate(74.991 -40.836)"/>
                                <path fill="#FFA793" d="M94.245 161.634s-3.224 1.329-3.54 1.759c-.318-.776-2.519-2.582-2.519-2.582s3.355-.547 6.059.823z" transform="translate(74.991 -40.836)"/>
                                <path stroke="#FFA793" stroke-linecap="round" stroke-linejoin="round" stroke-width="3.744" d="M88.186 160.811s3.355-.547 6.059.823c0 0-3.224 1.329-3.54 1.759-.318-.776-2.519-2.582-2.519-2.582z" transform="translate(74.991 -40.836)"/>
                            </g>
                        </g>
                    </g>
                    <path d="M0 0.221H318V77.208H0z" transform="translate(-151 -10106) translate(154 10106) translate(427 272)"/>
                </g>
                <text fill="#5E5F64" font-family="ShorelinesScriptBold, Shorelines Script Bold" font-size="18" font-weight="bold" transform="translate(-151 -10106) translate(154 10106)">
                    <tspan x="423" y="260">Archetype</tspan>
                </text>
                <text fill="#5E5F64" font-family="ShorelinesScriptBold, Shorelines Script Bold" font-size="18" font-weight="bold" transform="translate(-151 -10106) translate(154 10106)">
                    <tspan x="0" y="265">Athletic</tspan>
                </text>
                <text fill="#5E5F64" font-family="ShorelinesScriptBold, Shorelines Script Bold" font-size="18" font-weight="bold" transform="translate(-151 -10106) translate(154 10106)">
                    <tspan x="8" y="27">Slender</tspan>
                </text>
                <text fill="#5E5F64" font-family="ShorelinesScriptBold, Shorelines Script Bold" font-size="18" font-weight="bold" transform="translate(-151 -10106) translate(154 10106)">
                    <tspan x="4.5" y="377">Conical</tspan>
                </text>
                <text fill="#5E5F64" font-family="ShorelinesScriptBold, Shorelines Script Bold" font-size="18" font-weight="bold" transform="translate(-151 -10106) translate(154 10106)">
                    <tspan x="8" y="144">East West</tspan>
                </text>
                <g transform="translate(-151 -10106) translate(154 10106) translate(427 154)">
                    <mask id="atl4l7m6jv" fill="#fff">
                        <use xlink:href="#m337i8mlzu"/>
                    </mask>
                    <use fill="#FFA793" xlink:href="#m337i8mlzu"/>
                    <g mask="url(#atl4l7m6jv)">
                        <g>
                            <g transform="translate(69.657 -45.891)">
                                <mask id="twevfn62ux" fill="#fff">
                                    <use xlink:href="#l0xeh5ftdw"/>
                                </mask>
                                <path fill="#F4DBFF" d="M73.833.357c-.002 3.89-5.494 15.683-37.566 18.393C4.193 21.46 8.09 60.72 8.09 60.72s4.991 43.993 5.125 54.711c.134 10.718-13.938 49.725-13.186 75.065h19.533c9.142-17.63 11.737-37.633 12.091-57.205.356-19.573 2.81-30.626 2.81-30.626l1.745-.025c1.597 4.699 13.113 40.274 9.105 56.468-3.404 8.896-6.14 8.605-14.708 31.388h114.211c-6.104-19.438-10.705-24.418-13.493-33.074-2.316-22.834 7.111-37.117 9.536-51.533l2.514-.547s4.003 35.111 4.136 48.82c.133 13.707 10.151 36.334 10.151 36.334h20.66c-.931-34.553-14.116-63.776-13.97-74.125.147-10.348 5.127-41.37 4.3-51.028 4.857-21.999-7.827-41.449-18.676-44.115-9.967-2.658-19.903-1.475-28.577-5.402C115.405 11 114.42.357 114.42.357H73.833z" mask="url(#twevfn62ux)"/>
                            </g>
                            <path stroke="#FFA793" stroke-linecap="round" stroke-linejoin="round" stroke-width="3.744" d="M85.458 22.158s2.939-.959 4.407-.384c1.469.574 2.026 1.889 3.928 1.536 1.902-.352 1.616-3.09 3.162-3.361 1.545-.27 18.873 0 18.873 0" transform="translate(69.657 -45.891)"/>
                            <path fill="#FFA793" d="M93.227 166.064c0 2.543-.948 4.604-2.118 4.604s-2.12-2.061-2.12-4.604c0-2.542.95-4.603 2.12-4.603 1.17 0 2.118 2.061 2.118 4.603" transform="translate(69.657 -45.891)"/>
                            <path stroke="#FFA793" stroke-linecap="round" stroke-linejoin="round" stroke-width="3.744" d="M39.929 63.735s-11.558 25.914 5.073 37.918c16.632 12.005 38.338-3.43 38.338-3.43M34.607 63.027c0 3.927 3.021 6.212 3.021 6.212M140.17 64.443s11.557 25.914-5.074 37.918c-16.632 12.005-38.337-3.43-38.337-3.43M145.491 64.443c0 3.824-2.82 5.42-2.82 5.42" transform="translate(69.657 -45.891)"/>
                            <path fill="#FFA793" d="M55.089 88.875c0-2.543 2.056-4.603 4.59-4.603 2.536 0 4.591 2.06 4.591 4.603 0 2.542-2.055 4.603-4.59 4.603-2.535 0-4.591-2.061-4.591-4.603M116.534 89.583c0-2.543 2.055-4.603 4.59-4.603 2.536 0 4.592 2.06 4.592 4.603 0 2.542-2.056 4.603-4.591 4.603-2.536 0-4.59-2.061-4.59-4.603" transform="translate(69.657 -45.891)"/>
                            <path stroke="#FFA793" stroke-linecap="round" stroke-linejoin="round" stroke-width="4" d="M36.726 89.937L35.313 106.225M143.381 90.029L141.96 109.057" transform="translate(69.657 -45.891)"/>
                        </g>
                    </g>
                </g>
                <g transform="translate(-151 -10106) translate(154 10106) translate(428 390)">
                    <mask id="gamjl3nrvz" fill="#fff">
                        <use xlink:href="#uo9l23yfuy"/>
                    </mask>
                    <use fill="#FFA793" xlink:href="#uo9l23yfuy"/>
                    <g mask="url(#gamjl3nrvz)">
                        <g>
                            <g transform="translate(70.669 -51.917) translate(22.753 .403)">
                                <mask id="6t3sgp8s5B" fill="#fff">
                                    <use xlink:href="#od57cmf9oA"/>
                                </mask>
                                <path fill="#B3F2FF" d="M17.646 179.776c4.561-11.985 10.376-13.657 13.363-22.153 2.988-9.062-4.694-39.072-4.694-39.072s-18.137-6.223-4.8-41.222c13.337-35-31.876-32.777-19.206-44.11C14.979 21.885 40.966 22.867 46.654.469L88.32.197s.693 3.521 7.26 5.306c6.565 1.784 34.8.598 42.296 6.975 19.792 16.716 10.101 127.62 10.101 137.866 0 10.246-7.891 13.254-7.891 13.254l-13.258 5.048 2.841 11.131H17.646z" mask="url(#6t3sgp8s5B)"/>
                            </g>
                            <path fill="#B3F2FF" d="M19.953 180.18l-.599-42.837V115.3s-8.57-55.109 3.443-77.668c0 0 45.52 13.055 22.219 43.057-4.972 26.017 1.626 36.893 1.626 36.893l-3.177 38.714.824 23.883H19.953z" transform="translate(70.669 -51.917)"/>
                            <path stroke="#FFA793" stroke-linecap="round" stroke-linejoin="round" stroke-width="3.744" d="M97.95 75.356l-.57 13.469c-3.448 26.858 20.538 28.794 20.538 28.794s16.235 3.08 25.65-12.075c12.98-27.747-9.746-42.213-4.105-49.24M44.841 64.253C46.56 83.61 36.426 93.398 39.89 105.4c3.463 12 14.884 21.448 36.116 12.477 23.425-13.9 12.06-36.723 10.54-41.825M40.487 64.253s2.021 9.907 4.104 11.024M52.679 24.718s5.886 1.225 13.475 1.225c7.588 0 18.884-1.225 18.884-1.225M106.293 21.223s1.467-.119 8.742-2.279c7.275-2.159 15.81-5.943 15.81-5.943" transform="translate(70.669 -51.917)"/>
                            <path stroke="#FFA793" stroke-linecap="round" stroke-linejoin="round" stroke-width="3.744" d="M20.034 170.897s8.087-1.206 13.989-.992c5.902.214 14.596 6.856 15.982 6.149 2.476-2.562 38.936-13.128 43.44-16.664 5.866-3.389 53.169-26.573 53.169-26.573l-1.01-32.335" transform="translate(70.669 -51.917)"/>
                            <path fill="#FFA793" d="M57.895 100.347c.124-2.698 2.412-4.786 5.11-4.663 2.7.124 4.788 2.41 4.665 5.11-.123 2.698-2.412 4.786-5.11 4.663-2.7-.124-4.788-2.411-4.665-5.11M120.544 95.994c-.394-2.672 1.453-5.158 4.126-5.552 2.673-.394 5.16 1.453 5.554 4.125.394 2.673-1.454 5.159-4.127 5.552-2.673.394-5.16-1.453-5.553-4.125" transform="translate(70.669 -51.917)"/>
                        </g>
                    </g>
                </g>
                <g>
                    <g transform="translate(-151 -10106) translate(154 10106) translate(427 39) translate(0 .23)">
                        <use fill="#FFA793" xlink:href="#cbpgqkaupC"/>
                    </g>
                    <g transform="translate(-151 -10106) translate(154 10106) translate(427 39) translate(0 .23)">
                        <mask id="363uvzt1gE" fill="#fff">
                            <use xlink:href="#7y47p711xD"/>
                        </mask>
                        <g mask="url(#363uvzt1gE)">
                            <g transform="translate(82.585 -28.498)">
                                <mask id="inu1ewkr3G" fill="#fff">
                                    <use xlink:href="#avbn33hldF"/>
                                </mask>
                                <use fill="#FFA793" xlink:href="#avbn33hldF"/>
                                <g mask="url(#inu1ewkr3G)">
                                    <g>
                                        <g transform="translate(10.304 -2.812) translate(.263)">
                                            <mask id="dnw7xyn8uI" fill="#fff">
                                                <use xlink:href="#9mng7y39sH"/>
                                            </mask>
                                            <path fill="#9FEEFE" d="M127.704 146.946H1.127S-6.918 22.841 19.978 13.332C46.873 3.822 48.729 9.45 56.121.32H99.9c1.08 16.914 23.835 24.324 34.015 36.563 10.816 11.707-7.71 84.03-7.71 84.03l1.5 26.033z" mask="url(#dnw7xyn8uI)"/>
                                        </g>
                                        <path stroke="#FFA793" stroke-linecap="round" stroke-linejoin="round" stroke-width="3.695" d="M34.438 49.06c-12.819 8.653-10.51 41.098 11.078 44.07 19.332 2.394 29.493-13.415 29.493-28.148M77.138 67.196c-3.312 12.092 8.483 36.223 31.448 26.598 21.62-12.1 11.704-35.221 10.397-36.294" transform="translate(10.304 -2.812)"/>
                                        <path fill="#FFA793" d="M40.794 73.59c0-2.768 2.24-5.012 5.001-5.012s5 2.244 5 5.012c0 2.768-2.239 5.011-5 5.011-2.762 0-5-2.243-5-5.011M98.17 77.546c0-2.913 2.356-5.275 5.264-5.275 2.906 0 5.263 2.362 5.263 5.275 0 2.913-2.357 5.275-5.263 5.275-2.908 0-5.264-2.362-5.264-5.275" transform="translate(10.304 -2.812)"/>
                                        <path stroke="#FFA793" stroke-linecap="round" stroke-linejoin="round" stroke-width="3.695" d="M66.06 49.06c5.909 3.548 7.896 11.078 7.896 11.078M80.8 60.665s2.355-6.208 6.842-7.913M28.392 46.95c-.952 4.459 1.348 6.857 1.348 6.857M81.852 15.826s3.86 1.756 7.588 1.994c3.73.237 12.822.384 13.934.886s1.112.812 1.112.812M53.427 10.55s7.344 3.12 11.23 4.197c3.887 1.079 8.773 1.079 8.773 1.079M28.224 78.601c2.904 16.21-8.61 26.817-13.002 39.954-4.393 13.137-5.489 19.643-5.484 28.624" transform="translate(10.304 -2.812)"/>
                                        <path fill="#F3A493" d="M70.907 141.735c2.213.737 2.93-1.175 2.93-1.175s1.998-1.453.776-2.155c-1.222-.702-5.293.61-5.344 2.252 0 0-.498 1.403 1.638 1.078" transform="translate(10.304 -2.812)"/>
                                        <path stroke="#FFA793" stroke-linecap="round" stroke-linejoin="round" stroke-width="3.695" d="M111.569 91.79s-2.872 8.308-2.872 16.232c0 7.924 7.568 23.195 8.949 39.157" transform="translate(10.304 -2.812)"/>
                                    </g>
                                </g>
                            </g>
                        </g>
                    </g>
                </g>
                <g transform="translate(-151 -10106) translate(154 10106) translate(833 273)">
                    <mask id="pce0sia6pK" fill="#fff">
                        <use xlink:href="#ge0f3mjjoJ"/>
                    </mask>
                    <use fill="#FFA793" xlink:href="#ge0f3mjjoJ"/>
                    <g mask="url(#pce0sia6pK)">
                        <g>
                            <g transform="translate(74.707 -43.286)">
                                <mask id="il07d0e3oM" fill="#fff">
                                    <use xlink:href="#gyszz4e6dL"/>
                                </mask>
                                <path fill="#F4DBFF" d="M71.808.313h60.798c6.669 1.95 17.722 1.431 23.65 3.37 21.45 10.131 8.153 81.023 7.882 96.538-1.158 12.856 10.257 22.953-4.365 73.972H0c4.58-33.195 17.224-51.744 18.553-75.73 1.64-19.737-9.975-80.045 18.335-87.62 18.957-.385 23.21.245 34.92-10.53" mask="url(#il07d0e3oM)"/>
                            </g>
                            <path stroke="#FFA793" stroke-linecap="round" stroke-linejoin="round" stroke-width="3.744" d="M43.528 61.185c.419 19.055 2.41 35.508 18.295 39.89 19.814 2.848 22.34-16.634 25.234-27.518M103.61 75.994c4.3 25.246 17.59 28.816 29.946 21.181 12.356-7.635 11.068-31.88 12.356-37.226M40.463 59.33c0 5.345 3.065 10.507 3.065 10.507M145.22 67.205s3.046-2.68 4.775-6.778M63.76 15.421s18.708.338 21.003-1.265c2.295-1.603 1.013-2.413 3.52-2.413M101.77 13.46s-.054.755 4.084.755 15.898-2.855 25.344-2.43" transform="translate(74.707 -43.286)"/>
                            <path fill="#F3A493" d="M22.07 174.284h1.616c7.091-20.633 18.1-32.284 18.694-38.528.594-6.244-1.947-36.422 2.988-52.322C40.81 91.894 36.84 142 32.572 149.4c-4.27 7.4-10.501 24.884-10.501 24.884" transform="translate(74.707 -43.286)"/>
                            <path fill="#FFA793" d="M58.855 89.923c0-2.56 2.059-4.635 4.598-4.635 2.54 0 4.598 2.075 4.598 4.635 0 2.56-2.058 4.635-4.598 4.635-2.539 0-4.598-2.075-4.598-4.635M120.163 89.923c0-2.56 2.058-4.635 4.598-4.635s4.598 2.075 4.598 4.635c0 2.56-2.059 4.635-4.598 4.635-2.54 0-4.598-2.075-4.598-4.635" transform="translate(74.707 -43.286)"/>
                            <path stroke="#FFA793" stroke-linecap="round" stroke-linejoin="round" stroke-width="4" d="M137.329 174.284s3.552-41.938 3.418-51.505c1.923-10.07 4.472-44.235 4.472-55.574" transform="translate(74.707 -43.286)"/>
                            <path fill="#FFA793" d="M84.734 163.398c.723.848 1.626-.38 2.258 0 .633.38.272 2.233 1.13 2.233.858 0 .904-2.01 1.671-2.233.768-.224 2.168.402 2.168-.224 0-.625-1.716-1.25-3.613-1.25s-4.337.625-3.614 1.474" transform="translate(74.707 -43.286)"/>
                        </g>
                    </g>
                </g>
                <g transform="translate(-151 -10106) translate(154 10106) translate(833 155)">
                    <mask id="2t3kqvbs8O" fill="#fff">
                        <use xlink:href="#9d6r840hzN"/>
                    </mask>
                    <use fill="#FFA793" xlink:href="#9d6r840hzN"/>
                    <g mask="url(#2t3kqvbs8O)">
                        <g>
                            <g transform="translate(79.755 -49.881)">
                                <mask id="c2oqbpt9nQ" fill="#fff">
                                    <use xlink:href="#vqxbl1wnnP"/>
                                </mask>
                                <path fill="#B3F2FF" d="M57.201.42h48.495c5.826 9.264 18.076 13.412 34.988 25.74 26.046 20.491 7.812 86.975 9.415 100.333 1.603 13.358 8.83 41.335 8.124 51.37H.22c-1.38-25.082 4.098-44.578 5.463-58.95C7.049 104.544-11.971 32.658 18.85 9.856 28.98 3.248 52.525 5.657 57.201.42" mask="url(#c2oqbpt9nQ)"/>
                            </g>
                            <path stroke="#FFA793" stroke-linecap="round" stroke-linejoin="round" stroke-width="3.744" d="M28.927 62.225c.215 2.404.516 6.072-4.467 17.63-4.723 13.644 1.872 28.004 22.82 24.04 17.476-4.898 15.814-26.607 16.631-26.268M25.587 59.66c-.304 5.482 2.534 7.697 2.534 7.697M73.207 72.897c0 10.035-4.794 22.723 6.749 33.976 15.144 15.303 38.828 8.533 43.671-7.428 6.206-17.902-7.376-25.306-5.081-31.446M121.431 76.327c3.835-3.258 5.113-9.611 5.113-9.611M49.85 7.056c10.036 5.454 21.729 7.042 24.606 7.89 2.877.849 2.877 3.016 2.877 3.016M83.724 19.807s.35-2.265 3.136-1.776c3.252.31 4.56 3.394 26.902 2.24" transform="translate(79.755 -49.881)"/>
                            <path fill="#FFA793" d="M30.038 87.565c0-2.657 2.29-4.812 5.113-4.812 2.824 0 5.113 2.155 5.113 4.812 0 2.657-2.29 4.81-5.113 4.81-2.824 0-5.113-2.153-5.113-4.81M97.145 101.998c0-2.834 2.575-5.132 5.752-5.132 3.177 0 5.752 2.298 5.752 5.132 0 2.835-2.575 5.132-5.752 5.132-3.177 0-5.752-2.297-5.752-5.132" transform="translate(79.755 -49.881)"/>
                            <path stroke="#FFA793" stroke-linecap="round" stroke-linejoin="round" stroke-width="3.744" d="M77.333 178.337c-.971-2.085-8.208-4.91-7.638-3.443.57 1.467 1.132 1.665 2.404 1.902 1.273.236 3.41-.174 3.41-.174" transform="translate(79.755 -49.881)"/>
                            <path stroke="#FFA793" stroke-linecap="round" stroke-linejoin="round" stroke-width="4" d="M136.131 178.337c-3.507-17.141-13.3-35.856-14.228-38.545-1.685-11.358 1.425-25.725 4.913-66.02" transform="translate(79.755 -49.881)"/>
                            <path fill="#FFA793" d="M18.534 177.695s7.85-32.866 5.269-47.907c-2.582-15.042 2.78-30.997 2.78-30.997l1.328 1.396s-1.356 8.685.819 19.39c2.175 10.706 10.345 21.245.09 58.118H18.535z" transform="translate(79.755 -49.881)"/>
                        </g>
                    </g>
                </g>
                <g transform="translate(-151 -10106) translate(154 10106) translate(833 390)">
                    <mask id="4gnfmjaefS" fill="#fff">
                        <use xlink:href="#prjq0x1w0R"/>
                    </mask>
                    <use fill="#FFA793" xlink:href="#prjq0x1w0R"/>
                    <g mask="url(#4gnfmjaefS)">
                        <g>
                            <path fill="#FFE081" d="M155.471 171.244l-1.358-10.163C151.525 133.631 157.18 47.477 144.97 31c-12.209-16.477-38.233-16.262-45.46-31H54.074C35.605 9.868 32.998 5.123 18.28 9.208-12.597 19.334 4.266 144.93 7.486 146.815c1.305 4.002 7.565 24.429 7.565 24.429h140.42z" transform="translate(80.764 -46.85)"/>
                            <path stroke="#FFA793" stroke-linecap="round" stroke-linejoin="round" stroke-width="3.744" d="M59.227 9.927c1.645 1.872 11.148 2.824 12.052 3.868.904 1.044.904 2.957.904 2.957M79.587 16.752s.825-1.897 2.169-1.86l15.105.408" transform="translate(80.764 -46.85)"/>
                            <path stroke="#FFA793" stroke-width="4" d="M30.23 101.754c2.262 17.7.509 33.312 1.35 37.596.84 4.285 10.99 31.894 10.99 31.894" transform="translate(80.764 -46.85)"/>
                            <path stroke="#FFA793" stroke-linecap="round" stroke-linejoin="round" stroke-width="3.744" d="M28.407 51.497c.358 21.094-10.716 26.904-5.337 40.931 4.225 11.19 18.795 19.525 35.532 10.39 17.499-9.059 12.39-32.742 13.581-38.95M77.784 62.441c1.34 6.11-6.123 30.45 9.196 41.564 13.02 8.758 25.42 6.228 36.122-5.988 10.32-12.696 2.738-25.707-.642-32.959-3.379-7.251-1.222-11.7-1.222-11.7" transform="translate(80.764 -46.85)"/>
                            <path fill="#FFA793" d="M135.729 171.244h-5.462c-2.045-11.186-12.43-37.1-12.43-42.698 0-5.597 7.614-29.147 5.876-31.498l1.975-2.74c2.534 8.965 4.796 44.301 5.081 52.544.286 8.242 4.96 24.392 4.96 24.392" transform="translate(80.764 -46.85)"/>
                            <path stroke="#FFA793" stroke-linecap="round" stroke-linejoin="round" stroke-width="3.744" d="M25.443 52.118c-.768 7.42 1.703 8.066 1.703 8.066M122.156 63.906c2.472-3.22 1.754-8.066 1.754-8.066" transform="translate(80.764 -46.85)"/>
                            <path fill="#FFA793" d="M33.97 82.06c-.403-3.745 2.43-7.13 6.327-7.56 3.897-.432 7.383 2.254 7.787 5.999.403 3.744-2.43 7.128-6.327 7.56-3.897.43-7.383-2.256-7.787-6M98.749 83.586c-.397-3.573 2.44-6.809 6.34-7.226 3.897-.418 7.379 2.14 7.776 5.714.397 3.572-2.441 6.808-6.339 7.226-3.898.418-7.38-2.14-7.777-5.714" transform="translate(80.764 -46.85)"/>
                        </g>
                    </g>
                </g>
                <g transform="translate(-151 -10106) translate(154 10106) translate(834 39)">
                    <mask id="i0v93ftsfU" fill="#fff">
                        <use xlink:href="#qnr7iocfoT"/>
                    </mask>
                    <use fill="#FFA793" xlink:href="#qnr7iocfoT"/>
                    <g mask="url(#i0v93ftsfU)">
                        <g>
                            <g transform="translate(78.745 -47.393)">
                                <mask id="9v0cfcceyW" fill="#fff">
                                    <use xlink:href="#pwriyavjeV"/>
                                </mask>
                                <path fill="#F4DBFF" d="M0 178.74h157.794c1.593-22.578-3.068-46.89-5.356-55.643-2.288-8.754 1.319-17.741 3.667-51.352 3.725-66.54-24.343-60.822-28.583-61.69C105.652 8.411 98.568.287 98.568.287h-46.03C41.23 14.494 23.954 16.073 11.336 23.483-2.332 32.479 6.8 119.8 7.273 127.83 7.746 135.859 0 164.98 0 178.74" mask="url(#9v0cfcceyW)"/>
                            </g>
                            <path stroke="#FFA793" stroke-linecap="round" stroke-linejoin="round" stroke-width="3.744" d="M37.602 61.91c-.313 6.155-3.434 9.868-6 14.643-2.566 4.774-1.35 19.522 8.09 28.117 15.184 13.826 41.25-1.08 43.757-16.677" transform="translate(78.745 -47.393)"/>
                            <path stroke="#FFA793" stroke-linecap="round" stroke-linejoin="round" stroke-width="3.744" d="M83.524 75.366c-.21 1.784-.373 3.916-.457 6.48-.541 16.442 16.186 27.707 30.389 24.052 14.202-3.654 24.098-19.478 14.772-35.673-2.5-4.822-3.103-8.952-3.103-8.952" transform="translate(78.745 -47.393)"/>
                            <path fill="#F3A493" stroke="#F3A493" stroke-width="3" d="M83.338 75.927c.011-3.333-5.132-10.316-3.896-10.395 1.235-.08 1.38 2.46 3.196 2.3 1.817-.157 2.04-3.827 3.16-3.32l.033.057.058.11c1.175 2.266-1.034 1.984-2.086 11.274l-.465-.026z" transform="translate(78.745 -47.393)"/>
                            <path stroke="#FFA793" stroke-linecap="round" stroke-linejoin="round" stroke-width="3.744" d="M29.164 60.634c0 7.092 5.072 10.85 5.072 10.85M128.675 70.414c3.978-3.141 4.465-9.78 4.465-9.78" transform="translate(78.745 -47.393)"/>
                            <path fill="#F3A493" d="M37.406 84.888c0-3.172 2.555-5.744 5.706-5.744 3.151 0 5.706 2.572 5.706 5.744 0 3.173-2.555 5.744-5.706 5.744-3.151 0-5.706-2.571-5.706-5.744M116.656 83.612c0-3.173 2.554-5.745 5.706-5.745 3.151 0 5.706 2.572 5.706 5.745 0 3.172-2.555 5.744-5.706 5.744-3.152 0-5.706-2.572-5.706-5.744" transform="translate(78.745 -47.393)"/>
                            <path fill="#FFA793" d="M79.25 176.797c3.49-4.834 8.242-3.718 8.242-3.718" transform="translate(78.745 -47.393)"/>
                            <path fill="#F3A493" d="M81.786 174.396c2.843 1.65 4.438-1.429 4.438-1.429" transform="translate(78.745 -47.393)"/>
                            <path fill="#FFA793" d="M130.683 98.93s.17 21.89 1.32 29.055c1.15 7.165-2.218 30.507 4.941 48.812h-7.827s-6.797-19.998-6.066-30.616c.732-10.617 6.225-26.826 6.36-30.62l.587-16.631h.685z" transform="translate(78.745 -47.393)"/>
                            <path stroke="#FFA793" stroke-linecap="round" stroke-linejoin="round" stroke-width="3.744" d="M41.21 14.042c7.394 2.411 20.256 3.373 25.512 1.364 3.64-.153 4.286 2.465 4.286 2.465M83.688 17.233s1.625-1.985 3.423-2.748c1.798-.762 11.618-.34 24.473-4.273" transform="translate(78.745 -47.393)"/>
                            <g transform="translate(78.745 -47.393) translate(19.654 93.824)">
                                <mask id="goha4q6q7Y" fill="#fff">
                                    <use xlink:href="#rvipbenpiX"/>
                                </mask>
                                <path fill="#FFA793" d="M13.808 25.598c-.2-4.68-2.824-24.848-1.083-25.381l.855 1.978c-1.937 6.397 4.154 29.038 2.05 41.5-1.857 11.02-12.554 23.593-13.706 39.307H.103c1.508-12.45 7.08-21.926 8.53-25.535 1.449-3.608 5.375-27.19 5.175-31.869z" mask="url(#goha4q6q7Y)"/>
                            </g>
                        </g>
                    </g>
                </g>
                <text fill="#5E5F64" font-family="ShorelinesScriptBold, Shorelines Script Bold" font-size="18" font-weight="bold" transform="translate(-151 -10106) translate(154 10106)">
                    <tspan x="826" y="140">Asymmetrical</tspan>
                </text>
                <text fill="#5E5F64" font-family="ShorelinesScriptBold, Shorelines Script Bold" font-size="18" font-weight="bold" transform="translate(-151 -10106) translate(154 10106)">
                    <tspan x="824" y="378">Teardrop</tspan>
                </text>
                <g>
                    <text fill="#5E5F64" font-family="ShorelinesScriptBold, Shorelines Script Bold" font-size="18" font-weight="bold" transform="translate(-151 -10106) translate(154 10106) translate(428.128)">
                        <tspan x="2.372" y="27">Round Set</tspan>
                    </text>
                    <path stroke="#5E5F64" stroke-linecap="round" d="M2.372 18.183C2.286 20.121 1.495 21.09 0 21.09" transform="translate(-151 -10106) translate(154 10106) translate(428.128)"/>
                </g>
                <text fill="#5E5F64" font-family="ShorelinesScriptBold, Shorelines Script Bold" font-size="18" font-weight="bold" transform="translate(-151 -10106) translate(154 10106)">
                    <tspan x="832" y="27">Close Set</tspan>
                </text>
                <g>
                    <text fill="#5E5F64" font-family="ShorelinesScriptBold, Shorelines Script Bold" font-size="18" font-weight="bold" transform="translate(-151 -10106) translate(154 10106) translate(424 117)">
                        <tspan x="3" y="27">Relaxed</tspan>
                    </text>
                    <path stroke="#5E5F64" stroke-linecap="round" d="M2.372 18c-.086 1.938-.877 2.906-2.372 2.906" transform="translate(-151 -10106) translate(154 10106) translate(424 117)"/>
                </g>
                <g>
                    <text fill="#5E5F64" font-family="ShorelinesScriptBold, Shorelines Script Bold" font-size="18" font-weight="bold" transform="translate(-151 -10106) translate(154 10106) translate(427 350)">
                        <tspan x="3" y="27">Round</tspan>
                    </text>
                    <path stroke="#5E5F64" stroke-linecap="round" d="M2.372 18c-.086 1.938-.877 2.906-2.372 2.906" transform="translate(-151 -10106) translate(154 10106) translate(427 350)"/>
                </g>
                <text fill="#5E5F64" font-family="ShorelinesScriptBold, Shorelines Script Bold" font-size="18" font-weight="bold" transform="translate(-151 -10106) translate(154 10106)">
                    <tspan x="831" y="262">Bell Shape</tspan>
                </text>
            </g>
        </g>
    </g>
</svg>
