<svg xmlns="http://www.w3.org/2000/svg" xmlns:xlink="http://www.w3.org/1999/xlink" width="535" height="592" viewBox="0 0 535 592">
    <defs>
        <path id="bfpnjoxyda" d="M0.108 555.274L265.108 555.274 265.108 591.217 0.108 591.217z"/>
    </defs>
    <g fill="none" fill-rule="evenodd">
        <g>
            <g>
                <g transform="translate(-757 -2329) translate(757 2329)">
                    <g>
                        <g>
                            <path fill="#FEFBCD" d="M0 0H535V570H0z"/>
                            <path fill="#FEFBCD" d="M451.475 583.555c-.245.063-.532-.037-.804-.067l.01-.414c.46-.083.92-.168 1.38-.253.05.096.095.194.144.29-.242.155-.465.376-.73.444m5.823-9.455c-2.876.163-5.751.277-8.63.4-6.337.271-12.682.624-19.019.778-5.303.127-10.605.113-15.9-.012-8.536-.2-17.055-.51-25.622-.247-7.74.24-15.48.26-23.214.276-6.632.012-13.26-.018-19.876-.215-5.735-.17-11.447-.599-17.168-.929-.61-.037-1.209-.188-1.813-.287.023-.14.048-.282.068-.42.978.032 1.951.08 2.93.1.955.016 1.917-.033 2.872.007 6.905.27 13.802.69 20.716.798 5.81.09 11.64-.192 17.46-.284 4.79-.076 9.577-.105 14.366-.17 3.755-.052 7.513-.13 11.267-.195 1.248-.02 2.504-.092 3.748-.046 9.835.343 19.667.725 29.548.233 7.74-.385 15.48-.701 23.216-.996 1.074-.04 2.146.282 3.228.352.774.055 1.56-.017 2.341-.048.462-.02.922-.069 1.562-.12-.449 1.14-1.36.984-2.08 1.025m-138.567-1.028c1.732-.454 2.92-.242 4.594.315-1.794.448-3.001.406-4.594-.315m-2.879.228c-5.326-.33-10.688-.365-15.969-1.17 1.757-.655 3.494-.153 5.23-.13 1.828.025 3.648.167 5.474.268 1.787.1 3.572.21 5.362.315-.033.24-.066.48-.097.717m-4.888 8.37c-1.84-.11-3.68-.217-5.522-.328l.006-.544c1.95-.516 3.753-.003 5.57.417-.018.15-.034.3-.054.454m-9.048-3.306c-1.364-.097-2.785-.045-3.994-1.358.597-.085 1.202-.264 1.788-.241 2.703.108 5.402.257 8.097.426.775.048 1.923.015 1.78.973-.16 1.064-1.272.592-2.003.553-1.893-.095-3.781-.217-5.668-.353m-.086 2.65c-.091.004-.188-.146-.281-.227.125-.114.252-.225.44-.395.16.197.265.323.371.45-.175.063-.351.16-.53.172m14.826.457c1.206-.525 2.256-.112 3.327.18-.022.164-.045.327-.066.492-1.096-.064-2.192-.125-3.285-.193l.024-.479m-20.704-.896c-1.153-.104-2.305-.207-3.457-.313.03-.174.064-.352.097-.527l3.438.358-.078.482m-.969-3.007c-1.243.487-2.063.425-2.651-.526 1.485-.816 1.485-.816 2.651.526m-9.647 5.337c-.249.015-.505-.102-.759-.158.028-.132.056-.263.082-.395.443.003.883.002 1.325.005.023.095.052.188.076.284-.242.094-.48.246-.724.264m234.483-5.29c1.442-.182 2.888-.617 3.218-2.105.341-1.494-.577-2.54-1.979-3.185-1.28-.592-2.616-1.09-4.169-1.731.61-.287 1.07-.506 1.682-.8-.25-.23-.4-.499-.62-.545-2.687-.593-5.35-1.373-8.092-1.667-4.725-.505-9.496-.885-14.272-.984-8.083-.168-16.185-.072-24.28-.097-5.003-.015-10.005-.08-15.012-.055-1.314.006-2.631.305-3.953.418-.93.078-1.866.093-2.796.093-2.2 0-4.4-.06-6.6-.028-1.838.029-3.675.16-5.509.236-.367.016-.75-.083-1.099-.005-3.17.678-6.32.293-9.48.265-2.792-.027-5.604.234-8.394.187-5.302-.09-10.586-.425-15.89-.452-6.332-.033-12.683.25-19.014.224-11.416-.05-22.863.684-34.255.05-7.919-.439-15.85-.757-23.769-1.199-8.798-.486-17.594-1.008-26.38-1.605-1.726-.121-3.389-.708-5.103-.98-.907-.143-1.884-.212-2.8-.084-2.367.336-4.627.492-6.952-.257-1.377-.441-3.044-.232-4.584-.286-1.846-.066-3.62-.21-5.248-1.136-.732-.417-1.819-.362-2.752-.473-.557-.066-1.128-.038-1.65-.052-.06-.268-.146-.408-.11-.517.615-1.86.168-2.683-1.887-2.719-1.655-.024-2.82-.354-3.446-1.808-.344-.793-1.076-1.264-2.119-.939-1.051.327-1.206 1.104-1.126 1.964.005.044.013.089.02.133.72.146 1.142 1.067.324 1.515-.217.12-.416.241-.628.36-.148.246-.318.477-.517.68.322.098.639.206.978.267.792.147 1.011 1.11.308 1.546-1.496.924-2.634 2.036-3.756 3.234 3.344 1.165 3 3.338.642 5.614.895.193 1.777.411 2.713.497.488.046.861.574.718 1-.473 1.429-.556 2.88-1.086 4.25 1.528-.009 3.029-.018 4.563-.418.68-.179 1.392.29 1.215.963-.32 1.22-3.098 8.417-4.31 8.411.843.004 1.265.782.741 1.407-.223.268-.431.546-.641.819.26-.138.518-.289.77-.455.673-.353 1.366-.036 1.468.633.167 1.083.458 2.145.68 3.217.851.069 1.69.165 2.536.202.074-.685.428-1.422 1.065-2.124.76-.831 1.698-.86 2.614-.507 1.465.562 2.944.689 4.522.332.424-.095.914-.14 1.316-.04 1.601.403 3.073.605 4.325-.894.245-.292 1.105-.207 1.685-.239.556-.031 1.115.01 1.83.022-.243-1.21-1.182-1.248-1.997-1.354-1.088-.14-2.204-.142-3.281-.31-.569-.09-1.083-.4-1.575-.88 1.974-.865 3.938-1.22 5.99-1.041 4.382.382 8.755.835 13.146 1.155 4.392.32 8.8.519 13.201.766 3.739.212 7.493.34 11.22.64 11.193.89 22.406 1.612 33.689 1.61 5.301 0 10.605-.082 15.911-.143.792-.01 1.584-.115 2.436-.487-.348-.099-.696-.282-1.05-.28-2.354 0-4.715.08-7.071.065-5.593-.03-11.186-.074-16.777-.159-2.058-.032-4.142-.045-6.155-.34-2.443-.356-4.907-.29-7.363-.425-7.624-.42-15.232-1.012-22.85-1.496-3.077-.196-6.172-.24-9.248-.444-2.486-.167-4.961-.444-7.43-.718-.756-.081-1.23-.527-.912-1.262.309-.717.892-.443 1.479-.278 2.584.708 5.19 1.012 7.957.426 2.576-.543 5.13-.114 7.664.275.772.115 1.574.102 2.361.165.726.056 1.492.016 2.159.219 2.161.658 4.355.86 6.665.645.921-.086 1.867.17 2.8.274.791.088 1.629.396 2.36.238 3.714-.798 7.349-.17 11.008-.052 3.305.104 6.601.326 9.905.468.629.028 1.273-.088 1.957-.487-.437-.096-.865-.25-1.308-.274-7.185-.43-14.378-.822-21.56-1.273-1.104-.072-2.361.064-3.333-.899.305-.231.496-.47.73-.528.423-.1.892-.168 1.311-.113 3.222.443 6.41.796 9.745.639 3.967-.186 7.938.186 11.903.317.37.012.776-.066 1.096.041 2.423.83 4.89.447 7.383.08 1.009-.146 2.057.014 3.088-.018.917-.03 1.833-.134 2.76-.37-1.268-.631-2.498-1.289-4.04-.629-.193.082-.456.123-.655.079-3.162-.748-6.412.157-9.638-.125-6.054-.53-12.179-.587-18.262-.94-5.793-.335-11.57-.799-17.358-1.208-.146-.009-.295-.025-.434-.059-.759-.187-1.873-.263-1.625-1.213.27-1.022 1.295-.521 2.06-.46 2.188.17 4.38.307 6.57.46 6.221.44 12.438.923 18.666 1.302 3.806.233 7.632.31 11.45.453.366.012.735.014 1.103-.006 3.51-.195 7.021-.405 10.533-.585.809-.043 1.62.035 2.43.017 2.273-.054 4.546-.058 6.813-.231.836-.063 1.647-.544 2.12-.709 3.022.301 5.752.675 8.506.818 2.12.11 4.274-.075 6.411-.114 5.818-.107 11.639-.235 17.456-.293 4.031-.036 8.055.094 12.082.016.975-.018 1.997-.486 2.937-.882 1.278-.539 2.538-.665 3.89-.494 1.01.128 2.053.1 3.08.16.51.03 1.183-.07 1.496.179 1.89 1.49 4.224.583 6.335.788.646.064 1.434-.293 2.057-.623 2.697-1.434 5.316-1.4 7.961-.186.656.299 1.414.422 2.123.623l.267-.357-.728-1.006c.088-.102.17-.285.263-.293 2.995-.25 5.97-.622 8.78.757.856.42 2.139.174 3.23.214.857.029 1.74-.07 2.572.06 1.157.18 2.16.158 3.058-.71.71-.684 1.508-1.053 2.574-.557.38.174 1.006.072 1.481-.048 1.867-.469 3.427-.158 5.197.57 1.597.655 3.7.455 5.586.471 2.859.024 5.728-.105 8.59-.127.292-.003.575.263 1.15.55-.647.282-.995.544-1.357.576-2.339.199-4.702-.19-7.035.53-.354.111-.86-.063-1.243-.21-1.48-.568-2.858-.388-4.171.518-.235.164-.484.326-.752.438-1.563.638-2.46.387-3.448-.956-2.252.174-4.518.337-6.778.537-.408.037-.96.141-1.18.395-.732.837-1.72.732-2.649.827-1.282.131-2.623-.157-3.782.736-.197.15-.95.075-.996-.045-.504-1.402-1.627-.63-2.566-.584-1.175.06-2.35.04-3.528.067-1.996.047-2.16.195-2.309 2.036-.118 1.475-.598 1.885-2.454 1.956-5.159.199-10.319.368-15.478.56-.804.03-1.607.12-2.42.338 3.929.455 7.912.11 11.867.008 4.052-.102 8.111-.37 12.164-.5 4.05-.132 8.1-.182 12.412-.27-1.562 1.146-3.872-.115-4.958 1.972.592.11 1.05.271 1.513.264 3.096-.057 6.192-.133 9.287-.242 1.285-.045 2.45-.059 3.357.987.31.365 1.174.47 1.791.46 5.895-.104 11.785-.295 17.677-.38 2.87-.043 5.73.128 8.602.12 2.43-.01 4.865-.114 7.296-.218.835-.037 1.774.097 2.214-.964.095-.234.925-.32 1.411-.335 1.403-.044 2.804 0 4.204-.024 1.747-.03 2.915-.627 3.084-1.528.155-.846-1.094-1.947-2.586-2.272-.404-.09-.82-.166-1.23-.248l.077-.41 6.119.645c-.502-2.412-2.47-2.87-4.608-3.258.72-1.066 1.514-1.583 2.697-1.733" transform="matrix(-1 0 0 1 781.217 0)"/>
                            <path fill="#FFFDDF" d="M193.475 583.555c-.245.063-.532-.037-.804-.067l.01-.414c.46-.083.92-.168 1.38-.253.05.096.095.194.144.29-.242.155-.465.376-.73.444m5.823-9.455c-2.876.163-5.751.277-8.63.4-6.337.271-12.682.624-19.019.778-5.303.127-10.605.113-15.9-.012-8.536-.2-17.055-.51-25.622-.247-7.74.24-15.48.26-23.214.276-6.632.012-13.26-.018-19.876-.215-5.735-.17-11.447-.599-17.168-.929-.61-.037-1.209-.188-1.813-.287.023-.14.048-.282.068-.42.978.032 1.951.08 2.93.1.955.016 1.917-.033 2.872.007 6.905.27 13.802.69 20.717.798 5.809.09 11.64-.192 17.46-.284 4.79-.076 9.576-.105 14.365-.17 3.755-.052 7.513-.13 11.267-.195 1.248-.02 2.504-.092 3.748-.046 9.835.343 19.667.725 29.548.233 7.74-.385 15.48-.701 23.216-.996 1.074-.04 2.146.282 3.228.352.774.055 1.56-.017 2.341-.048.462-.02.922-.069 1.562-.12-.449 1.14-1.36.984-2.08 1.025m-138.567-1.028c1.732-.454 2.92-.242 4.594.315-1.794.448-3.001.406-4.594-.315m-2.879.228c-5.326-.33-10.688-.365-15.969-1.17 1.757-.655 3.494-.153 5.23-.13 1.828.025 3.648.167 5.474.268 1.787.1 3.572.21 5.362.315-.033.24-.066.48-.097.717m-4.888 8.37c-1.84-.11-3.68-.217-5.522-.328l.006-.544c1.95-.516 3.753-.003 5.57.417-.018.15-.034.3-.054.454m-9.048-3.306c-1.364-.097-2.785-.045-3.994-1.358.597-.085 1.202-.264 1.788-.241 2.703.108 5.402.257 8.097.426.775.048 1.923.015 1.78.973-.16 1.064-1.272.592-2.003.553-1.893-.095-3.781-.217-5.668-.353m-.086 2.65c-.091.004-.188-.146-.281-.227.125-.114.252-.225.44-.395.16.197.265.323.371.45-.175.063-.351.16-.53.172m14.826.457c1.206-.525 2.256-.112 3.327.18-.022.164-.045.327-.066.492-1.096-.064-2.192-.125-3.285-.193l.024-.479m-20.704-.896c-1.153-.104-2.305-.207-3.457-.313.03-.174.064-.352.097-.527l3.438.358-.078.482m-.969-3.007c-1.243.487-2.063.425-2.651-.526 1.485-.816 1.485-.816 2.651.526m-9.647 5.337c-.249.015-.505-.102-.759-.158.028-.132.056-.263.082-.395.443.003.883.002 1.325.005.023.095.052.188.076.284-.242.094-.48.246-.724.264m234.483-5.29c1.442-.182 2.888-.617 3.218-2.105.341-1.494-.577-2.54-1.979-3.185-1.28-.592-2.616-1.09-4.169-1.731.61-.287 1.07-.506 1.682-.8-.25-.23-.4-.499-.62-.545-2.687-.593-5.35-1.373-8.092-1.667-4.725-.505-9.496-.885-14.272-.984-8.083-.168-16.185-.072-24.28-.097-5.003-.015-10.005-.08-15.012-.055-1.314.006-2.631.305-3.953.418-.93.078-1.866.093-2.796.093-2.2 0-4.4-.06-6.6-.028-1.838.029-3.675.16-5.509.236-.367.016-.75-.083-1.099-.005-3.17.678-6.32.293-9.48.265-2.792-.027-5.604.234-8.394.187-5.302-.09-10.586-.425-15.89-.452-6.332-.033-12.683.25-19.014.224-11.416-.05-22.863.684-34.255.05-7.919-.439-15.85-.757-23.769-1.199-8.798-.486-17.594-1.008-26.38-1.605-1.726-.121-3.389-.708-5.103-.98-.907-.143-1.884-.212-2.8-.084-2.367.336-4.627.492-6.952-.257-1.377-.441-3.044-.232-4.584-.286-1.846-.066-3.62-.21-5.248-1.136-.732-.417-1.819-.362-2.752-.473-.557-.066-1.128-.038-1.65-.052-.06-.268-.146-.408-.11-.517.615-1.86.168-2.683-1.887-2.719-1.655-.024-2.82-.354-3.446-1.808-.344-.793-1.076-1.264-2.119-.939-1.051.327-1.206 1.104-1.126 1.964.005.044.013.089.02.133.72.146 1.142 1.067.324 1.515-.217.12-.416.241-.628.36-.148.246-.318.477-.517.68.322.098.639.206.978.267.792.147 1.011 1.11.308 1.546-1.496.924-2.634 2.036-3.756 3.234 3.344 1.165 3 3.338.642 5.614.895.193 1.777.411 2.713.497.488.046.861.574.718 1-.473 1.429-.556 2.88-1.086 4.25 1.528-.009 3.029-.018 4.563-.418.68-.179 1.392.29 1.215.963-.32 1.22-3.098 8.417-4.31 8.411.843.004 1.265.782.741 1.407-.223.268-.431.546-.641.819.26-.138.518-.289.77-.455.673-.353 1.366-.036 1.468.633.167 1.083.458 2.145.68 3.217.851.069 1.69.165 2.536.202.074-.685.428-1.422 1.065-2.124.76-.831 1.698-.86 2.614-.507 1.465.562 2.944.689 4.522.332.424-.095.914-.14 1.316-.04 1.601.403 3.073.605 4.325-.894.245-.292 1.105-.207 1.685-.239.556-.031 1.115.01 1.83.022-.243-1.21-1.182-1.248-1.997-1.354-1.088-.14-2.204-.142-3.281-.31-.569-.09-1.083-.4-1.575-.88 1.974-.865 3.938-1.22 5.99-1.041 4.382.382 8.755.835 13.146 1.155 4.392.32 8.8.519 13.201.766 3.739.212 7.493.34 11.22.64 11.193.89 22.406 1.612 33.689 1.61 5.301 0 10.605-.082 15.911-.143.792-.01 1.584-.115 2.436-.487-.348-.099-.696-.282-1.05-.28-2.354 0-4.715.08-7.071.065-5.593-.03-11.186-.074-16.777-.159-2.058-.032-4.142-.045-6.155-.34-2.443-.356-4.907-.29-7.363-.425-7.624-.42-15.232-1.012-22.85-1.496-3.077-.196-6.172-.24-9.248-.444-2.486-.167-4.961-.444-7.43-.718-.756-.081-1.23-.527-.912-1.262.309-.717.892-.443 1.479-.278 2.584.708 5.19 1.012 7.957.426 2.576-.543 5.13-.114 7.664.275.772.115 1.574.102 2.361.165.726.056 1.492.016 2.159.219 2.161.658 4.355.86 6.665.645.921-.086 1.867.17 2.8.274.791.088 1.629.396 2.36.238 3.714-.798 7.349-.17 11.008-.052 3.305.104 6.601.326 9.905.468.629.028 1.273-.088 1.957-.487-.437-.096-.865-.25-1.308-.274-7.185-.43-14.378-.822-21.56-1.273-1.104-.072-2.361.064-3.333-.899.305-.231.496-.47.73-.528.423-.1.892-.168 1.311-.113 3.222.443 6.41.796 9.745.639 3.967-.186 7.938.186 11.903.317.37.012.776-.066 1.096.041 2.423.83 4.89.447 7.383.08 1.009-.146 2.057.014 3.088-.018.917-.03 1.833-.134 2.76-.37-1.268-.631-2.498-1.289-4.04-.629-.193.082-.456.123-.655.079-3.162-.748-6.412.157-9.638-.125-6.054-.53-12.179-.587-18.262-.94-5.793-.335-11.57-.799-17.358-1.208-.146-.009-.295-.025-.434-.059-.759-.187-1.873-.263-1.625-1.213.27-1.022 1.295-.521 2.06-.46 2.188.17 4.38.307 6.57.46 6.221.44 12.438.923 18.666 1.302 3.806.233 7.632.31 11.45.453.366.012.735.014 1.103-.006 3.51-.195 7.021-.405 10.533-.585.809-.043 1.62.035 2.43.017 2.273-.054 4.546-.058 6.813-.231.836-.063 1.647-.544 2.12-.709 3.022.301 5.752.675 8.506.818 2.12.11 4.274-.075 6.411-.114 5.818-.107 11.639-.235 17.456-.293 4.031-.036 8.055.094 12.082.016.975-.018 1.997-.486 2.937-.882 1.278-.539 2.538-.665 3.89-.494 1.01.128 2.053.1 3.08.16.51.03 1.183-.07 1.496.179 1.89 1.49 4.224.583 6.335.788.646.064 1.434-.293 2.057-.623 2.697-1.434 5.316-1.4 7.961-.186.656.299 1.414.422 2.123.623l.267-.357-.728-1.006c.088-.102.17-.285.263-.293 2.995-.25 5.97-.622 8.78.757.856.42 2.139.174 3.23.214.857.029 1.74-.07 2.572.06 1.157.18 2.16.158 3.058-.71.71-.684 1.508-1.053 2.574-.557.38.174 1.006.072 1.481-.048 1.867-.469 3.427-.158 5.197.57 1.597.655 3.7.455 5.586.471 2.859.024 5.728-.105 8.59-.127.292-.003.575.263 1.15.55-.647.282-.995.544-1.357.576-2.339.199-4.702-.19-7.035.53-.354.111-.86-.063-1.243-.21-1.48-.568-2.858-.388-4.171.518-.235.164-.484.326-.752.438-1.563.638-2.46.387-3.448-.956-2.252.174-4.518.337-6.778.537-.408.037-.96.141-1.18.395-.732.837-1.72.732-2.649.827-1.282.131-2.623-.157-3.782.736-.197.15-.95.075-.996-.045-.504-1.402-1.627-.63-2.566-.584-1.175.06-2.35.04-3.528.067-1.996.047-2.16.195-2.309 2.036-.118 1.475-.598 1.885-2.454 1.956-5.159.199-10.319.368-15.478.56-.804.03-1.607.12-2.42.338 3.929.455 7.912.11 11.867.008 4.052-.102 8.111-.37 12.164-.5 4.05-.132 8.1-.182 12.412-.27-1.562 1.146-3.872-.115-4.958 1.972.592.11 1.05.271 1.513.264 3.096-.057 6.192-.133 9.287-.242 1.285-.045 2.45-.059 3.357.987.31.365 1.174.47 1.791.46 5.895-.104 11.785-.295 17.677-.38 2.87-.043 5.73.128 8.602.12 2.43-.01 4.865-.114 7.296-.218.835-.037 1.774.097 2.214-.964.095-.234.925-.32 1.411-.335 1.403-.044 2.804 0 4.204-.024 1.747-.03 2.915-.627 3.084-1.528.155-.846-1.094-1.947-2.586-2.272-.404-.09-.82-.166-1.23-.248l.077-.41 6.119.645c-.502-2.412-2.47-2.87-4.608-3.258.72-1.066 1.514-1.583 2.697-1.733" transform="matrix(-1 0 0 1 265.217 0)"/>
                        </g>
                        <g>
                            <path fill="#F7E7AD" d="M121.552 340.29s2.782-26.401-12.44-48.4c-14.795-21.383-63.804-14.417-70.658-45.892-6.492-29.807 22.211-37.306 21.213-61.222-1-23.916-59.432-35.071-50.36-103.828 8.762-66.425 96.156-102.625 157.491-34.13 28.642 31.987 28.29 73.959 60.422 90.1 32.13 16.14 64.7-12.326 95.937 11.86 31.24 24.185 12.17 73.246-37.697 81.58-40.493 6.767-57.736 7.41-68.504 24.625-12.558 20.077 1.974 33.185-9.474 47.71-11.447 14.527-35.15 5.08-50.329 10.54-18.534 6.663-30.99 29.767-30.99 29.767l-4.61-2.71z" transform="translate(84.65 182)"/>
                            <path fill="#FFC800" d="M39.003 205c-3.565 6.47-6.584 12.683-8.619 18.949-2.05 6.241-2.95 12.439-2.313 18.426.289 2.997.961 5.966 2.045 8.873 1.048 2.916 2.39 5.817 4.084 8.645 3.277 5.736 7.64 11.187 12.15 17.107-7.131-2.384-13.566-6.563-18.858-12.233-2.685-2.795-4.902-6.119-6.662-9.713-.422-.91-.858-1.814-1.2-2.764l-.974-2.873c-.488-1.969-.94-3.956-1.132-5.984-.398-4.048-.11-8.147.837-12.024.943-3.88 2.483-7.538 4.461-10.854 1.985-3.318 4.373-6.32 7.07-8.96 2.729-2.603 5.702-4.95 9.11-6.595" transform="translate(84.65 182)"/>
                            <path fill="#FFF" d="M39.003 205c-3.565 6.47-6.584 12.683-8.619 18.949-2.05 6.241-2.95 12.439-2.313 18.426.289 2.997.961 5.966 2.045 8.873 1.048 2.916 2.39 5.817 4.084 8.645 3.277 5.736 7.64 11.187 12.15 17.107-7.131-2.384-13.566-6.563-18.858-12.233-2.685-2.795-4.902-6.119-6.662-9.713-.422-.91-.858-1.814-1.2-2.764l-.974-2.873c-.488-1.969-.94-3.956-1.132-5.984-.398-4.048-.11-8.147.837-12.024.943-3.88 2.483-7.538 4.461-10.854 1.985-3.318 4.373-6.32 7.07-8.96 2.729-2.603 5.702-4.95 9.11-6.595" transform="translate(84.65 182)"/>
                            <path fill="#FFC800" d="M191.35 320.154c4.745-1.908 9.002-3.428 12.875-5.22 3.866-1.754 7.218-3.725 9.809-6.103 2.595-2.37 4.614-5.18 6.16-8.887 1.585-3.686 2.622-8.036 4.026-12.944 2.957 4.185 4.347 9.223 4.102 14.61-.179 2.677-.77 5.456-2.03 8.039-1.22 2.588-3.003 4.968-5.14 6.894-4.302 3.909-9.748 5.83-14.899 6.326-2.598.241-5.172.151-7.68-.282-2.498-.455-4.959-1.142-7.223-2.433" transform="translate(84.65 182)"/>
                            <path fill="#FFF" d="M191.35 320.154c4.745-1.908 9.002-3.428 12.875-5.22 3.866-1.754 7.218-3.725 9.809-6.103 2.595-2.37 4.614-5.18 6.16-8.887 1.585-3.686 2.622-8.036 4.026-12.944 2.957 4.185 4.347 9.223 4.102 14.61-.179 2.677-.77 5.456-2.03 8.039-1.22 2.588-3.003 4.968-5.14 6.894-4.302 3.909-9.748 5.83-14.899 6.326-2.598.241-5.172.151-7.68-.282-2.498-.455-4.959-1.142-7.223-2.433" transform="translate(84.65 182)"/>
                            <path fill="#FFC800" d="M138.35 11.015c4.25-.143 8.463.747 12.553 1.935 2.009.677 4.07 1.323 5.995 2.237.985.42 1.957.871 2.933 1.322.947.494 1.888 1.003 2.817 1.536 7.482 4.213 14.106 9.915 19.685 16.437 2.571 3.425 5.291 6.761 7.307 10.53l1.591 2.77c.536.92 1.064 1.842 1.464 2.83.876 1.935 1.706 3.886 2.515 5.838.87 1.923 1.47 3.955 2.036 5.986.586 2.025 1.123 4.057 1.632 6.08.457 2.044.681 4.154.95 6.23.257 2.08.433 4.167.522 6.254-2.403-3.535-4.295-7.138-6.293-10.642-1.08-1.72-2.129-3.431-3.132-5.151-.514-.854-.994-1.722-1.48-2.582-.476-.866-1.108-1.648-1.621-2.488-1.09-1.645-2.157-3.291-3.179-4.955-.485-.847-1.103-1.61-1.665-2.404l-1.704-2.367c-1.14-1.569-2.145-3.23-3.438-4.67l-3.57-4.55c-5.004-5.842-10.347-11.355-16.288-16.383-5.946-5.047-12.333-9.663-19.63-13.793" transform="translate(84.65 182)"/>
                            <path fill="#FFF" d="M138.35 11.015c4.25-.143 8.463.747 12.553 1.935 2.009.677 4.07 1.323 5.995 2.237.985.42 1.957.871 2.933 1.322.947.494 1.888 1.003 2.817 1.536 7.482 4.213 14.106 9.915 19.685 16.437 2.571 3.425 5.291 6.761 7.307 10.53l1.591 2.77c.536.92 1.064 1.842 1.464 2.83.876 1.935 1.706 3.886 2.515 5.838.87 1.923 1.47 3.955 2.036 5.986.586 2.025 1.123 4.057 1.632 6.08.457 2.044.681 4.154.95 6.23.257 2.08.433 4.167.522 6.254-2.403-3.535-4.295-7.138-6.293-10.642-1.08-1.72-2.129-3.431-3.132-5.151-.514-.854-.994-1.722-1.48-2.582-.476-.866-1.108-1.648-1.621-2.488-1.09-1.645-2.157-3.291-3.179-4.955-.485-.847-1.103-1.61-1.665-2.404l-1.704-2.367c-1.14-1.569-2.145-3.23-3.438-4.67l-3.57-4.55c-5.004-5.842-10.347-11.355-16.288-16.383-5.946-5.047-12.333-9.663-19.63-13.793" transform="translate(84.65 182)"/>
                            <path fill="#375A64" d="M58.84 108.734c-8.965 9.384-23.84 9.723-33.225.757-9.384-8.966-9.722-23.841-.756-33.225s23.841-9.723 33.225-.757c9.384 8.966 9.723 23.841.757 33.225" transform="translate(84.65 182)"/>
                            <path fill="#2B454E" d="M60.795 106c-.743-1.364-2.332-3.946-5.404-6.88-3.719-3.555-14.953-10.018-19.506-14.854-6.406-6.797-5.874-11.443-5.053-13.647 2.719-1.445 5.654-2.318 8.644-2.619-.243 2.48-.64 10.34 10.697 19.634 5.852 4.79 12.815 5.5 15.177 5.743-.285 4.459-1.803 8.853-4.555 12.623M47.35 115.308c-7.589 1.893-15.935-.093-22.003-6.03-2.128-2.083-3.794-4.472-4.997-7.038 1.05-.199 3.103-.326 4.572-.17 6.524.685 12.116 6.03 14.05 8.296 3.094 3.628 6.49 4.64 8.378 4.942M58.35 108.572c-.153.15-.307.293-.465.44-.142.132-.288.26-.434.387-.331.288-.666.569-1.01.834-.308.24-.623.475-.94.696-.12.085-.24.161-.36.244-.136.092-.272.184-.406.27-.139.09-.277.177-.416.26-.162.101-.33.203-.5.299-.164.098-.332.194-.501.283l-.437.235c-.322.17-.644.329-.973.48h-.006c-1.531-.066-3.322-.901-5.656-2.91-3.474-2.985-6.476-8.286-13.287-13.798-6.429-5.209-13.072-5.912-14.607-6.2l-.002-.003c.358-4.67 2.134-9.258 5.337-13.089 1.44.446 5.784 2.695 12.666 14.071 2.617 4.325 5.115 7.607 7.433 10.087 6.778 7.24 12.05 7.648 14.421 7.355l.004.003c.047.017.093.036.139.056" transform="translate(84.65 182)"/>
                            <path fill="#1A2E35" d="M43.939 78.53c-.758.806-2.308.55-3.462-.57-1.154-1.12-1.474-2.682-.717-3.49.758-.806 2.308-.55 3.463.57 1.153 1.121 1.474 2.682.716 3.49M37.126 77.742c-.434.465-1.358.284-2.064-.403-.705-.686-.923-1.617-.489-2.081.435-.465 1.36-.284 2.064.403.705.686.924 1.617.49 2.081M44.033 111.636c-.596.636-1.834.418-2.762-.486-.93-.904-1.201-2.152-.604-2.787.596-.634 1.833-.416 2.762.486.93.904 1.2 2.152.604 2.787M40.16 110.783c-.324.344-.95.271-1.396-.163-.448-.432-.548-1.06-.224-1.403.323-.344.95-.27 1.396.161.448.433.547 1.063.224 1.405M40.25 107.883c-.15.158-.453.115-.674-.097-.222-.211-.278-.51-.127-.67.151-.156.453-.113.674.098.221.21.278.51.127.669M26.069 102.68c-.483.511-1.42.398-2.093-.254s-.828-1.595-.345-2.106c.482-.511 1.419-.398 2.092.254.674.652.828 1.594.346 2.106M28.112 100.732c-.358.376-.988.354-1.41-.05-.42-.405-.472-1.037-.114-1.414.357-.376.988-.354 1.408.05.422.405.474 1.037.116 1.414" transform="translate(84.65 182)"/>
                            <path fill="#FFC800" d="M55.687 110.868c-5.808-2.88-12.41-6.669-19.222-11.124-7.008-4.577-13.278-9.237-18.327-13.497-8.969-7.57-14.06-13.884-12.513-16.266 1.52-2.346 9.252-.359 19.525 4.629-.412.376-.814.768-1.205 1.177-.145.154-.288.31-.433.467-5.568-2.281-9.476-2.965-10.419-1.514-.956 1.472 1.324 4.862 5.784 9.142 4.367 4.19 10.822 9.233 18.36 14.16 7.553 4.934 14.773 8.826 20.365 11.135 5.684 2.357 9.686 3.078 10.644 1.606.936-1.445-1.254-4.744-5.554-8.917.331-.735.623-1.492.87-2.256 8.914 7.54 14.059 14.04 12.516 16.417-1.571 2.42-9.612.188-20.391-5.16" transform="translate(84.65 182)"/>
                            <path fill="#000" d="M55.687 110.868c-5.808-2.88-12.41-6.669-19.222-11.124-7.008-4.577-13.278-9.237-18.327-13.497-8.969-7.57-14.06-13.884-12.513-16.266 1.52-2.346 9.252-.359 19.525 4.629-.412.376-.814.768-1.205 1.177-.145.154-.288.31-.433.467-5.568-2.281-9.476-2.965-10.419-1.514-.956 1.472 1.324 4.862 5.784 9.142 4.367 4.19 10.822 9.233 18.36 14.16 7.553 4.934 14.773 8.826 20.365 11.135 5.684 2.357 9.686 3.078 10.644 1.606.936-1.445-1.254-4.744-5.554-8.917.331-.735.623-1.492.87-2.256 8.914 7.54 14.059 14.04 12.516 16.417-1.571 2.42-9.612.188-20.391-5.16" transform="translate(84.65 182)"/>
                            <path fill="#FFC800" d="M54.531 111.788c-5.825-2.936-12.184-6.576-18.69-10.764h-.006c-6.473-4.16-12.384-8.416-17.445-12.472C5.894 78.538-1.437 69.712.726 66.362c2.143-3.318 13.022-.379 27.116 6.69-.293.215-.583.44-.869.67C15.084 67.99 6.07 65.727 4.214 68.602c-1.875 2.903 4.04 10.29 14.372 18.843 5.003 4.134 11.034 8.545 17.725 12.85 6.728 4.329 13.286 8.011 19.15 10.858 12.019 5.825 21.158 8.13 23.024 5.236 1.846-2.86-3.889-10.092-13.973-18.502.091-.357.175-.712.248-1.075 12.22 9.863 19.35 18.514 17.214 21.825-2.161 3.342-13.197.336-27.443-6.85" transform="translate(84.65 182)"/>
                            <path fill="#ECECEC" d="M156.998 5.761c-.421.359-1.051.308-1.41-.113-.358-.42-.307-1.051.114-1.41.42-.357 1.05-.307 1.41.114.357.42.306 1.052-.114 1.41" transform="translate(84.65 182)"/>
                            <g fill="#FFF">
                                <path d="M52.795 10.718c-1.397 1.254-2.966 2.76-4.42 4.206-1.479 1.462-2.942 2.956-4.372 4.48-2.865 3.041-5.662 6.16-8.305 9.388-5.346 6.417-10.14 13.238-14.142 20.387-7.8 14.304-12.182 30.981-9.543 47.125 1.388 8.01 4.424 15.804 9.089 22.678 4.556 6.956 10.627 12.946 17.295 18.179 6.711 5.212 14.159 9.536 21.889 13.28 7.744 3.732 15.812 6.845 24.028 9.534-8.382-2.112-16.677-4.662-24.754-7.885-8.063-3.235-15.948-7.098-23.264-12.002-7.27-4.931-14.12-10.773-19.579-17.95-5.558-7.078-9.581-15.487-11.759-24.39-2.068-8.929-2.335-18.283-.944-27.31.678-4.521 1.705-8.977 3.02-13.338 1.324-4.358 2.996-8.58 4.868-12.773 3.881-8.243 8.573-15.965 13.803-23.22 2.59-3.653 5.333-7.176 8.164-10.635 1.412-1.733 2.861-3.434 4.344-5.119 1.5-1.708 2.938-3.306 4.64-5.066l9.942 10.431z" transform="translate(84.65 182) translate(52.35 61)"/>
                                <path d="M27.232 50.269c-1.923 4.922-3.68 9.822-5.228 14.762-.732 2.482-1.487 4.945-2.072 7.449-.63 2.49-1.166 4.995-1.543 7.517-.822 5.03-1.179 10.118-.699 15.158.276 2.51.695 5.022 1.426 7.475.724 2.457 1.748 4.829 2.938 7.203-1.841-1.904-3.349-4.15-4.583-6.556-1.172-2.436-2.017-5.038-2.558-7.702-1.056-5.34-.965-10.858-.076-16.156.89-5.312 2.45-10.461 4.541-15.354 2.09-4.888 4.624-9.59 7.854-13.796M31.41 8.012c-3.634 4.549-6.982 9.206-10.112 13.994-3.118 4.792-6.005 9.714-8.534 14.806-1.381 2.492-2.45 5.13-3.667 7.703-1.055 2.637-2.218 5.245-3.125 7.948-2.055 5.344-3.424 10.891-5 16.52.085-5.808.716-11.703 2.316-17.355l.542-2.14c.178-.713.457-1.393.682-2.092l1.428-4.174c1.158-2.7 2.244-5.44 3.616-8.041 1.317-2.63 2.825-5.155 4.357-7.656l2.468-3.644c.847-1.198 1.754-2.353 2.645-3.514 3.634-4.584 7.7-8.866 12.384-12.355" transform="translate(84.65 182) translate(52.35 61)"/>
                            </g>
                            <path fill="#FFC800" d="M122.35 21.03c-.313-.366-18.277-8.61-34.507 3.754C72.92 36.15 67.772 57.467 69.758 57.973c2.43.62 9.07-9.562 21.84-15.172 4.526-1.99 11.745-.024 11.745-.024L122.35 21.03zM151.18 56c.312.37 5.596 19.548-9.188 33.67-13.591 12.983-35.454 14.649-35.639 12.595-.225-2.514 10.88-7.461 18.449-19.239 2.684-4.175 1.89-11.664 1.89-11.664L151.18 56z" transform="translate(84.65 182)"/>
                            <path fill="#ECECEC" d="M111.608 79L93.35 57.465s6.847-23.37 26.29-37.94c9.71-7.265 21.365-12.372 31.908-15.535 14.547-4.388 26.954-5.037 29.077-2.534 2.133 2.516-.498 14.696-7.129 28.423-4.804 9.933-11.687 20.667-20.383 29.128C135.68 75.948 111.608 79 111.608 79" transform="translate(84.65 182)"/>
                            <path fill="#FFC800" d="M104.826 82L89.35 63.725 94.873 59 110.35 77.275zM148.423 46.66c-5.888 5.012-14.723 4.302-19.735-1.587-5.01-5.888-4.3-14.723 1.588-19.734 5.888-5.011 14.723-4.301 19.735 1.587 5.012 5.887 4.3 14.723-1.588 19.735" transform="translate(84.65 182)"/>
                            <path fill="#375A64" d="M146.007 43.734c-3.995 3.401-9.991 2.918-13.392-1.077-3.4-3.995-2.918-9.991 1.077-13.392 3.997-3.4 9.991-2.918 13.392 1.077 3.4 3.995 2.918 9.991-1.077 13.392" transform="translate(84.65 182)"/>
                            <path fill="#FFC800" d="M173.445 30L151.35 4.007c14.643-4.406 27.134-5.06 29.27-2.544 2.147 2.524-.502 14.755-7.175 28.537" transform="translate(84.65 182)"/>
                            <path fill="#ECECEC" d="M160.998 10.761c-.421.359-1.052.308-1.41-.113-.357-.42-.307-1.052.114-1.41.42-.358 1.052-.307 1.41.114.357.421.306 1.051-.114 1.41M164.998 15.761c-.421.359-1.052.308-1.41-.113-.358-.42-.307-1.051.114-1.41.42-.357 1.05-.307 1.41.114.357.42.306 1.052-.114 1.41M169.998 20.761c-.421.359-1.052.308-1.41-.113-.357-.42-.307-1.051.114-1.41.42-.358 1.052-.307 1.41.114.357.421.306 1.051-.114 1.41M173.998 25.761c-.42.359-1.052.308-1.41-.113-.358-.42-.307-1.051.114-1.41.42-.357 1.051-.307 1.41.114.357.42.307 1.052-.114 1.41" transform="translate(84.65 182)"/>
                            <path stroke="#1A2E35" stroke-width=".75" d="M54.704 265c.07.984.167 1.984.291 3" transform="translate(84.65 182)"/>
                            <path stroke="#1A2E35" stroke-dasharray="4.02 5.025" stroke-width=".75" d="M57.35 274.413c9.955 28.515 51.8 63.758 107.965 39.463C226.583 287.375 224.345 186.642 303.35 144" transform="translate(84.65 182)"/>
                            <path stroke="#1A2E35" stroke-width=".75" d="M305.35 142.946c.66-.302 1.326-.599 2-.892" transform="translate(84.65 182)"/>
                            <path fill="#FFC800" d="M303.35 128.271L295.35 150 312.143 137.029 376.35 114z" transform="translate(84.65 182)"/>
                            <path fill="#000" d="M303.35 128.271L295.35 150 312.143 137.029 376.35 114z" transform="translate(84.65 182)"/>
                            <path fill="#FFC800" d="M314.35 142.074L295.35 150 312.188 137z" transform="translate(84.65 182)"/>
                            <path fill="#000" d="M314.35 142.074L295.35 150 312.188 137z" transform="translate(84.65 182)"/>
                            <path fill="#FFC800" d="M311.35 136.108L375.35 113 322.856 164z" transform="translate(84.65 182)"/>
                            <path fill="#FFC800" d="M302.851 128L276.35 111 375.35 113.76zM171.138 226.492c2.167 25.616-12.964 33.488-14.298 40.71-.702 3.906-.739 13.476-.739 13.476L129.97 286s-3.758-8.796-5.947-12.113c-4.034-6.128-21.055-7.451-29.057-31.879-5.27-16.047 1.801-44.521 29.456-50.154 27.653-5.632 45.275 17.81 46.717 34.638" transform="translate(84.65 182)"/>
                            <path stroke="#FFF" d="M137.35 287L121.35 247M150.121 284L149.578 241" transform="translate(84.65 182)"/>
                            <path stroke="#FFF" stroke-width=".5" d="M122.35 247.828s3.145 7.782 6.777 7.036c3.631-.747 4.603-13.51-.164-12.53-4.767.98 3.036 15.835 9.09 14.592 6.052-1.244 6.343-17.764 2.107-16.893-4.237.872-.358 13.193 5.468 11.996 3.126-.641 3.722-9.215 3.722-9.215" transform="translate(84.65 182)"/>
                            <path fill="#375A64" d="M160.35 285.367L127.651 292 126.35 285.633 159.049 279zM162.35 292.367L129.651 299 128.35 292.633 161.049 286zM163.35 300.367L130.651 307 129.35 300.633 162.049 294z" transform="translate(84.65 182)"/>
                            <path fill="#1A2E35" d="M123.307 188c-.777-1.393-1.198-2.87-1.536-4.365-.302-1.504-.518-3.028-.377-4.635.779 1.393 1.2 2.868 1.536 4.365.3 1.504.516 3.028.377 4.635M103.35 198c-1.574-.824-2.831-1.913-4.016-3.067-1.15-1.178-2.226-2.422-2.984-3.933 1.575.822 2.833 1.912 4.015 3.067 1.15 1.18 2.225 2.424 2.985 3.933M90.35 218c-1.65.008-3.185-.377-4.691-.856-1.494-.518-2.96-1.133-4.31-2.144 1.653-.01 3.187.375 4.692.856 1.494.522 2.96 1.135 4.309 2.144M89.35 240.043c-1.393.776-2.87 1.197-4.364 1.536-1.504.302-3.029.518-4.636.377 1.393-.779 2.869-1.2 4.365-1.536 1.504-.3 3.028-.516 4.635-.377M99.35 261c-.824 1.573-1.915 2.83-3.066 4.015-1.179 1.151-2.423 2.227-3.934 2.985.823-1.575 1.913-2.834 3.066-4.015 1.181-1.15 2.425-2.224 3.934-2.985M174.35 245c1.65-.008 3.186.377 4.691.856 1.495.518 2.96 1.133 4.309 2.144-1.651.01-3.185-.375-4.691-.856-1.493-.522-2.96-1.135-4.31-2.144M176.35 221.957c1.393-.776 2.869-1.198 4.364-1.536 1.504-.302 3.029-.518 4.636-.377-1.393.779-2.87 1.2-4.364 1.536-1.505.3-3.029.516-4.636.377M165.35 202c.824-1.573 1.913-2.83 3.066-4.015 1.18-1.151 2.422-2.227 3.934-2.985-.822 1.575-1.912 2.834-3.067 4.014-1.18 1.15-2.424 2.225-3.933 2.986M146.35 189c-.01-1.65.377-3.184.855-4.691.519-1.494 1.133-2.96 2.145-4.309.012 1.65-.375 3.184-.855 4.691-.522 1.494-1.136 2.959-2.145 4.309" transform="translate(84.65 182)"/>
                            <path fill="#FFF" d="M200.35 215.002L194.629 216.046 193.35 222 192.072 216.046 186.35 214.999 192.047 213.625 193.35 208 194.653 213.625zM323.35 200.001L317.629 201.046 316.35 207 315.07 201.046 309.35 199.999 315.047 198.624 316.35 193 317.653 198.624zM82.35 203.002L76.628 204.046 75.35 210 74.07 204.046 68.35 202.999 74.047 201.625 75.35 196 76.653 201.625zM67.35 35.001L61.628 36.046 60.35 42 59.07 36.046 53.35 34.999 59.047 33.624 60.35 28 61.653 33.624zM313.35 173.001L310.08 173.597 309.349 177 308.62 173.597 305.35 172.999 308.605 172.215 309.349 169 310.094 172.215zM131.35 161.001L128.08 161.598 127.349 165 126.62 161.598 123.35 161 126.605 160.214 127.349 157 128.094 160.214zM215.35 145.001L212.08 145.597 211.349 149 210.62 145.597 207.35 144.999 210.605 144.213 211.349 141 212.094 144.213zM185.35 281.001L182.08 281.597 181.349 285 180.62 281.597 177.35 280.999 180.605 280.213 181.349 277 182.094 280.213zM65.35 211.001L62.08 211.598 61.349 215 60.62 211.598 57.35 211 60.605 210.214 61.349 207 62.094 210.214zM61.35 112.001L58.08 112.597 57.349 116 56.62 112.597 53.35 111.999 56.605 111.215 57.349 108 58.094 111.215zM229.35 224c-1.333 0-1.334 2 0 2 1.332 0 1.335-2 0-2M48.35 52c-1.332 0-1.335 2 0 2 1.332 0 1.335-2 0-2M304.35 193c-1.333 0-1.334 2 0 2 1.332 0 1.335-2 0-2M164.35 85c-1.333 0-1.334 2 0 2 1.332 0 1.335-2 0-2M90.35 146c-1.332 0-1.335 2 0 2 1.332 0 1.335-2 0-2M44.35 129c-1.332 0-1.335 2 0 2 1.332 0 1.335-2 0-2M22.85 120c-.643 0-.644 1 0 1 .643 0 .644-1 0-1M163.85 241c-.643 0-.644 1 0 1 .643 0 .644-1 0-1M90.85 261.001c-.643 0-.644.998 0 .998.643 0 .644-.998 0-.998M209.85 230c-1.998 0-2.002 4 0 4 1.998 0 2.002-4 0-4M69.85 249c-1.998 0-2.002 4 0 4 1.998 0 2.002-4 0-4" transform="translate(84.65 182)"/>
                            <path fill="#375A64" d="M199.26 203.934c-.514 2.713-3.132 4.493-5.844 3.977-2.712-.515-4.493-3.133-3.977-5.845.516-2.712 3.132-4.492 5.845-3.977 2.712.516 4.493 3.132 3.977 5.845" transform="translate(84.65 182)"/>
                            <path fill="#375A64" d="M199.797 179L203.35 179.674 198.903 203 195.35 202.326zM215.261 199.934c-.516 2.712-3.132 4.493-5.845 3.977-2.712-.515-4.493-3.132-3.977-5.845.516-2.712 3.132-4.493 5.845-3.977 2.712.516 4.492 3.132 3.977 5.845" transform="translate(84.65 182)"/>
                            <path fill="#375A64" d="M216.797 176L220.35 176.674 215.903 200 212.35 199.327z" transform="translate(84.65 182)"/>
                            <path fill="#375A64" d="M219.757 176.314L199.35 183 199.942 179.685 220.35 173zM218.757 182.315L198.35 189 198.942 185.685 219.35 179zM99.288 177.154c-.362 1.899-2.194 3.145-4.092 2.784-1.9-.36-3.145-2.193-2.784-4.092.36-1.899 2.192-3.145 4.091-2.784 1.899.36 3.145 2.193 2.785 4.092" transform="translate(84.65 182)"/>
                            <path fill="#375A64" d="M99.685 160L102.35 160.477 99.015 177 96.35 176.523zM108.147 158L110.35 158.454 109.553 163 107.35 162.546z" transform="translate(84.65 182)"/>
                            <path fill="#375A64" d="M110.949 158.232L99.35 162 99.751 159.768 111.35 156zM109.95 162.232L98.35 166 98.751 163.767 110.35 160zM188.287 263.154c-.36 1.899-2.192 3.145-4.09 2.784-1.9-.36-3.146-2.193-2.785-4.092.36-1.899 2.194-3.145 4.092-2.784 1.899.36 3.145 2.193 2.783 4.092" transform="translate(84.65 182)"/>
                            <path fill="#375A64" d="M188.685 246L191.35 246.477 188.015 263 185.35 262.523zM198.147 244L200.35 244.454 199.553 249 197.35 248.546z" transform="translate(84.65 182)"/>
                            <path fill="#375A64" d="M199.95 245.232L188.35 249 188.751 246.768 200.35 243zM198.949 249.232L187.35 253 187.751 250.768 199.35 247z" transform="translate(84.65 182)"/>
                            <path fill="#FFC800" d="M165.732 133.496c4.636 1.71 7.826 4.64 7.13 6.535-.7 1.908-5.02 2.055-9.667.34-4.634-1.711-7.836-4.644-7.14-6.54.71-1.904 5.03-2.05 9.677-.335zm34.446 29.539l-2.681-.16c-5.135-6.123-20.442-12.673-18.964-15.931.273-.586 1.206-.862 2.528-.965 4.298-.318 12.593 1.253 14.092.103.193-.13 1.194-3.36 1.478-4.309l.04-.126.04-.126-.035-.01-10.606-3.073c-23.735-14.306-71.475-30.896-87.457-25.338l-3.56-.018h-.039l-.159.507c-.02.07-.039.127-.05.2l-.97 3.176c-8.575 18.868 99.439 63.602 105.04 50.751l.205-.657.865-2.716.405-1.291-.172-.017z" transform="translate(84.65 182)"/>
                            <path fill="#FFC800" d="M156.062 134.04c.713-1.898 5.05-2.045 9.713-.335 4.651 1.705 7.853 4.624 7.156 6.512-.702 1.902-5.039 2.05-9.702.34-4.652-1.705-7.867-4.628-7.167-6.518m44.286 29.105c-.1-5.786-14.522-12.486-19.187-16.998-1.13-1.085-1.686-2.055-1.336-2.841 1.241-2.729 16.073.781 16.963-1.35.022-.031.036-.077.04-.126.015-.047.013-.085.006-.138-.028-.438-.51-1.08-1.594-1.948-21.302-17.294-92.947-42.918-100.388-26.44l-.018.057c-.077.165-.144.334-.197.507-.022.069-.04.126-.051.198-5.874 19.997 99.76 63.697 105.48 50.492.01-.033.036-.076.048-.111l.137-.437c.08-.29.106-.572.097-.865" transform="translate(84.65 182)"/>
                            <path fill="#000" d="M156.062 134.04c.713-1.898 5.05-2.045 9.713-.335 3.172 1.167 5.664 2.879 6.71 4.468.491.734.673 1.447.446 2.044-.702 1.902-5.039 2.05-9.702.34-1.738-.644-3.277-1.44-4.487-2.311-2.02-1.439-3.12-3.019-2.68-4.207m44.286 29.105c-.1-5.786-14.522-12.486-19.187-16.998-1.13-1.085-1.686-2.055-1.336-2.841 1.241-2.729 16.073.781 16.963-1.35.022-.031.036-.077.04-.126.015-.047.013-.085.006-.138-.028-.438-.51-1.08-1.594-1.948-21.302-17.294-92.947-42.918-100.388-26.44l-.018.057c-.077.165-.144.334-.197.507-.022.069-.04.126-.051.198-5.874 19.997 99.76 63.697 105.48 50.492.01-.033.036-.076.048-.111l.137-.437c.08-.29.106-.572.097-.865" transform="translate(84.65 182)"/>
                            <path fill="#FFC800" d="M172.35 138.924c-1.234-.907-2.817-1.74-4.605-2.415-4.8-1.788-9.262-1.634-9.997.351-.232.626-.047 1.373.46 2.14-2.08-1.506-3.211-3.16-2.76-4.403.734-1.986 5.196-2.14 9.995-.35 3.265 1.22 5.83 3.013 6.907 4.677" transform="translate(84.65 182)"/>
                            <path fill="#375A64" d="M167.184 147.26c-1.661-.359-3.424-.408-4.931.252-1.8.787-2.486 2.618-1.345 4.245 2.32 3.309 10.859 6.416 13.78 2.207 2.652-3.821-3.24-6.07-7.504-6.704" transform="translate(84.65 182)"/>
                            <path fill="#FFC800" d="M145.701 144.974c.162.008.344.009.532.006.59.037 1.166.03 1.705-.088.615-.135 1.123-.392 1.522-.727.326-.228.573-.51.676-.865.39-.837.273-1.882-.569-2.91-1.078-1.319-2.805-1.875-4.224-2.76-2.076-1.296-3.09-3.297-5.498-4.096-2.657-.884-6.242-.807-7.758 1.282-4.036 5.558 9.64 9.937 13.614 10.158" transform="translate(84.65 182)"/>
                            <path fill="#1A2E35" d="M145.193 121.957c1.157 4.087-4.397 4.505-6.92 3.715-2.307-.733-9.525-3.381-7.6-7.003 1.138-2.185 3.84-1.898 6.162-.983 3.405.263 7.567 1.46 8.358 4.27" transform="translate(84.65 182)"/>
                            <path fill="#ECECEC" d="M108.75 114.513c-4.347 2.128-2.037 7.517 1.008 9.55 2.256 1.497 5.242 2.654 7.808 3.545 1.722.589 3.783.69 4.968-.95 2.286-3.216-.644-6.093-3.69-7.988-2.818-3.028-6.625-5.86-10.094-4.157" transform="translate(84.65 182)"/>
                            <path fill="#375A64" d="M163.35 124.842s15.088-9.52 30.267-20.061c15.183-10.541 52.384-26.554 53.696-25.752 1.312.8-32.61 24.265-48.728 32.81C182.467 120.384 165.598 128 165.598 128l-2.248-3.158z" transform="translate(84.65 182)"/>
                            <path fill="#ECECEC" d="M163.35 124.77L174.67 117 178.35 123.366 166.003 129z" transform="translate(84.65 182)"/>
                            <path fill="#1A2E35" d="M163.644 124c-3.793 0-8.025-.042-11.856 4.626-4.627 5.637-9.438 5.729-9.438 5.729s15.473 6.37 24-5.958L163.644 124z" transform="translate(84.65 182)"/>
                            <path fill="#FFC800" d="M141.479 134.541c.697-.805 5.205-.922 7.943-3.953 2.577-2.854 10.361 5.577 5.195 6.222-5.868.733-14.42-.789-13.138-2.269" transform="translate(84.65 182)"/>
                            <path fill="#FF9BBE" d="M285.35 217.12s8.512 9.975 16.805 1.402c8.293-8.574-2.18-16.522-2.18-16.522l-14.625 15.12z" transform="translate(84.65 182)"/>
                            <path fill="#FFC800" d="M249.853 154L235.35 169.315 285.845 218 300.35 202.685z" transform="translate(84.65 182)"/>
                            <path fill="#000" d="M249.853 154L235.35 169.315 285.845 218 300.35 202.685z" transform="translate(84.65 182)"/>
                            <g fill="#000">
                                <path d="M8.62.239c3.926 3.606 7.83 7.237 11.706 10.9l11.585 11.026 11.483 11.137c3.813 3.725 7.6 7.482 11.36 11.264-3.928-3.606-7.83-7.238-11.706-10.9L31.462 22.638 19.981 11.502C16.166 7.776 12.38 4.019 8.619.239M5.746 3.263c3.926 3.606 7.832 7.237 11.705 10.9L29.038 25.19l11.481 11.137c3.816 3.724 7.6 7.481 11.362 11.263-3.928-3.607-7.833-7.238-11.707-10.9L28.59 25.661 17.107 14.526C13.293 10.8 9.508 7.043 5.746 3.262M2.872 6.286c3.927 3.608 7.831 7.238 11.707 10.9l11.585 11.028L37.647 39.35c3.813 3.726 7.599 7.482 11.36 11.264-3.928-3.607-7.832-7.238-11.707-10.9L25.715 28.687 14.234 17.55c-3.815-3.726-7.6-7.483-11.362-11.264M-.002 9.31c3.927 3.607 7.831 7.239 11.706 10.901L23.29 31.237l11.48 11.137c3.815 3.725 7.601 7.482 11.362 11.264-3.927-3.606-7.832-7.238-11.706-10.9L22.84 31.71 11.36 20.574C7.545 16.848 3.76 13.091-.002 9.311" transform="translate(84.65 182) translate(240.35 159)"/>
                            </g>
                            <path fill="#2B454E" d="M298.096 198L281.35 215.859 285.604 220 302.35 202.142zM293.095 193L276.35 210.858 280.605 215 297.35 197.142z" transform="translate(84.65 182)"/>
                            <path fill="#FFF" d="M249.597 154.281l-16.735-4.71L227.35 148l1.827 5.334 5.582 16.098 3.753.568s-.783-3.533-.784-3.598l3.753.568s-.785-3.533-.786-3.598l3.72.6s-.75-3.565-.753-3.63l3.72.601s-.75-3.567-.752-3.632l3.72.602s-.751-3.567-.753-3.632" transform="translate(84.65 182)"/>
                            <path fill="#1A2E35" d="M233.35 149.473L228.35 148 230.007 153z" transform="translate(84.65 182)"/>
                        </g>
                    </g>
                    <mask id="7tbmj0lf3b" fill="#fff">
                        <use xlink:href="#bfpnjoxyda"/>
                    </mask>
                    <g mask="url(#7tbmj0lf3b)">
                        <g>
                            <text font-family="Palatino-Bold, Palatino" font-size="12" font-weight="bold" transform="translate(29 120)">
                                <tspan x="0" y="13" fill="#796B6D">View Projects </tspan>
                            </text>
                            <g stroke="#796B6D" stroke-linecap="round">
                                <path d="M0 2.677L12.389 2.677" transform="translate(29 120) translate(97.25 7.323)"/>
                                <path stroke-linejoin="round" d="M10.012 0L13.164 2.677 10.012 5.034" transform="translate(29 120) translate(97.25 7.323)"/>
                            </g>
                        </g>
                    </g>
                    <text fill="#5E494C" font-family="Palatino-Roman, Palatino" font-size="30">
                        <tspan x="28.892" y="94.741">Branding + Illustrations</tspan>
                    </text>
                </g>
                <g>
                    <text fill="#796B6D" font-family="Palatino-Bold, Palatino" font-size="12" font-weight="bold" transform="translate(-757 -2329) translate(757 2329) translate(30 117)">
                        <tspan x="0" y="13">View Case Study </tspan>
                    </text>
                    <g stroke="#796B6D" stroke-linecap="round">
                        <path d="M0 2.677L12.389 2.677" transform="translate(-757 -2329) translate(757 2329) translate(30 117) translate(97.25 7.323)"/>
                        <path stroke-linejoin="round" d="M10.012 0L13.164 2.677 10.012 5.034" transform="translate(-757 -2329) translate(757 2329) translate(30 117) translate(97.25 7.323)"/>
                    </g>
                </g>
            </g>
        </g>
    </g>
</svg>
