<svg xmlns="http://www.w3.org/2000/svg" xmlns:xlink="http://www.w3.org/1999/xlink" width="537" height="593" viewBox="0 0 537 593">
    <defs>
        <path id="xhw6brqbda" d="M0.892 0.281L265.892 0.281 265.892 37.196 0.892 37.196z"/>
        <path id="28kjkyyxjb" d="M0.892 0.281L296.892 0.281 296.892 37.196 0.892 37.196z"/>
    </defs>
    <g fill="none" fill-rule="evenodd">
        <g>
            <g>
                <g>
                    <path fill="#FED1AF" d="M0 0H535V580H0z" transform="translate(-757 -1004) translate(757 1004)"/>
                    <g transform="translate(-757 -1004) translate(757 1004) matrix(-1 0 0 1 266 555)">
                        <path fill="#FED1AF" d="M194.258 29.326c-.245.065-.532-.037-.804-.068l.01-.426c.46-.084.92-.172 1.38-.26.05.1.095.2.144.3-.242.158-.465.385-.73.454m5.823-9.71c-2.876.168-5.751.285-8.63.412-6.337.278-12.682.64-19.019.799-5.303.13-10.605.115-15.9-.014-8.536-.206-17.055-.522-25.622-.253-7.74.247-15.48.267-23.214.284-6.631.012-13.26-.019-19.876-.221-5.735-.175-11.447-.615-17.168-.954-.61-.038-1.209-.193-1.813-.295.023-.144.048-.29.068-.432.978.034 1.951.082 2.93.103.955.017 1.917-.033 2.872.007 6.905.278 13.802.71 20.717.82 5.809.092 11.64-.198 17.46-.292 4.79-.078 9.576-.108 14.365-.174 3.755-.053 7.513-.134 11.267-.2 1.248-.021 2.504-.095 3.748-.048 9.835.353 19.667.745 29.548.239 7.74-.395 15.48-.72 23.216-1.022 1.074-.04 2.146.29 3.228.362.774.055 1.56-.018 2.341-.05.462-.02.922-.071 1.562-.123-.449 1.17-1.36 1.01-2.08 1.052M61.514 18.561c1.732-.467 2.92-.25 4.594.323-1.794.46-3.001.417-4.594-.323m-2.879.233c-5.326-.337-10.688-.374-15.969-1.201 1.757-.672 3.494-.157 5.23-.134 1.828.026 3.648.172 5.474.276 1.787.103 3.572.215 5.362.323l-.097.736m-4.888 8.596c-1.84-.113-3.68-.222-5.522-.337l.006-.557c1.95-.53 3.753-.004 5.57.428-.018.154-.034.308-.054.466m-9.048-3.395c-1.364-.1-2.785-.047-3.994-1.396.597-.087 1.202-.27 1.788-.247 2.703.11 5.402.265 8.097.438.775.049 1.923.015 1.78.999-.16 1.093-1.272.608-2.003.568-1.893-.098-3.781-.223-5.668-.362m-.086 2.721c-.091.004-.188-.15-.281-.233.125-.117.252-.231.44-.406.16.202.265.332.371.462-.175.065-.351.165-.53.177m14.826.47c1.206-.54 2.256-.115 3.327.185-.022.168-.045.335-.066.505-1.096-.066-2.192-.13-3.285-.198l.024-.492m-20.704-.92c-1.153-.108-2.305-.214-3.457-.323.03-.178.064-.36.097-.541l3.438.368-.078.495m-.969-3.088c-1.243.5-2.063.437-2.651-.54 1.485-.838 1.485-.838 2.651.54m-9.647 5.48c-.249.016-.505-.104-.758-.161.027-.136.055-.27.081-.406.443.003.883.002 1.325.005.023.098.052.194.076.292-.242.096-.48.252-.724.27m234.483-5.432c1.442-.187 2.888-.634 3.218-2.161.341-1.535-.577-2.61-1.979-3.272-1.28-.608-2.616-1.119-4.169-1.778.61-.295 1.07-.52 1.682-.822-.25-.236-.4-.511-.62-.559-2.687-.608-5.35-1.41-8.092-1.712-4.725-.518-9.496-.908-14.272-1.01-8.083-.173-16.185-.075-24.28-.1-5.003-.016-10.005-.082-15.012-.057-1.314.007-2.631.313-3.953.43-.93.08-1.866.095-2.796.095-2.2 0-4.4-.06-6.6-.029-1.838.03-3.675.164-5.509.243-.367.017-.75-.085-1.099-.006-3.17.697-6.32.302-9.48.272-2.792-.027-5.604.24-8.394.192-5.302-.092-10.586-.435-15.89-.464-6.332-.033-12.683.257-19.014.23-11.416-.051-22.863.703-34.255.053-7.919-.452-15.85-.778-23.769-1.232-8.798-.5-17.594-1.036-26.38-1.649-1.726-.124-3.389-.727-5.103-1.006-.906-.147-1.884-.218-2.8-.086-2.367.345-4.627.504-6.952-.265-1.377-.453-3.044-.237-4.583-.293-1.847-.068-3.621-.215-5.25-1.167-.73-.428-1.818-.371-2.75-.486-.558-.067-1.129-.039-1.651-.053-.06-.276-.146-.419-.11-.531.615-1.91.168-2.756-1.887-2.792-1.655-.026-2.82-.365-3.446-1.857C7.063.538 6.33.054 5.288.389 4.237.724 4.082 1.522 4.162 2.406c.005.044.013.09.02.136.72.15 1.142 1.096.324 1.555-.217.124-.416.249-.628.37-.148.253-.318.49-.517.699.322.1.639.211.978.274.792.15 1.011 1.14.308 1.588-1.495.95-2.634 2.091-3.755 3.322 3.343 1.196 2.999 3.427.64 5.765.896.198 1.778.422 2.714.51.488.047.861.59.718 1.028-.473 1.467-.556 2.958-1.086 4.364 1.528-.008 3.03-.018 4.564-.429.679-.183 1.39.298 1.214.99-.32 1.252-3.098 8.644-4.31 8.638.843.004 1.265.802.741 1.444-.223.275-.431.561-.641.841.26-.142.518-.296.77-.466.673-.363 1.366-.037 1.468.649.167 1.113.458 2.203.68 3.304.851.07 1.69.17 2.536.208.074-.703.428-1.46 1.066-2.181.76-.854 1.697-.883 2.613-.522 1.465.578 2.944.708 4.522.341.424-.097.914-.144 1.316-.04 1.601.413 3.073.62 4.325-.919.245-.3 1.105-.212 1.685-.245.556-.032 1.115.01 1.83.023-.243-1.243-1.182-1.282-1.997-1.391-1.087-.144-2.204-.146-3.281-.318-.569-.092-1.083-.412-1.575-.905 1.974-.887 3.938-1.253 5.99-1.068 4.383.392 8.755.857 13.146 1.186 4.392.33 8.8.533 13.201.786 3.739.218 7.493.35 11.22.657 11.193.915 22.406 1.656 33.689 1.655 5.301 0 10.605-.084 15.911-.147.792-.01 1.584-.118 2.436-.5-.348-.102-.696-.29-1.05-.289-2.354.002-4.715.083-7.071.067-5.593-.03-11.186-.075-16.777-.163-2.058-.032-4.142-.046-6.155-.348-2.443-.367-4.907-.3-7.363-.438-7.624-.431-15.232-1.04-22.85-1.536-3.077-.201-6.172-.247-9.248-.456-2.486-.171-4.961-.456-7.43-.737-.756-.083-1.23-.541-.912-1.296.309-.736.892-.455 1.479-.286 2.584.727 5.19 1.04 7.957.438 2.576-.558 5.13-.117 7.664.282.772.118 1.574.105 2.361.17.726.057 1.492.016 2.159.224 2.161.676 4.355.884 6.665.663.921-.088 1.867.174 2.8.282.791.09 1.629.406 2.36.244 3.714-.82 7.349-.174 11.009-.054 3.304.108 6.6.335 9.904.48.629.03 1.273-.09 1.957-.5-.437-.098-.865-.255-1.308-.281-7.185-.44-14.378-.844-21.56-1.307-1.104-.074-2.361.065-3.333-.923.305-.238.496-.483.73-.542.423-.103.892-.173 1.311-.116 3.222.454 6.41.817 9.745.655 3.967-.19 7.938.192 11.903.326.37.012.776-.068 1.096.043 2.423.853 4.89.458 7.383.082 1.01-.15 2.057.014 3.088-.02.917-.029 1.833-.137 2.76-.379-1.268-.648-2.498-1.324-4.04-.646-.193.084-.456.126-.655.08-3.162-.767-6.412.163-9.638-.127-6.054-.545-12.179-.603-18.262-.966-5.793-.344-11.57-.82-17.358-1.24-.146-.01-.295-.026-.434-.06-.759-.192-1.873-.27-1.625-1.246.27-1.05 1.295-.536 2.06-.474 2.188.176 4.38.316 6.57.472 6.221.454 12.438.949 18.666 1.339 3.806.239 7.632.318 11.45.465.366.012.735.014 1.103-.006 3.51-.2 7.021-.416 10.533-.601.809-.044 1.62.036 2.43.017 2.273-.055 4.546-.06 6.813-.237.836-.065 1.647-.558 2.12-.728 3.022.31 5.752.694 8.506.84 2.12.113 4.274-.077 6.411-.117 5.818-.11 11.639-.241 17.456-.3 4.031-.038 8.055.095 12.082.016.975-.019 1.997-.5 2.937-.906 1.278-.554 2.538-.683 3.89-.508 1.01.132 2.053.104 3.08.165.51.03 1.183-.073 1.496.183 1.89 1.53 4.224.6 6.335.81.646.065 1.434-.3 2.057-.64 2.697-1.473 5.316-1.438 7.961-.191.656.307 1.414.434 2.123.64.088-.122.177-.245.267-.367-.243-.346-.486-.687-.728-1.033.088-.105.17-.293.263-.301 2.995-.256 5.97-.639 8.78.778.856.43 2.139.178 3.23.219.857.03 1.74-.072 2.572.061 1.157.185 2.16.163 3.058-.728.71-.702 1.508-1.082 2.574-.572.38.178 1.006.074 1.481-.05 1.868-.481 3.427-.162 5.197.585 1.597.673 3.7.467 5.586.485 2.859.024 5.728-.109 8.59-.131.292-.003.575.27 1.15.564-.647.29-.995.56-1.357.592-2.339.204-4.702-.196-7.035.544-.354.115-.86-.064-1.243-.214-1.48-.585-2.858-.4-4.171.531-.235.169-.484.335-.752.45-1.563.655-2.46.397-3.448-.982-2.252.178-4.518.346-6.778.551-.408.038-.96.145-1.18.406-.732.86-1.72.752-2.649.85-1.282.134-2.623-.162-3.782.756-.197.154-.95.077-.996-.046-.504-1.44-1.627-.647-2.566-.6-1.175.06-2.35.04-3.528.068-1.996.049-2.16.2-2.309 2.091-.118 1.515-.598 1.936-2.454 2.01-5.159.203-10.319.377-15.478.575-.804.03-1.607.123-2.42.346 3.929.468 7.912.113 11.867.008 4.052-.104 8.111-.38 12.164-.513 4.05-.135 8.1-.187 12.412-.278-1.562 1.178-3.872-.117-4.958 2.026.592.113 1.05.279 1.513.271 3.096-.058 6.192-.136 9.287-.248 1.285-.046 2.45-.06 3.357 1.013.31.375 1.174.483 1.791.473 5.895-.108 11.785-.304 17.677-.391 2.87-.044 5.73.132 8.602.123 2.43-.01 4.865-.117 7.296-.223.835-.038 1.774.1 2.214-.99.095-.24.925-.328 1.411-.344 1.403-.046 2.804 0 4.204-.025 1.747-.03 2.915-.643 3.084-1.569.155-.87-1.094-2-2.585-2.334-.405-.092-.82-.17-1.231-.255l.077-.42 6.119.662c-.502-2.477-2.47-2.947-4.608-3.346.72-1.094 1.514-1.625 2.697-1.78"/>
                    </g>
                    <g transform="translate(-757 -1004) translate(757 1004) matrix(-1 0 0 1 537 555)">
                        <path fill="#FED1AF" d="M216.878 29.326c-.274.065-.594-.037-.898-.068l.01-.426c.515-.084 1.028-.172 1.543-.26.055.1.106.2.16.3-.27.158-.52.385-.815.454m6.505-9.71c-3.213.168-6.425.285-9.64.412-7.079.278-14.166.64-21.244.799-5.923.13-11.846.115-17.76-.014-9.534-.206-19.05-.522-28.62-.253-8.645.247-17.29.267-25.929.284-7.407.012-14.811-.019-22.2-.221-6.406-.175-12.787-.615-19.177-.954-.683-.038-1.35-.193-2.025-.295.026-.144.053-.29.076-.432 1.092.034 2.179.082 3.272.103 1.067.017 2.142-.033 3.208.007 7.713.278 15.417.71 23.14.82 6.49.092 13.002-.198 19.503-.292 5.35-.078 10.697-.108 16.045-.174 4.195-.053 8.392-.134 12.586-.2 1.394-.021 2.797-.095 4.186-.048 10.986.353 21.967.745 33.004.239 8.646-.395 17.291-.72 25.933-1.022 1.199-.04 2.397.29 3.605.362.865.055 1.742-.018 2.615-.05.516-.02 1.03-.071 1.744-.123-.5 1.17-1.519 1.01-2.322 1.052M68.606 18.561c1.935-.467 3.261-.25 5.131.323-2.004.46-3.352.417-5.131-.323m-3.216.233c-5.95-.337-11.938-.374-17.837-1.201 1.963-.672 3.903-.157 5.842-.134 2.042.026 4.075.172 6.114.276 1.996.103 3.99.215 5.989.323l-.108.736m-5.46 8.596c-2.055-.113-4.11-.222-6.168-.337l.007-.557c2.179-.53 4.192-.004 6.222.428-.02.154-.039.308-.061.466m-10.106-3.395c-1.524-.1-3.11-.047-4.462-1.396.668-.087 1.343-.27 1.998-.247 3.018.11 6.033.265 9.044.438.866.049 2.148.015 1.987.999-.178 1.093-1.42.608-2.236.568-2.114-.098-4.224-.223-6.331-.362m-.097 2.721c-.101.004-.209-.15-.314-.233.14-.117.282-.231.492-.406.179.202.296.332.415.462-.196.065-.393.165-.593.177m16.561.47c1.347-.54 2.52-.115 3.717.185-.025.168-.051.335-.074.505-1.225-.066-2.449-.13-3.67-.198l.027-.492m-23.126-.92c-1.288-.108-2.575-.214-3.86-.323.033-.178.07-.36.107-.541l3.84.368-.087.495m-1.082-3.088c-1.389.5-2.304.437-2.962-.54 1.66-.838 1.66-.838 2.962.54m-10.776 5.48c-.278.016-.564-.104-.847-.161.03-.136.062-.27.091-.406.494.003.986.002 1.48.005.026.098.058.194.085.292-.27.096-.537.252-.809.27m261.913-5.432c1.611-.187 3.226-.634 3.595-2.161.381-1.535-.645-2.61-2.21-3.272-1.43-.608-2.923-1.119-4.657-1.778.68-.295 1.195-.52 1.878-.822-.279-.236-.447-.511-.691-.559-3.003-.608-5.978-1.41-9.04-1.712-5.278-.518-10.607-.908-15.942-1.01-9.028-.173-18.078-.075-27.12-.1-5.589-.016-11.175-.082-16.768-.057-1.467.007-2.94.313-4.416.43-1.038.08-2.083.095-3.123.095-2.456 0-4.913-.06-7.372-.029-2.052.03-4.104.164-6.153.243-.41.017-.838-.085-1.227-.006-3.54.697-7.06.302-10.59.272-3.119-.027-6.26.24-9.376.192-5.922-.092-11.823-.435-17.748-.464-7.073-.033-14.167.257-21.239.23-12.751-.051-25.537.703-38.262.053-8.845-.452-17.704-.778-26.549-1.232-9.828-.5-19.653-1.036-29.467-1.649-1.927-.124-3.785-.727-5.699-1.006-1.013-.147-2.104-.218-3.127-.086-2.645.345-5.169.504-7.766-.265-1.538-.453-3.4-.237-5.12-.293-2.062-.068-4.044-.215-5.863-1.167-.816-.428-2.03-.371-3.073-.486-.622-.067-1.26-.039-1.843-.053-.067-.276-.163-.419-.123-.531.687-1.91.187-2.756-2.108-2.792-1.849-.026-3.15-.365-3.85-1.857C7.786.538 6.969.054 5.803.389 4.628.724 4.455 1.522 4.545 2.406c.006.044.014.09.022.136.804.15 1.275 1.096.362 1.555-.243.124-.465.249-.701.37-.166.253-.356.49-.578.699.36.1.714.211 1.092.274.885.15 1.13 1.14.345 1.588-1.671.95-2.943 2.091-4.195 3.322 3.734 1.196 3.35 3.427.716 5.765 1 .198 1.985.422 3.03.51.545.047.962.59.803 1.028-.529 1.467-.622 2.958-1.213 4.364 1.706-.008 3.383-.018 5.097-.429.758-.183 1.554.298 1.356.99-.357 1.252-3.46 8.644-4.815 8.638.943.004 1.414.802.829 1.444-.25.275-.482.561-.716.841.29-.142.578-.296.86-.466.751-.363 1.526-.037 1.64.649.187 1.113.511 2.203.76 3.304.95.07 1.887.17 2.832.208.083-.703.477-1.46 1.19-2.181.849-.854 1.896-.883 2.919-.522 1.636.578 3.288.708 5.05.341.474-.097 1.022-.144 1.47-.04 1.79.413 3.433.62 4.832-.919.274-.3 1.235-.212 1.882-.245.62-.032 1.245.01 2.045.023-.272-1.243-1.32-1.282-2.231-1.391-1.215-.144-2.462-.146-3.666-.318-.634-.092-1.21-.412-1.758-.905 2.204-.887 4.399-1.253 6.69-1.068 4.895.392 9.78.857 14.685 1.186 4.905.33 9.828.533 14.745.786 4.176.218 8.369.35 12.532.657 12.503.915 25.027 1.656 37.63 1.655 5.922 0 11.846-.084 17.773-.147.884-.01 1.769-.118 2.72-.5-.389-.102-.777-.29-1.172-.289-2.63.002-5.268.083-7.899.067-6.247-.03-12.494-.075-18.74-.163-2.298-.032-4.627-.046-6.875-.348-2.728-.367-5.48-.3-8.224-.438-8.516-.431-17.013-1.04-25.522-1.536-3.438-.201-6.894-.247-10.33-.456-2.778-.171-5.542-.456-8.3-.737-.845-.083-1.374-.541-1.019-1.296.345-.736.997-.455 1.652-.286 2.887.727 5.797 1.04 8.888.438 2.877-.558 5.73-.117 8.561.282.862.118 1.758.105 2.637.17.81.057 1.667.016 2.412.224 2.414.676 4.864.884 7.444.663 1.03-.088 2.086.174 3.128.282.884.09 1.82.406 2.637.244 4.148-.82 8.207-.174 12.295-.054 3.691.108 7.373.335 11.063.48.702.03 1.422-.09 2.187-.5-.489-.098-.967-.255-1.462-.281-8.025-.44-16.06-.844-24.082-1.307-1.232-.074-2.637.065-3.723-.923.341-.238.555-.483.817-.542.471-.103.995-.173 1.463-.116 3.6.454 7.16.817 10.885.655 4.43-.19 8.866.192 13.295.326.413.012.867-.068 1.225.043 2.706.853 5.461.458 8.246.082 1.127-.15 2.298.014 3.45-.02 1.024-.029 2.047-.137 3.083-.379-1.417-.648-2.79-1.324-4.513-.646-.216.084-.51.126-.732.08-3.532-.767-7.162.163-10.766-.127-6.762-.545-13.603-.603-20.397-.966-6.471-.344-12.925-.82-19.39-1.24-.162-.01-.329-.026-.484-.06-.847-.192-2.092-.27-1.815-1.246.303-1.05 1.447-.536 2.301-.474 2.444.176 4.893.316 7.338.472 6.95.454 13.894.949 20.85 1.339 4.252.239 8.525.318 12.79.465.409.012.82.014 1.231-.006 3.922-.2 7.843-.416 11.765-.601.904-.044 1.811.036 2.714.017 2.54-.055 5.078-.06 7.611-.237.934-.065 1.84-.558 2.368-.728 3.376.31 6.424.694 9.501.84 2.368.113 4.774-.077 7.161-.117 6.5-.11 13-.241 19.499-.3 4.502-.038 8.996.095 13.494.016 1.09-.019 2.23-.5 3.28-.906 1.429-.554 2.836-.683 4.346-.508 1.128.132 2.293.104 3.441.165.57.03 1.32-.073 1.67.183 2.111 1.53 4.719.6 7.076.81.722.065 1.602-.3 2.298-.64 3.012-1.473 5.937-1.438 8.892-.191.733.307 1.58.434 2.372.64l.297-.367c-.27-.346-.541-.687-.812-1.033.098-.105.19-.293.294-.301 3.344-.256 6.668-.639 9.806.778.957.43 2.39.178 3.608.219.958.03 1.944-.072 2.874.061 1.292.185 2.413.163 3.416-.728.792-.702 1.683-1.082 2.874-.572.425.178 1.124.074 1.655-.05 2.085-.481 3.827-.162 5.804.585 1.784.673 4.134.467 6.24.485 3.193.024 6.398-.109 9.596-.131.325-.003.64.27 1.283.564-.723.29-1.111.56-1.516.592-2.612.204-5.252-.196-7.857.544-.396.115-.962-.064-1.39-.214-1.653-.585-3.191-.4-4.658.531-.263.169-.54.335-.84.45-1.746.655-2.748.397-3.851-.982-2.516.178-5.047.346-7.572.551-.455.038-1.071.145-1.318.406-.816.86-1.921.752-2.958.85-1.432.134-2.93-.162-4.225.756-.219.154-1.06.077-1.112-.046-.562-1.44-1.817-.647-2.866-.6-1.312.06-2.625.04-3.94.068-2.23.049-2.413.2-2.58 2.091-.131 1.515-.668 1.936-2.74 2.01-5.763.203-11.527.377-17.29.575-.897.03-1.795.123-2.702.346 4.387.468 8.837.113 13.255.008 4.526-.104 9.06-.38 13.586-.513 4.525-.135 9.049-.187 13.864-.278-1.744 1.178-4.324-.117-5.538 2.026.662.113 1.173.279 1.69.271 3.459-.058 6.917-.136 10.374-.248 1.435-.046 2.737-.06 3.75 1.013.347.375 1.311.483 2 .473 6.585-.108 13.164-.304 19.745-.391 3.206-.044 6.4.132 9.609.123 2.714-.01 5.434-.117 8.149-.223.933-.038 1.982.1 2.473-.99.105-.24 1.033-.328 1.576-.344 1.567-.046 3.131 0 4.695-.025 1.952-.03 3.257-.643 3.446-1.569.173-.87-1.222-2-2.889-2.334-.451-.092-.916-.17-1.374-.255l.086-.42 6.835.662c-.56-2.477-2.758-2.947-5.147-3.346.805-1.094 1.69-1.625 3.012-1.78"/>
                    </g>
                </g>
                <text fill="#FFF" font-family="RalewayRoman-SemiBold, Raleway" font-size="36" font-weight="500" transform="translate(-757 -1004) translate(757 1004)">
                    <tspan x="32.892" y="145.741">Designing an accessible </tspan> <tspan x="32.892" y="203.741">platform for breast </tspan> <tspan x="32.892" y="261.741">health awareness</tspan>
                </text>
                <text fill="#FFF" font-family="RalewayRoman-Medium, Raleway" font-size="18" font-weight="400" transform="translate(-757 -1004) translate(757 1004)">
                    <tspan x="33" y="395">Research</tspan>  <tspan x="33" y="437">Prototyping</tspan>  <tspan x="33" y="479">Visual Design</tspan>
                </text>
            </g>
        </g>
    </g>
</svg>
