<svg xmlns="http://www.w3.org/2000/svg" xmlns:xlink="http://www.w3.org/1999/xlink" width="535" height="592" viewBox="0 0 535 592">
    <defs>
        <path id="gljq3ssf5a" d="M0.892 0.274L265.892 0.274 265.892 36.217 0.892 36.217z"/>
        <path id="4jpjv7l1pb" d="M0.892 0.274L265.892 0.274 265.892 36.217 0.892 36.217z"/>
    </defs>
    <g fill="none" fill-rule="evenodd">
        <g>
            <g>
                <g>
                    <path fill="#ADBAED" d="M0 0H535V570H0z" transform="translate(-757 -1667) translate(757 1667)"/>
                    <g transform="translate(-757 -1667) translate(757 1667) matrix(-1 0 0 1 524 555)">
                        <path fill="#ADBAED" d="M194.258 28.555c-.245.063-.532-.037-.804-.067l.01-.414c.46-.083.92-.168 1.38-.253.05.096.095.194.144.29-.242.155-.465.376-.73.444m5.823-9.455c-2.876.163-5.751.277-8.63.4-6.337.271-12.682.624-19.019.778-5.303.127-10.605.113-15.9-.012-8.536-.2-17.055-.51-25.622-.247-7.74.24-15.48.26-23.214.276-6.631.012-13.26-.018-19.876-.215-5.735-.17-11.447-.599-17.168-.929-.61-.037-1.209-.188-1.813-.287.023-.14.048-.282.068-.42.978.032 1.951.08 2.93.1.955.016 1.917-.033 2.872.007 6.905.27 13.802.69 20.717.798 5.809.09 11.64-.192 17.46-.284 4.79-.076 9.576-.105 14.365-.17 3.755-.052 7.513-.13 11.267-.195 1.248-.02 2.504-.092 3.748-.046 9.835.343 19.667.725 29.548.233 7.74-.385 15.48-.701 23.216-.996 1.074-.04 2.146.282 3.228.352.774.055 1.56-.017 2.341-.048.462-.02.922-.069 1.562-.12-.449 1.14-1.36.984-2.08 1.025M61.514 18.072c1.732-.454 2.92-.242 4.594.315-1.794.448-3.001.406-4.594-.315m-2.879.228c-5.326-.33-10.688-.365-15.969-1.17 1.757-.655 3.494-.153 5.23-.13 1.828.025 3.648.167 5.474.268 1.787.1 3.572.21 5.362.315l-.097.717m-4.888 8.37c-1.84-.11-3.68-.217-5.522-.328l.006-.544c1.95-.516 3.753-.003 5.57.417-.018.15-.034.3-.054.454m-9.048-3.306c-1.364-.097-2.785-.045-3.994-1.358.597-.085 1.202-.264 1.788-.241 2.703.108 5.402.257 8.097.426.775.048 1.923.015 1.78.973-.16 1.064-1.272.592-2.003.553-1.893-.095-3.781-.217-5.668-.353m-.086 2.65c-.091.004-.188-.146-.281-.227.125-.114.252-.225.44-.395.16.197.265.323.371.45-.175.063-.351.16-.53.172m14.826.457c1.206-.525 2.256-.112 3.327.18-.022.164-.045.327-.066.492-1.096-.064-2.192-.125-3.285-.193l.024-.479m-20.704-.896c-1.153-.104-2.305-.207-3.457-.313.03-.174.064-.352.097-.527l3.438.358-.078.482m-.969-3.007c-1.243.487-2.063.425-2.651-.526 1.485-.816 1.485-.816 2.651.526m-9.647 5.337c-.249.015-.505-.102-.758-.158.027-.132.055-.263.081-.395.443.003.883.002 1.325.005.023.095.052.188.076.284-.242.094-.48.246-.724.264m234.483-5.29c1.442-.182 2.888-.617 3.218-2.105.341-1.494-.577-2.54-1.979-3.185-1.28-.592-2.616-1.09-4.169-1.731.61-.287 1.07-.506 1.682-.8-.25-.23-.4-.499-.62-.545-2.687-.593-5.35-1.373-8.092-1.667-4.725-.505-9.496-.885-14.272-.984-8.083-.168-16.185-.072-24.28-.097-5.003-.015-10.005-.08-15.012-.055-1.314.006-2.631.305-3.953.418-.93.078-1.866.093-2.796.093-2.2 0-4.4-.06-6.6-.028-1.838.029-3.675.16-5.509.236-.367.016-.75-.083-1.099-.005-3.17.678-6.32.293-9.48.265-2.792-.027-5.604.234-8.394.187-5.302-.09-10.586-.425-15.89-.452-6.332-.033-12.683.25-19.014.224-11.416-.05-22.863.684-34.255.05-7.919-.439-15.85-.757-23.769-1.199-8.798-.486-17.594-1.008-26.38-1.605-1.726-.121-3.389-.708-5.103-.98-.906-.143-1.884-.212-2.8-.084-2.367.336-4.627.492-6.952-.257-1.377-.441-3.044-.232-4.583-.286-1.847-.066-3.621-.21-5.25-1.136-.73-.417-1.818-.362-2.75-.473-.558-.066-1.129-.038-1.651-.052-.06-.268-.146-.408-.11-.517.615-1.86.168-2.683-1.887-2.719-1.655-.024-2.82-.354-3.446-1.808C7.063.524 6.33.053 5.288.378 4.237.705 4.082 1.482 4.162 2.342c.005.044.013.089.02.133.72.146 1.142 1.067.324 1.515-.217.12-.416.241-.628.36-.148.246-.318.477-.517.68.322.098.639.206.978.267.792.147 1.011 1.11.308 1.546-1.495.924-2.634 2.036-3.755 3.234 3.343 1.165 2.999 3.338.64 5.614.896.193 1.778.411 2.714.497.488.046.861.574.718 1-.473 1.429-.556 2.88-1.086 4.25 1.528-.009 3.03-.018 4.564-.418.679-.179 1.39.29 1.214.963-.32 1.22-3.098 8.417-4.31 8.411.843.004 1.265.782.741 1.407-.223.268-.431.546-.641.819.26-.138.518-.289.77-.455.673-.353 1.366-.036 1.468.633.167 1.083.458 2.145.68 3.217.851.069 1.69.165 2.536.202.074-.685.428-1.422 1.066-2.124.76-.831 1.697-.86 2.613-.507 1.465.562 2.944.689 4.522.332.424-.095.914-.14 1.316-.04 1.601.403 3.073.605 4.325-.894.245-.292 1.105-.207 1.685-.239.556-.031 1.115.01 1.83.022-.243-1.21-1.182-1.248-1.997-1.354-1.087-.14-2.204-.142-3.281-.31-.569-.09-1.083-.4-1.575-.88 1.974-.865 3.938-1.22 5.99-1.041 4.383.382 8.755.835 13.146 1.155 4.392.32 8.8.519 13.201.766 3.739.212 7.493.34 11.22.64 11.193.89 22.406 1.612 33.689 1.61 5.301 0 10.605-.082 15.911-.143.792-.01 1.584-.115 2.436-.487-.348-.099-.696-.282-1.05-.28-2.354 0-4.715.08-7.071.065-5.593-.03-11.186-.074-16.777-.159-2.058-.032-4.142-.045-6.155-.34-2.443-.356-4.907-.29-7.363-.425-7.624-.42-15.232-1.012-22.85-1.496-3.077-.196-6.172-.24-9.248-.444-2.486-.167-4.961-.444-7.43-.718-.756-.081-1.23-.527-.912-1.262.309-.717.892-.443 1.479-.278 2.584.708 5.19 1.012 7.957.426 2.576-.543 5.13-.114 7.664.275.772.115 1.574.102 2.361.165.726.056 1.492.016 2.159.219 2.161.658 4.355.86 6.665.645.921-.086 1.867.17 2.8.274.791.088 1.629.396 2.36.238 3.714-.798 7.349-.17 11.009-.052 3.304.104 6.6.326 9.904.468.629.028 1.273-.088 1.957-.487-.437-.096-.865-.25-1.308-.274-7.185-.43-14.378-.822-21.56-1.273-1.104-.072-2.361.064-3.333-.899.305-.231.496-.47.73-.528.423-.1.892-.168 1.311-.113 3.222.443 6.41.796 9.745.639 3.967-.186 7.938.186 11.903.317.37.012.776-.066 1.096.041 2.423.83 4.89.447 7.383.08 1.01-.146 2.057.014 3.088-.018.917-.03 1.833-.134 2.76-.37-1.268-.631-2.498-1.289-4.04-.629-.193.082-.456.123-.655.079-3.162-.748-6.412.157-9.638-.125-6.054-.53-12.179-.587-18.262-.94-5.793-.335-11.57-.799-17.358-1.208-.146-.009-.295-.025-.434-.059-.759-.187-1.873-.263-1.625-1.213.27-1.022 1.295-.521 2.06-.46 2.188.17 4.38.307 6.57.46 6.221.44 12.438.923 18.666 1.302 3.806.233 7.632.31 11.45.453.366.012.735.014 1.103-.006 3.51-.195 7.021-.405 10.533-.585.809-.043 1.62.035 2.43.017 2.273-.054 4.546-.058 6.813-.231.836-.063 1.647-.544 2.12-.709 3.022.301 5.752.675 8.506.818 2.12.11 4.274-.075 6.411-.114 5.818-.107 11.639-.235 17.456-.293 4.031-.036 8.055.094 12.082.016.975-.018 1.997-.486 2.937-.882 1.278-.539 2.538-.665 3.89-.494 1.01.128 2.053.1 3.08.16.51.03 1.183-.07 1.496.179 1.89 1.49 4.224.583 6.335.788.646.064 1.434-.293 2.057-.623 2.697-1.434 5.316-1.4 7.961-.186.656.299 1.414.422 2.123.623l.267-.357-.728-1.006c.088-.102.17-.285.263-.293 2.995-.25 5.97-.622 8.78.757.856.42 2.139.174 3.23.214.857.029 1.74-.07 2.572.06 1.157.18 2.16.158 3.058-.71.71-.684 1.508-1.053 2.574-.557.38.174 1.006.072 1.481-.048 1.868-.469 3.427-.158 5.197.57 1.597.655 3.7.455 5.586.471 2.859.024 5.728-.105 8.59-.127.292-.003.575.263 1.15.55-.647.282-.995.544-1.357.576-2.339.199-4.702-.19-7.035.53-.354.111-.86-.063-1.243-.21-1.48-.568-2.858-.388-4.171.518-.235.164-.484.326-.752.438-1.563.638-2.46.387-3.448-.956-2.252.174-4.518.337-6.778.537-.408.037-.96.141-1.18.395-.732.837-1.72.732-2.649.827-1.282.131-2.623-.157-3.782.736-.197.15-.95.075-.996-.045-.504-1.402-1.627-.63-2.566-.584-1.175.06-2.35.04-3.528.067-1.996.047-2.16.195-2.309 2.036-.118 1.475-.598 1.885-2.454 1.956-5.159.199-10.319.368-15.478.56-.804.03-1.607.12-2.42.338 3.929.455 7.912.11 11.867.008 4.052-.102 8.111-.37 12.164-.5 4.05-.132 8.1-.182 12.412-.27-1.562 1.146-3.872-.115-4.958 1.972.592.11 1.05.271 1.513.264 3.096-.057 6.192-.133 9.287-.242 1.285-.045 2.45-.059 3.357.987.31.365 1.174.47 1.791.46 5.895-.104 11.785-.295 17.677-.38 2.87-.043 5.73.128 8.602.12 2.43-.01 4.865-.114 7.296-.218.835-.037 1.774.097 2.214-.964.095-.234.925-.32 1.411-.335 1.403-.044 2.804 0 4.204-.024 1.747-.03 2.915-.627 3.084-1.528.155-.846-1.094-1.947-2.585-2.272-.405-.09-.82-.166-1.231-.248l.077-.41 6.119.645c-.502-2.412-2.47-2.87-4.608-3.258.72-1.066 1.514-1.583 2.697-1.733"/>
                    </g>
                    <g transform="translate(-757 -1667) translate(757 1667) matrix(-1 0 0 1 266 555)">
                        <path fill="#ADBAED" d="M194.258 28.555c-.245.063-.532-.037-.804-.067l.01-.414c.46-.083.92-.168 1.38-.253.05.096.095.194.144.29-.242.155-.465.376-.73.444m5.823-9.455c-2.876.163-5.751.277-8.63.4-6.337.271-12.682.624-19.019.778-5.303.127-10.605.113-15.9-.012-8.536-.2-17.055-.51-25.622-.247-7.74.24-15.48.26-23.214.276-6.631.012-13.26-.018-19.876-.215-5.735-.17-11.447-.599-17.168-.929-.61-.037-1.209-.188-1.813-.287.023-.14.048-.282.068-.42.978.032 1.951.08 2.93.1.955.016 1.917-.033 2.872.007 6.905.27 13.802.69 20.717.798 5.809.09 11.64-.192 17.46-.284 4.79-.076 9.576-.105 14.365-.17 3.755-.052 7.513-.13 11.267-.195 1.248-.02 2.504-.092 3.748-.046 9.835.343 19.667.725 29.548.233 7.74-.385 15.48-.701 23.216-.996 1.074-.04 2.146.282 3.228.352.774.055 1.56-.017 2.341-.048.462-.02.922-.069 1.562-.12-.449 1.14-1.36.984-2.08 1.025M61.514 18.072c1.732-.454 2.92-.242 4.594.315-1.794.448-3.001.406-4.594-.315m-2.879.228c-5.326-.33-10.688-.365-15.969-1.17 1.757-.655 3.494-.153 5.23-.13 1.828.025 3.648.167 5.474.268 1.787.1 3.572.21 5.362.315l-.097.717m-4.888 8.37c-1.84-.11-3.68-.217-5.522-.328l.006-.544c1.95-.516 3.753-.003 5.57.417-.018.15-.034.3-.054.454m-9.048-3.306c-1.364-.097-2.785-.045-3.994-1.358.597-.085 1.202-.264 1.788-.241 2.703.108 5.402.257 8.097.426.775.048 1.923.015 1.78.973-.16 1.064-1.272.592-2.003.553-1.893-.095-3.781-.217-5.668-.353m-.086 2.65c-.091.004-.188-.146-.281-.227.125-.114.252-.225.44-.395.16.197.265.323.371.45-.175.063-.351.16-.53.172m14.826.457c1.206-.525 2.256-.112 3.327.18-.022.164-.045.327-.066.492-1.096-.064-2.192-.125-3.285-.193l.024-.479m-20.704-.896c-1.153-.104-2.305-.207-3.457-.313.03-.174.064-.352.097-.527l3.438.358-.078.482m-.969-3.007c-1.243.487-2.063.425-2.651-.526 1.485-.816 1.485-.816 2.651.526m-9.647 5.337c-.249.015-.505-.102-.758-.158.027-.132.055-.263.081-.395.443.003.883.002 1.325.005.023.095.052.188.076.284-.242.094-.48.246-.724.264m234.483-5.29c1.442-.182 2.888-.617 3.218-2.105.341-1.494-.577-2.54-1.979-3.185-1.28-.592-2.616-1.09-4.169-1.731.61-.287 1.07-.506 1.682-.8-.25-.23-.4-.499-.62-.545-2.687-.593-5.35-1.373-8.092-1.667-4.725-.505-9.496-.885-14.272-.984-8.083-.168-16.185-.072-24.28-.097-5.003-.015-10.005-.08-15.012-.055-1.314.006-2.631.305-3.953.418-.93.078-1.866.093-2.796.093-2.2 0-4.4-.06-6.6-.028-1.838.029-3.675.16-5.509.236-.367.016-.75-.083-1.099-.005-3.17.678-6.32.293-9.48.265-2.792-.027-5.604.234-8.394.187-5.302-.09-10.586-.425-15.89-.452-6.332-.033-12.683.25-19.014.224-11.416-.05-22.863.684-34.255.05-7.919-.439-15.85-.757-23.769-1.199-8.798-.486-17.594-1.008-26.38-1.605-1.726-.121-3.389-.708-5.103-.98-.906-.143-1.884-.212-2.8-.084-2.367.336-4.627.492-6.952-.257-1.377-.441-3.044-.232-4.583-.286-1.847-.066-3.621-.21-5.25-1.136-.73-.417-1.818-.362-2.75-.473-.558-.066-1.129-.038-1.651-.052-.06-.268-.146-.408-.11-.517.615-1.86.168-2.683-1.887-2.719-1.655-.024-2.82-.354-3.446-1.808C7.063.524 6.33.053 5.288.378 4.237.705 4.082 1.482 4.162 2.342c.005.044.013.089.02.133.72.146 1.142 1.067.324 1.515-.217.12-.416.241-.628.36-.148.246-.318.477-.517.68.322.098.639.206.978.267.792.147 1.011 1.11.308 1.546-1.495.924-2.634 2.036-3.755 3.234 3.343 1.165 2.999 3.338.64 5.614.896.193 1.778.411 2.714.497.488.046.861.574.718 1-.473 1.429-.556 2.88-1.086 4.25 1.528-.009 3.03-.018 4.564-.418.679-.179 1.39.29 1.214.963-.32 1.22-3.098 8.417-4.31 8.411.843.004 1.265.782.741 1.407-.223.268-.431.546-.641.819.26-.138.518-.289.77-.455.673-.353 1.366-.036 1.468.633.167 1.083.458 2.145.68 3.217.851.069 1.69.165 2.536.202.074-.685.428-1.422 1.066-2.124.76-.831 1.697-.86 2.613-.507 1.465.562 2.944.689 4.522.332.424-.095.914-.14 1.316-.04 1.601.403 3.073.605 4.325-.894.245-.292 1.105-.207 1.685-.239.556-.031 1.115.01 1.83.022-.243-1.21-1.182-1.248-1.997-1.354-1.087-.14-2.204-.142-3.281-.31-.569-.09-1.083-.4-1.575-.88 1.974-.865 3.938-1.22 5.99-1.041 4.383.382 8.755.835 13.146 1.155 4.392.32 8.8.519 13.201.766 3.739.212 7.493.34 11.22.64 11.193.89 22.406 1.612 33.689 1.61 5.301 0 10.605-.082 15.911-.143.792-.01 1.584-.115 2.436-.487-.348-.099-.696-.282-1.05-.28-2.354 0-4.715.08-7.071.065-5.593-.03-11.186-.074-16.777-.159-2.058-.032-4.142-.045-6.155-.34-2.443-.356-4.907-.29-7.363-.425-7.624-.42-15.232-1.012-22.85-1.496-3.077-.196-6.172-.24-9.248-.444-2.486-.167-4.961-.444-7.43-.718-.756-.081-1.23-.527-.912-1.262.309-.717.892-.443 1.479-.278 2.584.708 5.19 1.012 7.957.426 2.576-.543 5.13-.114 7.664.275.772.115 1.574.102 2.361.165.726.056 1.492.016 2.159.219 2.161.658 4.355.86 6.665.645.921-.086 1.867.17 2.8.274.791.088 1.629.396 2.36.238 3.714-.798 7.349-.17 11.009-.052 3.304.104 6.6.326 9.904.468.629.028 1.273-.088 1.957-.487-.437-.096-.865-.25-1.308-.274-7.185-.43-14.378-.822-21.56-1.273-1.104-.072-2.361.064-3.333-.899.305-.231.496-.47.73-.528.423-.1.892-.168 1.311-.113 3.222.443 6.41.796 9.745.639 3.967-.186 7.938.186 11.903.317.37.012.776-.066 1.096.041 2.423.83 4.89.447 7.383.08 1.01-.146 2.057.014 3.088-.018.917-.03 1.833-.134 2.76-.37-1.268-.631-2.498-1.289-4.04-.629-.193.082-.456.123-.655.079-3.162-.748-6.412.157-9.638-.125-6.054-.53-12.179-.587-18.262-.94-5.793-.335-11.57-.799-17.358-1.208-.146-.009-.295-.025-.434-.059-.759-.187-1.873-.263-1.625-1.213.27-1.022 1.295-.521 2.06-.46 2.188.17 4.38.307 6.57.46 6.221.44 12.438.923 18.666 1.302 3.806.233 7.632.31 11.45.453.366.012.735.014 1.103-.006 3.51-.195 7.021-.405 10.533-.585.809-.043 1.62.035 2.43.017 2.273-.054 4.546-.058 6.813-.231.836-.063 1.647-.544 2.12-.709 3.022.301 5.752.675 8.506.818 2.12.11 4.274-.075 6.411-.114 5.818-.107 11.639-.235 17.456-.293 4.031-.036 8.055.094 12.082.016.975-.018 1.997-.486 2.937-.882 1.278-.539 2.538-.665 3.89-.494 1.01.128 2.053.1 3.08.16.51.03 1.183-.07 1.496.179 1.89 1.49 4.224.583 6.335.788.646.064 1.434-.293 2.057-.623 2.697-1.434 5.316-1.4 7.961-.186.656.299 1.414.422 2.123.623l.267-.357-.728-1.006c.088-.102.17-.285.263-.293 2.995-.25 5.97-.622 8.78.757.856.42 2.139.174 3.23.214.857.029 1.74-.07 2.572.06 1.157.18 2.16.158 3.058-.71.71-.684 1.508-1.053 2.574-.557.38.174 1.006.072 1.481-.048 1.868-.469 3.427-.158 5.197.57 1.597.655 3.7.455 5.586.471 2.859.024 5.728-.105 8.59-.127.292-.003.575.263 1.15.55-.647.282-.995.544-1.357.576-2.339.199-4.702-.19-7.035.53-.354.111-.86-.063-1.243-.21-1.48-.568-2.858-.388-4.171.518-.235.164-.484.326-.752.438-1.563.638-2.46.387-3.448-.956-2.252.174-4.518.337-6.778.537-.408.037-.96.141-1.18.395-.732.837-1.72.732-2.649.827-1.282.131-2.623-.157-3.782.736-.197.15-.95.075-.996-.045-.504-1.402-1.627-.63-2.566-.584-1.175.06-2.35.04-3.528.067-1.996.047-2.16.195-2.309 2.036-.118 1.475-.598 1.885-2.454 1.956-5.159.199-10.319.368-15.478.56-.804.03-1.607.12-2.42.338 3.929.455 7.912.11 11.867.008 4.052-.102 8.111-.37 12.164-.5 4.05-.132 8.1-.182 12.412-.27-1.562 1.146-3.872-.115-4.958 1.972.592.11 1.05.271 1.513.264 3.096-.057 6.192-.133 9.287-.242 1.285-.045 2.45-.059 3.357.987.31.365 1.174.47 1.791.46 5.895-.104 11.785-.295 17.677-.38 2.87-.043 5.73.128 8.602.12 2.43-.01 4.865-.114 7.296-.218.835-.037 1.774.097 2.214-.964.095-.234.925-.32 1.411-.335 1.403-.044 2.804 0 4.204-.024 1.747-.03 2.915-.627 3.084-1.528.155-.846-1.094-1.947-2.585-2.272-.405-.09-.82-.166-1.231-.248l.077-.41 6.119.645c-.502-2.412-2.47-2.87-4.608-3.258.72-1.066 1.514-1.583 2.697-1.733"/>
                    </g>
                </g>
                <text fill="#FFF" font-family="RalewayRoman-SemiBold, Raleway" font-size="36" font-weight="500" transform="translate(-757 -1667) translate(757 1667)">
                    <tspan x="29.892" y="123.741">A booking platform for </tspan> <tspan x="29.892" y="181.741">managing meetings </tspan> <tspan x="29.892" y="239.741">easier within enterprises</tspan>
                </text>
                <text fill="#FFF" font-family="RalewayRoman-Medium, Raleway" font-size="18" font-weight="400" transform="translate(-757 -1667) translate(757 1667)">
                    <tspan x="30" y="373">Research</tspan>  <tspan x="30" y="415">Prototyping</tspan>  <tspan x="30" y="457">Visual Design</tspan>
                </text>
            </g>
        </g>
    </g>
</svg>
