<svg xmlns="http://www.w3.org/2000/svg" xmlns:xlink="http://www.w3.org/1999/xlink" width="460" height="355" viewBox="0 0 460 355">
    <defs>
        <path id="01nsu77l6a" d="M0 323.705L228.503 323.705 228.503 355 0 355z"/>
        <path id="omgulk7wtb" d="M206.551 323.705L459.002 323.705 459.002 355 206.551 355z"/>
    </defs>
    <g fill="none" fill-rule="evenodd">
        <g>
            <g>
                <g>
                    <g transform="translate(-246 -503) translate(246 503)">
                        <path fill="#9BACCB" d="M0 0H459.002V346.198H0z"/>
                    </g>
                    <path fill="#9BACCB" d="M166.735 348.329c-.211.055-.458-.032-.693-.058l.008-.361c.397-.072.794-.146 1.19-.22.043.084.082.169.125.253-.208.134-.401.326-.63.386m5.022-8.232c-2.48.142-4.96.241-7.442.349-5.465.235-10.936.543-16.4.677-4.572.11-9.144.098-13.71-.011-7.36-.175-14.706-.443-22.093-.215-6.674.21-13.348.226-20.017.24-5.718.011-11.434-.015-17.138-.187-4.945-.148-9.87-.521-14.804-.809-.527-.032-1.042-.163-1.563-.25l.059-.365c.842.028 1.682.069 2.525.086.824.015 1.654-.028 2.477.007 5.954.235 11.901.601 17.863.694 5.01.078 10.038-.167 15.056-.247 4.13-.066 8.258-.092 12.387-.148 3.238-.045 6.478-.113 9.715-.17 1.076-.017 2.16-.08 3.232-.04 8.48.3 16.958.632 25.478.203 6.675-.335 13.348-.61 20.02-.867.925-.034 1.85.246 2.783.307.667.047 1.344-.015 2.018-.042.398-.017.795-.06 1.347-.105-.387.993-1.173.857-1.793.893m-119.484-.895c1.494-.396 2.518-.211 3.962.274-1.548.39-2.588.354-3.962-.274m-2.482.198c-4.593-.286-9.216-.317-13.77-1.019 1.515-.57 3.013-.133 4.51-.113 1.576.022 3.146.146 4.72.234 1.541.087 3.08.182 4.623.274l-.083.624m-4.215 7.287c-1.586-.096-3.173-.188-4.762-.285l.006-.473c1.682-.45 3.236-.003 4.803.363-.016.13-.03.261-.047.395m-7.802-2.878c-1.176-.085-2.4-.04-3.444-1.183.515-.074 1.037-.23 1.542-.21 2.33.094 4.658.224 6.982.371.668.041 1.658.013 1.534.847-.137.927-1.096.515-1.726.482-1.632-.083-3.261-.189-4.888-.307m-.074 2.307c-.079.003-.162-.127-.242-.198.107-.1.217-.196.379-.344.138.172.228.282.32.392-.151.055-.303.14-.457.15m12.784.398c1.04-.457 1.945-.098 2.87.157-.02.142-.04.284-.058.428-.945-.056-1.89-.11-2.833-.168l.021-.417m-17.852-.78c-.995-.091-1.988-.181-2.98-.273.025-.152.054-.306.082-.46l2.965.313c-.023.141-.046.28-.067.42m-.836-2.619c-1.072.425-1.779.37-2.286-.458 1.28-.71 1.28-.71 2.286.458m-8.318 4.647c-.215.013-.436-.089-.654-.137l.07-.344 1.143.004c.02.083.044.164.065.247-.209.082-.415.214-.624.23m202.189-4.606c1.243-.159 2.49-.537 2.775-1.832.294-1.302-.498-2.212-1.707-2.774-1.103-.515-2.255-.948-3.595-1.507.526-.25.923-.44 1.45-.697-.215-.2-.345-.434-.533-.474-2.318-.516-4.615-1.195-6.979-1.451-4.074-.44-8.188-.77-12.306-.857-6.97-.146-13.956-.063-20.936-.084-4.314-.013-8.627-.07-12.945-.049-1.132.006-2.268.266-3.408.364-.802.068-1.609.082-2.411.082-1.897 0-3.793-.052-5.691-.025-1.585.025-3.169.139-4.75.206-.317.014-.647-.073-.948-.005-2.733.59-5.45.256-8.175.23-2.407-.023-4.832.204-7.237.163-4.572-.077-9.128-.369-13.702-.393-5.46-.028-10.936.218-16.395.195-9.844-.044-19.715.596-29.537.044-6.829-.382-13.668-.66-20.496-1.044-7.586-.423-15.171-.878-22.747-1.398-1.488-.105-2.922-.616-4.4-.853-.782-.124-1.624-.184-2.413-.073-2.043.293-3.99.428-5.996-.224-1.187-.384-2.625-.202-3.952-.249-1.592-.058-3.122-.182-4.526-.99-.63-.362-1.568-.314-2.372-.41-.481-.058-.973-.034-1.424-.046-.051-.234-.125-.355-.094-.45.53-1.619.144-2.337-1.627-2.367-1.428-.022-2.433-.31-2.972-1.575-.296-.69-.928-1.1-1.827-.817-.907.285-1.04.961-.97 1.71.004.038.01.077.017.115.62.127.984.93.279 1.32-.188.104-.36.21-.541.312-.129.215-.275.417-.447.593.278.086.551.18.843.233.684.127.872.966.267 1.346-1.29.805-2.272 1.773-3.239 2.816 2.883 1.014 2.586 2.905.553 4.887.772.168 1.532.359 2.34.433.42.04.742.5.619.871-.408 1.244-.48 2.508-.936 3.7 1.317-.007 2.611-.015 3.934-.364.586-.155 1.2.253 1.047.839-.275 1.062-2.671 7.329-3.716 7.323.727.004 1.09.68.64 1.225-.194.233-.373.476-.554.713.225-.12.447-.251.664-.396.58-.307 1.178-.031 1.266.55.144.945.395 1.869.586 2.802.734.06 1.458.144 2.187.176.064-.596.369-1.238.919-1.849.655-.724 1.463-.748 2.253-.442 1.263.49 2.539.6 3.9.29.365-.083.788-.123 1.134-.036 1.381.351 2.65.527 3.73-.778.211-.254.953-.18 1.452-.208.48-.027.962.008 1.579.02-.21-1.054-1.02-1.088-1.722-1.18-.938-.122-1.9-.124-2.83-.27-.49-.077-.934-.348-1.357-.766 1.701-.752 3.395-1.062 5.164-.906 3.78.332 7.55.727 11.336 1.006 3.787.279 7.587.451 11.383.666 3.224.185 6.46.296 9.675.557 9.651.776 19.32 1.404 29.048 1.403 4.572 0 9.145-.072 13.72-.125.683-.008 1.367-.1 2.101-.424-.3-.086-.6-.246-.905-.244-2.03.001-4.066.07-6.098.056-4.822-.025-9.645-.063-14.466-.138-1.774-.027-3.572-.04-5.307-.295-2.107-.311-4.231-.254-6.35-.371-6.573-.366-13.133-.881-19.702-1.303-2.653-.17-5.322-.209-7.974-.386-2.144-.145-4.278-.387-6.408-.625-.651-.07-1.06-.459-.786-1.099.267-.624.77-.385 1.275-.242 2.23.617 4.476.882 6.862.371 2.22-.473 4.423-.1 6.609.24.665.1 1.357.089 2.035.143.626.049 1.287.014 1.862.19 1.863.574 3.755.75 5.747.563.794-.075 1.61.147 2.415.238.682.077 1.404.345 2.035.207 3.202-.695 6.336-.148 9.492-.045 2.849.09 5.691.284 8.54.407.542.025 1.097-.076 1.688-.424-.377-.083-.746-.217-1.128-.239-6.196-.373-12.398-.715-18.591-1.108-.952-.062-2.036.056-2.874-.782.263-.201.428-.41.63-.46.364-.087.769-.146 1.13-.098 2.779.385 5.527.693 8.403.556 3.42-.162 6.844.162 10.263.276.319.01.67-.058.946.036 2.089.723 4.216.389 6.366.07.87-.128 1.774.012 2.662-.017.791-.025 1.58-.116 2.38-.321-1.093-.55-2.154-1.123-3.483-.548-.167.071-.394.107-.566.068-2.726-.651-5.528.138-8.31-.108-5.22-.462-10.501-.511-15.746-.819-4.996-.292-9.978-.695-14.968-1.052-.126-.007-.254-.021-.375-.05-.654-.163-1.614-.23-1.4-1.057.233-.89 1.117-.454 1.776-.4 1.886.148 3.777.267 5.665.4 5.365.384 10.725.803 16.095 1.134 3.282.203 6.581.27 9.873.394.316.01.634.013.951-.005 3.027-.17 6.055-.353 9.082-.51.698-.037 1.398.031 2.096.015 1.96-.047 3.92-.05 5.875-.201.72-.055 1.42-.473 1.828-.617 2.606.262 4.96.588 7.335.712 1.827.096 3.685-.065 5.528-.099 5.016-.094 10.035-.205 15.052-.255 3.475-.032 6.945.081 10.417.014.841-.016 1.722-.423 2.532-.768 1.103-.47 2.19-.58 3.355-.43.87.111 1.77.087 2.657.14.44.025 1.019-.063 1.289.155 1.63 1.297 3.642.507 5.462.686.557.056 1.237-.255 1.774-.543 2.325-1.248 4.584-1.219 6.865-.162.565.26 1.219.368 1.83.543.076-.104.153-.208.23-.31l-.627-.877c.075-.089.146-.248.227-.255 2.582-.217 5.148-.541 7.57.66.739.365 1.844.15 2.785.185.74.025 1.5-.06 2.219.052.997.157 1.862.138 2.636-.617.612-.596 1.3-.918 2.22-.485.328.15.867.062 1.277-.043 1.61-.407 2.955-.137 4.48.497 1.378.57 3.192.396 4.817.41 2.466.02 4.94-.092 7.408-.11.252-.003.495.228.991.478-.558.246-.858.474-1.17.502-2.017.173-4.055-.166-6.066.46-.305.098-.742-.053-1.072-.18-1.277-.496-2.464-.339-3.597.45-.202.143-.417.284-.648.38-1.348.556-2.121.338-2.973-.831-1.942.15-3.896.293-5.845.467-.351.032-.827.123-1.018.344-.63.729-1.483.637-2.283.72-1.106.114-2.262-.137-3.262.641-.169.131-.819.066-.858-.039-.434-1.22-1.403-.548-2.212-.509-1.014.052-2.027.035-3.043.059-1.721.04-1.862.17-1.99 1.772-.102 1.284-.516 1.642-2.117 1.703-4.448.174-8.898.321-13.346.489-.693.025-1.386.104-2.087.293 3.388.396 6.822.096 10.233.007 3.494-.089 6.994-.322 10.488-.435 3.493-.115 6.986-.158 10.703-.236-1.347.999-3.338-.1-4.275 1.718.51.095.905.236 1.305.23 2.67-.05 5.339-.116 8.007-.211 1.108-.04 2.114-.051 2.895.859.268.318 1.013.41 1.545.401 5.082-.091 10.162-.257 15.242-.332 2.475-.036 4.94.112 7.417.105 2.096-.008 4.195-.1 6.292-.19.72-.031 1.53.085 1.909-.839.081-.203.797-.278 1.216-.291 1.21-.039 2.418 0 3.625-.021 1.506-.026 2.514-.546 2.66-1.33.133-.738-.944-1.696-2.23-1.979-.349-.078-.707-.144-1.061-.216l.066-.356 5.277.56c-.433-2.1-2.13-2.497-3.974-2.836.622-.928 1.306-1.378 2.326-1.509" transform="translate(-246 -503) translate(246 503) matrix(-1 0 0 1 228.503 0)"/>
                    <path fill="#9BACCB" d="M390.95 348.329c-.237.055-.513-.032-.775-.058.002-.12.005-.241.009-.361.443-.072.886-.146 1.33-.22.048.084.092.169.14.253-.234.134-.45.326-.705.386m5.614-8.232c-2.773.142-5.544.241-8.319.349-6.11.235-12.225.543-18.333.677-5.112.11-10.224.098-15.327-.011-8.228-.175-16.44-.443-24.698-.215-7.461.21-14.922.226-22.377.24-6.393.011-12.782-.015-19.16-.187-5.527-.148-11.034-.521-16.549-.809-.588-.032-1.165-.163-1.747-.25.022-.122.046-.245.066-.365.942.028 1.88.069 2.823.086.921.015 1.849-.028 2.769.007 6.656.235 13.305.601 19.97.694 5.6.078 11.22-.167 16.83-.247 4.617-.066 9.232-.092 13.847-.148 3.62-.045 7.243-.113 10.862-.17 1.202-.017 2.413-.08 3.612-.04 9.48.3 18.958.632 28.482.203 7.462-.335 14.922-.61 22.38-.867 1.035-.034 2.069.246 3.111.307.747.047 1.503-.015 2.257-.042.445-.017.888-.06 1.505-.105-.432.993-1.31.857-2.004.893m-133.571-.895c1.67-.396 2.815-.211 4.428.274-1.73.39-2.893.354-4.428-.274m-2.775.198c-5.135-.286-10.303-.317-15.393-1.019 1.693-.57 3.368-.133 5.041-.113 1.762.022 3.517.146 5.276.234 1.723.087 3.444.182 5.169.274l-.093.624m-4.712 7.287c-1.773-.096-3.547-.188-5.323-.285l.006-.473c1.88-.45 3.617-.003 5.37.363-.019.13-.034.261-.053.395m-8.722-2.878c-1.315-.085-2.684-.04-3.85-1.183.576-.074 1.159-.23 1.724-.21 2.605.094 5.207.224 7.805.371.747.041 1.853.013 1.715.847-.154.927-1.225.515-1.93.482-1.825-.083-3.645-.189-5.464-.307m-.083 2.307c-.088.003-.18-.127-.27-.198.12-.1.242-.196.423-.344.155.172.256.282.359.392-.17.055-.34.14-.512.15m14.292.398c1.162-.457 2.174-.098 3.207.157-.021.142-.044.284-.064.428-1.056-.056-2.113-.11-3.167-.168l.024-.417m-19.957-.78c-1.112-.091-2.223-.181-3.333-.273l.093-.46 3.314.313-.074.42m-.935-2.619c-1.198.425-1.988.37-2.555-.458 1.431-.71 1.431-.71 2.555.458m-9.299 4.647c-.24.013-.487-.089-.731-.137l.079-.344 1.277.004c.022.083.05.164.073.247-.234.082-.463.214-.698.23m229.13-6.438c.33-1.302-.557-2.212-1.907-2.774-1.234-.515-2.522-.948-4.02-1.507.588-.25 1.032-.44 1.622-.697-.24-.2-.386-.434-.597-.474-2.59-.516-5.158-1.195-7.8-1.451-4.555-.44-9.154-.77-13.759-.857-7.79-.146-15.6-.063-23.404-.084-4.823-.013-9.644-.07-14.47-.049-1.267.006-2.537.266-3.811.364-.896.068-1.798.082-2.695.082-2.12 0-4.24-.052-6.362-.025-1.771.025-3.542.139-5.31.206-.355.014-.724-.073-1.06-.005-3.055.59-6.092.256-9.139.23-2.69-.023-5.401.204-8.09.163-5.111-.077-10.204-.369-15.317-.393-6.104-.028-12.226.218-18.329.195-11.004-.044-22.039.596-33.02.044-7.633-.382-15.278-.66-22.911-1.044-8.481-.423-16.96-.878-25.43-1.398-1.663-.105-3.266-.616-4.918-.853-.874-.124-1.816-.184-2.698-.073-2.283.293-4.461.428-6.703-.224-1.327-.384-2.934-.202-4.418-.249-1.78-.058-3.49-.182-5.06-.99-.704-.362-1.752-.314-2.652-.41-.537-.058-1.087-.034-1.59-.046-.058-.234-.14-.355-.106-.45.592-1.619.161-2.337-1.82-2.367-1.595-.022-2.718-.31-3.321-1.575-.331-.69-1.037-1.1-2.043-.817-1.013.285-1.163.961-1.085 1.71.005.038.013.077.02.115.693.127 1.1.93.312 1.32-.21.104-.402.21-.605.312-.144.215-.307.417-.5.593.311.086.617.18.943.233.764.127.975.966.298 1.346-1.442.805-2.54 1.773-3.62 2.816 3.222 1.014 2.89 2.905.617 4.887.863.168 1.714.359 2.616.433.47.04.83.5.692.871-.456 1.244-.536 2.508-1.046 3.7 1.472-.007 2.919-.015 4.398-.364.655-.155 1.341.253 1.17.839-.307 1.062-6.281 3.105-7.45 3.1.814.003 4.515 4.904 4.01 5.448-.215.233-.415.476-.617.713.25-.12.499-.251.741-.396.65-.307 1.318-.031 1.416.55.161.945.442 1.869.655 2.802.82.06 1.63.144 2.445.176.071-.596.412-1.238 1.027-1.849.733-.724 1.636-.748 2.519-.442 1.412.49 2.838.6 4.359.29.409-.083.881-.123 1.268-.036 1.544.351 2.963.527 4.17-.778.236-.254 1.065-.18 1.624-.208.536-.027 1.075.008 1.765.02-.235-1.054-1.14-1.088-1.926-1.18-1.048-.122-2.124-.124-3.163-.27-.548-.077-1.044-.348-1.518-.766 1.903-.752 3.796-1.062 5.774-.906 4.225.332 8.44.727 12.673 1.006 4.233.279 8.481.451 12.724.666 3.604.185 7.223.296 10.816.557 10.79.776 21.598 1.404 32.473 1.403 5.111 0 10.224-.072 15.339-.125.762-.008 1.526-.1 2.348-.424-.336-.086-.671-.246-1.013-.244-2.27.001-4.545.07-6.816.056-5.391-.025-10.782-.063-16.172-.138-1.983-.027-3.993-.04-5.933-.295-2.355-.311-4.73-.254-7.098-.371-7.349-.366-14.682-.881-22.025-1.303-2.967-.17-5.95-.209-8.915-.386-2.397-.145-4.782-.387-7.163-.625-.728-.07-1.185-.459-.879-1.099.298-.624.86-.385 1.426-.242 2.491.617 5.003.882 7.67.371 2.483-.473 4.946-.1 7.388.24.744.1 1.518.089 2.276.143.7.049 1.439.014 2.081.19 2.083.574 4.198.75 6.425.563.888-.075 1.8.147 2.7.238.762.077 1.569.345 2.275.207 3.58-.695 7.082-.148 10.61-.045 3.185.09 6.363.284 9.547.407.607.025 1.227-.076 1.887-.424-.421-.083-.834-.217-1.26-.239-6.926-.373-13.86-.715-20.784-1.108-1.063-.062-2.275.056-3.213-.782.295-.201.48-.41.705-.46.408-.087.86-.146 1.263-.098 3.107.385 6.18.693 9.394.556 3.823-.162 7.651.162 11.473.276.357.01.749-.058 1.057.036 2.336.723 4.713.389 7.117.07.973-.128 1.983.012 2.976-.017.885-.025 1.767-.116 2.661-.321-1.223-.55-2.408-1.123-3.894-.548-.186.071-.44.107-.632.068-3.048-.651-6.18.138-9.29-.108-5.836-.462-11.74-.511-17.603-.819-5.585-.292-11.154-.695-16.733-1.052-.14-.007-.284-.021-.419-.05-.73-.163-1.804-.23-1.565-1.057.26-.89 1.248-.454 1.985-.4 2.109.148 4.223.267 6.333.4 5.997.384 11.99.803 17.993 1.134 3.67.203 7.357.27 11.037.394.354.01.709.013 1.063-.005 3.384-.17 6.769-.353 10.154-.51.78-.037 1.562.031 2.342.015 2.19-.047 4.382-.05 6.568-.201.805-.055 1.588-.473 2.043-.617 2.914.262 5.544.588 8.2.712 2.043.096 4.12-.065 6.18-.099 5.608-.094 11.218-.205 16.826-.255 3.886-.032 7.764.081 11.646.014.94-.016 1.925-.423 2.83-.768 1.233-.47 2.448-.58 3.75-.43.974.111 1.98.087 2.97.14.492.025 1.14-.063 1.442.155 1.822 1.297 4.072.507 6.106.686.623.056 1.383-.255 1.984-.543 2.599-1.248 5.123-1.219 7.673-.162.632.26 1.363.368 2.047.543.085-.104.17-.208.257-.31-.234-.294-.468-.584-.702-.877.085-.089.164-.248.254-.255 2.887-.217 5.755-.541 8.463.66.826.365 2.062.15 3.113.185.827.025 1.678-.06 2.48.052 1.115.157 2.083.138 2.948-.617.684-.596 1.453-.918 2.481-.485.367.15.97.062 1.428-.043 1.8-.407 3.303-.137 5.009.497 1.54.57 3.568.396 5.385.41 2.756.02 5.522-.092 8.28-.11.282-.003.554.228 1.109.478-.624.246-.96.474-1.309.502-2.254.173-4.532-.166-6.78.46-.342.098-.83-.053-1.2-.18-1.426-.496-2.754-.339-4.02.45-.226.143-.466.284-.725.38-1.506.556-2.371.338-3.323-.831-2.171.15-4.355.293-6.534.467-.393.032-.925.123-1.138.344-.705.729-1.658.637-2.552.72-1.236.114-2.529-.137-3.647.641-.189.131-.915.066-.96-.039-.485-1.22-1.567-.548-2.473-.509-1.132.052-2.265.035-3.4.059-1.925.04-2.082.17-2.226 1.772-.114 1.284-.577 1.642-2.366 1.703-4.973.174-9.947.321-14.92.489-.774.025-1.55.104-2.332.293 3.786.396 7.626.096 11.439.007 3.906-.089 7.818-.322 11.725-.435 3.904-.115 7.809-.158 11.964-.236-1.505.999-3.731-.1-4.78 1.718.572.095 1.013.236 1.46.23 2.984-.05 5.969-.116 8.952-.211 1.238-.04 2.362-.051 3.236.859.3.318 1.132.41 1.726.401 5.683-.091 11.36-.257 17.04-.332 2.767-.036 5.523.112 8.292.105 2.342-.008 4.69-.1 7.033-.19.805-.031 1.71.085 2.134-.839.09-.203.891-.278 1.36-.291 1.352-.039 2.702 0 4.052-.021 1.684-.026 2.81-.546 2.973-1.33.15-.738-1.054-1.696-2.492-1.979-.39-.078-.791-.144-1.186-.216l.074-.356 5.898.56c-.483-2.1-2.38-2.497-4.441-2.836.694-.928 1.459-1.378 2.6-1.509 1.39-.159 2.783-.537 3.101-1.832z" transform="translate(-246 -503) translate(246 503) matrix(-1 0 0 1 664.555 0)"/>
                </g>
                <text fill="#FFF" font-family="RalewayRoman-SemiBold, Raleway" font-size="30" font-weight="500" transform="translate(-246 -503) translate(246 503)">
                    <tspan x="52.885" y="71.397">UI Concept: Sutasttra </tspan> <tspan x="52.885" y="129.397">Branding</tspan>
                </text>
                <text fill="#FFF" font-family="RalewayRoman-Medium, Raleway" font-size="18" font-weight="400" transform="translate(-246 -503) translate(246 503)">
                    <tspan x="52.885" y="208.68">Branding</tspan>  <tspan x="52.885" y="250.68">Web Desgn</tspan>  <tspan x="52.885" y="292.68">Visual Design</tspan>
                </text>
            </g>
        </g>
    </g>
</svg>
