<svg xmlns="http://www.w3.org/2000/svg" width="460" height="355" viewBox="0 0 460 355">
    <g fill="none" fill-rule="evenodd">
        <g>
            <g>
                <g fill="#93B0B0">
                    <path d="M0 0H459.002V339.649H0z" transform="translate(-246 -889) translate(246 889)"/>
                    <path d="M166.735 348.455c-.211.054-.458-.032-.693-.057l.008-.354c.397-.07.794-.143 1.19-.216.043.083.082.166.125.248-.208.132-.401.32-.63.379m5.022-8.076c-2.48.14-4.96.236-7.442.342-5.465.231-10.936.533-16.4.664-4.572.108-9.144.097-13.71-.01-7.36-.172-14.706-.435-22.093-.211-6.674.205-13.348.222-20.017.236-5.718.01-11.434-.016-17.138-.184-4.945-.146-9.87-.512-14.804-.793-.527-.032-1.042-.161-1.563-.246l.059-.359c.842.028 1.682.068 2.525.086.824.014 1.654-.028 2.477.006 5.954.23 11.901.59 17.863.681 5.01.077 10.038-.164 15.056-.242 4.13-.065 8.258-.09 12.387-.145 3.238-.045 6.478-.111 9.715-.167 1.076-.017 2.16-.079 3.232-.04 8.48.294 16.958.62 25.478.2 6.675-.329 13.348-.6 20.02-.851.925-.034 1.85.24 2.783.301.667.046 1.344-.015 2.018-.041.398-.017.795-.06 1.347-.103-.387.974-1.173.84-1.793.876M52.273 339.5c1.494-.389 2.518-.207 3.962.268-1.548.384-2.588.348-3.962-.268m-2.482.194c-4.593-.28-9.216-.311-13.77-1 1.515-.558 3.013-.13 4.51-.11 1.576.021 3.146.142 4.72.229 1.541.086 3.08.18 4.623.269l-.083.612m-4.215 7.15c-1.586-.094-3.173-.185-4.762-.28l.006-.465c1.682-.44 3.236-.003 4.803.356-.016.129-.03.257-.047.388m-7.802-2.824c-1.176-.083-2.4-.039-3.444-1.16.515-.073 1.037-.226 1.542-.206 2.33.092 4.658.22 6.982.364.668.04 1.658.013 1.534.831-.137.91-1.096.506-1.726.473-1.632-.082-3.261-.185-4.888-.302m-.074 2.264c-.079.003-.162-.125-.242-.194.107-.098.217-.192.379-.337.138.168.228.276.32.384-.151.054-.303.137-.457.147m12.784.39c1.04-.448 1.945-.095 2.87.154-.02.14-.04.279-.058.42-.945-.054-1.89-.107-2.833-.164l.021-.41m-17.852-.765c-.995-.09-1.988-.177-2.98-.268.025-.149.054-.3.082-.45l2.965.306c-.023.139-.046.275-.067.412m-.836-2.569c-1.072.417-1.779.363-2.286-.45 1.28-.696 1.28-.696 2.286.45m-8.318 4.559c-.215.013-.436-.087-.654-.135l.07-.337 1.143.004c.02.081.044.16.065.243-.209.08-.415.21-.624.225m202.189-4.519c1.243-.155 2.49-.527 2.775-1.798.294-1.276-.498-2.17-1.707-2.72-1.103-.506-2.255-.931-3.595-1.48.526-.245.923-.432 1.45-.683-.215-.196-.345-.425-.533-.465-2.318-.506-4.615-1.173-6.979-1.424-4.074-.431-8.188-.756-12.306-.84-6.97-.144-13.956-.062-20.936-.083-4.314-.013-8.627-.069-12.945-.048-1.132.006-2.268.261-3.408.357-.802.067-1.609.08-2.411.08-1.897 0-3.793-.05-5.691-.024-1.585.025-3.169.136-4.75.202-.317.014-.647-.071-.948-.005-2.733.58-5.45.251-8.175.227-2.407-.023-4.832.2-7.237.16-4.572-.077-9.128-.363-13.702-.387-5.46-.028-10.936.214-16.395.192-9.844-.043-19.715.584-29.537.043-6.829-.375-13.668-.647-20.496-1.024-7.586-.416-15.171-.862-22.747-1.372-1.488-.103-2.922-.604-4.4-.837-.782-.122-1.624-.18-2.413-.071-2.043.287-3.99.42-5.996-.22-1.187-.377-2.625-.198-3.952-.244-1.592-.057-3.122-.179-4.526-.971-.63-.356-1.568-.309-2.372-.404-.481-.056-.973-.032-1.424-.044-.051-.23-.125-.349-.094-.442.53-1.588.144-2.292-1.627-2.322-1.428-.021-2.433-.303-2.972-1.545-.296-.678-.928-1.08-1.827-.802-.907.28-1.04.943-.97 1.678.004.037.01.075.017.113.62.125.984.912.279 1.294-.188.103-.36.207-.541.307-.129.211-.275.409-.447.582.278.084.551.175.843.228.684.125.872.949.267 1.321-1.29.79-2.272 1.739-3.239 2.762 2.883.995 2.586 2.851.553 4.795.772.165 1.532.352 2.34.425.42.04.742.49.619.854-.408 1.22-.48 2.461-.936 3.63 1.317-.007 2.611-.015 3.934-.356.586-.153 1.2.248 1.047.822-.275 1.042-2.671 7.19-3.716 7.185.727.004 1.09.668.64 1.202-.194.228-.373.466-.554.7.225-.119.447-.247.664-.389.58-.302 1.178-.03 1.266.54.144.926.395 1.833.586 2.748.734.06 1.458.142 2.187.173.064-.585.369-1.214.919-1.814.655-.71 1.463-.734 2.253-.434 1.263.481 2.539.59 3.9.284.365-.081.788-.12 1.134-.034 1.381.344 2.65.517 3.73-.764.211-.249.953-.176 1.452-.204.48-.026.962.008 1.579.02-.21-1.035-1.02-1.067-1.722-1.158-.938-.12-1.9-.121-2.83-.264-.49-.077-.934-.342-1.357-.753 1.701-.737 3.395-1.042 5.164-.888 3.78.326 7.55.713 11.336.987 3.787.273 7.587.443 11.383.653 3.224.182 6.46.29 9.675.547 9.651.761 19.32 1.377 29.048 1.376 4.572 0 9.145-.07 13.72-.122.683-.009 1.367-.099 2.101-.416-.3-.085-.6-.241-.905-.24-2.03.001-4.066.068-6.098.055-4.822-.025-9.645-.062-14.466-.135-1.774-.027-3.572-.039-5.307-.29-2.107-.305-4.231-.249-6.35-.364-6.573-.359-13.133-.864-19.702-1.278-2.653-.167-5.322-.205-7.974-.379-2.144-.142-4.278-.379-6.408-.613-.651-.07-1.06-.45-.786-1.078.267-.612.77-.378 1.275-.238 2.23.605 4.476.865 6.862.365 2.22-.464 4.423-.098 6.609.234.665.098 1.357.088 2.035.141.626.048 1.287.014 1.862.187 1.863.563 3.755.736 5.747.552.794-.074 1.61.144 2.415.234.682.075 1.404.338 2.035.203 3.202-.682 6.336-.145 9.492-.045 2.849.09 5.691.279 8.54.4.542.024 1.097-.075 1.688-.416-.377-.082-.746-.213-1.128-.234-6.196-.367-12.398-.702-18.591-1.087-.952-.062-2.036.054-2.874-.768.263-.198.428-.402.63-.451.364-.085.769-.144 1.13-.097 2.779.378 5.527.68 8.403.546 3.42-.16 6.844.16 10.263.27.319.01.67-.056.946.036 2.089.71 4.216.381 6.366.069.87-.126 1.774.011 2.662-.016.791-.025 1.58-.115 2.38-.316-1.093-.54-2.154-1.101-3.483-.537-.167.07-.394.104-.566.067-2.726-.64-5.528.134-8.31-.107-5.22-.453-10.501-.501-15.746-.803-4.996-.286-9.978-.682-14.968-1.032-.126-.007-.254-.021-.375-.05-.654-.16-1.614-.224-1.4-1.036.233-.873 1.117-.445 1.776-.394 1.886.146 3.777.263 5.665.393 5.365.377 10.725.789 16.095 1.113 3.282.199 6.581.265 9.873.387.316.01.634.012.951-.005 3.027-.167 6.055-.346 9.082-.5.698-.037 1.398.03 2.096.015 1.96-.047 3.92-.05 5.875-.198.72-.054 1.42-.464 1.828-.605 2.606.257 4.96.577 7.335.698 1.827.094 3.685-.064 5.528-.097 5.016-.092 10.035-.2 15.052-.25 3.475-.031 6.945.08 10.417.013.841-.015 1.722-.415 2.532-.753 1.103-.46 2.19-.568 3.355-.422.87.11 1.77.086 2.657.137.44.025 1.019-.06 1.289.152 1.63 1.273 3.642.498 5.462.673.557.055 1.237-.25 1.774-.532 2.325-1.225 4.584-1.195 6.865-.159.565.256 1.219.361 1.83.533l.23-.305-.627-.86c.075-.087.146-.243.227-.25 2.582-.213 5.148-.53 7.57.647.739.358 1.844.148 2.785.182.74.025 1.5-.06 2.219.052.997.154 1.862.135 2.636-.606.612-.585 1.3-.9 2.22-.476.328.148.867.061 1.277-.042 1.61-.4 2.955-.135 4.48.487 1.378.56 3.192.389 4.817.403 2.466.02 4.94-.09 7.408-.109.252-.002.495.225.991.47-.558.241-.858.465-1.17.492-2.017.17-4.055-.163-6.066.452-.305.096-.742-.053-1.072-.178-1.277-.486-2.464-.332-3.597.442-.202.14-.417.279-.648.374-1.348.545-2.121.33-2.973-.816-1.942.148-3.896.287-5.845.458-.351.032-.827.12-1.018.338-.63.715-1.483.625-2.283.706-1.106.112-2.262-.134-3.262.629-.169.129-.819.064-.858-.038-.434-1.198-1.403-.538-2.212-.5-1.014.05-2.027.035-3.043.058-1.721.04-1.862.167-1.99 1.739-.102 1.26-.516 1.61-2.117 1.67-4.448.17-8.898.315-13.346.48-.693.025-1.386.102-2.087.288 3.388.388 6.822.093 10.233.006 3.494-.087 6.994-.316 10.488-.427 3.493-.112 6.986-.155 10.703-.23-1.347.979-3.338-.098-4.275 1.684.51.094.905.232 1.305.226 2.67-.049 5.339-.114 8.007-.207 1.108-.038 2.114-.05 2.895.843.268.312 1.013.402 1.545.394 5.082-.09 10.162-.253 15.242-.326 2.475-.036 4.94.11 7.417.102 2.096-.008 4.195-.097 6.292-.185.72-.031 1.53.083 1.909-.824.081-.2.797-.272 1.216-.286 1.21-.037 2.418 0 3.625-.02 1.506-.026 2.514-.535 2.66-1.305.133-.723-.944-1.664-2.23-1.941-.349-.077-.707-.142-1.061-.212l.066-.35 5.277.55c-.433-2.06-2.13-2.45-3.974-2.782.622-.91 1.306-1.352 2.326-1.48" transform="translate(-246 -889) translate(246 889) matrix(-1 0 0 1 228.503 0)"/>
                    <path d="M390.95 348.455c-.237.054-.513-.032-.775-.057.002-.117.005-.237.009-.354.443-.07.886-.143 1.33-.216.048.083.092.166.14.248-.234.132-.45.32-.705.379m5.614-8.076c-2.773.14-5.544.236-8.319.342-6.11.231-12.225.533-18.333.664-5.112.108-10.224.097-15.327-.01-8.228-.172-16.44-.435-24.698-.211-7.461.205-14.922.222-22.377.236-6.393.01-12.782-.016-19.16-.184-5.527-.146-11.034-.512-16.549-.793-.588-.032-1.165-.161-1.747-.246.022-.12.046-.24.066-.359.942.028 1.88.068 2.823.086.921.014 1.849-.028 2.769.006 6.656.23 13.305.59 19.97.681 5.6.077 11.22-.164 16.83-.242 4.617-.065 9.232-.09 13.847-.145 3.62-.045 7.243-.111 10.862-.167 1.202-.017 2.413-.079 3.612-.04 9.48.294 18.958.62 28.482.2 7.462-.329 14.922-.6 22.38-.851 1.035-.034 2.069.24 3.111.301.747.046 1.503-.015 2.257-.041.445-.017.888-.06 1.505-.103-.432.974-1.31.84-2.004.876m-133.571-.878c1.67-.389 2.815-.207 4.428.268-1.73.384-2.893.348-4.428-.268m-2.775.194c-5.135-.28-10.303-.311-15.393-1 1.693-.558 3.368-.13 5.041-.11 1.762.021 3.517.142 5.276.229 1.723.086 3.444.18 5.169.269l-.093.612m-4.712 7.15c-1.773-.094-3.547-.185-5.323-.28l.006-.465c1.88-.44 3.617-.003 5.37.356-.019.129-.034.257-.053.388m-8.722-2.824c-1.315-.083-2.684-.039-3.85-1.16.576-.073 1.159-.226 1.724-.206 2.605.092 5.207.22 7.805.364.747.04 1.853.013 1.715.831-.154.91-1.225.506-1.93.473-1.825-.082-3.645-.185-5.464-.302m-.083 2.264c-.088.003-.18-.125-.27-.194.12-.098.242-.192.423-.337.155.168.256.276.359.384-.17.054-.34.137-.512.147m14.292.39c1.162-.448 2.174-.095 3.207.154-.021.14-.044.279-.064.42-1.056-.054-2.113-.107-3.167-.164l.024-.41m-19.957-.765c-1.112-.09-2.223-.177-3.333-.268l.093-.45 3.314.306-.074.412m-.935-2.569c-1.198.417-1.988.363-2.555-.45 1.431-.696 1.431-.696 2.555.45m-9.299 4.559c-.24.013-.487-.087-.731-.135l.079-.337 1.277.004c.022.081.05.16.073.243-.234.08-.463.21-.698.225m226.028-4.519c1.39-.155 2.784-.527 3.102-1.798.33-1.276-.557-2.17-1.907-2.72-1.234-.506-2.522-.931-4.02-1.48.588-.245 1.032-.432 1.622-.683-.24-.196-.386-.425-.597-.465-2.59-.506-5.158-1.173-7.8-1.424-4.555-.431-9.154-.756-13.759-.84-7.79-.144-15.6-.062-23.404-.083-4.823-.013-9.644-.069-14.47-.048-1.267.006-2.537.261-3.811.357-.896.067-1.798.08-2.695.08-2.12 0-4.24-.05-6.362-.024-1.771.025-3.542.136-5.31.202-.355.014-.724-.071-1.06-.005-3.055.58-6.092.251-9.139.227-2.69-.023-5.401.2-8.09.16-5.111-.077-10.204-.363-15.317-.387-6.104-.028-12.226.214-18.329.192-11.004-.043-22.039.584-33.02.043-7.633-.375-15.278-.647-22.911-1.024-8.481-.416-16.96-.862-25.43-1.372-1.663-.103-3.266-.604-4.918-.837-.874-.122-1.816-.18-2.698-.071-2.283.287-4.461.42-6.703-.22-1.327-.377-2.934-.198-4.418-.244-1.78-.057-3.49-.179-5.06-.971-.704-.356-1.752-.309-2.652-.404-.537-.056-1.087-.032-1.59-.044-.058-.23-.14-.349-.106-.442.592-1.588.161-2.292-1.82-2.322-1.595-.021-2.718-.303-3.321-1.545-.331-.678-1.037-1.08-2.043-.802-1.013.28-1.163.943-1.085 1.678.005.037.013.075.02.113.693.125 1.1.912.312 1.294-.21.103-.402.207-.605.307-.144.211-.307.409-.5.582.311.084.617.175.943.228.764.125.975.949.298 1.321-1.442.79-2.54 1.739-3.62 2.762 3.222.995 2.89 2.851.617 4.795.863.165 1.714.352 2.616.425.47.04.83.49.692.854-.456 1.22-.536 2.461-1.046 3.63 1.472-.007 2.919-.015 4.398-.356.655-.153 1.341.248 1.17.822-.307 1.042-2.986 7.19-4.154 7.185.813.004 1.22.668.715 1.202-.216.228-.416.466-.618.7.25-.119.499-.247.741-.389.65-.302 1.318-.03 1.416.54.161.926.442 1.833.655 2.748.82.06 1.63.142 2.445.173.071-.585.412-1.214 1.027-1.814.733-.71 1.636-.734 2.519-.434 1.412.481 2.838.59 4.359.284.409-.081.881-.12 1.268-.034 1.544.344 2.963.517 4.17-.764.236-.249 1.065-.176 1.624-.204.536-.026 1.075.008 1.765.02-.235-1.035-1.14-1.067-1.926-1.158-1.048-.12-2.124-.121-3.163-.264-.548-.077-1.044-.342-1.518-.753 1.903-.737 3.796-1.042 5.774-.888 4.225.326 8.44.713 12.673.987 4.233.273 8.481.443 12.724.653 3.604.182 7.223.29 10.816.547 10.79.761 21.598 1.377 32.473 1.376 5.111 0 10.224-.07 15.339-.122.762-.009 1.526-.099 2.348-.416-.336-.085-.671-.241-1.013-.24-2.27.001-4.545.068-6.816.055-5.391-.025-10.782-.062-16.172-.135-1.983-.027-3.993-.039-5.933-.29-2.355-.305-4.73-.249-7.098-.364-7.349-.359-14.682-.864-22.025-1.278-2.967-.167-5.95-.205-8.915-.379-2.397-.142-4.782-.379-7.163-.613-.728-.07-1.185-.45-.879-1.078.298-.612.86-.378 1.426-.238 2.491.605 5.003.865 7.67.365 2.483-.464 4.946-.098 7.388.234.744.098 1.518.088 2.276.141.7.048 1.439.014 2.081.187 2.083.563 4.198.736 6.425.552.888-.074 1.8.144 2.7.234.762.075 1.569.338 2.275.203 3.58-.682 7.082-.145 10.61-.045 3.185.09 6.363.279 9.547.4.607.024 1.227-.075 1.887-.416-.421-.082-.834-.213-1.26-.234-6.926-.367-13.86-.702-20.784-1.087-1.063-.062-2.275.054-3.213-.768.295-.198.48-.402.705-.451.408-.085.86-.144 1.263-.097 3.107.378 6.18.68 9.394.546 3.823-.16 7.651.16 11.473.27.357.01.749-.056 1.057.036 2.336.71 4.713.381 7.117.069.973-.126 1.983.011 2.976-.016.885-.025 1.767-.115 2.661-.316-1.223-.54-2.408-1.101-3.894-.537-.186.07-.44.104-.632.067-3.048-.64-6.18.134-9.29-.107-5.836-.453-11.74-.501-17.603-.803-5.585-.286-11.154-.682-16.733-1.032-.14-.007-.284-.021-.419-.05-.73-.16-1.804-.224-1.565-1.036.26-.873 1.248-.445 1.985-.394 2.109.146 4.223.263 6.333.393 5.997.377 11.99.789 17.993 1.113 3.67.199 7.357.265 11.037.387.354.01.709.012 1.063-.005 3.384-.167 6.769-.346 10.154-.5.78-.037 1.562.03 2.342.015 2.19-.047 4.382-.05 6.568-.198.805-.054 1.588-.464 2.043-.605 2.914.257 5.544.577 8.2.698 2.043.094 4.12-.064 6.18-.097 5.608-.092 11.218-.2 16.826-.25 3.886-.031 7.764.08 11.646.013.94-.015 1.925-.415 2.83-.753 1.233-.46 2.448-.568 3.75-.422.974.11 1.98.086 2.97.137.492.025 1.14-.06 1.442.152 1.822 1.273 4.072.498 6.106.673.623.055 1.383-.25 1.984-.532 2.599-1.225 5.123-1.195 7.673-.159.632.256 1.363.361 2.047.533.085-.102.17-.204.257-.305l-.702-.86c.085-.087.164-.243.254-.25 2.887-.213 5.755-.53 8.463.647.826.358 2.062.148 3.113.182.827.025 1.678-.06 2.48.052 1.115.154 2.083.135 2.948-.606.684-.585 1.453-.9 2.481-.476.367.148.97.061 1.428-.042 1.8-.4 3.303-.135 5.009.487 1.54.56 3.568.389 5.385.403 2.756.02 5.522-.09 8.28-.109.282-.002.554.225 1.109.47-.624.241-.96.465-1.309.492-2.254.17-4.532-.163-6.78.452-.342.096-.83-.053-1.2-.178-1.426-.486-2.754-.332-4.02.442-.226.14-.466.279-.725.374-1.506.545-2.371.33-3.323-.816-2.171.148-4.355.287-6.534.458-.393.032-.925.12-1.138.338-.705.715-1.658.625-2.552.706-1.236.112-2.529-.134-3.647.629-.189.129-.915.064-.96-.038-.485-1.198-1.567-.538-2.473-.5-1.132.05-2.265.035-3.4.058-1.925.04-2.082.167-2.226 1.739-.114 1.26-.577 1.61-2.366 1.67-4.973.17-9.947.315-14.92.48-.774.025-1.55.102-2.332.288 3.786.388 7.626.093 11.439.006 3.906-.087 7.818-.316 11.725-.427 3.904-.112 7.809-.155 11.964-.23-1.505.979-3.731-.098-4.78 1.684.572.094 1.013.232 1.46.226 2.984-.049 5.969-.114 8.952-.207 1.238-.038 2.362-.05 3.236.843.3.312 1.132.402 1.726.394 5.683-.09 11.36-.253 17.04-.326 2.767-.036 5.523.11 8.292.102 2.342-.008 4.69-.097 7.033-.185.805-.031 1.71.083 2.134-.824.09-.2.891-.272 1.36-.286 1.352-.037 2.702 0 4.052-.02 1.684-.026 2.81-.535 2.973-1.305.15-.723-1.054-1.664-2.492-1.941-.39-.077-.791-.142-1.186-.212l.074-.35 5.898.55c-.483-2.06-2.38-2.45-4.441-2.782.694-.91 1.459-1.352 2.6-1.48" transform="translate(-246 -889) translate(246 889) matrix(1 0 0 -1 0 679.297)"/>
                </g>
                <text fill="#FFF" font-family="RalewayRoman-SemiBold, Raleway" font-size="30" font-weight="500" transform="translate(-246 -889) translate(246 889)">
                    <tspan x="52.885" y="64.534">Blends Branding</tspan> <tspan x="52.885" y="122.534">Concept</tspan>
                </text>
                <text fill="#FFF" font-family="RalewayRoman-Medium, Raleway" font-size="18" font-weight="400" transform="translate(-246 -889) translate(246 889)">
                    <tspan x="52.885" y="201.216">Branding</tspan>  <tspan x="52.885" y="243.216">Packaging</tspan>  <tspan x="52.885" y="285.216">Visual Design</tspan>
                </text>
            </g>
        </g>
    </g>
</svg>
