<svg xmlns="http://www.w3.org/2000/svg" width="460" height="355" viewBox="0 0 460 355">
    <g fill="none" fill-rule="evenodd">
        <g>
            <g>
                <g fill="#CBADD6">
                    <path d="M0 0H459.002V345.247H0z" transform="translate(-247 -1277) translate(247 1277)"/>
                    <path d="M166.735 348.347c-.211.055-.458-.032-.693-.058l.008-.36c.397-.071.794-.145 1.19-.22.043.085.082.17.125.253-.208.134-.401.326-.63.385m5.022-8.21c-2.48.143-4.96.241-7.442.349-5.465.235-10.936.541-16.4.675-4.572.11-9.144.098-13.71-.011-7.36-.174-14.706-.442-22.093-.214-6.674.209-13.348.225-20.017.24-5.718.01-11.434-.016-17.138-.187-4.945-.148-9.87-.52-14.804-.807-.527-.032-1.042-.163-1.563-.25l.059-.364c.842.028 1.682.07 2.525.087.824.014 1.654-.029 2.477.006 5.954.235 11.901.6 17.863.693 5.01.078 10.038-.167 15.056-.247 4.13-.066 8.258-.091 12.387-.147 3.238-.045 6.478-.113 9.715-.17 1.076-.017 2.16-.08 3.232-.04 8.48.299 16.958.63 25.478.202 6.675-.333 13.348-.608 20.02-.864.925-.034 1.85.245 2.783.306.667.047 1.344-.015 2.018-.042.398-.017.795-.06 1.347-.104-.387.99-1.173.854-1.793.89m-119.484-.893c1.494-.394 2.518-.21 3.962.273-1.548.39-2.588.353-3.962-.273m-2.482.198c-4.593-.286-9.216-.317-13.77-1.016 1.515-.568 3.013-.133 4.51-.113 1.576.022 3.146.145 4.72.233 1.541.087 3.08.182 4.623.273l-.083.623m-4.215 7.267c-1.586-.095-3.173-.188-4.762-.285l.006-.471c1.682-.449 3.236-.003 4.803.362-.016.13-.03.26-.047.394m-7.802-2.87c-1.176-.085-2.4-.04-3.444-1.18.515-.074 1.037-.23 1.542-.21 2.33.094 4.658.224 6.982.37.668.042 1.658.014 1.534.845-.137.924-1.096.514-1.726.48-1.632-.082-3.261-.188-4.888-.306m-.074 2.301c-.079.004-.162-.127-.242-.197.107-.1.217-.195.379-.343.138.171.228.28.32.39-.151.056-.303.14-.457.15m12.784.397c1.04-.456 1.945-.097 2.87.157-.02.142-.04.283-.058.426-.945-.055-1.89-.108-2.833-.167l.021-.416m-17.852-.778c-.995-.09-1.988-.18-2.98-.272.025-.151.054-.305.082-.458l2.965.312c-.023.14-.046.28-.067.418m-.836-2.611c-1.072.423-1.779.37-2.286-.457 1.28-.708 1.28-.708 2.286.457m-8.318 4.634c-.215.013-.436-.089-.654-.137l.07-.343c.381.003.761.002 1.143.004.02.083.044.164.065.247-.209.081-.415.213-.624.229m202.189-4.593c1.243-.159 2.49-.536 2.775-1.828.294-1.297-.498-2.206-1.707-2.765-1.103-.515-2.255-.947-3.595-1.504.526-.249.923-.44 1.45-.694-.215-.2-.345-.433-.533-.473-2.318-.515-4.615-1.193-6.979-1.448-4.074-.438-8.188-.768-12.306-.854-6.97-.146-13.956-.063-20.936-.084-4.314-.013-8.627-.07-12.945-.048-1.132.005-2.268.265-3.408.363-.802.067-1.609.08-2.411.08-1.897 0-3.793-.05-5.691-.024-1.585.025-3.169.138-4.75.206-.317.013-.647-.073-.948-.006-2.733.59-5.45.256-8.175.23-2.407-.023-4.832.204-7.237.163-4.572-.078-9.128-.369-13.702-.393-5.46-.028-10.936.218-16.395.195-9.844-.044-19.715.594-29.537.044-6.829-.381-13.668-.657-20.496-1.041-7.586-.422-15.171-.876-22.747-1.394-1.488-.105-2.922-.614-4.4-.85-.782-.125-1.624-.185-2.413-.073-2.043.291-3.99.426-5.996-.224-1.187-.383-2.625-.201-3.952-.248-1.592-.058-3.122-.182-4.526-.987-.63-.362-1.568-.314-2.372-.41-.481-.057-.973-.034-1.424-.046-.051-.233-.125-.354-.094-.449.53-1.614.144-2.33-1.627-2.36-1.428-.022-2.433-.308-2.972-1.57-.296-.69-.928-1.098-1.827-.815-.907.284-1.04.958-.97 1.705.004.038.01.077.017.115.62.127.984.927.279 1.315-.188.105-.36.21-.541.313-.129.214-.275.415-.447.59.278.086.551.18.843.233.684.127.872.964.267 1.342-1.29.803-2.272 1.768-3.239 2.808 2.883 1.012 2.586 2.898.553 4.874.772.168 1.532.358 2.34.432.42.04.742.498.619.868-.408 1.241-.48 2.502-.936 3.69 1.317-.007 2.611-.015 3.934-.362.586-.155 1.2.252 1.047.836-.275 1.059-2.671 7.308-3.716 7.303.727.004 1.09.679.64 1.222-.194.232-.373.474-.554.71.225-.12.447-.25.664-.394.58-.307 1.178-.031 1.266.55.144.94.395 1.862.586 2.793.734.06 1.458.143 2.187.175.064-.594.369-1.234.919-1.844.655-.722 1.463-.746 2.253-.44 1.263.488 2.539.598 3.9.288.365-.083.788-.122 1.134-.035 1.381.35 2.65.525 3.73-.776.211-.254.953-.18 1.452-.208.48-.027.962.008 1.579.02-.21-1.051-1.02-1.084-1.722-1.176-.938-.122-1.9-.124-2.83-.269-.49-.078-.934-.348-1.357-.765 1.701-.75 3.395-1.06 5.164-.903 3.78.331 7.55.724 11.336 1.003 3.787.278 7.587.45 11.383.664 3.224.185 6.46.296 9.675.556 9.651.774 19.32 1.4 29.048 1.399 4.572 0 9.145-.071 13.72-.125.683-.008 1.367-.1 2.101-.422-.3-.087-.6-.246-.905-.244-2.03.001-4.066.07-6.098.056-4.822-.025-9.645-.063-14.466-.137-1.774-.028-3.572-.04-5.307-.295-2.107-.31-4.231-.253-6.35-.37-6.573-.365-13.133-.879-19.702-1.299-2.653-.17-5.322-.208-7.974-.386-2.144-.144-4.278-.385-6.408-.623-.651-.07-1.06-.457-.786-1.095.267-.623.77-.385 1.275-.242 2.23.615 4.476.88 6.862.37 2.22-.471 4.423-.099 6.609.239.665.1 1.357.089 2.035.143.626.049 1.287.014 1.862.19 1.863.572 3.755.748 5.747.56.794-.074 1.61.147 2.415.239.682.076 1.404.343 2.035.206 3.202-.693 6.336-.147 9.492-.046 2.849.091 5.691.284 8.54.407.542.024 1.097-.076 1.688-.423-.377-.083-.746-.216-1.128-.238-6.196-.373-12.398-.714-18.591-1.105-.952-.062-2.036.055-2.874-.78.263-.201.428-.409.63-.459.364-.086.769-.146 1.13-.098 2.779.384 5.527.691 8.403.554 3.42-.161 6.844.163 10.263.276.319.01.67-.058.946.036 2.089.721 4.216.387 6.366.07.87-.128 1.774.012 2.662-.017.791-.025 1.58-.116 2.38-.32-1.093-.55-2.154-1.12-3.483-.547-.167.071-.394.107-.566.068-2.726-.65-5.528.137-8.31-.108-5.22-.46-10.501-.51-15.746-.816-4.996-.291-9.978-.694-14.968-1.05-.126-.007-.254-.02-.375-.05-.654-.162-1.614-.228-1.4-1.053.233-.888 1.117-.453 1.776-.4 1.886.148 3.777.267 5.665.399 5.365.383 10.725.802 16.095 1.131 3.282.202 6.581.27 9.873.393.316.011.634.013.951-.005 3.027-.17 6.055-.352 9.082-.508.698-.037 1.398.03 2.096.015 1.96-.047 3.92-.05 5.875-.2.72-.056 1.42-.473 1.828-.616 2.606.262 4.96.586 7.335.71 1.827.095 3.685-.065 5.528-.099 5.016-.093 10.035-.204 15.052-.254 3.475-.032 6.945.081 10.417.014.841-.016 1.722-.422 2.532-.766 1.103-.468 2.19-.578 3.355-.43.87.112 1.77.088 2.657.14.44.026 1.019-.062 1.289.155 1.63 1.293 3.642.506 5.462.684.557.056 1.237-.254 1.774-.54 2.325-1.246 4.584-1.216 6.865-.162.565.26 1.219.367 1.83.54l.23-.31c-.209-.291-.418-.58-.627-.873.075-.089.146-.247.227-.254 2.582-.216 5.148-.54 7.57.658.739.364 1.844.15 2.785.185.74.025 1.5-.061 2.219.052.997.156 1.862.137 2.636-.616.612-.594 1.3-.915 2.22-.484.328.15.867.063 1.277-.042 1.61-.407 2.955-.137 4.48.495 1.378.569 3.192.395 4.817.41 2.466.02 4.94-.092 7.408-.111.252-.003.495.228.991.477-.558.245-.858.473-1.17.5-2.017.173-4.055-.165-6.066.46-.305.098-.742-.054-1.072-.18-1.277-.495-2.464-.338-3.597.448-.202.143-.417.284-.648.38-1.348.554-2.121.336-2.973-.83-1.942.151-3.896.293-5.845.467-.351.032-.827.122-1.018.343-.63.726-1.483.635-2.283.718-1.106.114-2.262-.137-3.262.639-.169.13-.819.065-.858-.039-.434-1.217-1.403-.547-2.212-.507-1.014.051-2.027.035-3.043.058-1.721.04-1.862.17-1.99 1.768-.102 1.28-.516 1.637-2.117 1.698-4.448.173-8.898.32-13.346.487-.693.026-1.386.104-2.087.293 3.388.395 6.822.095 10.233.007 3.494-.089 6.994-.322 10.488-.434 3.493-.115 6.986-.158 10.703-.235-1.347.995-3.338-.1-4.275 1.713.51.095.905.235 1.305.229 2.67-.05 5.339-.116 8.007-.21 1.108-.04 2.114-.051 2.895.856.268.317 1.013.409 1.545.4 5.082-.09 10.162-.257 15.242-.33 2.475-.037 4.94.111 7.417.104 2.096-.009 4.195-.099 6.292-.19.72-.03 1.53.085 1.909-.836.081-.203.797-.277 1.216-.291 1.21-.038 2.418 0 3.625-.02 1.506-.027 2.514-.545 2.66-1.327.133-.735-.944-1.691-2.23-1.973-.349-.078-.707-.144-1.061-.216l.066-.355 5.277.56c-.433-2.095-2.13-2.492-3.974-2.83.622-.925 1.306-1.374 2.326-1.504" transform="translate(-247 -1277) translate(247 1277) matrix(-1 0 0 1 228.503 0)"/>
                    <path d="M390.95 348.347c-.237.055-.513-.032-.775-.058l.009-.36c.443-.071.886-.145 1.33-.22.048.085.092.17.14.253-.234.134-.45.326-.705.385m5.614-8.21c-2.773.143-5.544.241-8.319.349-6.11.235-12.225.541-18.333.675-5.112.11-10.224.098-15.327-.011-8.228-.174-16.44-.442-24.698-.214-7.461.209-14.922.225-22.377.24-6.393.01-12.782-.016-19.16-.187-5.527-.148-11.034-.52-16.549-.807-.588-.032-1.165-.163-1.747-.25.022-.12.046-.244.066-.364.942.028 1.88.07 2.823.087.921.014 1.849-.029 2.769.006 6.656.235 13.305.6 19.97.693 5.6.078 11.22-.167 16.83-.247 4.617-.066 9.232-.091 13.847-.147 3.62-.045 7.243-.113 10.862-.17 1.202-.017 2.413-.08 3.612-.04 9.48.299 18.958.63 28.482.202 7.462-.333 14.922-.608 22.38-.864 1.035-.034 2.069.245 3.111.306.747.047 1.503-.015 2.257-.042.445-.017.888-.06 1.505-.104-.432.99-1.31.854-2.004.89m-133.571-.893c1.67-.394 2.815-.21 4.428.273-1.73.39-2.893.353-4.428-.273m-2.775.198c-5.135-.286-10.303-.317-15.393-1.016 1.693-.568 3.368-.133 5.041-.113 1.762.022 3.517.145 5.276.233 1.723.087 3.444.182 5.169.273l-.093.623m-4.712 7.267c-1.773-.095-3.547-.188-5.323-.285l.006-.471c1.88-.449 3.617-.003 5.37.362-.019.13-.034.26-.053.394m-8.722-2.87c-1.315-.085-2.684-.04-3.85-1.18.576-.074 1.159-.23 1.724-.21 2.605.094 5.207.224 7.805.37.747.042 1.853.014 1.715.845-.154.924-1.225.514-1.93.48-1.825-.082-3.645-.188-5.464-.306m-.083 2.301c-.088.004-.18-.127-.27-.197.12-.1.242-.195.423-.343.155.171.256.28.359.39-.17.056-.34.14-.512.15m14.292.397c1.162-.456 2.174-.097 3.207.157-.021.142-.044.283-.064.426-1.056-.055-2.113-.108-3.167-.167l.024-.416m-19.957-.778c-1.112-.09-2.223-.18-3.333-.272l.093-.458 3.314.312-.074.418m-.935-2.611c-1.198.423-1.988.37-2.555-.457 1.431-.708 1.431-.708 2.555.457m-9.299 4.634c-.24.013-.487-.089-.731-.137l.079-.343c.426.003.85.002 1.277.004.022.083.05.164.073.247-.234.081-.463.213-.698.229m229.13-6.42c.33-1.298-.557-2.207-1.907-2.766-1.234-.515-2.522-.947-4.02-1.504.588-.249 1.032-.44 1.622-.694-.24-.2-.386-.433-.597-.473-2.59-.515-5.158-1.193-7.8-1.448-4.555-.438-9.154-.768-13.759-.854-7.79-.146-15.6-.063-23.404-.084-4.823-.013-9.644-.07-14.47-.048-1.267.005-2.537.265-3.811.363-.896.067-1.798.08-2.695.08-2.12 0-4.24-.05-6.362-.024-1.771.025-3.542.138-5.31.206-.355.013-.724-.073-1.06-.006-3.055.59-6.092.256-9.139.23-2.69-.023-5.401.204-8.09.163-5.111-.078-10.204-.369-15.317-.393-6.104-.028-12.226.218-18.329.195-11.004-.044-22.039.594-33.02.044-7.633-.381-15.278-.657-22.911-1.041-8.481-.422-16.96-.876-25.43-1.394-1.663-.105-3.266-.614-4.918-.85-.874-.125-1.816-.185-2.698-.073-2.283.291-4.461.426-6.703-.224-1.327-.383-2.934-.201-4.418-.248-1.78-.058-3.49-.182-5.06-.987-.704-.362-1.752-.314-2.652-.41-.537-.057-1.087-.034-1.59-.046-.058-.233-.14-.354-.106-.449.592-1.614.161-2.33-1.82-2.36-1.595-.022-2.718-.308-3.321-1.57-.331-.69-1.037-1.098-2.043-.815-1.013.284-1.163.958-1.085 1.705.005.038.013.077.02.115.693.127 1.1.927.312 1.315-.21.105-.402.21-.605.313-.144.214-.307.415-.5.59.311.086.617.18.943.233.764.127.975.964.298 1.342-1.442.803-2.54 1.768-3.62 2.808 3.222 1.012 2.89 2.898.617 4.874.863.168 1.714.358 2.616.432.47.04.83.498.692.868-.456 1.241-.536 2.502-1.046 3.69 1.472-.007 2.919-.015 4.398-.362.655-.155 1.341.252 1.17.836-.307 1.059-6.281 3.097-7.45 3.092.814.003 4.515 4.89 4.01 5.433-.215.232-.415.474-.617.71.25-.12.499-.25.741-.394.65-.307 1.318-.031 1.416.55.161.94.442 1.862.655 2.793.82.06 1.63.143 2.445.175.071-.594.412-1.234 1.027-1.844.733-.722 1.636-.746 2.519-.44 1.412.488 2.838.598 4.359.288.409-.083.881-.122 1.268-.035 1.544.35 2.963.525 4.17-.776.236-.254 1.065-.18 1.624-.208.536-.027 1.075.008 1.765.02-.235-1.051-1.14-1.084-1.926-1.176-1.048-.122-2.124-.124-3.163-.269-.548-.078-1.044-.348-1.518-.765 1.903-.75 3.796-1.06 5.774-.903 4.225.331 8.44.724 12.673 1.003 4.233.278 8.481.45 12.724.664 3.604.185 7.223.296 10.816.556 10.79.774 21.598 1.4 32.473 1.399 5.111 0 10.224-.071 15.339-.125.762-.008 1.526-.1 2.348-.422-.336-.087-.671-.246-1.013-.244-2.27.001-4.545.07-6.816.056-5.391-.025-10.782-.063-16.172-.137-1.983-.028-3.993-.04-5.933-.295-2.355-.31-4.73-.253-7.098-.37-7.349-.365-14.682-.879-22.025-1.299-2.967-.17-5.95-.208-8.915-.386-2.397-.144-4.782-.385-7.163-.623-.728-.07-1.185-.457-.879-1.095.298-.623.86-.385 1.426-.242 2.491.615 5.003.88 7.67.37 2.483-.471 4.946-.099 7.388.239.744.1 1.518.089 2.276.143.7.049 1.439.014 2.081.19 2.083.572 4.198.748 6.425.56.888-.074 1.8.147 2.7.239.762.076 1.569.343 2.275.206 3.58-.693 7.082-.147 10.61-.046 3.185.091 6.363.284 9.547.407.607.024 1.227-.076 1.887-.423-.421-.083-.834-.216-1.26-.238-6.926-.373-13.86-.714-20.784-1.105-1.063-.062-2.275.055-3.213-.78.295-.201.48-.409.705-.459.408-.086.86-.146 1.263-.098 3.107.384 6.18.691 9.394.554 3.823-.161 7.651.163 11.473.276.357.01.749-.058 1.057.036 2.336.721 4.713.387 7.117.07.973-.128 1.983.012 2.976-.017.885-.025 1.767-.116 2.661-.32-1.223-.55-2.408-1.12-3.894-.547-.186.071-.44.107-.632.068-3.048-.65-6.18.137-9.29-.108-5.836-.46-11.74-.51-17.603-.816-5.585-.291-11.154-.694-16.733-1.05-.14-.007-.284-.02-.419-.05-.73-.162-1.804-.228-1.565-1.053.26-.888 1.248-.453 1.985-.4 2.109.148 4.223.267 6.333.399 5.997.383 11.99.802 17.993 1.131 3.67.202 7.357.27 11.037.393.354.011.709.013 1.063-.005 3.384-.17 6.769-.352 10.154-.508.78-.037 1.562.03 2.342.015 2.19-.047 4.382-.05 6.568-.2.805-.056 1.588-.473 2.043-.616 2.914.262 5.544.586 8.2.71 2.043.095 4.12-.065 6.18-.099 5.608-.093 11.218-.204 16.826-.254 3.886-.032 7.764.081 11.646.014.94-.016 1.925-.422 2.83-.766 1.233-.468 2.448-.578 3.75-.43.974.112 1.98.088 2.97.14.492.026 1.14-.062 1.442.155 1.822 1.293 4.072.506 6.106.684.623.056 1.383-.254 1.984-.54 2.599-1.246 5.123-1.216 7.673-.162.632.26 1.363.367 2.047.54l.257-.31c-.234-.291-.468-.58-.702-.873.085-.089.164-.247.254-.254 2.887-.216 5.755-.54 8.463.658.826.364 2.062.15 3.113.185.827.025 1.678-.061 2.48.052 1.115.156 2.083.137 2.948-.616.684-.594 1.453-.915 2.481-.484.367.15.97.063 1.428-.042 1.8-.407 3.303-.137 5.009.495 1.54.569 3.568.395 5.385.41 2.756.02 5.522-.092 8.28-.111.282-.003.554.228 1.109.477-.624.245-.96.473-1.309.5-2.254.173-4.532-.165-6.78.46-.342.098-.83-.054-1.2-.18-1.426-.495-2.754-.338-4.02.448-.226.143-.466.284-.725.38-1.506.554-2.371.336-3.323-.83-2.171.151-4.355.293-6.534.467-.393.032-.925.122-1.138.343-.705.726-1.658.635-2.552.718-1.236.114-2.529-.137-3.647.639-.189.13-.915.065-.96-.039-.485-1.217-1.567-.547-2.473-.507-1.132.051-2.265.035-3.4.058-1.925.04-2.082.17-2.226 1.768-.114 1.28-.577 1.637-2.366 1.698-4.973.173-9.947.32-14.92.487-.774.026-1.55.104-2.332.293 3.786.395 7.626.095 11.439.007 3.906-.089 7.818-.322 11.725-.434 3.904-.115 7.809-.158 11.964-.235-1.505.995-3.731-.1-4.78 1.713.572.095 1.013.235 1.46.229 2.984-.05 5.969-.116 8.952-.21 1.238-.04 2.362-.051 3.236.856.3.317 1.132.409 1.726.4 5.683-.09 11.36-.257 17.04-.33 2.767-.037 5.523.111 8.292.104 2.342-.009 4.69-.099 7.033-.19.805-.03 1.71.085 2.134-.836.09-.203.891-.277 1.36-.291 1.352-.038 2.702 0 4.052-.02 1.684-.027 2.81-.545 2.973-1.327.15-.735-1.054-1.691-2.492-1.973-.39-.078-.791-.144-1.186-.216l.074-.355 5.898.56c-.483-2.095-2.38-2.492-4.441-2.83.694-.925 1.459-1.374 2.6-1.504 1.39-.159 2.783-.536 3.101-1.828z" transform="translate(-247 -1277) translate(247 1277) matrix(-1 0 0 1 664.555 0)"/>
                </g>
                <text fill="#FFF" font-family="RalewayRoman-SemiBold, Raleway" font-size="30" font-weight="500" transform="translate(-247 -1277) translate(247 1277)">
                    <tspan x="52.885" y="74.859">Oh Wonder Illustrations</tspan>
                </text>
                <text fill="#FFF" font-family="RalewayRoman-Medium, Raleway" font-size="18" font-weight="400" transform="translate(-247 -1277) translate(247 1277)">
                      <tspan x="52.885" y="147.75">Visual Design</tspan>  <tspan x="52.885" y="189.75">Art</tspan>
                </text>
            </g>
        </g>
    </g>
</svg>
