<svg xmlns="http://www.w3.org/2000/svg" xmlns:xlink="http://www.w3.org/1999/xlink" width="539" height="595" viewBox="0 0 539 595">
    <defs>
        <path id="kcqgue64ra" d="M0.892 0.281L265.892 0.281 265.892 37.196 0.892 37.196z"/>
        <path id="6q1gj6p5yb" d="M0.892 0.281L296.892 0.281 296.892 37.196 0.892 37.196z"/>
        <path id="b02kwef21e" d="M3.354 19.516c0 4.438 1.832 8.516 4.882 11.793L0 39l11.95-4.492C16.07 37.312 21.358 39 27.13 39c13.132 0 23.778-8.724 23.778-19.484C50.909 8.756 40.263.03 27.13.03 14 .031 3.354 8.755 3.354 19.516"/>
        <path id="8b3kn88x2g" d="M218.37 158.476c-3.796.06-6.828 3.346-6.772 7.344.057 3.998 3.18 7.19 6.976 7.132 3.796-.06 6.828-3.348 6.772-7.344-.055-3.961-3.122-7.133-6.873-7.132h-.103"/>
        <path id="1higphimmi" d="M57.19 158.477c-3.797.055-6.829 3.17-6.773 6.958.055 3.786 3.179 6.81 6.976 6.755 3.796-.057 6.829-3.17 6.773-6.958-.056-3.753-3.123-6.756-6.873-6.756l-.103.001"/>
        <path id="m7x8hrl39k" d="M37.088 124.9c-7.604.07-14.16 5.171-19.316 11.332-1.214 2.34-2.332 4.964-3.258 7.91.036 2.307 4.015 6.938 9.701 5.012 0 0 30.603-15.501 54.148 9.32l2.022 8.534 19.684 1.373c-.078-9.082-1.354-26.179-9.29-35.071-6.765-7.581-18.004-9.12-30.116-9.12-7.816 0-15.995.64-23.575.71"/>
        <path id="fmrdfzbchm" d="M86.347 119.39l-50.484.744s-8 4.553-13.71 16.365c4.92-6.314 11.174-11.543 18.428-11.614 18.438-.182 40.603-4.165 51.224 8.62 7.571 9.114 8.788 26.637 8.863 35.945l6.059.455 29.245-4.75-8.496-9.056-8.959-18.775s-1.328-13.07 4.07-18.467l-36.24.533z"/>
        <path id="4u2aljm0ao" d="M193.357 135.11s-9.914 19.807-2.976 29.461c0 0 8.285-19.642 44.133-23.39 0 0-7.17-9.37-23.344-9.371-5.044 0-10.961.91-17.813 3.3"/>
        <path id="54kblgmrrq" d="M177.769 84.525l-3.707 8.218 1.794 9.589c4.615 5.914 9.001 12.454 12.17 22.316 0 0-18.536 28.754-27.04 33.05 0 0-18.206 1.718-31.015-1.54l-2.384-.873s2.514 3.592 2.344 4.41c-.169.819-10.32 4.869-29.322 2.063 0 0-1.276 3.03.096 6.849l77.826 4.345s12.137-36.098 33.066-44.704c-6.376-11.332-14.808-21.56-26.511-32.81l-3.066-13.152-4.251 2.24z"/>
        <path id="rjj4m066at" d="M137.839.252c-16.173 2.055-8.404 22.365-8.404 22.365l16.407 1.764s5.373-11.058 5.332-11.315c0 0 6.442-1.332 6.18-2.497-.241-1.07-2.846-10.57-15.726-10.569-1.175 0-2.438.08-3.79.252"/>
        <path id="8sdujxzvwu" d="M111.134 57.03c-5.967 17.255-11.63 29.572-12.592 37.984 5.67 1.338 17.994 3.77 25.528 1.719 1.625-.443 3.077-.815 4.374-1.131.623-2.212 13.31-47.556 7.568-54.827l-4.613-6.602s-.976-.65-2.627-.65c-3.65 0-10.603 3.167-17.638 23.507"/>
        <path id="l1xh3ti74w" d="M101.294 103.393c14.122 5.563 53.664 11.007 53.664 11.007l-7.839 36.29 10.117.929s15.82-35.087 15.394-43.208c-.427-8.12-46.93-18.397-46.93-18.397l.025-.085c-1.335.288-2.829.63-4.501 1.036-7.753 1.881-20.483-.513-26.34-1.822-.657 5.658.536 11.935 6.41 14.25"/>
        <path id="rduub8vrdy" d="M123.281 46.592c-.74 9.049-.085 18.21 1.933 27.061.332 1.454.712 2.927 1.513 4.184.818 1.285 2.03 2.268 3.27 3.154 9.148 6.526 20.22 9.145 31.273 11.2.354-2.053 1.083-4.509 1.438-6.562-9.01-4.198-18.213-8.538-27.622-11.745l-2.217-24.841c-1.555-3.362-3.28-4.853-5.14-4.853-1.41 0-2.898.857-4.448 2.402"/>
        <linearGradient id="yrdx8s90uc" x1="0%" x2="100%" y1="50%" y2="50%">
            <stop offset="0%" stop-color="#AEC8E8"/>
            <stop offset="100%" stop-color="#F2F2F2"/>
        </linearGradient>
        <linearGradient id="gvs0xkxswd" x1="64.941%" x2="-1.142%" y1="57.949%" y2="42.574%">
            <stop offset="0%" stop-color="#AEC8E8"/>
            <stop offset="100%" stop-color="#F2F2F2"/>
        </linearGradient>
        <linearGradient id="pxb5sp8kfh" x1=".004%" x2="99.999%" y1="49.998%" y2="49.998%">
            <stop offset="0%" stop-color="#60A1E2"/>
            <stop offset="100%" stop-color="#5D5ECF"/>
        </linearGradient>
        <linearGradient id="je5k9tunfj" x1="-.002%" x2="100.001%" y1="49.998%" y2="49.998%">
            <stop offset="0%" stop-color="#60A1E2"/>
            <stop offset="100%" stop-color="#5D5ECF"/>
        </linearGradient>
        <linearGradient id="rst8a2bwpl" x1="0%" x2="100%" y1="50%" y2="50%">
            <stop offset="0%" stop-color="#FFC472"/>
            <stop offset="100%" stop-color="#E6E869"/>
        </linearGradient>
        <linearGradient id="mhocyw0swn" x1=".001%" x2="100%" y1="49.999%" y2="49.999%">
            <stop offset="0%" stop-color="#FFC472"/>
            <stop offset="100%" stop-color="#E6E869"/>
        </linearGradient>
        <linearGradient id="36z5sqtsmp" x1="0%" x2="100.001%" y1="50.001%" y2="50.001%">
            <stop offset="0%" stop-color="#FFC472"/>
            <stop offset="100%" stop-color="#E6E869"/>
        </linearGradient>
        <linearGradient id="3xs8hirsgr" x1="0%" x2="100%" y1="50%" y2="50%">
            <stop offset="0%" stop-color="#FFC472"/>
            <stop offset="100%" stop-color="#E6E869"/>
        </linearGradient>
        <linearGradient id="kdex6n72ns" x1="0%" x2="100%" y1="49.999%" y2="49.999%">
            <stop offset="0%" stop-color="#FFC472"/>
            <stop offset="100%" stop-color="#E6E869"/>
        </linearGradient>
        <linearGradient id="qhq0c1nx6v" x1="42.258%" x2="67.036%" y1="45.139%" y2="62.429%">
            <stop offset="0%" stop-color="#91D1FF"/>
            <stop offset="100%" stop-color="#28A0FF"/>
        </linearGradient>
        <linearGradient id="4bqavn27ax" x1="59.909%" x2="45.729%" y1="11.415%" y2="39.531%">
            <stop offset="0%" stop-color="#60A1E2"/>
            <stop offset="100%" stop-color="#5D5ECF"/>
        </linearGradient>
        <linearGradient id="45b070xy4z" x1="66.748%" x2="41.535%" y1="8.436%" y2="71.083%">
            <stop offset="0%" stop-color="#91D1FF"/>
            <stop offset="100%" stop-color="#28A0FF"/>
        </linearGradient>
    </defs>
    <g fill="none" fill-rule="evenodd">
        <g>
            <g>
                <g>
                    <g>
                        <path fill="#D5EFF3" d="M0.108 0.259H535.108V580.259H0.108z" transform="translate(-148 -1003) translate(148.892 1003.74)"/>
                        <g transform="translate(-148 -1003) translate(148.892 1003.74) matrix(-1 0 0 1 266.108 555.26)">
                            <path fill="#D5EFF3" d="M194.258 29.326c-.245.065-.532-.037-.804-.068l.01-.426c.46-.084.92-.172 1.38-.26.05.1.095.2.144.3-.242.158-.465.385-.73.454m5.823-9.71c-2.876.168-5.751.285-8.63.412-6.337.278-12.682.64-19.019.799-5.303.13-10.605.115-15.9-.014-8.536-.206-17.055-.522-25.622-.253-7.74.247-15.48.267-23.214.284-6.631.012-13.26-.019-19.876-.221-5.735-.175-11.447-.615-17.168-.954-.61-.038-1.209-.193-1.813-.295.023-.144.048-.29.068-.432.978.034 1.951.082 2.93.103.955.017 1.917-.033 2.872.007 6.905.278 13.802.71 20.717.82 5.809.092 11.64-.198 17.46-.292 4.79-.078 9.576-.108 14.365-.174 3.755-.053 7.513-.134 11.267-.2 1.248-.021 2.504-.095 3.748-.048 9.835.353 19.667.745 29.548.239 7.74-.395 15.48-.72 23.216-1.022 1.074-.04 2.146.29 3.228.362.774.055 1.56-.018 2.341-.05.462-.02.922-.071 1.562-.123-.449 1.17-1.36 1.01-2.08 1.052M61.514 18.561c1.732-.467 2.92-.25 4.594.323-1.794.46-3.001.417-4.594-.323m-2.879.233c-5.326-.337-10.688-.374-15.969-1.201 1.757-.672 3.494-.157 5.23-.134 1.828.026 3.648.172 5.474.276 1.787.103 3.572.215 5.362.323l-.097.736m-4.888 8.596c-1.84-.113-3.68-.222-5.522-.337l.006-.557c1.95-.53 3.753-.004 5.57.428-.018.154-.034.308-.054.466m-9.048-3.395c-1.364-.1-2.785-.047-3.994-1.396.597-.087 1.202-.27 1.788-.247 2.703.11 5.402.265 8.097.438.775.049 1.923.015 1.78.999-.16 1.093-1.272.608-2.003.568-1.893-.098-3.781-.223-5.668-.362m-.086 2.721c-.091.004-.188-.15-.281-.233.125-.117.252-.231.44-.406.16.202.265.332.371.462-.175.065-.351.165-.53.177m14.826.47c1.206-.54 2.256-.115 3.327.185-.022.168-.045.335-.066.505-1.096-.066-2.192-.13-3.285-.198l.024-.492m-20.704-.92c-1.153-.108-2.305-.214-3.457-.323.03-.178.064-.36.097-.541l3.438.368-.078.495m-.969-3.088c-1.243.5-2.063.437-2.651-.54 1.485-.838 1.485-.838 2.651.54m-9.647 5.48c-.249.016-.505-.104-.758-.161.027-.136.055-.27.081-.406.443.003.883.002 1.325.005.023.098.052.194.076.292-.242.096-.48.252-.724.27m234.483-5.432c1.442-.187 2.888-.634 3.218-2.161.341-1.535-.577-2.61-1.979-3.272-1.28-.608-2.616-1.119-4.169-1.778.61-.295 1.07-.52 1.682-.822-.25-.236-.4-.511-.62-.559-2.687-.608-5.35-1.41-8.092-1.712-4.725-.518-9.496-.908-14.272-1.01-8.083-.173-16.185-.075-24.28-.1-5.003-.016-10.005-.082-15.012-.057-1.314.007-2.631.313-3.953.43-.93.08-1.866.095-2.796.095-2.2 0-4.4-.06-6.6-.029-1.838.03-3.675.164-5.509.243-.367.017-.75-.085-1.099-.006-3.17.697-6.32.302-9.48.272-2.792-.027-5.604.24-8.394.192-5.302-.092-10.586-.435-15.89-.464-6.332-.033-12.683.257-19.014.23-11.416-.051-22.863.703-34.255.053-7.919-.452-15.85-.778-23.769-1.232-8.798-.5-17.594-1.036-26.38-1.649-1.726-.124-3.389-.727-5.103-1.006-.906-.147-1.884-.218-2.8-.086-2.367.345-4.627.504-6.952-.265-1.377-.453-3.044-.237-4.583-.293-1.847-.068-3.621-.215-5.25-1.167-.73-.428-1.818-.371-2.75-.486-.558-.067-1.129-.039-1.651-.053-.06-.276-.146-.419-.11-.531.615-1.91.168-2.756-1.887-2.792-1.655-.026-2.82-.365-3.446-1.857C7.063.538 6.33.054 5.288.389 4.237.724 4.082 1.522 4.162 2.406c.005.044.013.09.02.136.72.15 1.142 1.096.324 1.555-.217.124-.416.249-.628.37-.148.253-.318.49-.517.699.322.1.639.211.978.274.792.15 1.011 1.14.308 1.588-1.495.95-2.634 2.091-3.755 3.322 3.343 1.196 2.999 3.427.64 5.765.896.198 1.778.422 2.714.51.488.047.861.59.718 1.028-.473 1.467-.556 2.958-1.086 4.364 1.528-.008 3.03-.018 4.564-.429.679-.183 1.39.298 1.214.99-.32 1.252-3.098 8.644-4.31 8.638.843.004 1.265.802.741 1.444-.223.275-.431.561-.641.841.26-.142.518-.296.77-.466.673-.363 1.366-.037 1.468.649.167 1.113.458 2.203.68 3.304.851.07 1.69.17 2.536.208.074-.703.428-1.46 1.066-2.181.76-.854 1.697-.883 2.613-.522 1.465.578 2.944.708 4.522.341.424-.097.914-.144 1.316-.04 1.601.413 3.073.62 4.325-.919.245-.3 1.105-.212 1.685-.245.556-.032 1.115.01 1.83.023-.243-1.243-1.182-1.282-1.997-1.391-1.087-.144-2.204-.146-3.281-.318-.569-.092-1.083-.412-1.575-.905 1.974-.887 3.938-1.253 5.99-1.068 4.383.392 8.755.857 13.146 1.186 4.392.33 8.8.533 13.201.786 3.739.218 7.493.35 11.22.657 11.193.915 22.406 1.656 33.689 1.655 5.301 0 10.605-.084 15.911-.147.792-.01 1.584-.118 2.436-.5-.348-.102-.696-.29-1.05-.289-2.354.002-4.715.083-7.071.067-5.593-.03-11.186-.075-16.777-.163-2.058-.032-4.142-.046-6.155-.348-2.443-.367-4.907-.3-7.363-.438-7.624-.431-15.232-1.04-22.85-1.536-3.077-.201-6.172-.247-9.248-.456-2.486-.171-4.961-.456-7.43-.737-.756-.083-1.23-.541-.912-1.296.309-.736.892-.455 1.479-.286 2.584.727 5.19 1.04 7.957.438 2.576-.558 5.13-.117 7.664.282.772.118 1.574.105 2.361.17.726.057 1.492.016 2.159.224 2.161.676 4.355.884 6.665.663.921-.088 1.867.174 2.8.282.791.09 1.629.406 2.36.244 3.714-.82 7.349-.174 11.009-.054 3.304.108 6.6.335 9.904.48.629.03 1.273-.09 1.957-.5-.437-.098-.865-.255-1.308-.281-7.185-.44-14.378-.844-21.56-1.307-1.104-.074-2.361.065-3.333-.923.305-.238.496-.483.73-.542.423-.103.892-.173 1.311-.116 3.222.454 6.41.817 9.745.655 3.967-.19 7.938.192 11.903.326.37.012.776-.068 1.096.043 2.423.853 4.89.458 7.383.082 1.01-.15 2.057.014 3.088-.02.917-.029 1.833-.137 2.76-.379-1.268-.648-2.498-1.324-4.04-.646-.193.084-.456.126-.655.08-3.162-.767-6.412.163-9.638-.127-6.054-.545-12.179-.603-18.262-.966-5.793-.344-11.57-.82-17.358-1.24-.146-.01-.295-.026-.434-.06-.759-.192-1.873-.27-1.625-1.246.27-1.05 1.295-.536 2.06-.474 2.188.176 4.38.316 6.57.472 6.221.454 12.438.949 18.666 1.339 3.806.239 7.632.318 11.45.465.366.012.735.014 1.103-.006 3.51-.2 7.021-.416 10.533-.601.809-.044 1.62.036 2.43.017 2.273-.055 4.546-.06 6.813-.237.836-.065 1.647-.558 2.12-.728 3.022.31 5.752.694 8.506.84 2.12.113 4.274-.077 6.411-.117 5.818-.11 11.639-.241 17.456-.3 4.031-.038 8.055.095 12.082.016.975-.019 1.997-.5 2.937-.906 1.278-.554 2.538-.683 3.89-.508 1.01.132 2.053.104 3.08.165.51.03 1.183-.073 1.496.183 1.89 1.53 4.224.6 6.335.81.646.065 1.434-.3 2.057-.64 2.697-1.473 5.316-1.438 7.961-.191.656.307 1.414.434 2.123.64.088-.122.177-.245.267-.367-.243-.346-.486-.687-.728-1.033.088-.105.17-.293.263-.301 2.995-.256 5.97-.639 8.78.778.856.43 2.139.178 3.23.219.857.03 1.74-.072 2.572.061 1.157.185 2.16.163 3.058-.728.71-.702 1.508-1.082 2.574-.572.38.178 1.006.074 1.481-.05 1.868-.481 3.427-.162 5.197.585 1.597.673 3.7.467 5.586.485 2.859.024 5.728-.109 8.59-.131.292-.003.575.27 1.15.564-.647.29-.995.56-1.357.592-2.339.204-4.702-.196-7.035.544-.354.115-.86-.064-1.243-.214-1.48-.585-2.858-.4-4.171.531-.235.169-.484.335-.752.45-1.563.655-2.46.397-3.448-.982-2.252.178-4.518.346-6.778.551-.408.038-.96.145-1.18.406-.732.86-1.72.752-2.649.85-1.282.134-2.623-.162-3.782.756-.197.154-.95.077-.996-.046-.504-1.44-1.627-.647-2.566-.6-1.175.06-2.35.04-3.528.068-1.996.049-2.16.2-2.309 2.091-.118 1.515-.598 1.936-2.454 2.01-5.159.203-10.319.377-15.478.575-.804.03-1.607.123-2.42.346 3.929.468 7.912.113 11.867.008 4.052-.104 8.111-.38 12.164-.513 4.05-.135 8.1-.187 12.412-.278-1.562 1.178-3.872-.117-4.958 2.026.592.113 1.05.279 1.513.271 3.096-.058 6.192-.136 9.287-.248 1.285-.046 2.45-.06 3.357 1.013.31.375 1.174.483 1.791.473 5.895-.108 11.785-.304 17.677-.391 2.87-.044 5.73.132 8.602.123 2.43-.01 4.865-.117 7.296-.223.835-.038 1.774.1 2.214-.99.095-.24.925-.328 1.411-.344 1.403-.046 2.804 0 4.204-.025 1.747-.03 2.915-.643 3.084-1.569.155-.87-1.094-2-2.585-2.334-.405-.092-.82-.17-1.231-.255l.077-.42 6.119.662c-.502-2.477-2.47-2.947-4.608-3.346.72-1.094 1.514-1.625 2.697-1.78"/>
                        </g>
                        <g transform="translate(-148 -1003) translate(148.892 1003.74) matrix(-1 0 0 1 537.108 555.26)">
                            <path fill="#D5EFF3" d="M216.878 29.326c-.274.065-.594-.037-.898-.068l.01-.426c.515-.084 1.028-.172 1.543-.26.055.1.106.2.16.3-.27.158-.52.385-.815.454m6.505-9.71c-3.213.168-6.425.285-9.64.412-7.079.278-14.166.64-21.244.799-5.923.13-11.846.115-17.76-.014-9.534-.206-19.05-.522-28.62-.253-8.645.247-17.29.267-25.929.284-7.407.012-14.811-.019-22.2-.221-6.406-.175-12.787-.615-19.177-.954-.683-.038-1.35-.193-2.025-.295.026-.144.053-.29.076-.432 1.092.034 2.179.082 3.272.103 1.067.017 2.142-.033 3.208.007 7.713.278 15.417.71 23.14.82 6.49.092 13.002-.198 19.503-.292 5.35-.078 10.697-.108 16.045-.174 4.195-.053 8.392-.134 12.586-.2 1.394-.021 2.797-.095 4.186-.048 10.986.353 21.967.745 33.004.239 8.646-.395 17.291-.72 25.933-1.022 1.199-.04 2.397.29 3.605.362.865.055 1.742-.018 2.615-.05.516-.02 1.03-.071 1.744-.123-.5 1.17-1.519 1.01-2.322 1.052M68.606 18.561c1.935-.467 3.261-.25 5.131.323-2.004.46-3.352.417-5.131-.323m-3.216.233c-5.95-.337-11.938-.374-17.837-1.201 1.963-.672 3.903-.157 5.842-.134 2.042.026 4.075.172 6.114.276 1.996.103 3.99.215 5.989.323l-.108.736m-5.46 8.596c-2.055-.113-4.11-.222-6.168-.337l.007-.557c2.179-.53 4.192-.004 6.222.428-.02.154-.039.308-.061.466m-10.106-3.395c-1.524-.1-3.11-.047-4.462-1.396.668-.087 1.343-.27 1.998-.247 3.018.11 6.033.265 9.044.438.866.049 2.148.015 1.987.999-.178 1.093-1.42.608-2.236.568-2.114-.098-4.224-.223-6.331-.362m-.097 2.721c-.101.004-.209-.15-.314-.233.14-.117.282-.231.492-.406.179.202.296.332.415.462-.196.065-.393.165-.593.177m16.561.47c1.347-.54 2.52-.115 3.717.185-.025.168-.051.335-.074.505-1.225-.066-2.449-.13-3.67-.198l.027-.492m-23.126-.92c-1.288-.108-2.575-.214-3.86-.323.033-.178.07-.36.107-.541l3.84.368-.087.495m-1.082-3.088c-1.389.5-2.304.437-2.962-.54 1.66-.838 1.66-.838 2.962.54m-10.776 5.48c-.278.016-.564-.104-.847-.161.03-.136.062-.27.091-.406.494.003.986.002 1.48.005.026.098.058.194.085.292-.27.096-.537.252-.809.27m261.913-5.432c1.611-.187 3.226-.634 3.595-2.161.381-1.535-.645-2.61-2.21-3.272-1.43-.608-2.923-1.119-4.657-1.778.68-.295 1.195-.52 1.878-.822-.279-.236-.447-.511-.691-.559-3.003-.608-5.978-1.41-9.04-1.712-5.278-.518-10.607-.908-15.942-1.01-9.028-.173-18.078-.075-27.12-.1-5.589-.016-11.175-.082-16.768-.057-1.467.007-2.94.313-4.416.43-1.038.08-2.083.095-3.123.095-2.456 0-4.913-.06-7.372-.029-2.052.03-4.104.164-6.153.243-.41.017-.838-.085-1.227-.006-3.54.697-7.06.302-10.59.272-3.119-.027-6.26.24-9.376.192-5.922-.092-11.823-.435-17.748-.464-7.073-.033-14.167.257-21.239.23-12.751-.051-25.537.703-38.262.053-8.845-.452-17.704-.778-26.549-1.232-9.828-.5-19.653-1.036-29.467-1.649-1.927-.124-3.785-.727-5.699-1.006-1.013-.147-2.104-.218-3.127-.086-2.645.345-5.169.504-7.766-.265-1.538-.453-3.4-.237-5.12-.293-2.062-.068-4.044-.215-5.863-1.167-.816-.428-2.03-.371-3.073-.486-.622-.067-1.26-.039-1.843-.053-.067-.276-.163-.419-.123-.531.687-1.91.187-2.756-2.108-2.792-1.849-.026-3.15-.365-3.85-1.857C7.786.538 6.969.054 5.803.389 4.628.724 4.455 1.522 4.545 2.406c.006.044.014.09.022.136.804.15 1.275 1.096.362 1.555-.243.124-.465.249-.701.37-.166.253-.356.49-.578.699.36.1.714.211 1.092.274.885.15 1.13 1.14.345 1.588-1.671.95-2.943 2.091-4.195 3.322 3.734 1.196 3.35 3.427.716 5.765 1 .198 1.985.422 3.03.51.545.047.962.59.803 1.028-.529 1.467-.622 2.958-1.213 4.364 1.706-.008 3.383-.018 5.097-.429.758-.183 1.554.298 1.356.99-.357 1.252-3.46 8.644-4.815 8.638.943.004 1.414.802.829 1.444-.25.275-.482.561-.716.841.29-.142.578-.296.86-.466.751-.363 1.526-.037 1.64.649.187 1.113.511 2.203.76 3.304.95.07 1.887.17 2.832.208.083-.703.477-1.46 1.19-2.181.849-.854 1.896-.883 2.919-.522 1.636.578 3.288.708 5.05.341.474-.097 1.022-.144 1.47-.04 1.79.413 3.433.62 4.832-.919.274-.3 1.235-.212 1.882-.245.62-.032 1.245.01 2.045.023-.272-1.243-1.32-1.282-2.231-1.391-1.215-.144-2.462-.146-3.666-.318-.634-.092-1.21-.412-1.758-.905 2.204-.887 4.399-1.253 6.69-1.068 4.895.392 9.78.857 14.685 1.186 4.905.33 9.828.533 14.745.786 4.176.218 8.369.35 12.532.657 12.503.915 25.027 1.656 37.63 1.655 5.922 0 11.846-.084 17.773-.147.884-.01 1.769-.118 2.72-.5-.389-.102-.777-.29-1.172-.289-2.63.002-5.268.083-7.899.067-6.247-.03-12.494-.075-18.74-.163-2.298-.032-4.627-.046-6.875-.348-2.728-.367-5.48-.3-8.224-.438-8.516-.431-17.013-1.04-25.522-1.536-3.438-.201-6.894-.247-10.33-.456-2.778-.171-5.542-.456-8.3-.737-.845-.083-1.374-.541-1.019-1.296.345-.736.997-.455 1.652-.286 2.887.727 5.797 1.04 8.888.438 2.877-.558 5.73-.117 8.561.282.862.118 1.758.105 2.637.17.81.057 1.667.016 2.412.224 2.414.676 4.864.884 7.444.663 1.03-.088 2.086.174 3.128.282.884.09 1.82.406 2.637.244 4.148-.82 8.207-.174 12.295-.054 3.691.108 7.373.335 11.063.48.702.03 1.422-.09 2.187-.5-.489-.098-.967-.255-1.462-.281-8.025-.44-16.06-.844-24.082-1.307-1.232-.074-2.637.065-3.723-.923.341-.238.555-.483.817-.542.471-.103.995-.173 1.463-.116 3.6.454 7.16.817 10.885.655 4.43-.19 8.866.192 13.295.326.413.012.867-.068 1.225.043 2.706.853 5.461.458 8.246.082 1.127-.15 2.298.014 3.45-.02 1.024-.029 2.047-.137 3.083-.379-1.417-.648-2.79-1.324-4.513-.646-.216.084-.51.126-.732.08-3.532-.767-7.162.163-10.766-.127-6.762-.545-13.603-.603-20.397-.966-6.471-.344-12.925-.82-19.39-1.24-.162-.01-.329-.026-.484-.06-.847-.192-2.092-.27-1.815-1.246.303-1.05 1.447-.536 2.301-.474 2.444.176 4.893.316 7.338.472 6.95.454 13.894.949 20.85 1.339 4.252.239 8.525.318 12.79.465.409.012.82.014 1.231-.006 3.922-.2 7.843-.416 11.765-.601.904-.044 1.811.036 2.714.017 2.54-.055 5.078-.06 7.611-.237.934-.065 1.84-.558 2.368-.728 3.376.31 6.424.694 9.501.84 2.368.113 4.774-.077 7.161-.117 6.5-.11 13-.241 19.499-.3 4.502-.038 8.996.095 13.494.016 1.09-.019 2.23-.5 3.28-.906 1.429-.554 2.836-.683 4.346-.508 1.128.132 2.293.104 3.441.165.57.03 1.32-.073 1.67.183 2.111 1.53 4.719.6 7.076.81.722.065 1.602-.3 2.298-.64 3.012-1.473 5.937-1.438 8.892-.191.733.307 1.58.434 2.372.64l.297-.367c-.27-.346-.541-.687-.812-1.033.098-.105.19-.293.294-.301 3.344-.256 6.668-.639 9.806.778.957.43 2.39.178 3.608.219.958.03 1.944-.072 2.874.061 1.292.185 2.413.163 3.416-.728.792-.702 1.683-1.082 2.874-.572.425.178 1.124.074 1.655-.05 2.085-.481 3.827-.162 5.804.585 1.784.673 4.134.467 6.24.485 3.193.024 6.398-.109 9.596-.131.325-.003.64.27 1.283.564-.723.29-1.111.56-1.516.592-2.612.204-5.252-.196-7.857.544-.396.115-.962-.064-1.39-.214-1.653-.585-3.191-.4-4.658.531-.263.169-.54.335-.84.45-1.746.655-2.748.397-3.851-.982-2.516.178-5.047.346-7.572.551-.455.038-1.071.145-1.318.406-.816.86-1.921.752-2.958.85-1.432.134-2.93-.162-4.225.756-.219.154-1.06.077-1.112-.046-.562-1.44-1.817-.647-2.866-.6-1.312.06-2.625.04-3.94.068-2.23.049-2.413.2-2.58 2.091-.131 1.515-.668 1.936-2.74 2.01-5.763.203-11.527.377-17.29.575-.897.03-1.795.123-2.702.346 4.387.468 8.837.113 13.255.008 4.526-.104 9.06-.38 13.586-.513 4.525-.135 9.049-.187 13.864-.278-1.744 1.178-4.324-.117-5.538 2.026.662.113 1.173.279 1.69.271 3.459-.058 6.917-.136 10.374-.248 1.435-.046 2.737-.06 3.75 1.013.347.375 1.311.483 2 .473 6.585-.108 13.164-.304 19.745-.391 3.206-.044 6.4.132 9.609.123 2.714-.01 5.434-.117 8.149-.223.933-.038 1.982.1 2.473-.99.105-.24 1.033-.328 1.576-.344 1.567-.046 3.131 0 4.695-.025 1.952-.03 3.257-.643 3.446-1.569.173-.87-1.222-2-2.889-2.334-.451-.092-.916-.17-1.374-.255l.086-.42 6.835.662c-.56-2.477-2.758-2.947-5.147-3.346.805-1.094 1.69-1.625 3.012-1.78"/>
                        </g>
                    </g>
                    <g>
                        <path fill="url(#yrdx8s90uc)" d="M30.911 32.152c-1.084-2.36-4.92-2.07-6.589-.07-1.67 2-1.784 4.812-1.821 7.404-1.303-1.792-4.155-2.074-5.992-.819-1.837 1.256-2.613 3.708-2.173 5.87-.934-1.71-3.615-1.897-5.112-.636-1.498 1.261-1.88 3.471-1.409 5.358-2.237-1.08-5.205-.37-6.693 1.601-1.488 1.972-1.328 4.982.36 6.789l94.596 1.61c.223-2.287-1.036-4.649-3.07-5.764-2.035-1.115-4.731-.92-6.58.475-.227-1.828-.874-3.602-1.88-5.153-.317.721-1.409.705-2.077.277-.67-.427-1.141-1.117-1.838-1.499-1.607-.881-3.558.193-5.066 1.233-.222-3.042-4.596-4.815-6.92-2.807-.39-2.025-.806-4.116-1.996-5.809-1.19-1.693-3.38-2.885-5.377-2.287-.316.094-.639.232-.964.176-.685-.118-.92-.947-1.088-1.614-.83-3.273-3.58-5.999-6.892-6.83-3.313-.832-7.049.265-9.361 2.75-.91-2.376-3.368-4.092-5.942-4.147h-.126c-2.53 0-4.994 1.594-5.99 3.892" transform="translate(-148 -1003) translate(148.892 1003.74) translate(440.005 518)"/>
                        <path fill="#DAE3F2" d="M42.033 38.878c-.381-3.062-2.973-6.06-6.054-5.8 2.525-2.237 4.048-5.561 4.093-8.93.026-2.01-.546-4.169-2.12-5.42-1.347-1.072-3.528-1.114-4.738-.001 2.05-2.766 2.809-6.463 1.963-9.803-.915-3.612-3.676-6.705-7.165-8.03-1.965-.747-4.24-.931-6.137-.026-2.01.96-3.31 2.991-4.06 5.086-1.416 3.955-1.212 8.278-.992 12.471-2.366-.454-4.896.003-6.953 1.255-.742.452-1.489 1.019-1.749 1.882-.166.549-.174 1.13-.167 1.704.03 2.374.251 4.794.799 7.108.25 1.056.587 2.097 1.057 3.076.249.52 1.168 2.58 1.796 2.677-1.972-.306-3.887 1.149-4.727 2.956-.84 1.807-.834 3.88-.724 5.869.18 3.262.74 6.8 3.138 9.024 2.59 2.403 6.315 2.599 9.636 3.02 3.716.47 7.56.378 11.134-.83 4.402-1.489 7.82-4.34 9.827-8.513 1.302-2.707 2.524-5.71 2.143-8.775" transform="translate(-148 -1003) translate(148.892 1003.74) translate(440.005 518)"/>
                        <path fill="#F8F5FF" d="M26.103 58.845V32.674c0-1.885-4-1.888-4 0v26.17c0 1.885 4 1.888 4 0" transform="translate(-148 -1003) translate(148.892 1003.74) translate(440.005 518)"/>
                        <path fill="#F8F5FF" d="M25.99 49.231c3.292-.523 6.395-2.158 8.686-4.51.535-.55.603-1.508 0-2.047-.581-.518-1.533-.587-2.105 0-.254.261-.516.513-.79.755-.145.127-.292.252-.442.374l-.202.16c-.1.08-.123.091-.007.008-.61.441-1.248.843-1.92 1.19-.328.168-.662.32-1 .467.132-.057.123-.048-.004 0-.08.032-.162.063-.243.093-.182.068-.367.132-.552.192-.722.234-1.461.408-2.212.527-.77.122-1.269 1.092-1.04 1.78.27.812 1.006 1.143 1.832 1.011M23.08 42.118c-.012.003-.4.085-.15.037.24-.045-.098.006-.152.009-.203.01-.403.001-.606-.012-.277-.016.062-.002.061.011 0 .003-.268-.051-.299-.058-.2-.045-.396-.101-.59-.168-.117-.04-.315-.033-.022 0-.069-.007-.163-.071-.225-.101-.187-.09-.37-.188-.546-.295-.173-.104-.362-.213-.515-.344.158.136.11.084-.017-.023-.078-.066-.155-.132-.23-.201-.31-.281-.575-.592-.853-.9-.16-.177.214.29-.033-.041l-.194-.262c-.114-.158-.225-.32-.332-.483-.481-.729-.9-1.494-1.317-2.258-.393-.72-1.476-1-2.18-.558-.75.471-.991 1.359-.572 2.128.942 1.724 1.95 3.535 3.504 4.813 1.712 1.408 3.879 2.185 6.115 1.705.815-.175 1.369-1.142 1.113-1.913-.277-.836-1.087-1.273-1.96-1.086" transform="translate(-148 -1003) translate(148.892 1003.74) translate(440.005 518)"/>
                    </g>
                    <path fill="url(#gvs0xkxswd)" d="M45.286 536.76c-1.582-3.569-7.174-3.13-9.61-.105-2.434 3.023-2.602 7.272-2.655 11.19-1.901-2.708-6.058-3.133-8.737-1.235-2.681 1.898-3.81 5.604-3.17 8.873-1.362-2.587-5.272-2.867-7.457-.962-2.183 1.908-2.74 5.249-2.053 8.102-3.262-1.634-7.591-.56-9.76 2.419-2.17 2.98-1.937 7.531.525 10.263l137.952 2.434c.325-3.457-1.511-7.027-4.477-8.714-2.968-1.686-6.9-1.391-9.596.717-.33-2.761-1.274-5.444-2.74-7.789-.465 1.089-2.055 1.066-3.032.42-.975-.646-1.663-1.69-2.68-2.267-2.343-1.333-5.187.292-7.386 1.864-.325-4.598-6.704-7.282-10.093-4.244-.568-3.061-1.174-6.222-2.911-8.781-1.735-2.56-4.927-4.362-7.842-3.459-.46.144-.931.35-1.404.265-1-.177-1.341-1.43-1.588-2.436-1.207-4.95-5.22-9.07-10.05-10.328-4.832-1.258-10.28.402-13.652 4.159-1.327-3.594-4.911-6.186-8.665-6.269l-.186-.002c-3.689.001-7.282 2.41-8.733 5.884" transform="translate(-148 -1003) translate(148.892 1003.74)"/>
                    <path fill="#DAE3F2" d="M78.14 485.04c-1.764-3.684-6.553-5.937-10.2-4.104.943-10.604.189-21.36-2.226-31.73-1.327-5.698-3.391-11.634-8.012-15.219-7.06-5.475-18.216-3.063-23.937 3.802-5.72 6.866-6.592 16.827-4.186 25.435-6.288-1.743-13.876-1.45-18.271 3.375-4.987 5.474-3.73 13.989-2.165 21.228 1.329 6.137 3.043 12.87 8.219 16.419-6.28.72-13.828 2.426-15.76 8.449-1.1 3.428.148 7.216 2.138 10.215 6.605 9.953 19.87 12.863 31.806 13.157h5.9c3.306.326 6.578-1.02 9.558-2.263 3.091-1.291 6.302-2.268 9.428-3.47 4.935-1.9 10.21-4.49 12.549-9.523 2.48-5.34.815-12.697-4.449-15.326 3.216-2.517 6.408-5.216 8.488-8.731 2.079-3.516 2.882-8.029 1.12-11.713z" transform="translate(-148 -1003) translate(148.892 1003.74)"/>
                    <path fill="#F8F5FF" d="M43.97 507.788V489.24c0-3.527-5.348-3.532-5.348 0V573.089c0 3.526 5.347 3.532 5.347 0v-65.301z" transform="translate(-148 -1003) translate(148.892 1003.74)"/>
                    <path fill="#F8F5FF" d="M56.863 501.475c.388-1.384-.481-3.05-1.942-3.378-1.471-.33-3.002.437-3.418 1.918-.19.676-.423 1.335-.672 1.993-.236.619.258-.554-.019.048-.08.173-.16.348-.243.52-.139.287-.284.571-.438.851-.337.616-.706 1.215-1.107 1.794-.109.157-.22.314-.333.469-.095.128-.39.653-.033.053-.171.29-.458.56-.679.81-.466.528-.96 1.032-1.48 1.51-.259.237-.526.47-.798.695-.14.117-.288.277-.45.36.266-.137.33-.245.025-.023-1.17.85-2.43 1.566-3.758 2.145-1.335.582-1.746 2.608-.997 3.756.891 1.367 2.374 1.608 3.802.986 6.085-2.653 10.767-8.201 12.54-14.507zM35.582 521.716c-.357-.118-.71-.244-1.063-.378-.194-.074-.388-.151-.58-.231.367.153.048.018-.14-.07-.74-.344-1.463-.735-2.144-1.188-.153-.1-.3-.207-.45-.31-.247-.175-.138-.114.036.034-.281-.24-.562-.473-.828-.73-.265-.254-.518-.52-.759-.799-.05-.058-.437-.538-.198-.23.24.31-.163-.24-.17-.25-.202-.298-.39-.61-.56-.93-.066-.128-.128-.26-.192-.388-.314-.631.166.537-.052-.131-.1-.308-.198-.614-.271-.93-.036-.155-.12-.369-.104-.531.014.104.027.209.042.312-.015-.145-.026-.29-.032-.436-.087-1.455-1.211-2.863-2.767-2.792-1.424.063-2.86 1.23-2.765 2.792.242 4.084 2.54 7.4 5.739 9.766 3.09 2.284 6.977 3.242 10.64 4.123 1.406.338 3.063-.444 3.403-1.95.323-1.433-.426-3.074-1.931-3.437-1.63-.392-3.262-.786-4.854-1.316z" transform="translate(-148 -1003) translate(148.892 1003.74)"/>
                    <path fill="#DAE3F2" d="M147.77 475.585c-2.45.529-5.501 2.19-7.02.333 4.832-4.512 9.773-9.173 12.497-15.02 2.726-5.846 2.753-13.236-1.737-17.994-4.49-4.756-14.047-4.979-17.53.508 2.76-10.64 2.72-21.89-.113-32.481-1.416-5.294-3.665-10.627-7.996-14.277-4.33-3.65-11.17-5.137-16.172-2.27-2.864 1.642-4.757 4.43-6.14 7.288-4.689 9.686-4.516 20.729-3.767 31.305-3.44-4.276-11.387-3.029-14.757 1.336-3.37 4.367-3.058 10.37-1.282 15.461 1.778 5.092 4.83 9.721 6.658 14.797-2.794-2.782-8.25-1.436-10.541 1.748-2.29 3.186-2.182 7.35-1.48 11.115 1.72 9.244 6.561 17.94 13.664 24.55-3.337-3.014-9.373-1.705-12.265 1.72-2.891 3.427-3.284 8.139-2.794 12.46 1.896 16.74 14.029 32.75 42.673 31.288 11.159-1.263 22.095-7.128 27.22-16.493 5.127-9.364 3.166-22.126-5.752-28.453 3.33-2.938 7.24-5.27 10.46-8.313 3.22-3.042 5.786-7.105 5.388-11.35-.397-4.246-4.76-8.222-9.215-7.258z" transform="translate(-148 -1003) translate(148.892 1003.74)"/>
                    <path fill="#F8F5FF" d="M116.539 473.501v-28.454c0-3.524-5.348-3.53-5.348 0v129.566c0 3.525 5.348 3.531 5.348 0V473.501z" transform="translate(-148 -1003) translate(148.892 1003.74)"/>
                    <path fill="#F8F5FF" d="M136.314 473.28c.366-1.428-.471-2.96-1.93-3.357-1.42-.386-3.031.472-3.399 1.906-1.086 4.233-3.237 8.167-6.177 11.34-.753.814-1.552 1.586-2.39 2.312-.955.827-1.494 1.235-2.577 1.947-1.929 1.268-3.92 2.253-5.857 2.921-1.408.487-2.344 1.867-1.93 3.358.376 1.35 1.984 2.394 3.4 1.906 10.159-3.507 18.208-11.99 20.86-22.332zM103.117 510.236c-1.917-3.376-2.689-7.079-2.394-10.993.11-1.48-1.346-2.746-2.755-2.746-1.583 0-2.642 1.26-2.754 2.746-.366 4.86.84 9.844 3.31 14.048 2.446 4.164 6.487 8.325 11.486 9.067 1.47.218 2.96-.367 3.389-1.918.356-1.295-.444-3.158-1.925-3.377-3.774-.56-6.524-3.597-8.357-6.827zM112.314 458.884c-.554-.588-1.09-1.194-1.607-1.815-.245-.296-.484-.594-.72-.897-.105-.134-.35-.462-.121-.155-.127-.17-.253-.343-.378-.515-.92-1.282-1.763-2.622-2.522-4.009-.369-.675-.718-1.362-1.045-2.058-.182-.387-.356-.777-.528-1.17-.08-.186-.133-.32-.026-.053-.096-.237-.19-.477-.282-.716-.517-1.337-1.832-2.417-3.324-1.925-1.27.42-2.442 1.953-1.886 3.39 2.56 6.613 6.633 12.54 12.061 17.039 1.095.907 2.764 1.173 3.82 0 .906-1.007 1.172-2.927 0-3.897-1.21-1.003-2.36-2.073-3.442-3.22z" transform="translate(-148 -1003) translate(148.892 1003.74)"/>
                    <g>
                        <g>
                            <g transform="translate(-148 -1003) translate(148.892 1003.74) translate(146.747 373.26) translate(178.362)">
                                <mask id="9dhp0flbuf" fill="#fff">
                                    <use xlink:href="#b02kwef21e"/>
                                </mask>
                                <path fill="#7ED1F0" d="M3.354 19.516c0 4.438 1.832 8.516 4.882 11.793L0 39l11.95-4.492C16.07 37.312 21.358 39 27.13 39c13.132 0 23.778-8.724 23.778-19.484C50.909 8.756 40.263.03 27.13.03 14 .031 3.354 8.755 3.354 19.516" mask="url(#9dhp0flbuf)"/>
                            </g>
                            <g fill="#EFF3FF">
                                <path d="M5.94 2.703c0 1.27-1.295 2.3-2.891 2.3-1.597 0-2.892-1.03-2.892-2.3 0-1.27 1.295-2.3 2.892-2.3 1.596 0 2.891 1.03 2.891 2.3M18.863 2.703c0 1.27-1.295 2.3-2.892 2.3s-2.892-1.03-2.892-2.3c0-1.27 1.295-2.3 2.892-2.3s2.892 1.03 2.892 2.3M31.786 2.703c0 1.27-1.295 2.3-2.892 2.3s-2.892-1.03-2.892-2.3c0-1.27 1.295-2.3 2.892-2.3s2.892 1.03 2.892 2.3" transform="translate(-148 -1003) translate(148.892 1003.74) translate(146.747 373.26) translate(178.362) translate(12.18 16.824)"/>
                            </g>
                        </g>
                        <g transform="translate(-148 -1003) translate(148.892 1003.74) translate(146.747 373.26) translate(0 14)">
                            <path fill="#808285" d="M176.458 80L178.277 65.539 179.514 65.524 177.869 79.982z"/>
                            <path fill="#231F20" d="M181.078 77.837c.925-.38 8.366.246 8.366.246l-.26 13.696-2.838 1.173-7.596-3.042 2.328-12.073z"/>
                            <path fill="#FFF" d="M190.206 84.056c.055 3.912-.875 7.243-1.214 7.366-.431.158-1.018-2.694-1.073-6.606-.054-3.91.86-7.095 1.315-7.102.455-.008.918 2.432.972 6.342"/>
                            <path fill="#FF6F69" d="M34.375 120.245l-9.124.136-.042-2.95c-.043-2.924 2.266-5.33 5.158-5.373l3.888-.058.12 8.245z"/>
                            <path fill="#58595B" d="M43.044 114.766L41.25 103.078 56.472 102.857 71.843 112.555 74.695 120.381 42.686 119.619z"/>
                            <path fill="#6099DC" d="M211.805 181.762c-.09 0-.184-.018-.274-.055-.376-.155-.56-.596-.408-.983l12.279-31.486c.15-.388.576-.578.956-.42.376.156.56.596.408.983l-12.278 31.486c-.116.295-.391.475-.683.475"/>
                            <path fill="#6099DC" d="M233.997 172.762c-.094 0-.189-.017-.28-.054l-31.341-12.5c-.386-.155-.574-.59-.419-.974.155-.384.593-.574.98-.417l31.34 12.501c.386.154.573.59.419.974-.118.292-.401.47-.7.47"/>
                            <path fill="#6099DC" d="M224.074 181.762c-.297 0-.578-.182-.695-.478l-12.258-31.491c-.15-.388.038-.826.42-.98.384-.15.818.038.968.426l12.258 31.491c.151.388-.036.827-.42.98-.09.034-.182.052-.273.052"/>
                            <path fill="#6099DC" d="M202.655 172.762c-.3 0-.583-.183-.7-.481-.152-.39.038-.832.424-.985l31.344-12.482c.387-.152.823.039.975.429.152.39-.038.831-.424.985l-31.343 12.481c-.091.035-.185.053-.276.053"/>
                            <path fill="#6099DC" d="M230.192 177.762c-.185 0-.37-.071-.514-.213l-23.732-23.496c-.292-.29-.3-.765-.016-1.063.284-.299.75-.304 1.044-.016l23.733 23.496c.292.29.3.765.014 1.063-.144.153-.336.229-.529.229"/>
                            <path fill="#6099DC" d="M206.458 177.762c-.185 0-.369-.069-.512-.207-.292-.282-.3-.744-.015-1.034l22.972-23.537c.283-.292.748-.296 1.04-.015.292.282.299.745.015 1.034l-22.973 23.536c-.143.149-.335.223-.527.223"/>
                            <path fill="#6099DC" d="M201.126 166.762c-.41 0-.745-.494-.751-1.112-.005-.622.326-1.135.74-1.144l33.638-.744h.01c.41 0 .746.494.75 1.11.007.624-.324 1.137-.738 1.146l-33.638.744h-.01z"/>
                            <path fill="#6099DC" d="M217.611 181.762c-.47 0-.855-.337-.861-.758l-.57-34.462c-.006-.424.375-.774.849-.78.499.005.867.334.875.758l.568 34.462c.007.424-.373.774-.848.78h-.013z"/>
                            <path fill="url(#pxb5sp8kfh)" d="M218.37 158.476c-3.796.06-6.828 3.346-6.772 7.344.057 3.998 3.18 7.19 6.976 7.132 3.796-.06 6.828-3.348 6.772-7.344-.055-3.961-3.122-7.133-6.873-7.132h-.103"/>
                            <path fill="#414042" d="M235.69 164.705c-.137-9.274-7.785-16.68-17.081-16.545-9.298.136-16.724 7.766-16.587 17.04.136 9.274 7.785 16.681 17.082 16.544 9.298-.137 16.724-7.766 16.586-17.039m7.988-.117c.2 13.674-10.747 24.922-24.455 25.124-13.714.2-24.99-10.72-25.192-24.394-.202-13.674 10.747-24.922 24.46-25.125 13.708-.201 24.985 10.721 25.187 24.395zM62.64 112.762l-27.97 1.223s-14.54 8.095-22.448 36.872l2.889-.307s3.817-22.48 19.611-33.05l36.32-.487-8.402-4.251z"/>
                            <path fill="#6099DC" d="M50.388 180.571c-.091 0-.183-.017-.274-.054-.376-.154-.56-.592-.408-.976l12.279-31.259c.15-.385.577-.574.956-.417.376.155.56.592.409.976L51.07 180.1c-.115.293-.391.471-.683.471"/>
                            <path fill="#6099DC" d="M71.816 171.429c-.094 0-.188-.017-.28-.054L40.193 159.13c-.385-.15-.572-.577-.417-.953.154-.377.59-.56.979-.409l31.34 12.247c.386.15.574.578.42.954-.119.286-.402.46-.7.46"/>
                            <path fill="#6099DC" d="M62.657 180.571c-.298 0-.579-.18-.694-.474l-12.258-31.264c-.151-.385.037-.82.42-.973.385-.148.816.038.968.423l12.257 31.264c.152.385-.036.82-.42.972-.09.035-.183.052-.273.052"/>
                            <path fill="#6099DC" d="M40.474 171.429c-.3 0-.583-.18-.699-.472-.153-.382.037-.814.423-.965l31.345-12.227c.388-.148.822.038.974.42.152.382-.037.814-.423.965L40.75 171.377c-.091.034-.185.052-.276.052"/>
                            <path fill="#6099DC" d="M68.754 176.762c-.191 0-.382-.071-.53-.214l-24.452-23.63c-.3-.29-.308-.77-.016-1.07.293-.3.774-.305 1.075-.016l24.452 23.63c.301.29.309.77.016 1.07-.148.153-.347.23-.545.23"/>
                            <path fill="#6099DC" d="M44.3 177.524c-.19 0-.381-.072-.528-.214-.3-.292-.308-.772-.016-1.072l23.692-24.389c.292-.302.772-.306 1.072-.015.3.292.308.771.016 1.071l-23.692 24.388c-.148.154-.346.23-.544.23"/>
                            <path fill="#6099DC" d="M39.708 165.333c-.41 0-.744-.376-.75-.847-.006-.474.325-.865.74-.872l33.638-.566c.395.02.756.373.761.846.006.475-.325.866-.739.873l-33.638.566h-.012z"/>
                            <path fill="#6099DC" d="M56.43 182.095c-.469 0-.855-.328-.86-.738L55 147.81c-.007-.413.374-.754.85-.76.483-.037.866.324.873.738l.569 33.548c.007.413-.373.753-.849.76h-.012z"/>
                            <path fill="url(#je5k9tunfj)" d="M57.19 158.477c-3.797.055-6.829 3.17-6.773 6.958.055 3.786 3.179 6.81 6.976 6.755 3.796-.057 6.829-3.17 6.773-6.958-.056-3.753-3.123-6.756-6.873-6.756l-.103.001"/>
                            <path fill="#350FA2" d="M57.572 167.333c-1.687.025-3.075-1.32-3.1-3.002-.025-1.683 1.323-3.067 3.01-3.093 1.688-.024 3.076 1.32 3.101 3.003.025 1.683-1.323 3.067-3.011 3.092z"/>
                            <path fill="#414042" d="M57.286 147.751c-9.155.135-16.467 7.647-16.332 16.778.135 9.132 7.666 16.425 16.82 16.291 9.155-.135 16.466-7.646 16.332-16.778-.135-9.13-7.666-16.425-16.82-16.29zm24.684 16.176c.198 13.463-10.582 24.539-24.08 24.737-13.502.198-24.605-10.555-24.804-24.019-.199-13.464 10.582-24.54 24.083-24.738 13.498-.198 24.602 10.557 24.8 24.02z"/>
                            <path fill="url(#rst8a2bwpl)" d="M37.47 124.104c-7.733.07-14.4 5.265-19.643 11.539-1.235 2.382-2.372 5.055-3.313 8.056.037 2.348 4.082 7.064 9.865 5.102 0 0 31.12-15.785 55.062 9.492l2.056 8.69 20.017 1.398c-.08-9.248-1.378-26.658-9.447-35.714-6.88-7.72-18.308-9.286-30.625-9.286-7.948 0-16.265.652-23.973.723"/>
                            <path fill="url(#mhocyw0swn)" d="M86.347 119.39l-50.484.744s-8 4.553-13.71 16.365c4.92-6.314 11.174-11.543 18.428-11.614 18.438-.182 40.603-4.165 51.224 8.62 7.571 9.114 8.788 26.637 8.863 35.945l6.059.455 29.245-4.75-8.496-9.056-8.959-18.775s-1.328-13.07 4.07-18.467l-36.24.533z"/>
                            <path fill="#58595B" d="M56.528 107.714L19.904 108.19 19.861 105.619 56.484 105.143z"/>
                            <path fill="#58595B" d="M38.958 123.394L36.177 123.429 35.903 107.464 38.684 107.429z"/>
                            <path fill="url(#36z5sqtsmp)" d="M193.357 135.11s-9.914 19.807-2.976 29.461c0 0 8.285-19.642 44.133-23.39 0 0-7.17-9.37-23.344-9.371-5.044 0-10.961.91-17.813 3.3"/>
                            <path fill="#5876D6" d="M209.801 149.263L218.472 169.163 216.664 169.905 207.014 147.234 208.619 146.286z"/>
                            <path fill="#350FA2" d="M204.93 132.189l6.667 14.913-5.342 2.231-6.88-16.26s2.56-2.102 5.555-.884M210.126 131.048l.707-2.155S199.71 108.435 185.41 99.81l-2.076 1.736 26.793 29.502z"/>
                            <path fill="url(#3xs8hirsgr)" d="M177.769 84.525l-3.707 8.218 1.794 9.589c4.615 5.914 9.001 12.454 12.17 22.316 0 0-18.536 28.754-27.04 33.05 0 0-18.206 1.718-31.015-1.54l-2.384-.873s2.514 3.592 2.344 4.41c-.169.819-10.32 4.869-29.322 2.063 0 0-1.276 3.03.096 6.849l77.826 4.345s12.137-36.098 33.066-44.704c-6.376-11.332-14.808-21.56-26.511-32.81l-3.066-13.152-4.251 2.24z"/>
                            <path fill="#231F20" d="M174.286 84.594s-3.478-.408-4.507 2.283c-1.03 2.69 2.345 5.313 2.345 5.313l2.807-6.13-.645-1.466z"/>
                            <path fill="#414042" d="M173.863 89.294l-5.044 2.77.631 3.174 5.651-3.359s.692-.515.581-1.614c-.089-.893-1.052-1.391-1.819-.97"/>
                            <path fill="#231F20" d="M113.504 120.951l8.604-1.9c.922-.203 1.598-1.018 1.63-1.983.1-3.003-.331-9.154-5.367-10.325-5.6-1.302-43.569-2.692-56.04-3.12-3.458-.117-6.66 2.049-7.747 5.415-1.188 3.677.18 8.235 11.885 10.545 21.521 4.247 47.035 1.368 47.035 1.368M176.12 66.286l-.426 8.38s2.836-.906 3.056-3.89c.027-.383-1.242-3.135-2.63-4.49"/>
                            <g>
                                <path fill="#F8A595" d="M6.838 35.048L0 28.246c2.704-2.93 4.759-6.218 5.995-9.96l6.991 8.84c-2.39 1.79-4.507 4.26-6.148 7.922M23.264 20.571s.823 4.886 1.18 6.858l-3.055-.341 1.875-6.517z" transform="translate(127.806 5)"/>
                                <path fill="#F7A08C" d="M22.187 26.243c-.31 1.296-1.968 5.366-1.968 5.366-1.121 1.023-2.138 1.259-3.642 1.114-3.642-.348-7.063-2.299-9.436-5.115-2.375-2.817-3.726-6.449-4.032-10.137-.388-4.688 1.313-10.009 5.515-12.019 4.232-2.022 12.144-.476 14.679 3.764 2.656 4.445-.007 12.386-1.116 17.027" transform="translate(127.806 5)"/>
                                <path fill="#350FA2" d="M26.498 8.381L32.847 12.84 32.749 13.714 19.097 12.104z" transform="translate(127.806 5)"/>
                                <path fill="url(#kdex6n72ns)" d="M11.033.252C-5.14 2.307 2.63 22.617 2.63 22.617l16.408 1.764s5.372-11.058 5.332-11.315c0 0 6.441-1.332 6.179-2.497C30.308 9.499 27.702-.001 14.823 0c-1.176 0-2.438.08-3.79.252" transform="translate(127.806 5)"/>
                                <path fill="#350FA2" d="M16.404 32L13.75 31.058 14.837 22.095 17.569 22.392z" transform="translate(127.806 5)"/>
                            </g>
                            <path fill="#F7A08C" d="M158.889 90.544c1.963 1.744 4.694 2.65 7.349 2.438-.394-.888.229-2.017 1.182-2.295.956-.278 2.052.246 2.511 1.1.461.857.32 1.95-.242 2.746-.85-.102-1.709-.14-2.565-.11.551 1.815 2.886 2.658 4.787 2.23 1.904-.428 3.427-1.779 4.76-3.16.23-.238.466-.496.533-.816.094-.46-.19-.907-.468-1.29-1.202-1.648-2.596-3.164-4.147-4.51-.452-.392-.94-.78-1.53-.919-.631-.148-1.29.013-1.927.136-2.44.473-5.84-.147-8.247-.76l-1.996 5.21z"/>
                            <path fill="#350FA2" d="M151.127 152.143l-2.46 9.085-.528 4.457 28.994 3.22c.304-2.572-1.465-5.004-4.21-5.789l-6.215-1.777-4.92-5.644-.552-2.076-10.109-1.476z"/>
                            <path fill="url(#qhq0c1nx6v)" d="M111.134 57.03c-5.967 17.255-11.63 29.572-12.592 37.984 5.67 1.338 17.994 3.77 25.528 1.719 1.625-.443 3.077-.815 4.374-1.131.623-2.212 13.31-47.556 7.568-54.827l-4.613-6.602s-.976-.65-2.627-.65c-3.65 0-10.603 3.167-17.638 23.507"/>
                            <path fill="url(#4bqavn27ax)" d="M105.294 105.393c14.122 5.563 53.664 11.007 53.664 11.007l-7.839 36.29 10.117.929s15.82-35.087 15.394-43.208c-.427-8.12-46.93-18.397-46.93-18.397l.025-.085c-1.335.288-2.829.63-4.501 1.036-7.753 1.881-20.483-.513-26.34-1.822-.657 5.658.536 11.935 6.41 14.25"/>
                            <path fill="url(#45b070xy4z)" d="M123.281 46.592c-.74 9.049-.085 18.21 1.933 27.061.332 1.454.712 2.927 1.513 4.184.818 1.285 2.03 2.268 3.27 3.154 9.148 6.526 20.22 9.145 31.273 11.2.354-2.053 1.083-4.509 1.438-6.562-9.01-4.198-18.213-8.538-27.622-11.745l-2.217-24.841c-1.555-3.362-3.28-4.853-5.14-4.853-1.41 0-2.898.857-4.448 2.402"/>
                            <path fill="#231F20" d="M0 120.931L54.236 120.931 54.236 120.593 0 120.593zM16.042 127.788L54.236 127.788 54.236 127.45 16.042 127.45zM19.097 111.026L57.292 111.026 57.292 110.688 19.097 110.688z"/>
                            <path fill="#350FA2" d="M221.527 165.288c.025 1.683-1.322 3.068-3.01 3.093-1.687.025-3.074-1.32-3.1-3.003-.025-1.683 1.323-3.067 3.01-3.092 1.687-.024 3.076 1.32 3.1 3.002"/>
                        </g>
                    </g>
                </g>
                <text fill="#796B6D" font-family="Palatino-Bold, Palatino" font-size="12" font-weight="bold" transform="translate(-148 -1003) translate(148.892 1003.74)">
                    <tspan x="41.108" y="141.259">View Case Study </tspan>
                </text>
                <text fill="#5E494C" font-family="Palatino-Roman, Palatino" font-size="30" transform="translate(-148 -1003) translate(148.892 1003.74)">
                    <tspan x="39" y="102">Rapido’s booking experience</tspan>
                </text>
                <g stroke="#796B6D" stroke-linecap="round">
                    <path d="M0 2.677L12.389 2.677" transform="translate(-148 -1003) translate(148.892 1003.74) translate(138.358 135.582)"/>
                    <path stroke-linejoin="round" d="M10.012 0L13.164 2.677 10.012 5.034" transform="translate(-148 -1003) translate(148.892 1003.74) translate(138.358 135.582)"/>
                </g>
            </g>
        </g>
    </g>
</svg>
