<svg xmlns="http://www.w3.org/2000/svg" xmlns:xlink="http://www.w3.org/1999/xlink" width="536" height="594" viewBox="0 0 536 594">
    <defs>
        <path id="fe8gs2oaqa" d="M0.892 0.259L265.892 0.259 265.892 36.259 0.892 36.259z"/>
        <path id="jgyjp2g9db" d="M0.892 0.259L265.892 0.259 265.892 36.259 0.892 36.259z"/>
        <path id="pzy4kxlp4d" d="M100.141 10.098L95.915 12.726 100.141 6.363z"/>
        <path id="7x8dhxyibe" d="M0 28.465c0 2.779 7.37 10.197 31.89 10.875 16.324.45 20.048-.476 20.82-3.021C53.681 33.122 48.244.642 27.047.006 26.911.003 26.78 0 26.645 0 11.563.003 0 25.388 0 28.465z"/>
        <path id="ecbb1c79bg" d="M4.457 9.898s.35-3.066-2.107-3.063C.519 6.838.023 8.37.023 9.251c.005 2.554 2.952 3.498 4.544 5.003-.33 3.04-1.532 11.647-1.532 11.647l7.95 1.296.724-6.019c2.426.145 5.272.012 6.834-1.07 2.839-1.966 4.05-6.89 4.545-10.564-2.83-4.253-8.397-7.662-11.93-9.522C9.476 3.234 6.94 10.906 4.456 9.898z"/>
        <path id="umwj80sjpi" d="M0.001 4.202L2.535 4.242 0.351 0z"/>
        <path id="nleyl52cbk" d="M.004 1.63c-.054.937.47 1.726 1.167 1.763.698.035 1.307-.693 1.36-1.63C2.584.825 2.062.036 1.365.001L1.315 0C.636 0 .054.718.004 1.63z"/>
        <path id="j2ocxicnpm" d="M.004 1.63c-.054.937.47 1.726 1.167 1.763.698.035 1.307-.693 1.36-1.63C2.585.826 2.062.037 1.364.002L1.314 0C.637 0 .056.718.004 1.63z"/>
        <filter id="bvw1zztd0c" width="1165%" height="807.2%" x="-532.5%" y="-353.6%" filterUnits="objectBoundingBox">
            <feOffset in="SourceAlpha" result="shadowOffsetOuter1"/>
            <feGaussianBlur in="shadowOffsetOuter1" result="shadowBlurOuter1" stdDeviation="7.5"/>
            <feColorMatrix in="shadowBlurOuter1" values="0 0 0 0 0.869282156 0 0 0 0 0.869282156 0 0 0 0 0.869282156 0 0 0 1 0"/>
        </filter>
    </defs>
    <g fill="none" fill-rule="evenodd">
        <g>
            <g>
                <g>
                    <path fill="#FFEADA" d="M0 0H535V571H0z" transform="translate(-755 -1003) translate(755.892 1003.74)"/>
                    <g>
                        <path fill="#32257A" d="M114.155 260h-97.07c-8.54 0-15.465-6.954-15.465-15.53V15.53C1.62 6.955 8.545 0 17.085 0h97.07c8.542 0 15.465 6.954 15.465 15.53v228.94c0 8.576-6.923 15.53-15.465 15.53" transform="translate(-755 -1003) translate(755.892 1003.74) translate(263.488 285.26)"/>
                        <path fill="#FAF7FF" d="M111.121 249H20.118c-8.007 0-14.498-6.472-14.498-14.456V21.455C5.62 13.472 12.11 7 20.118 7h91.003c8.008 0 14.5 6.472 14.5 14.455v213.09c0 7.983-6.492 14.455-14.5 14.455" transform="translate(-755 -1003) translate(755.892 1003.74) translate(263.488 285.26)"/>
                        <path fill="#32257A" d="M84.788 17H44.454C37.918 17 32.62 11.829 32.62 5.45V5h64v.45C96.62 11.83 91.323 17 84.788 17" transform="translate(-755 -1003) translate(755.892 1003.74) translate(263.488 285.26)"/>
                        <path fill="#EDE3FF" d="M22.828 166h84.584c3.429 0 6.208-2.781 6.208-6.212V40.21c0-3.43-2.78-6.211-6.208-6.211H22.828c-3.43 0-6.208 2.78-6.208 6.211v119.577c0 3.43 2.779 6.212 6.208 6.212M101.72 211h-72.2c-1.045 0-1.9-1.125-1.9-2.5s.855-2.5 1.9-2.5h72.2c1.045 0 1.9 1.125 1.9 2.5s-.855 2.5-1.9 2.5M101.72 195h-72.2c-1.045 0-1.9-1.126-1.9-2.5s.855-2.5 1.9-2.5h72.2c1.045 0 1.9 1.126 1.9 2.5s-.855 2.5-1.9 2.5M101.72 180h-72.2c-1.045 0-1.9-1.126-1.9-2.5s.855-2.5 1.9-2.5h72.2c1.045 0 1.9 1.126 1.9 2.5s-.855 2.5-1.9 2.5M101.72 226h-72.2c-1.045 0-1.9-1.125-1.9-2.5s.855-2.5 1.9-2.5h72.2c1.045 0 1.9 1.125 1.9 2.5s-.855 2.5-1.9 2.5" transform="translate(-755 -1003) translate(755.892 1003.74) translate(263.488 285.26)"/>
                        <path stroke="#FA8AC9" stroke-width="12.351" d="M34.62 149c15.674-16.12 29.361-34.209 40.644-53.718 5.557-9.606 10.622-21.33 6.095-31.474-2.62-5.87-8.47-10.175-14.819-10.744-6.35-.569-12.926 2.697-16.231 8.201-5.228 8.707-1.792 19.948 2.469 29.177C62.543 111.59 76.109 132.678 92.62 149" transform="translate(-755 -1003) translate(755.892 1003.74) translate(263.488 285.26)"/>
                        <path stroke="#211D1F" stroke-linecap="round" stroke-linejoin="round" stroke-width=".5" d="M69.62 93c-5.27 8.589-10.945 16.935-17 25M75.62 104c-5.733 8.52-11.738 16.858-18 25M44.62 63c1.485-5.005 4.647-9.438 8.795-12.331 4.148-2.893 9.255-4.068 14.205-3.55" transform="translate(-755 -1003) translate(755.892 1003.74) translate(263.488 285.26)"/>
                    </g>
                    <g transform="translate(-755 -1003) translate(755.892 1003.74) matrix(-1 0 0 1 535 556)">
                        <path fill="#FFEADA" d="M194.258 28.585c-.245.063-.532-.037-.804-.067l.01-.415c.46-.083.92-.168 1.38-.254.05.098.095.195.144.292-.242.155-.465.376-.73.444m5.823-9.47c-2.876.164-5.751.278-8.63.402-6.337.27-12.682.624-19.019.778-5.303.127-10.605.114-15.9-.012-8.536-.201-17.055-.51-25.622-.247-7.74.24-15.48.26-23.214.276-6.631.013-13.26-.018-19.876-.215-5.735-.171-11.447-.6-17.168-.93-.61-.037-1.209-.189-1.813-.288.023-.14.048-.283.068-.42.978.032 1.951.079 2.93.1.955.016 1.917-.034 2.872.006 6.905.271 13.802.692 20.717.8 5.809.09 11.64-.193 17.46-.285 4.79-.076 9.576-.105 14.365-.17 3.755-.052 7.513-.13 11.267-.195 1.248-.02 2.504-.093 3.748-.047 9.835.344 19.667.727 29.548.233 7.74-.385 15.48-.702 23.216-.997 1.074-.04 2.146.283 3.228.353.774.055 1.56-.017 2.341-.048.462-.02.922-.07 1.562-.12-.449 1.141-1.36.985-2.08 1.026m-138.567-1.03c1.732-.455 2.92-.242 4.594.316-1.794.449-3.001.407-4.594-.315m-2.879.228c-5.326-.33-10.688-.365-15.969-1.172 1.757-.656 3.494-.153 5.23-.13 1.828.025 3.648.167 5.474.269 1.787.1 3.572.21 5.362.315l-.097.718m-4.888 8.383c-1.84-.11-3.68-.217-5.522-.329l.006-.544c1.95-.517 3.753-.003 5.57.418-.018.15-.034.3-.054.455m-9.048-3.312c-1.364-.098-2.785-.046-3.994-1.36.597-.085 1.202-.265 1.788-.242 2.703.108 5.402.258 8.097.427.775.048 1.923.015 1.78.975-.16 1.065-1.272.592-2.003.554-1.893-.096-3.781-.218-5.668-.354m-.086 2.654c-.091.004-.188-.146-.281-.227.125-.115.252-.226.44-.396.16.197.265.324.371.45-.175.064-.351.162-.53.173m14.826.458c1.206-.526 2.256-.112 3.327.18-.022.165-.045.327-.066.493-1.096-.064-2.192-.126-3.285-.193l.024-.48M38.735 25.6c-1.153-.105-2.305-.208-3.457-.314.03-.175.064-.352.097-.528l3.438.359-.078.483m-.969-3.013c-1.243.489-2.063.426-2.651-.526 1.485-.818 1.485-.818 2.651.526m-9.647 5.346c-.249.015-.505-.102-.758-.158l.081-.396c.443.003.883.002 1.325.005.023.096.052.189.076.285-.242.093-.48.246-.724.264m234.483-5.298c1.442-.183 2.888-.618 3.218-2.108.341-1.497-.577-2.545-1.979-3.19-1.28-.594-2.616-1.092-4.169-1.735.61-.287 1.07-.507 1.682-.801-.25-.23-.4-.5-.62-.546-2.687-.593-5.35-1.375-8.092-1.67-4.725-.505-9.496-.885-14.272-.985-8.083-.168-16.185-.072-24.28-.097-5.003-.015-10.005-.08-15.012-.055-1.314.006-2.631.305-3.953.418-.93.078-1.866.094-2.796.094-2.2 0-4.4-.06-6.6-.028-1.838.029-3.675.16-5.509.237-.367.016-.75-.084-1.099-.006-3.17.679-6.32.294-9.48.265-2.792-.027-5.604.235-8.394.187-5.302-.09-10.586-.425-15.89-.452-6.332-.033-12.683.25-19.014.224-11.416-.05-22.863.686-34.255.051-7.919-.44-15.85-.759-23.769-1.201-8.798-.487-17.594-1.01-26.38-1.608-1.726-.121-3.389-.709-5.103-.981-.906-.144-1.884-.213-2.8-.084-2.367.336-4.627.492-6.952-.258-1.377-.442-3.044-.232-4.583-.286-1.847-.067-3.621-.21-5.25-1.139-.73-.417-1.818-.362-2.75-.473-.558-.066-1.129-.038-1.651-.052-.06-.269-.146-.409-.11-.518.615-1.862.168-2.688-1.887-2.723-1.655-.025-2.82-.355-3.446-1.811C7.063.509 6.33.037 5.288.364 4.237.69 4.082 1.469 4.162 2.33c.005.043.013.088.02.132.72.147 1.142 1.07.324 1.518-.217.12-.416.242-.628.36-.148.247-.318.479-.517.682.322.098.639.206.978.267.792.147 1.011 1.112.308 1.55-1.495.924-2.634 2.038-3.755 3.238 3.343 1.167 2.999 3.343.64 5.622.896.194 1.778.413 2.714.499.488.045.861.574.718 1.001-.473 1.431-.556 2.885-1.086 4.256 1.528-.008 3.03-.017 4.564-.418.679-.179 1.39.29 1.214.965-.32 1.221-3.098 8.43-4.31 8.424.843.004 1.265.783.741 1.41-.223.267-.431.546-.641.82.26-.14.518-.29.77-.456.673-.354 1.366-.036 1.468.634.167 1.085.458 2.148.68 3.222.851.069 1.69.166 2.536.202.074-.686.428-1.424 1.066-2.127.76-.833 1.697-.86 2.613-.508 1.465.563 2.944.69 4.522.332.424-.095.914-.14 1.316-.04 1.601.404 3.073.606 4.325-.895.245-.292 1.105-.207 1.685-.24.556-.03 1.115.01 1.83.023-.243-1.212-1.182-1.25-1.997-1.356-1.087-.14-2.204-.143-3.281-.31-.569-.09-1.083-.402-1.575-.883 1.974-.865 3.938-1.222 5.99-1.042 4.383.383 8.755.836 13.146 1.157 4.392.321 8.8.52 13.201.767 3.739.212 7.493.34 11.22.64 11.193.893 22.406 1.615 33.689 1.614 5.301 0 10.605-.082 15.911-.143.792-.01 1.584-.116 2.436-.488-.348-.1-.696-.283-1.05-.281-2.354.001-4.715.08-7.071.065-5.593-.03-11.186-.073-16.777-.159-2.058-.031-4.142-.045-6.155-.34-2.443-.357-4.907-.292-7.363-.426-7.624-.421-15.232-1.014-22.85-1.499-3.077-.196-6.172-.24-9.248-.445-2.486-.166-4.961-.444-7.43-.718-.756-.081-1.23-.528-.912-1.264.309-.718.892-.444 1.479-.279 2.584.71 5.19 1.014 7.957.427 2.576-.544 5.13-.114 7.664.275.772.115 1.574.103 2.361.165.726.057 1.492.016 2.159.22 2.161.66 4.355.862 6.665.646.921-.086 1.867.17 2.8.275.791.088 1.629.396 2.36.238 3.714-.8 7.349-.17 11.009-.053 3.304.105 6.6.327 9.904.47.629.027 1.273-.089 1.957-.488-.437-.096-.865-.25-1.308-.275-7.185-.43-14.378-.823-21.56-1.275-1.104-.072-2.361.064-3.333-.9.305-.232.496-.471.73-.529.423-.1.892-.168 1.311-.113 3.222.443 6.41.798 9.745.64 3.967-.187 7.938.186 11.903.317.37.012.776-.066 1.096.042 2.423.832 4.89.447 7.383.08 1.01-.147 2.057.014 3.088-.019.917-.029 1.833-.134 2.76-.37-1.268-.632-2.498-1.291-4.04-.63-.193.082-.456.123-.655.079-3.162-.75-6.412.158-9.638-.125-6.054-.531-12.179-.588-18.262-.942-5.793-.335-11.57-.8-17.358-1.21-.146-.009-.295-.024-.434-.059-.759-.186-1.873-.263-1.625-1.214.27-1.024 1.295-.523 2.06-.462 2.188.171 4.38.308 6.57.46 6.221.443 12.438.926 18.666 1.306 3.806.233 7.632.31 11.45.453.366.013.735.015 1.103-.006 3.51-.195 7.021-.406 10.533-.586.809-.043 1.62.036 2.43.017 2.273-.054 4.546-.058 6.813-.231.836-.063 1.647-.545 2.12-.71 3.022.302 5.752.676 8.506.82 2.12.11 4.274-.076 6.411-.115 5.818-.108 11.639-.235 17.456-.293 4.031-.037 8.055.093 12.082.016.975-.018 1.997-.487 2.937-.883 1.278-.54 2.538-.667 3.89-.496 1.01.129 2.053.101 3.08.161.51.03 1.183-.071 1.496.179 1.89 1.492 4.224.584 6.335.789.646.064 1.434-.293 2.057-.624 2.697-1.436 5.316-1.402 7.961-.186.656.3 1.414.423 2.123.624.088-.12.177-.239.267-.358-.243-.337-.486-.67-.728-1.008.088-.102.17-.285.263-.293 2.995-.25 5.97-.622 8.78.759.856.42 2.139.173 3.23.213.857.03 1.74-.07 2.572.06 1.157.181 2.16.16 3.058-.71.71-.685 1.508-1.055 2.574-.558.38.174 1.006.072 1.481-.049 1.868-.469 3.427-.158 5.197.571 1.597.657 3.7.456 5.586.473 2.859.023 5.728-.106 8.59-.128.292-.003.575.263 1.15.55-.647.283-.995.546-1.357.577-2.339.2-4.702-.19-7.035.531-.354.112-.86-.062-1.243-.209-1.48-.57-2.858-.389-4.171.518-.235.165-.484.327-.752.439-1.563.639-2.46.387-3.448-.958-2.252.174-4.518.338-6.778.538-.408.037-.96.142-1.18.396-.732.838-1.72.733-2.649.828-1.282.132-2.623-.157-3.782.738-.197.15-.95.075-.996-.045-.504-1.405-1.627-.63-2.566-.586-1.175.06-2.35.04-3.528.068-1.996.047-2.16.195-2.309 2.039-.118 1.477-.598 1.888-2.454 1.959-5.159.2-10.319.369-15.478.561-.804.03-1.607.12-2.42.338 3.929.456 7.912.11 11.867.008 4.052-.102 8.111-.37 12.164-.5 4.05-.132 8.1-.183 12.412-.272-1.562 1.149-3.872-.114-4.958 1.976.592.11 1.05.272 1.513.265 3.096-.057 6.192-.133 9.287-.243 1.285-.045 2.45-.059 3.357.988.31.366 1.174.472 1.791.462 5.895-.105 11.785-.296 17.677-.382 2.87-.042 5.73.13 8.602.12 2.43-.009 4.865-.113 7.296-.218.835-.036 1.774.098 2.214-.965.095-.234.925-.32 1.411-.335 1.403-.045 2.804 0 4.204-.024 1.747-.03 2.915-.628 3.084-1.53.155-.848-1.094-1.951-2.585-2.276-.405-.09-.82-.167-1.231-.249l.077-.41 6.119.645c-.502-2.415-2.47-2.873-4.608-3.262.72-1.068 1.514-1.586 2.697-1.736"/>
                    </g>
                    <g transform="translate(-755 -1003) translate(755.892 1003.74) matrix(-1 0 0 1 266 556)">
                        <path fill="#FFEADA" d="M194.258 28.585c-.245.063-.532-.037-.804-.067l.01-.415c.46-.083.92-.168 1.38-.254.05.098.095.195.144.292-.242.155-.465.376-.73.444m5.823-9.47c-2.876.164-5.751.278-8.63.402-6.337.27-12.682.624-19.019.778-5.303.127-10.605.114-15.9-.012-8.536-.201-17.055-.51-25.622-.247-7.74.24-15.48.26-23.214.276-6.631.013-13.26-.018-19.876-.215-5.735-.171-11.447-.6-17.168-.93-.61-.037-1.209-.189-1.813-.288.023-.14.048-.283.068-.42.978.032 1.951.079 2.93.1.955.016 1.917-.034 2.872.006 6.905.271 13.802.692 20.717.8 5.809.09 11.64-.193 17.46-.285 4.79-.076 9.576-.105 14.365-.17 3.755-.052 7.513-.13 11.267-.195 1.248-.02 2.504-.093 3.748-.047 9.835.344 19.667.727 29.548.233 7.74-.385 15.48-.702 23.216-.997 1.074-.04 2.146.283 3.228.353.774.055 1.56-.017 2.341-.048.462-.02.922-.07 1.562-.12-.449 1.141-1.36.985-2.08 1.026m-138.567-1.03c1.732-.455 2.92-.242 4.594.316-1.794.449-3.001.407-4.594-.315m-2.879.228c-5.326-.33-10.688-.365-15.969-1.172 1.757-.656 3.494-.153 5.23-.13 1.828.025 3.648.167 5.474.269 1.787.1 3.572.21 5.362.315l-.097.718m-4.888 8.383c-1.84-.11-3.68-.217-5.522-.329l.006-.544c1.95-.517 3.753-.003 5.57.418-.018.15-.034.3-.054.455m-9.048-3.312c-1.364-.098-2.785-.046-3.994-1.36.597-.085 1.202-.265 1.788-.242 2.703.108 5.402.258 8.097.427.775.048 1.923.015 1.78.975-.16 1.065-1.272.592-2.003.554-1.893-.096-3.781-.218-5.668-.354m-.086 2.654c-.091.004-.188-.146-.281-.227.125-.115.252-.226.44-.396.16.197.265.324.371.45-.175.064-.351.162-.53.173m14.826.458c1.206-.526 2.256-.112 3.327.18-.022.165-.045.327-.066.493-1.096-.064-2.192-.126-3.285-.193l.024-.48M38.735 25.6c-1.153-.105-2.305-.208-3.457-.314.03-.175.064-.352.097-.528l3.438.359-.078.483m-.969-3.013c-1.243.489-2.063.426-2.651-.526 1.485-.818 1.485-.818 2.651.526m-9.647 5.346c-.249.015-.505-.102-.758-.158l.081-.396c.443.003.883.002 1.325.005.023.096.052.189.076.285-.242.093-.48.246-.724.264m234.483-5.298c1.442-.183 2.888-.618 3.218-2.108.341-1.497-.577-2.545-1.979-3.19-1.28-.594-2.616-1.092-4.169-1.735.61-.287 1.07-.507 1.682-.801-.25-.23-.4-.5-.62-.546-2.687-.593-5.35-1.375-8.092-1.67-4.725-.505-9.496-.885-14.272-.985-8.083-.168-16.185-.072-24.28-.097-5.003-.015-10.005-.08-15.012-.055-1.314.006-2.631.305-3.953.418-.93.078-1.866.094-2.796.094-2.2 0-4.4-.06-6.6-.028-1.838.029-3.675.16-5.509.237-.367.016-.75-.084-1.099-.006-3.17.679-6.32.294-9.48.265-2.792-.027-5.604.235-8.394.187-5.302-.09-10.586-.425-15.89-.452-6.332-.033-12.683.25-19.014.224-11.416-.05-22.863.686-34.255.051-7.919-.44-15.85-.759-23.769-1.201-8.798-.487-17.594-1.01-26.38-1.608-1.726-.121-3.389-.709-5.103-.981-.906-.144-1.884-.213-2.8-.084-2.367.336-4.627.492-6.952-.258-1.377-.442-3.044-.232-4.583-.286-1.847-.067-3.621-.21-5.25-1.139-.73-.417-1.818-.362-2.75-.473-.558-.066-1.129-.038-1.651-.052-.06-.269-.146-.409-.11-.518.615-1.862.168-2.688-1.887-2.723-1.655-.025-2.82-.355-3.446-1.811C7.063.509 6.33.037 5.288.364 4.237.69 4.082 1.469 4.162 2.33c.005.043.013.088.02.132.72.147 1.142 1.07.324 1.518-.217.12-.416.242-.628.36-.148.247-.318.479-.517.682.322.098.639.206.978.267.792.147 1.011 1.112.308 1.55-1.495.924-2.634 2.038-3.755 3.238 3.343 1.167 2.999 3.343.64 5.622.896.194 1.778.413 2.714.499.488.045.861.574.718 1.001-.473 1.431-.556 2.885-1.086 4.256 1.528-.008 3.03-.017 4.564-.418.679-.179 1.39.29 1.214.965-.32 1.221-3.098 8.43-4.31 8.424.843.004 1.265.783.741 1.41-.223.267-.431.546-.641.82.26-.14.518-.29.77-.456.673-.354 1.366-.036 1.468.634.167 1.085.458 2.148.68 3.222.851.069 1.69.166 2.536.202.074-.686.428-1.424 1.066-2.127.76-.833 1.697-.86 2.613-.508 1.465.563 2.944.69 4.522.332.424-.095.914-.14 1.316-.04 1.601.404 3.073.606 4.325-.895.245-.292 1.105-.207 1.685-.24.556-.03 1.115.01 1.83.023-.243-1.212-1.182-1.25-1.997-1.356-1.087-.14-2.204-.143-3.281-.31-.569-.09-1.083-.402-1.575-.883 1.974-.865 3.938-1.222 5.99-1.042 4.383.383 8.755.836 13.146 1.157 4.392.321 8.8.52 13.201.767 3.739.212 7.493.34 11.22.64 11.193.893 22.406 1.615 33.689 1.614 5.301 0 10.605-.082 15.911-.143.792-.01 1.584-.116 2.436-.488-.348-.1-.696-.283-1.05-.281-2.354.001-4.715.08-7.071.065-5.593-.03-11.186-.073-16.777-.159-2.058-.031-4.142-.045-6.155-.34-2.443-.357-4.907-.292-7.363-.426-7.624-.421-15.232-1.014-22.85-1.499-3.077-.196-6.172-.24-9.248-.445-2.486-.166-4.961-.444-7.43-.718-.756-.081-1.23-.528-.912-1.264.309-.718.892-.444 1.479-.279 2.584.71 5.19 1.014 7.957.427 2.576-.544 5.13-.114 7.664.275.772.115 1.574.103 2.361.165.726.057 1.492.016 2.159.22 2.161.66 4.355.862 6.665.646.921-.086 1.867.17 2.8.275.791.088 1.629.396 2.36.238 3.714-.8 7.349-.17 11.009-.053 3.304.105 6.6.327 9.904.47.629.027 1.273-.089 1.957-.488-.437-.096-.865-.25-1.308-.275-7.185-.43-14.378-.823-21.56-1.275-1.104-.072-2.361.064-3.333-.9.305-.232.496-.471.73-.529.423-.1.892-.168 1.311-.113 3.222.443 6.41.798 9.745.64 3.967-.187 7.938.186 11.903.317.37.012.776-.066 1.096.042 2.423.832 4.89.447 7.383.08 1.01-.147 2.057.014 3.088-.019.917-.029 1.833-.134 2.76-.37-1.268-.632-2.498-1.291-4.04-.63-.193.082-.456.123-.655.079-3.162-.75-6.412.158-9.638-.125-6.054-.531-12.179-.588-18.262-.942-5.793-.335-11.57-.8-17.358-1.21-.146-.009-.295-.024-.434-.059-.759-.186-1.873-.263-1.625-1.214.27-1.024 1.295-.523 2.06-.462 2.188.171 4.38.308 6.57.46 6.221.443 12.438.926 18.666 1.306 3.806.233 7.632.31 11.45.453.366.013.735.015 1.103-.006 3.51-.195 7.021-.406 10.533-.586.809-.043 1.62.036 2.43.017 2.273-.054 4.546-.058 6.813-.231.836-.063 1.647-.545 2.12-.71 3.022.302 5.752.676 8.506.82 2.12.11 4.274-.076 6.411-.115 5.818-.108 11.639-.235 17.456-.293 4.031-.037 8.055.093 12.082.016.975-.018 1.997-.487 2.937-.883 1.278-.54 2.538-.667 3.89-.496 1.01.129 2.053.101 3.08.161.51.03 1.183-.071 1.496.179 1.89 1.492 4.224.584 6.335.789.646.064 1.434-.293 2.057-.624 2.697-1.436 5.316-1.402 7.961-.186.656.3 1.414.423 2.123.624.088-.12.177-.239.267-.358-.243-.337-.486-.67-.728-1.008.088-.102.17-.285.263-.293 2.995-.25 5.97-.622 8.78.759.856.42 2.139.173 3.23.213.857.03 1.74-.07 2.572.06 1.157.181 2.16.16 3.058-.71.71-.685 1.508-1.055 2.574-.558.38.174 1.006.072 1.481-.049 1.868-.469 3.427-.158 5.197.571 1.597.657 3.7.456 5.586.473 2.859.023 5.728-.106 8.59-.128.292-.003.575.263 1.15.55-.647.283-.995.546-1.357.577-2.339.2-4.702-.19-7.035.531-.354.112-.86-.062-1.243-.209-1.48-.57-2.858-.389-4.171.518-.235.165-.484.327-.752.439-1.563.639-2.46.387-3.448-.958-2.252.174-4.518.338-6.778.538-.408.037-.96.142-1.18.396-.732.838-1.72.733-2.649.828-1.282.132-2.623-.157-3.782.738-.197.15-.95.075-.996-.045-.504-1.405-1.627-.63-2.566-.586-1.175.06-2.35.04-3.528.068-1.996.047-2.16.195-2.309 2.039-.118 1.477-.598 1.888-2.454 1.959-5.159.2-10.319.369-15.478.561-.804.03-1.607.12-2.42.338 3.929.456 7.912.11 11.867.008 4.052-.102 8.111-.37 12.164-.5 4.05-.132 8.1-.183 12.412-.272-1.562 1.149-3.872-.114-4.958 1.976.592.11 1.05.272 1.513.265 3.096-.057 6.192-.133 9.287-.243 1.285-.045 2.45-.059 3.357.988.31.366 1.174.472 1.791.462 5.895-.105 11.785-.296 17.677-.382 2.87-.042 5.73.13 8.602.12 2.43-.009 4.865-.113 7.296-.218.835-.036 1.774.098 2.214-.965.095-.234.925-.32 1.411-.335 1.403-.045 2.804 0 4.204-.024 1.747-.03 2.915-.628 3.084-1.53.155-.848-1.094-1.951-2.585-2.276-.405-.09-.82-.167-1.231-.249l.077-.41 6.119.645c-.502-2.415-2.47-2.873-4.608-3.262.72-1.068 1.514-1.586 2.697-1.736"/>
                    </g>
                    <g>
                        <g>
                            <path fill="#FFF" d="M6.446 33.087C2.9 33.087 0 30.2 0 26.675v-9.659c0-3.526 2.9-6.411 6.446-6.411h14.573c3.545 0 6.446 2.885 6.446 6.411v9.66c0 3.525-2.9 6.41-6.446 6.41H6.446zM27.887 22.058L31.69 27.996 27.887 26.943zM113.593 17.392h-7.891c-3.523 0-6.406-2.94-6.406-6.532V6.532c0-3.592 2.883-6.532 6.406-6.532h7.891C117.117 0 120 2.94 120 6.532v4.328c0 3.592-2.883 6.532-6.407 6.532" transform="translate(-755 -1003) translate(755.892 1003.74) translate(91.582 343.26) translate(.527)"/>
                            <path stroke="#FA8AC9" stroke-width=".793" d="M9.296 29.269c2.398-2.493 4.492-5.29 6.218-8.308.85-1.485 1.625-3.299.933-4.867-.401-.908-1.297-1.573-2.268-1.662-.971-.088-1.977.417-2.483 1.269-.8 1.346-.274 3.084.378 4.512 1.494 3.27 3.57 6.532 6.095 9.056" transform="translate(-755 -1003) translate(755.892 1003.74) translate(91.582 343.26) translate(.527)"/>
                            <path fill="#C76A4A" d="M84.507 211.67L84.302 218.457 77.735 218.457 77.324 211.67z" transform="translate(-755 -1003) translate(755.892 1003.74) translate(91.582 343.26) translate(.527)"/>
                            <path fill="#211D1F" d="M74.954 223.547c-1.33 3.65-1.745 7.615-1.2 11.453 1.242.002 2.272-.107 3.282-.612 1.008-.506 2.113-1.057 3.221-.824 1.127.237 2.122 1.427 3.224 1.427 1.556 0 2.738-1.588 4.291-1.506 1.314.068 2.366 1.515 3.662 1.515 1.743 0 3.215-1.95 4.883-1.459.543.16.97.56 1.426.891.456.33 1.044.64 1.593.501.713-.18 1.177-1.047 1.91-.989.75.06 1.2 1.056 2.02 1.056.563 0 .671-1.005.677-1.556.022-2.143-.484-4.29-1.463-6.207-.446-.874-1.072-1.764-2.03-2.038-6.125-1.752-12.705 1.644-19.064 1.119-1.176-.098-2.364-.227-3.472-.626s-2.38-1.14-2.96-2.145" transform="translate(-755 -1003) translate(755.892 1003.74) translate(91.582 343.26) translate(.527)"/>
                            <path fill="#958B8B" d="M81.353 217.922c1.19-.118 2.234-1.14 2.393-2.344.058-.436.01-.885.11-1.314.097-.428.403-.859.835-.895.603-.051.977.625 1.245 1.176 1.068 2.2 2.93 3.992 5.152 4.957 1.262.548 2.617.833 3.946 1.185 1.328.352 2.663.786 3.786 1.588 1.123.801 2.021 2.025 2.15 3.413.144 1.54-.706 3.071-1.952 3.96-1.247.89-2.833 1.192-4.353 1.092-1.52-.101-2.992-.579-4.414-1.136-1.29-.504-2.627-1.09-4-.931-1.083.125-2.06.702-3.11.993-2.353.653-5.055-.29-6.514-2.275-1.122-1.527-1.496-3.516-1.402-5.42.094-1.903.616-3.754 1.135-5.586.169-.593.388-1.226 1.033-1.413.34-.099.674-.071.9.222.496.648.427 1.514 1.096 2.091.532.46 1.267.705 1.964.637" transform="translate(-755 -1003) translate(755.892 1003.74) translate(91.582 343.26) translate(.527)"/>
                            <path fill="#211D1F" d="M84.93 212.942L77.746 212.942 77.851 214.215z" transform="translate(-755 -1003) translate(755.892 1003.74) translate(91.582 343.26) translate(.527)"/>
                            <path fill="#C76A4A" d="M46.479 211.67L46.274 218.457 39.706 218.457 39.296 211.67z" transform="translate(-755 -1003) translate(755.892 1003.74) translate(91.582 343.26) translate(.527)"/>
                            <path fill="#211D1F" d="M36.926 223.547c-1.33 3.65-1.745 7.615-1.2 11.453 1.242.002 2.272-.107 3.281-.612 1.009-.506 2.114-1.057 3.222-.824 1.127.237 2.123 1.427 3.225 1.427 1.555 0 2.737-1.588 4.29-1.506 1.314.068 2.366 1.515 3.662 1.515 1.742 0 3.215-1.95 4.883-1.459.544.16.97.56 1.426.891.456.33 1.044.64 1.593.501.713-.18 1.178-1.047 1.911-.989.749.06 1.2 1.056 2.019 1.056.563 0 .671-1.005.677-1.556.022-2.143-.484-4.29-1.463-6.207-.446-.874-1.072-1.764-2.03-2.038-6.125-1.752-12.706 1.644-19.063 1.119-1.177-.098-2.365-.227-3.473-.626-1.108-.399-2.38-1.14-2.96-2.145" transform="translate(-755 -1003) translate(755.892 1003.74) translate(91.582 343.26) translate(.527)"/>
                            <path fill="#958B8B" d="M43.747 217.922c1.19-.118 2.234-1.14 2.393-2.344.058-.436.011-.885.11-1.314.098-.428.404-.859.835-.895.603-.051.978.625 1.245 1.176 1.069 2.2 2.931 3.992 5.153 4.957 1.261.548 2.616.833 3.945 1.185 1.33.352 2.663.786 3.786 1.588 1.124.801 2.021 2.025 2.15 3.413.144 1.54-.705 3.071-1.952 3.96-1.247.89-2.832 1.192-4.353 1.092-1.52-.101-2.992-.579-4.414-1.136-1.29-.504-2.627-1.09-4-.931-1.083.125-2.06.702-3.11.993-2.352.653-5.055-.29-6.513-2.275-1.123-1.527-1.496-3.516-1.402-5.42.093-1.903.616-3.754 1.135-5.586.168-.593.388-1.226 1.033-1.413.34-.099.673-.071.899.222.496.648.428 1.514 1.096 2.091.532.46 1.268.705 1.964.637" transform="translate(-755 -1003) translate(755.892 1003.74) translate(91.582 343.26) translate(.527)"/>
                            <path fill="#211D1F" d="M46.479 212.942L39.296 212.942 39.397 214.215z" transform="translate(-755 -1003) translate(755.892 1003.74) translate(91.582 343.26) translate(.527)"/>
                            <path fill="#EBACA2" d="M31.69 212.942c-.667-7.418 2.3-14.478 2.995-22.21.695-7.732.899-14.01 1.262-19.626.363-5.615.968-6.753 1.736-15.25.304-6.791.465-10.29.845-14.202.163-1.668.392-2.945.392-5.062 0-7.429.133-9.012.675-13.228.542-4.216 1.176-10.768 2.236-15.666 1.06-4.9 2.46-13.546 5.131-17.77 6.06-1.298 10.885-.56 16.184 2.691 3.208 8.187 3.134 17.342 2.231 26.102-1.304 12.644-6.222 25.098-7.434 37.984-1.057 14.413-1.073 37.555-7.239 56.237H31.69z" transform="translate(-755 -1003) translate(755.892 1003.74) translate(91.582 343.26) translate(.527)"/>
                            <path fill="#EBACA2" d="M88.518 150.715c.637 20.667 5.77 42.245 1.482 62.651l-14.552-.424c-1.663-10.106-3.43-19.943-5.092-30.049-.683-4.153-1.036-8.21-1.414-12.505-.138-1.568-.328-3.114-.398-4.32-.17-2.916-.313-4.637-.501-8.813-.848-5.76-1.429-11.125-2.128-15.66-1.6-10.398-2.738-14.534-5.026-22.255-2.29-7.72-3.235-16.182-.414-23.726 2.384-6.375 12.31-6.274 19.014-4.99 6.414 17.251 7.929 38.965 9.03 60.091z" transform="translate(-755 -1003) translate(755.892 1003.74) translate(91.582 343.26) translate(.527)"/>
                            <path fill="#FADCDF" d="M60.015 47.933c-2.646.049-5.359.153-8.004.202-1.11.02-2.29.061-3.212.672-.71.47-1.18 1.233-1.444 2.037-.263.804-.292 1.66-.393 2.499-1.328 11.007 3.774 26.35 2.424 29.26-1.418 3.061-2.424 7.325-2.424 7.325 10.483 5.387 21.959 5.35 32.96 1.097 0 0-1.711-3.447-1.77-5.353-.073-2.333.939-4.438 1.555-6.659 1.196-.7 2.352-1.361 3.4-2.265 1.047-.905 1.943-2.027 2.365-3.34.553-1.72.252-3.587-.143-5.35-1.29-5.762-3.542-11.312-6.633-16.357-2.138-.771-4.653-1.706-6.915-1.94l-11.766-1.828z" transform="translate(-755 -1003) translate(755.892 1003.74) translate(91.582 343.26) translate(.527)"/>
                            <path fill="#FADCDF" d="M78.656 51.75c1.708.766 3.776 1.799 5.116 3.415 1.34 1.616 2.268 3.532 3.077 5.471 1.765 4.238 3.013 8.693 3.708 13.232.26-1.473 1.203-2.696 2.313-3.697s2.423-1.743 3.725-2.476l13.186-7.427c1.918.861 3.522 2.484 4.304 4.44-5.502 7.274-11.529 14.145-18.38 20.158-1.975 1.733-4.278 3.507-6.9 3.356-1.672-.096-3.224-.999-4.392-2.204-1.167-1.206-1.992-2.699-2.718-4.213C79.43 77.083 78 71.96 77.487 66.747c-.481-4.891.16-10.186 1.17-14.996" transform="translate(-755 -1003) translate(755.892 1003.74) translate(91.582 343.26) translate(.527)"/>
                            <path fill="#DD967D" d="M17.324 54.363c-.36-1.637-1.767-3.01-3.449-3.366-1.681-.357-3.548.321-4.577 1.663-.227.298-.422.642-.425 1.014-.004.476.304.896.615 1.265.95 1.126 1.927 1.918 3.157 2.75.86-.407 1.898-.626 2.687-1.152.788-.526 1.513-1.369 1.992-2.174" transform="translate(-755 -1003) translate(755.892 1003.74) translate(91.582 343.26) translate(.527)"/>
                            <path fill="#DD967D" d="M16.862 54.296c.19-2.21-.305-4.477-1.472-6.358-.077-.123-.159-.248-.275-.334-.117-.086-.278-.127-.41-.066-.194.089-.243.34-.254.556-.029.527.015 1.059.13 1.574-.367.389-.596.907-.637 1.442.66 1.252 1.685 2.503 2.918 3.186M13.521 51.222c-.797-1.164-1.697-2.239-2.684-3.202-.18-.177-.377-.357-.614-.401-.236-.044-.597.186-.56.501-.182-.267-.53-.511-.838-.584-.13-.032-.274-.047-.393.024-.205.122-.186.674-.133.88-.212-.216-.47-.592-.793-.614-.323-.023-.578.051-.667.4-.064.25.023.586.097.818-.105-.141-.315-.136-.44-.017-.124.117-.17.316-.155.498.014.182.081.353.15.52.58 1.411 1.096 3.069 1.995 4.251 1.787-.326 3.736-1.658 5.035-3.074" transform="translate(-755 -1003) translate(755.892 1003.74) translate(91.582 343.26) translate(.527)"/>
                            <path fill="#FADCDF" d="M48.438 49.216c-6.723 5.977-12.355 12.55-16.049 20.807-.492-2.397-2.643-3.796-4.593-5.239-3.935-2.91-7.564-6.997-10.856-10.545-1.91.23-3.622 1.78-4.686 3.405 4.114 7.98 9.098 15.55 14.697 22.539.972 1.213 1.979 2.422 3.235 3.327 1.256.904 2.804 1.485 4.333 1.29 2.097-.27 3.748-1.9 5.13-3.523 3.078-3.617 5.768-8.101 7.782-12.42 3.007-6.444 4.093-13.411 1.842-20.164l-.835.523z" transform="translate(-755 -1003) translate(755.892 1003.74) translate(91.582 343.26) translate(.527)"/>
                            <path fill="#DD967D" d="M59.577 48.148s2.057 12.51 10.702 12.51c5.423 0 1.354-10.648 1.354-10.648-.122-.317-.26-.604-.413-.875-.421-1.086-.988-2.48-1.203-3.415-.283-1.335-.397-2.48-.397-3.287 0-.114.007-.22.015-.31l-8.224-6.491c.176 2.865-.762 9.486-1.834 12.516" transform="translate(-755 -1003) translate(755.892 1003.74) translate(91.582 343.26) translate(.527)"/>
                            <path fill="#211D1F" d="M69.718 44.964c-3.066-1.434-5.44-4.119-6.338-7.211 1.757 1.585 3.822 2.919 5.94 4.1-.004.77.109 1.851.398 3.11" transform="translate(-755 -1003) translate(755.892 1003.74) translate(91.582 343.26) translate(.527)"/>
                            <path fill="#DD967D" d="M63.018 25.112c2.183-1.059 4.651-1.516 7.067-1.309 2.416.208 4.77 1.248 6.74 2.663.743 3.948 1.039 7.98.88 11.996-.051 1.302-.182 2.69-.99 3.712-.557.702-1.388 1.153-2.258 1.36-.87.207-1.78.187-2.667.07-3.685-.484-7.67-3.427-9.637-6.589l-.04-3.368c.053-.785.108-1.57.162-2.354l.743-6.18z" transform="translate(-755 -1003) translate(755.892 1003.74) translate(91.582 343.26) translate(.527)"/>
                            <path fill="#DD967D" d="M64.648 34.36c0 1.873-1.419 3.393-3.169 3.393s-3.17-1.52-3.17-3.394 1.42-3.393 3.17-3.393 3.169 1.519 3.169 3.393" transform="translate(-755 -1003) translate(755.892 1003.74) translate(91.582 343.26) translate(.527)"/>
                            <path stroke="#231F20" stroke-linecap="round" stroke-linejoin="round" stroke-width=".665" d="M73.099 32.238c.03.881.217 1.753.544 2.533.165-.13.425-.103.564.069.138.172.186.44.145.68-.04.24-.159.45-.307.607-.149.158-.326.266-.508.353" transform="translate(-755 -1003) translate(755.892 1003.74) translate(91.582 343.26) translate(.527)"/>
                            <path fill="#231F20" d="M71.408 32.662c0 .469-.377.849-.844.849-.468 0-.846-.38-.846-.849 0-.468.378-.848.846-.848.467 0 .844.38.844.848M76.901 32.662c0 .469-.377.849-.844.849-.468 0-.846-.38-.846-.849s.378-.848.846-.848c.467 0 .844.38.844.848" transform="translate(-755 -1003) translate(755.892 1003.74) translate(91.582 343.26) translate(.527)"/>
                            <path fill="#FFF" d="M71.565 40.296c-.983-.047-1.943-.483-2.628-1.193-.168-.175-.321-.368-.41-.593-.09-.224-.109-.486-.01-.707.127-.285.439-.462.75-.474.311-.011.615.124.854.325.238.201.417.464.57.737.143.256.276.536.522.696.2.131.45.163.661.273.194.101.43.409.37.646-.072.276-.454.3-.679.29" transform="translate(-755 -1003) translate(755.892 1003.74) translate(91.582 343.26) translate(.527)"/>
                            <path fill="#512E4E" d="M71.945 29.617c-.218-.12-.507-.18-.791-.227-1.151-.185-2.394-.158-3.52.077-.13.027-.264.06-.357.121-.093.062-.13.161-.05.229.079.065.228.077.36.083l3.791.185c.19.01.713.084.838-.033.135-.125-.128-.356-.271-.435M77.066 30.041c-.18-.12-.421-.18-.659-.226-.959-.185-1.994-.158-2.932.076-.11.028-.221.06-.298.121-.078.062-.109.162-.041.23.064.064.189.076.3.082l3.158.185c.16.01.595.085.699-.033.112-.125-.107-.356-.227-.435" transform="translate(-755 -1003) translate(755.892 1003.74) translate(91.582 343.26) translate(.527)"/>
                            <path stroke="#231F20" stroke-linecap="round" stroke-linejoin="round" stroke-width=".665" d="M75.634 32.238c-.5.028-.982.351-1.268.849" transform="translate(-755 -1003) translate(755.892 1003.74) translate(91.582 343.26) translate(.527)"/>
                            <path stroke="#F7AC00" stroke-linecap="round" stroke-linejoin="round" stroke-width=".665" d="M68.028 33.298c0 1.289 1.04 2.334 2.324 2.334 1.283 0 2.324-1.045 2.324-2.334 0-1.288-1.04-2.332-2.324-2.332-1.283 0-2.324 1.044-2.324 2.332zM74.366 33.299c0 1.288 1.04 2.333 2.324 2.333 1.283 0 2.324-1.045 2.324-2.333 0-1.289-1.04-2.333-2.324-2.333-1.284 0-2.324 1.044-2.324 2.333zM72.676 32.993c.131-.45.376-.782.644-.753.267.029.52.37.624.847M67.606 33.087c-1.58-.297-2.224-.553-3.803-.849" transform="translate(-755 -1003) translate(755.892 1003.74) translate(91.582 343.26) translate(.527)"/>
                            <path fill="#512E4E" d="M71.649 26.715c-.589.603-1.437.864-2.265.984-.827.126-1.676.13-2.487.343-1.634.424-3.029 1.713-3.613 3.333-.047.13-.09.267-.132.403-.482-.332-1.066-.517-1.686-.517-1.714 0-3.104 1.42-3.104 3.176 0 1.757 1.39 3.182 3.104 3.182.185 0 .37-.017.551-.054.1 1.011.111 2.033.037 3.045-.053.69-.185 1.447-.71 1.876-.558.452-1.348.38-2.054.289-1.564-.213-3.32-.54-4.21-1.872-.807-1.218-.605-2.838-.334-4.28.604-3.191 1.389-6.34 2.36-9.435.7-2.225 1.1-5.065 2.973-6.391 1.427-1.013 4.016-1.616 5.74-1.703 1.48-.077 3.496.687 4.806 1.383 1.31.701 1.634 2.404 1.369 3.894.482.701.25 1.735-.345 2.344" transform="translate(-755 -1003) translate(755.892 1003.74) translate(91.582 343.26) translate(.527)"/>
                            <path fill="#512E4E" d="M75.48 20.618c1.182.393 2.122 1.402 2.62 2.582.497 1.18.582 2.515.411 3.79-.057.43-.161.888-.482 1.165-.357.308-.873.298-1.332.219-1.407-.243-2.727-1.003-3.67-2.114-.872-1.029-1.323-2.264-1.537-3.6-.192-1.197-.103-1.946.902-2.215.671-.18 2.426-.047 3.087.173M67.37 15.896c-.815-.969-2.019-1.585-3.276-1.807-1.445-.254-3.015.018-4.177.9-1.162.882-1.842 2.41-1.533 3.824.281 1.286 1.329 2.331 2.564 2.83 1.235.5 2.632.505 3.94.241 1.296-.261 2.847-.966 3.39-2.265.491-1.17-.147-2.818-.908-3.723" transform="translate(-755 -1003) translate(755.892 1003.74) translate(91.582 343.26) translate(.527)"/>
                            <path stroke="#FA8AC9" stroke-width=".926" d="M73.944 69.567c1.616-1.773 3.002-3.738 4.115-5.837.55-1.034 1.03-2.285.473-3.314-.323-.595-.99-1.008-1.69-1.029-.697-.021-1.397.358-1.725.952-.518.937-.072 2.087.452 3.022 1.199 2.143 2.804 4.076 4.713 5.676" transform="translate(-755 -1003) translate(755.892 1003.74) translate(91.582 343.26) translate(.527)"/>
                            <path stroke="#211D1F" stroke-linecap="round" stroke-linejoin="round" stroke-width=".5" d="M32.535 69.567c.712 1.631.98 3.376.782 5.09M90 73.384c-.457 1.616-.744 3.34-.845 5.09M63.38 78.899c4.186.896 8.456 1.084 12.676.556M79.86 97.12c-10.74 3.462-22.724 2.697-32.959-2.102" transform="translate(-755 -1003) translate(755.892 1003.74) translate(91.582 343.26) translate(.527)"/>
                            <path stroke="#211D1F" stroke-linecap="round" stroke-linejoin="round" stroke-width=".5" d="M68.815 94.17c.155 5.053.31 10.107.463 15.161.055 1.774.048 3.74-1.052 5.065-1.44 1.734-3.975 1.518-6.113 1.16M38.45 209.922c2.787-.366 5.644-.421 8.451-.164M76.056 209.973c2.863-1.014 5.963-1.122 8.874-.31" transform="translate(-755 -1003) translate(755.892 1003.74) translate(91.582 343.26) translate(.527)"/>
                            <path stroke="#211D1F" stroke-linecap="round" stroke-linejoin="round" stroke-width=".396" d="M96.314 210.785c.19-.262.38-.535.433-.838.054-.303-.055-.643-.362-.818-.267-.153-.632-.15-.938-.056-.305.094-.563.267-.81.441-2.838 2-5.83 5.56-7.211 8.41 1.794-2.214 3.842-5.69 4.546-8.284.09-.329.17-.669.097-1-.073-.332-.332-.658-.726-.757-.365-.091-.77.03-1.057.235-.288.206-.478.486-.654.763-1.587 2.495-2.552 5.364-2.59 8.186-.019 1.427 1.5 1.022 2.423.375 1.273-.894 2.463-1.867 3.556-2.908 1.226-1.17 2.33-2.424 3.293-3.749zM58.708 211.21c.19-.263.38-.536.434-.838.054-.303-.056-.644-.362-.82-.268-.152-.633-.15-.938-.055-.305.094-.563.267-.81.441-2.839 2-5.83 5.561-7.211 8.41 1.793-2.214 3.841-5.69 4.545-8.284.09-.328.17-.669.097-1-.072-.333-.331-.658-.725-.757-.365-.092-.77.03-1.058.235-.287.206-.477.485-.653.763-1.588 2.495-2.552 5.364-2.59 8.186-.02 1.427 1.5 1.022 2.422.375 1.274-.894 2.463-1.867 3.556-2.908 1.226-1.169 2.33-2.424 3.293-3.749z" transform="translate(-755 -1003) translate(755.892 1003.74) translate(91.582 343.26) translate(.527)"/>
                            <path stroke="#211D1F" stroke-linecap="round" stroke-linejoin="round" stroke-width=".5" d="M94.225 231.606c-1.589-3.148-3.9-5.901-6.688-7.972-.998-.74-2.083-1.406-3.285-1.67-1.203-.266-2.547-.08-3.493.732-1.158.994-1.501 2.734-1.24 4.267.263 1.533 1.03 2.915 1.785 4.262M55.775 231.606c-1.59-3.148-3.9-5.901-6.688-7.972-1-.74-2.084-1.406-3.286-1.67-1.203-.266-2.546-.08-3.493.732-1.157.994-1.501 2.734-1.24 4.267.262 1.533 1.03 2.915 1.786 4.262" transform="translate(-755 -1003) translate(755.892 1003.74) translate(91.582 343.26) translate(.527)"/>
                            <g transform="translate(-755 -1003) translate(755.892 1003.74) translate(91.582 343.26) translate(.527)">
                                <use fill="#000" filter="url(#bvw1zztd0c)" xlink:href="#pzy4kxlp4d"/>
                                <use fill="#FFF" xlink:href="#pzy4kxlp4d"/>
                            </g>
                            <g>
                                <g transform="translate(-755 -1003) translate(755.892 1003.74) translate(91.582 343.26) translate(.527) translate(41.046 6.787) translate(.362)">
                                    <mask id="zgq94msybf" fill="#fff">
                                        <use xlink:href="#7x8dhxyibe"/>
                                    </mask>
                                    <path fill="#512E4E" d="M-4.192 43.646L57.009 43.646 57.009 -4.197 -4.192 -4.197z" mask="url(#zgq94msybf)"/>
                                </g>
                                <g transform="translate(-755 -1003) translate(755.892 1003.74) translate(91.582 343.26) translate(.527) translate(41.046 6.787) translate(17.264 13.574)">
                                    <mask id="vaw3gqsw0h" fill="#fff">
                                        <use xlink:href="#ecbb1c79bg"/>
                                    </mask>
                                    <path fill="#DD967D" d="M-4.127 31.375L27.238 31.375 27.238 -4.155 -4.127 -4.155z" mask="url(#vaw3gqsw0h)"/>
                                </g>
                                <g transform="translate(-755 -1003) translate(755.892 1003.74) translate(91.582 343.26) translate(.527) translate(41.046 6.787) translate(35.433 23.33)">
                                    <mask id="mvml1rodbj" fill="#fff">
                                        <use xlink:href="#umwj80sjpi"/>
                                    </mask>
                                    <path fill="#564A4A" d="M-4.225 8.484L6.761 8.484 6.761 -4.242 -4.225 -4.242z" mask="url(#mvml1rodbj)"/>
                                </g>
                                <g transform="translate(-755 -1003) translate(755.892 1003.74) translate(91.582 343.26) translate(.527) translate(41.046 6.787) translate(31.207 21.634)">
                                    <mask id="uqh2c7wial" fill="#fff">
                                        <use xlink:href="#nleyl52cbk"/>
                                    </mask>
                                    <path fill="#574A4A" d="M-4.225 7.635L6.761 7.635 6.761 -4.242 -4.225 -4.242z" mask="url(#uqh2c7wial)"/>
                                </g>
                                <g transform="translate(-755 -1003) translate(755.892 1003.74) translate(91.582 343.26) translate(.527) translate(41.046 6.787) translate(37.123 21.634)">
                                    <mask id="irl7aoaegn" fill="#fff">
                                        <use xlink:href="#j2ocxicnpm"/>
                                    </mask>
                                    <path fill="#564A4A" d="M-4.225 7.635L6.761 7.635 6.761 -4.242 -4.225 -4.242z" mask="url(#irl7aoaegn)"/>
                                </g>
                                <path stroke="#8A3F40" d="M35.433 30.03s-1.689.655-3.38-1.61" transform="translate(-755 -1003) translate(755.892 1003.74) translate(91.582 343.26) translate(.527) translate(41.046 6.787)"/>
                            </g>
                        </g>
                        <path stroke="#FA8AC9" d="M106.527 15c1.892-2.015 3.543-4.276 4.905-6.715.67-1.2 1.282-2.666.736-3.934-.316-.734-1.022-1.272-1.789-1.343-.766-.071-1.56.337-1.959 1.025-.63 1.088-.216 2.494.298 3.647 1.179 2.644 2.816 5.28 4.809 7.32" transform="translate(-755 -1003) translate(755.892 1003.74) translate(91.582 343.26)"/>
                        <path fill="#DD967D" d="M114.722 64c1.101-1.073 1.942-2.26 2.957-3.475.324-.388.661-.803.74-1.307.058-.363-.027-.732-.125-1.086-.316-1.142-.784-2.24-1.386-3.255.81-1.335 1.539-2.724 2.28-4.1.172-.32.347-.661.339-1.026-.009-.365-.272-.751-.63-.751-.276 0-.501.214-.695.415l-5.14 5.324c-1.322 1.37-1.886 3.055-2.535 4.86 1.387 1.424 2.808 2.976 4.195 4.401" transform="translate(-755 -1003) translate(755.892 1003.74) translate(91.582 343.26)"/>
                    </g>
                </g>
                <text fill="#5E494C" font-family="Palatino-Roman, Palatino" font-size="30" transform="translate(-755 -1003) translate(755.892 1003.74)">
                    <tspan x="29" y="105">Breast- Self Examination App</tspan>
                </text>
                <text fill="#796B6D" font-family="Palatino-Bold, Palatino" font-size="12" font-weight="bold" transform="translate(-755 -1003) translate(755.892 1003.74)">
                    <tspan x="31.108" y="141.259">Enter Password </tspan>
                </text>
                <g stroke="#796B6D" stroke-linecap="round">
                    <path d="M0 2.677L12.389 2.677" transform="translate(-755 -1003) translate(755.892 1003.74) translate(121.108 135.26)"/>
                    <path stroke-linejoin="round" d="M10.012 0L13.164 2.677 10.012 5.034" transform="translate(-755 -1003) translate(755.892 1003.74) translate(121.108 135.26)"/>
                </g>
            </g>
        </g>
    </g>
</svg>
