<svg xmlns="http://www.w3.org/2000/svg" xmlns:xlink="http://www.w3.org/1999/xlink" width="535" height="592" viewBox="0 0 535 592">
    <defs>
        <path id="i62hsys28a" d="M2.108 555.274L267.108 555.274 267.108 591.217 2.108 591.217z"/>
    </defs>
    <g fill="none" fill-rule="evenodd">
        <g>
            <g>
                <g transform="translate(-150 -2329) translate(150 2329)">
                    <path fill="#B4B4A4" d="M0 0H535V570H0z"/>
                    <path fill="#B4B4A4" d="M454.095 583.555c-.274.063-.594-.037-.898-.067l.01-.414c.515-.083 1.028-.168 1.543-.253.055.096.106.194.16.29-.27.155-.52.376-.815.444m6.505-9.455c-3.214.163-6.425.277-9.64.4-7.079.271-14.166.624-21.244.778-5.923.127-11.846.113-17.76-.012-9.534-.2-19.05-.51-28.62-.247-8.645.24-17.29.26-25.929.276-7.407.012-14.811-.018-22.2-.215-6.406-.17-12.787-.599-19.177-.929-.683-.037-1.35-.188-2.025-.287.026-.14.053-.282.076-.42 1.092.032 2.179.08 3.272.1 1.067.016 2.142-.033 3.208.007 7.713.27 15.417.69 23.14.798 6.49.09 13.002-.192 19.503-.284 5.35-.076 10.697-.105 16.045-.17 4.195-.052 8.392-.13 12.586-.195 1.393-.02 2.797-.092 4.186-.046 10.986.343 21.967.725 33.004.233 8.646-.385 17.291-.701 25.933-.996 1.199-.04 2.397.282 3.605.352.865.055 1.742-.017 2.615-.048.516-.02 1.03-.069 1.744-.12-.5 1.14-1.519.984-2.322 1.025m-154.777-1.028c1.935-.454 3.261-.242 5.131.315-2.004.448-3.352.406-5.131-.315m-3.216.228c-5.95-.33-11.938-.365-17.837-1.17 1.963-.655 3.903-.153 5.842-.13 2.042.025 4.075.167 6.114.268 1.996.1 3.99.21 5.989.315l-.108.717m-5.46 8.37c-2.055-.11-4.11-.217-6.168-.328l.007-.544c2.179-.516 4.192-.003 6.222.417-.02.15-.039.3-.061.454m-10.106-3.306c-1.524-.097-3.11-.045-4.462-1.358.668-.085 1.343-.264 1.998-.241 3.018.108 6.033.257 9.044.426.866.048 2.148.015 1.987.973-.178 1.064-1.42.592-2.236.553-2.114-.095-4.224-.217-6.331-.353m-.097 2.65c-.101.004-.209-.146-.314-.227.14-.114.282-.225.492-.395.179.197.296.323.415.45-.196.063-.393.16-.593.172m16.561.457c1.347-.525 2.52-.112 3.717.18-.025.164-.051.327-.074.492-1.225-.064-2.449-.125-3.67-.193l.027-.479m-23.126-.896c-1.288-.104-2.575-.207-3.86-.313.033-.174.07-.352.107-.527l3.84.358-.087.482m-1.082-3.007c-1.389.487-2.304.425-2.962-.526 1.66-.816 1.66-.816 2.962.526m-10.776 5.337c-.278.015-.564-.102-.847-.158.03-.132.062-.263.091-.395.494.003.986.002 1.48.005.026.095.058.188.085.284-.27.094-.537.246-.809.264m261.913-5.29c1.611-.182 3.226-.617 3.595-2.105.381-1.494-.645-2.54-2.21-3.185-1.43-.592-2.923-1.09-4.657-1.731.68-.287 1.195-.506 1.878-.8-.279-.23-.447-.499-.691-.545-3.003-.593-5.978-1.373-9.04-1.667-5.278-.505-10.607-.885-15.942-.984-9.028-.168-18.078-.072-27.12-.097-5.589-.015-11.175-.08-16.768-.055-1.467.006-2.94.305-4.416.418-1.038.078-2.083.093-3.123.093-2.456 0-4.913-.06-7.372-.028-2.052.029-4.104.16-6.153.236-.41.016-.838-.083-1.227-.005-3.54.678-7.06.293-10.59.265-3.119-.027-6.26.234-9.376.187-5.922-.09-11.823-.425-17.748-.452-7.073-.033-14.167.25-21.239.224-12.751-.05-25.538.684-38.262.05-8.845-.439-17.704-.757-26.55-1.199-9.827-.486-19.652-1.008-29.466-1.605-1.927-.121-3.785-.708-5.699-.98-1.013-.143-2.105-.212-3.127-.084-2.645.336-5.169.492-7.766-.257-1.538-.441-3.4-.232-5.12-.286-2.062-.066-4.044-.21-5.863-1.136-.816-.417-2.03-.362-3.073-.473-.622-.066-1.26-.038-1.843-.052-.067-.268-.163-.408-.123-.517.687-1.86.187-2.683-2.108-2.719-1.849-.024-3.15-.354-3.85-1.808-.383-.793-1.2-1.264-2.366-.939-1.174.327-1.347 1.104-1.257 1.964.006.044.014.089.022.133.804.146 1.275 1.067.362 1.515-.243.12-.465.241-.701.36-.166.246-.356.477-.578.68.36.098.714.206 1.092.267.885.147 1.13 1.11.345 1.546-1.671.924-2.943 2.036-4.196 3.234 3.735 1.165 3.35 3.338.717 5.614 1 .193 1.985.411 3.03.497.545.046.962.574.803 1-.529 1.429-.622 2.88-1.213 4.25 1.706-.009 3.383-.018 5.097-.418.758-.179 1.554.29 1.356.963-.357 1.22-3.46 8.417-4.815 8.411.943.004 1.414.782.829 1.407-.25.268-.482.546-.716.819.29-.138.578-.289.86-.455.751-.353 1.526-.036 1.64.633.187 1.083.511 2.145.76 3.217.95.069 1.887.165 2.832.202.083-.685.477-1.422 1.19-2.124.849-.831 1.896-.86 2.919-.507 1.636.562 3.288.689 5.05.332.474-.095 1.022-.14 1.47-.04 1.79.403 3.433.605 4.832-.894.274-.292 1.235-.207 1.882-.239.62-.031 1.245.01 2.045.022-.272-1.21-1.32-1.248-2.231-1.354-1.215-.14-2.462-.142-3.666-.31-.634-.09-1.21-.4-1.758-.88 2.204-.865 4.399-1.22 6.69-1.041 4.895.382 9.78.835 14.685 1.155 4.905.32 9.828.519 14.745.766 4.176.212 8.369.34 12.532.64 12.503.89 25.027 1.612 37.63 1.61 5.922 0 11.846-.082 17.773-.143.883-.01 1.769-.115 2.72-.487-.389-.099-.777-.282-1.172-.28-2.63 0-5.268.08-7.899.065-6.247-.03-12.494-.074-18.74-.159-2.298-.032-4.627-.045-6.875-.34-2.728-.356-5.48-.29-8.224-.425-8.516-.42-17.013-1.012-25.522-1.496-3.438-.196-6.894-.24-10.33-.444-2.778-.167-5.542-.444-8.3-.718-.845-.081-1.374-.527-1.019-1.262.345-.717.997-.443 1.652-.278 2.887.708 5.797 1.012 8.888.426 2.877-.543 5.73-.114 8.561.275.862.115 1.758.102 2.637.165.81.056 1.667.016 2.412.219 2.414.658 4.864.86 7.444.645 1.03-.086 2.086.17 3.128.274.884.088 1.82.396 2.637.238 4.148-.798 8.207-.17 12.295-.052 3.691.104 7.373.326 11.063.468.702.028 1.422-.088 2.187-.487-.489-.096-.967-.25-1.462-.274-8.025-.43-16.06-.822-24.082-1.273-1.232-.072-2.637.064-3.723-.899.341-.231.555-.47.817-.528.471-.1.995-.168 1.463-.113 3.6.443 7.16.796 10.885.639 4.43-.186 8.866.186 13.295.317.413.012.867-.066 1.225.041 2.706.83 5.461.447 8.246.08 1.127-.146 2.298.014 3.45-.018 1.024-.03 2.047-.134 3.083-.37-1.417-.631-2.79-1.289-4.513-.629-.216.082-.51.123-.732.079-3.532-.748-7.162.157-10.766-.125-6.762-.53-13.603-.587-20.397-.94-6.471-.335-12.925-.799-19.39-1.208-.163-.009-.329-.025-.484-.059-.847-.187-2.092-.263-1.815-1.213.302-1.022 1.447-.521 2.301-.46 2.444.17 4.893.307 7.338.46 6.95.44 13.894.923 20.85 1.302 4.252.233 8.525.31 12.79.453.409.012.82.014 1.231-.006 3.922-.195 7.843-.405 11.765-.585.904-.043 1.811.035 2.714.017 2.54-.054 5.078-.058 7.611-.231.934-.063 1.84-.544 2.368-.709 3.376.301 6.424.675 9.501.818 2.368.11 4.774-.075 7.161-.114 6.5-.107 13-.235 19.499-.293 4.502-.036 8.996.094 13.494.016 1.09-.018 2.23-.486 3.28-.882 1.429-.539 2.836-.665 4.346-.494 1.128.128 2.293.1 3.441.16.57.03 1.32-.07 1.67.179 2.111 1.49 4.719.583 7.076.788.722.064 1.602-.293 2.298-.623 3.012-1.434 5.937-1.4 8.892-.186.733.299 1.58.422 2.372.623l.297-.357-.812-1.006c.098-.102.19-.285.294-.293 3.344-.25 6.668-.622 9.806.757.957.42 2.39.174 3.608.214.958.029 1.944-.07 2.874.06 1.292.18 2.413.158 3.416-.71.792-.684 1.683-1.053 2.874-.557.425.174 1.124.072 1.655-.048 2.085-.469 3.827-.158 5.804.57 1.784.655 4.134.455 6.24.471 3.193.024 6.398-.105 9.596-.127.325-.003.64.263 1.283.55-.723.282-1.111.544-1.516.576-2.612.199-5.252-.19-7.857.53-.396.111-.962-.063-1.39-.21-1.653-.568-3.191-.388-4.658.518-.263.164-.54.326-.84.438-1.746.638-2.748.387-3.851-.956-2.516.174-5.047.337-7.572.537-.455.037-1.071.141-1.318.395-.816.837-1.921.732-2.958.827-1.432.131-2.93-.157-4.225.736-.22.15-1.06.075-1.112-.045-.562-1.402-1.817-.63-2.866-.584-1.312.06-2.625.04-3.94.067-2.23.047-2.413.195-2.58 2.036-.131 1.475-.668 1.885-2.74 1.956-5.763.199-11.527.368-17.29.56-.897.03-1.795.12-2.702.338 4.387.455 8.837.11 13.255.008 4.526-.102 9.06-.37 13.586-.5 4.525-.132 9.049-.182 13.864-.27-1.744 1.146-4.324-.115-5.538 1.972.662.11 1.173.271 1.69.264 3.459-.057 6.917-.133 10.374-.242 1.435-.045 2.737-.059 3.75.987.347.365 1.311.47 2 .46 6.585-.104 13.164-.295 19.745-.38 3.206-.043 6.4.128 9.609.12 2.714-.01 5.434-.114 8.149-.218.933-.037 1.982.097 2.473-.964.105-.234 1.033-.32 1.576-.335 1.567-.044 3.131 0 4.695-.024 1.952-.03 3.257-.627 3.446-1.528.173-.846-1.222-1.947-2.889-2.272-.451-.09-.916-.166-1.374-.248l.086-.41 6.835.645c-.56-2.412-2.759-2.87-5.147-3.258.805-1.066 1.69-1.583 3.012-1.733" transform="matrix(-1 0 0 1 772.217 0)"/>
                </g>
                <text fill="#FFF" font-family="RalewayRoman-SemiBold, Raleway" font-size="36" font-weight="500" transform="translate(-150 -2329) translate(150 2329)">
                    <tspan x="30.892" y="139.741">Rebranding for an event</tspan> <tspan x="30.892" y="197.741">website</tspan>
                </text>
                <text fill="#FFF" font-family="RalewayRoman-Medium, Raleway" font-size="18" font-weight="400" transform="translate(-150 -2329) translate(150 2329)">
                    <tspan x="32" y="393">Web Design</tspan>  <tspan x="32" y="435">UI Design</tspan>  <tspan x="32" y="477">Rebranding</tspan>
                </text>
            </g>
        </g>
    </g>
</svg>
