<svg xmlns="http://www.w3.org/2000/svg" width="1556" height="229" viewBox="0 0 1556 229">
    <g fill="none" fill-rule="evenodd">
        <g fill="#FFF">
            <g>
                <path d="M53 35.571H1506V228.571H53z" transform="translate(58 -1628) translate(-58 1628)"/>
                <path d="M1132.854 85.639c-1.497.173-3.25-.102-4.91-.183.017-.379.036-.763.056-1.14 2.812-.228 5.623-.462 8.439-.697.301.266.578.535.878.8-1.476.426-2.843 1.032-4.463 1.22m34.901-27.534c-16.967.48-33.923.813-50.899 1.175-37.381.793-74.804 1.828-112.176 2.28-31.278.37-62.553.33-93.778-.038-50.346-.588-100.595-1.491-151.121-.723-45.65.705-91.3.762-136.917.81-39.113.035-78.21-.053-117.228-.63-33.824-.5-67.515-1.756-101.259-2.723-3.602-.108-7.127-.551-10.69-.842.135-.411.28-.827.402-1.232 5.765.096 11.505.234 17.277.293 5.633.048 11.308-.096 16.939.021 40.729.793 81.407 2.024 122.187 2.339 34.264.263 68.656-.564 102.98-.832 28.252-.224 56.485-.31 84.726-.498 22.15-.152 44.313-.382 66.457-.572 7.358-.06 14.766-.27 22.102-.136 58.01 1.007 115.996 2.127 174.275.683 45.654-1.127 91.3-2.055 136.93-2.918 6.333-.116 12.659.827 19.039 1.033 4.568.16 9.197-.05 13.808-.143 2.722-.057 5.434-.201 9.21-.351-2.645 3.342-8.021 2.883-12.264 3.004m-814.687-3.69c10.604-1.658 17.875-.884 28.12 1.149-10.982 1.637-18.37 1.484-28.12-1.149m-20.35.137c-31.08-.907-62.362-1.006-93.173-3.228 10.25-1.805 20.384-.421 30.515-.36 10.665.072 21.285.463 31.936.743 10.43.277 20.844.578 31.284.867-.193.665-.38 1.324-.562 1.978m-26.824 26.99c-10.306-.42-20.612-.825-30.938-1.25l.035-2.073c10.93-1.97 21.026-.014 31.21 1.59-.106.573-.196 1.145-.307 1.733m-54.65-11.84c-7.91-.291-16.144-.137-23.156-4.046 3.463-.253 6.969-.786 10.367-.717 15.668.32 31.317.767 46.947 1.268 4.492.142 11.146.045 10.312 2.898-.922 3.169-7.367 1.762-11.606 1.648-10.974-.285-21.925-.647-32.864-1.052m-.523 7.689c-.583.006-1.202-.244-1.803-.379.801-.19 1.618-.375 2.823-.659 1.027.328 1.7.54 2.385.75-1.126.106-2.257.269-3.405.288m86.87 2.926c7.119-1.77 13.318-.377 19.643.608-.131.551-.269 1.1-.39 1.657-6.472-.215-12.944-.423-19.398-.65.046-.53.092-1.073.145-1.615m-119.355-3.964c-7.139-.258-14.267-.513-21.393-.774.189-.43.396-.868.597-1.302l21.275.886c-.16.4-.325.795-.48 1.19m-6.81-8.166c-6.35 1.464-10.535 1.277-13.54-1.578 7.584-2.448 7.584-2.448 13.54 1.578m-58.227 16.468c-1.4.029-2.84-.19-4.264-.295.153-.248.31-.493.46-.74 2.485.006 4.96.004 7.447.01.129.178.29.352.425.532-1.362.175-2.702.46-4.068.493m1401.388-22.718c2.011-4.532-3.403-7.704-11.66-9.66-7.543-1.796-15.418-3.303-24.57-5.25 3.59-.87 6.305-1.535 9.91-2.426-1.47-.697-2.359-1.511-3.647-1.651-15.84-1.797-31.534-4.165-47.69-5.056-27.844-1.53-55.959-2.682-84.105-2.985-47.627-.507-95.375-.218-143.077-.292-29.484-.046-58.956-.243-88.464-.169-7.74.02-15.505.926-23.295 1.268-5.477.236-10.993.283-16.477.283-12.96 0-25.922-.18-38.893-.085-10.826.087-21.653.482-32.46.717-2.166.048-4.422-.253-6.476-.018-18.676 2.056-37.245.89-55.87.804-16.45-.082-33.02.71-49.461.567-31.245-.272-62.379-1.287-93.634-1.37-37.316-.1-74.741.758-112.05.68-67.273-.154-134.73 2.075-201.859.153-46.663-1.332-93.403-2.297-140.065-3.637-51.848-1.475-103.683-3.059-155.458-4.868-10.166-.367-19.968-2.146-30.067-2.971-5.343-.435-11.103-.643-16.496-.254-13.955 1.018-27.27 1.489-40.973-.782-8.115-1.338-17.938-.702-27.009-.866-10.878-.202-21.337-.635-30.93-3.447-4.31-1.264-10.716-1.095-16.214-1.432-3.284-.2-6.647-.117-9.725-.159-.355-.813-.857-1.237-.646-1.568 3.622-5.638.987-8.137-11.122-8.245-9.754-.074-16.622-1.075-20.308-5.483C29.77 1.328 25.455-.1 19.31.888c-6.196.99-7.11 3.346-6.634 5.955.03.132.076.268.118.402 4.238.443 6.727 3.236 1.908 4.594-1.282.364-2.453.733-3.699 1.09-.877.749-1.875 1.45-3.049 2.065 1.897.298 3.765.623 5.761.81 4.67.444 5.96 3.367 1.82 4.69C6.719 23.295 9.12 25.308 2.51 28.94c19.7 3.532 24.062 12.988 10.165 19.89 5.275.587-5.022-.26.492 0 2.875.14 5.075 1.741 4.235 3.033-2.789 4.333-3.282 8.736-6.4 12.887 9-.024 17.847-.052 26.89-1.266 4-.541-36.763 21.337-37.804 23.378-1.883 3.699 26.703 5.068 19.559 5.05 4.972.012 7.456 2.37 4.371 4.266-1.317.812-2.542 1.657-3.779 2.483 1.536-.419 3.052-.875 4.534-1.378 3.97-1.072 8.056-.11 8.657 1.918.984 3.286 2.698 6.506 4.005 9.756 5.015.21 9.962.502 14.944.613.437-2.076 2.52-4.311 6.279-6.44 4.478-2.522 10.002-2.606 15.399-1.54 8.633 1.707 17.35 2.09 26.648 1.007 2.498-.287 5.387-.426 7.754-.12 9.438 1.222 18.11 1.834 25.491-2.712 1.442-.885 6.51-.625 9.925-.724 3.276-.095 6.572.028 10.79.068-1.435-3.671-6.966-3.786-11.772-4.107-6.408-.426-12.985-.432-19.336-.939-3.35-.272-6.382-1.215-9.279-2.672 11.63-2.62 23.207-3.699 35.295-3.155 25.828 1.158 51.597 2.532 77.472 3.504 25.88.972 51.85 1.573 77.79 2.32 22.032.644 44.154 1.032 66.119 1.94 65.96 2.703 132.034 4.89 198.52 4.886 31.243-.002 62.497-.248 93.766-.434 4.663-.029 9.334-.35 14.355-1.476-2.055-.301-4.102-.857-6.188-.852-13.876.004-27.788.243-41.671.197-32.956-.09-65.915-.221-98.863-.48-12.125-.096-24.411-.139-36.272-1.03-14.396-1.082-28.916-.883-43.388-1.291-44.929-1.275-89.758-3.07-134.649-4.537-18.135-.594-36.371-.728-54.498-1.347-14.653-.505-29.236-1.346-43.79-2.176-4.452-.246-7.243-1.598-5.371-3.827 1.821-2.174 5.258-1.342 8.714-.844 15.232 2.148 30.586 3.071 46.891 1.294 15.179-1.648 30.233-.347 45.165.831 4.548.35 9.276.312 13.913.5 4.275.172 8.794.049 12.722.665 12.735 1.997 25.662 2.611 39.275 1.958 5.43-.262 11.002.512 16.504.83 4.66.268 9.595 1.201 13.908.722 21.884-2.422 43.3-.515 64.867-.16 19.472.319 38.898.99 58.365 1.42 3.705.085 7.5-.265 11.535-1.476-2.576-.29-5.098-.755-7.709-.832-42.34-1.301-84.727-2.492-127.053-3.86-6.5-.217-13.91.194-19.641-2.724 1.802-.702 2.928-1.428 4.31-1.602 2.489-.302 5.251-.51 7.72-.342 18.99 1.34 37.775 2.414 57.427 1.935 23.373-.563 46.775.567 70.139.963 2.179.035 4.575-.201 6.461.125 14.28 2.519 28.813 1.354 43.506.244 5.947-.445 12.124.041 18.196-.057 5.407-.088 10.803-.406 16.268-1.122-7.477-1.914-14.723-3.909-23.808-1.906-1.139.248-2.688.371-3.864.237-18.633-2.268-37.784.479-56.794-.377-35.675-1.609-71.765-1.781-107.611-2.853-34.14-1.015-68.187-2.422-102.291-3.663-.861-.026-1.738-.074-2.56-.177-4.468-.566-11.032-.797-9.572-3.678 1.595-3.1 7.633-1.582 12.14-1.398 12.89.519 25.812.933 38.711 1.394 36.665 1.338 73.3 2.801 110 3.952 22.43.706 44.975.94 67.47 1.372 2.162.038 4.332.044 6.5-.017 20.688-.592 41.377-1.229 62.07-1.775 4.768-.13 9.553.107 14.318.053 13.396-.165 26.79-.178 40.154-.702 4.923-.191 9.705-1.648 12.489-2.148 17.812.913 33.894 2.047 50.127 2.48 12.492.333 25.185-.229 37.78-.345 34.285-.327 68.583-.714 102.866-.889 23.752-.11 47.463.283 71.193.048 5.75-.054 11.767-1.474 17.306-2.674 7.535-1.635 14.96-2.018 22.925-1.5 5.952.39 12.1.307 18.157.488 3.004.088 6.964-.217 8.811.54 11.136 4.517 24.892 1.769 37.329 2.39 3.808.194 8.452-.887 12.125-1.89 15.888-4.348 31.321-4.245 46.911-.563 3.863.906 8.33 1.281 12.511 1.889.517-.36 1.04-.722 1.57-1.082-1.429-1.02-2.859-2.03-4.288-3.052.518-.31 1-.864 1.552-.888 17.645-.755 35.182-1.885 51.735 2.297 5.049 1.272 12.605.526 19.033.647 5.056.088 10.255-.213 15.163.182 6.815.546 12.728.48 18.02-2.15 4.18-2.075 8.883-3.197 15.166-1.691 2.243.526 5.928.219 8.728-.147 11.004-1.42 20.194-.479 30.622 1.728 9.41 1.988 21.81 1.38 32.919 1.431 16.848.07 33.757-.32 50.624-.387 1.718-.008 3.381.797 6.773 1.666-3.813.858-5.864 1.652-8 1.748-13.779.604-27.707-.577-41.45 1.606-2.088.34-5.073-.188-7.329-.632-8.725-1.726-16.84-1.178-24.579 1.57-1.385.497-2.85.988-4.433 1.326-9.209 1.936-14.496 1.174-20.318-2.898-13.27.527-26.621 1.02-39.943 1.628-2.4.112-5.653.428-6.953 1.198-4.31 2.539-10.137 2.22-15.606 2.508-7.555.399-15.457-.476-22.29 2.233-1.157.457-5.597.228-5.868-.136-2.967-4.252-9.585-1.91-15.119-1.772-6.924.179-13.85.122-20.791.204-11.765.142-12.726.591-13.605 6.173-.696 4.473-3.524 5.717-14.462 5.932-30.401.603-60.81 1.117-91.21 1.7-4.736.09-9.473.363-14.26 1.023 23.15 1.38 46.621.333 69.93.024 23.88-.31 47.797-1.123 71.677-1.516 23.872-.4 47.74-.55 73.143-.82-9.201 3.477-22.813-.347-29.217 5.982 3.493.332 6.188.823 8.919.801 18.244-.173 36.488-.404 54.725-.735 7.573-.136 14.442-.177 19.783 2.992 1.83 1.108 6.92 1.427 10.556 1.398 34.736-.318 69.447-.897 104.168-1.156 16.913-.128 33.765.39 50.69.364 14.32-.029 28.669-.344 42.994-.66 4.92-.11 10.454.296 13.046-2.923.557-.708 5.45-.968 8.316-1.015 8.266-.134 16.519 0 24.77-.073 10.296-.09 39.327-5.422 40.323-8.155.914-2.568 3.298-6.648-5.493-7.632-2.198-.252 5.75-1.68 3.516-1.908-.188-.02-.611-2.298-.8-2.318.011-2.196.668-2.794 1.97-1.792 4.247-3.232-25.55-4.438-18.576-4.894 8.498-.553 17.018-1.871 18.963-6.383z" transform="translate(58 -1628) translate(-58 1628) matrix(1 0 0 -1 0 110.142)"/>
            </g>
        </g>
    </g>
</svg>
